<?xml version="1.0" encoding="utf-8"?>
<!-- Generator: Adobe Illustrator 23.0.3, SVG Export Plug-In . SVG Version: 6.00 Build 0)  -->
<svg version="1.1" id="Layer_1" xmlns="http://www.w3.org/2000/svg" xmlns:xlink="http://www.w3.org/1999/xlink" x="0px" y="0px"
	 viewBox="0 0 692.1 375.6" style="enable-background:new 0 0 692.1 375.6;" xml:space="preserve">
<style type="text/css">
	.st0{fill:#F6B854;}
	.st1{fill:#FFFFFF;}
	.st2{fill:#FFAB57;}
	.st3{fill:#F9F5ED;}
	.st4{fill:#FAEED4;}
	.st5{opacity:0.6;fill:url(#Path_2530_1_);}
	.st6{fill:url(#Path_2344_1_);}
	.st7{fill:url(#Path_2533_1_);}
	.st8{fill:url(#Rectangle_715_1_);}
	.st9{fill:url(#Ellipse_149_1_);}
	.st10{fill:none;stroke:#FFFFFF;stroke-width:4;stroke-miterlimit:10;}
	.st11{fill:url(#Path_2348_1_);}
	.st12{fill:url(#Path_2349_1_);}
	.st13{fill:#494949;}
	.st14{fill:url(#Path_2350_1_);}
	.st15{fill:url(#Path_2351_1_);}
	.st16{fill:url(#Path_2352_1_);}
	.st17{fill:url(#Path_2353_1_);}
	.st18{fill:#F1FF5D;}
	.st19{fill:url(#Path_2355_1_);}
	.st20{fill:url(#Path_2356_1_);}
	.st21{fill:url(#Ellipse_626_1_);}
	.st22{fill:url(#Ellipse_627_1_);}
	.st23{fill:url(#Ellipse_628_1_);}
	.st24{fill:url(#Path_2357_1_);}
	.st25{fill:url(#Path_657_1_);}
	.st26{fill:url(#Path_660_1_);}
	.st27{fill:#444D6E;}
	.st28{fill:url(#Path_665_1_);}
	.st29{fill:url(#Path_663_1_);}
	.st30{fill:url(#Path_666_1_);}
	.st31{fill:url(#Path_668_1_);}
	.st32{fill:url(#Path_664_1_);}
	.st33{fill:url(#Path_672_1_);}
	.st34{fill:url(#Path_670_1_);}
	.st35{fill:#FFD3CA;}
	.st36{fill:url(#Path_662_1_);}
	.st37{fill:#FDD36D;}
	.st38{fill:#FCDA86;}
	.st39{fill:url(#Ellipse_629_1_);}
	.st40{fill:url(#Path_2358_1_);}
</style>
<g>
	<path class="st0" d="M89,149.9c16.3,3.9,32.2,9.7,47,17.6c8,4.3,17.2,9.5,25.1,15.8c-2.4-3.3-4.8-6.7-7.1-10.2
		c-8.9-13.5-16.6-27.9-22.7-42.9c-9.1-10.3-18-20.7-24.7-32.7c-14.6-25.9-11.8-54.9-6.2-83c12,16.4,25.5,33.4,33.4,51.9
		c4.8,11.3,7.9,23.8,6.8,36.2c-0.4,4.4-6.1,18.9-6.8,26.6c6.2,15.2,14.1,29.7,23.2,43.4c-1.2-4.2-1.8-8.7-1.7-13.1
		c0.1-8.4-1.1-16.7,0-25.2c2.3-17.8,7.4-35.3,15-51.6c4.2-9,9.1-17.6,14.7-25.8c2.9-4.2,6-8.3,9.3-12.3c2.5-3,8.2-7.2,9.6-10.6
		c-3.4,8.9-2.3,18.7-2.4,28.2c-0.3,19.3-5.9,38.1-13.6,55.6c-6.3,14.3-15.1,27.3-21.1,41.5c-2.5,5.9-4.9,11.8-6.5,18
		c7.8,11.2,16.4,21.8,25.6,31.8c5.9,6.3,12,12.4,18.4,18.3c-2.1-3.4-3.5-6.8-4.8-11.9c-2.2-8.5-2-17.1-3.8-25.5
		c0-26.4,6.6-52.9,19-76.2c-1.2,2.3,3.9,14.8,4.6,17.8c1.4,6.2,2.5,12.4,3.4,18.7c1.8,12.7,2.6,25.5,2.1,38.4
		c-0.3,8.5-1.2,17-2.6,25.4c-1.7,9.7-4.1,13.2-10.6,19.9c2.6,2.2,5.1,4.4,7.8,6.6c2.2,1.5,4.2,3.2,6.2,5
		c8.3,6.6,16.9,12.8,25.7,18.7c-1.4-2.2-2.8-4.7-4-7.7c-12.9-31.6-12.8-68.2,0.3-99.7c-2.6,30.1,17.9,57,25,86.3
		c2.9,12,3.5,24.5,4,36.9c15,8.8,30.5,16.8,46.2,24.3c1.6,0.7,0.3,3.1-1.3,2.4c-5.4-2.6-10.7-5.2-16-7.9
		c-38.4,20.7-91.4,24.7-133.9,21c-18.2-1.6-36.9-5.2-51.6-15.9c35.8-17,75.6-25.6,115.2-24.9c13.9,0.2,30.2,1.7,45,6.1
		c-5.8-3.3-11.5-6.7-17.2-10.3c-0.3-0.2-0.5-0.3-0.8-0.5c-0.2-0.1-0.4-0.3-0.6-0.4c-0.3-0.2-0.5-0.3-0.8-0.5
		c-5.3-3.4-10.6-6.8-15.8-10.4c-31.8-4.6-65.5,2.7-95.3-9.3c-13-5.2-24.5-14-33.1-25.1c-5.3-6.9-9.6-14.8-16.7-19.8
		c36.5-2.1,73.6,6.1,105.8,23.4c-12.5-11.2-24.2-23.3-34.7-36.3c-10.2,2.3-22,1.9-32.3,1.5c-40.3-1.3-80.1-14.6-112.8-38.2
		c-8.2-5.9-16.2-12.6-25.8-15.9C29.8,142,60,143,89,149.9z"/>
	<g>
		<path class="st1" d="M109.1,66.6c0.8-0.5,1.8-0.3,2.3,0.5c0.5,0.8,0.3,1.8-0.5,2.3c-0.8,0.5-1.8,0.3-2.3-0.5
			C108.1,68.1,108.3,67.1,109.1,66.6z"/>
		<path class="st1" d="M121.6,58.5c0.8-0.5,1.8-0.3,2.3,0.5c0.5,0.8,0.3,1.8-0.5,2.3c-0.8,0.5-1.8,0.3-2.3-0.5
			C120.6,60,120.8,59,121.6,58.5z"/>
		<path class="st1" d="M137.3,82.6c0.6-0.4,1.3-0.3,1.8,0c0.2,0.8,0.3,1.5,0.5,2.3c-0.1,0.2-0.3,0.4-0.5,0.5
			c-0.8,0.5-1.8,0.3-2.3-0.5C136.3,84.2,136.6,83.1,137.3,82.6z"/>
		<path class="st1" d="M126.8,66.5c0.8-0.5,1.8-0.3,2.3,0.5c0.5,0.8,0.3,1.8-0.5,2.3c-0.8,0.5-1.8,0.3-2.3-0.5
			C125.8,68,126.1,67,126.8,66.5z"/>
		<path class="st1" d="M132.1,74.6c0.8-0.5,1.8-0.3,2.3,0.5c0.5,0.8,0.3,1.8-0.5,2.3c-0.8,0.5-1.8,0.3-2.3-0.5
			C131.1,76.1,131.3,75.1,132.1,74.6z"/>
		<path class="st1" d="M159.4,171.5c0.8-0.5,1.8-0.3,2.3,0.5c0,0,0,0.1,0,0.1c-0.2,0.8-0.5,1.5-0.7,2.3c-0.7,0.4-1.6,0.1-2.1-0.6
			C158.4,173,158.7,172,159.4,171.5z"/>
		<path class="st1" d="M103.8,58.5c0.8-0.5,1.8-0.3,2.3,0.5c0.5,0.8,0.3,1.8-0.5,2.3c-0.8,0.5-1.8,0.3-2.3-0.5
			C102.8,60.1,103,59,103.8,58.5z"/>
		<path class="st1" d="M98.6,50.5c0.8-0.5,1.8-0.3,2.3,0.5c0.5,0.8,0.3,1.8-0.5,2.3c-0.8,0.5-1.8,0.3-2.3-0.5
			C97.6,52,97.8,51,98.6,50.5z"/>
		<path class="st1" d="M101.8,82.8c0.8-0.5,1.8-0.3,2.3,0.5c0.5,0.8,0.3,1.8-0.5,2.3c-0.8,0.5-1.8,0.3-2.3-0.5
			C100.8,84.3,101,83.3,101.8,82.8z"/>
		<path class="st1" d="M107,90.9c0.8-0.5,1.8-0.3,2.3,0.5c0.5,0.8,0.3,1.8-0.5,2.3c-0.8,0.5-1.8,0.3-2.3-0.5
			C106,92.4,106.2,91.4,107,90.9z"/>
		<path class="st1" d="M156,166.2c-0.1,0.1-0.2,0.1-0.3,0.1c-0.1-1-0.2-2.1-0.3-3.1c0.4,0.1,0.8,0.3,1.1,0.7
			C157,164.7,156.7,165.7,156,166.2z"/>
		<path class="st1" d="M163.3,150c-0.8,0.5-1.8,0.3-2.3-0.5c-0.5-0.8-0.3-1.8,0.5-2.3c0.8-0.5,1.8-0.3,2.3,0.5
			C164.3,148.5,164,149.5,163.3,150z"/>
		<path class="st1" d="M130,98.9c0.8-0.5,1.8-0.3,2.3,0.5c0.5,0.8,0.3,1.8-0.5,2.3c-0.8,0.5-1.8,0.3-2.3-0.5
			C129,100.4,129.3,99.4,130,98.9z"/>
		<path class="st1" d="M156.2,139.2c0.8-0.5,1.8-0.3,2.3,0.5c0.5,0.8,0.3,1.8-0.5,2.3c-0.8,0.5-1.8,0.3-2.3-0.5
			C155.2,140.7,155.5,139.7,156.2,139.2z"/>
		<path class="st1" d="M126.6,93.6c-0.8,0.5-1.8,0.3-2.3-0.5c-0.5-0.8-0.3-1.8,0.5-2.3c0.8-0.5,1.8-0.3,2.3,0.5
			C127.6,92,127.3,93.1,126.6,93.6z"/>
		<path class="st1" d="M135.3,106.9c0.8-0.5,1.8-0.3,2.3,0.5c0.5,0.8,0.3,1.8-0.5,2.3c-0.8,0.5-1.8,0.3-2.3-0.5
			C134.3,108.4,134.5,107.4,135.3,106.9z"/>
		<path class="st1" d="M138,141.5c-0.4-0.7-0.3-1.6,0.3-2.1c0.4,0.9,0.9,1.9,1.3,2.8C139,142.4,138.3,142.1,138,141.5z"/>
		<path class="st1" d="M143.2,149.6c-0.1-0.2-0.2-0.4-0.2-0.7c0.1,0.3,0.3,0.6,0.4,0.9C143.3,149.7,143.3,149.7,143.2,149.6z"/>
		<path class="st1" d="M114.3,74.7c0.8-0.5,1.8-0.3,2.3,0.5c0.5,0.8,0.3,1.8-0.5,2.3c-0.8,0.5-1.8,0.3-2.3-0.5
			C113.3,76.2,113.5,75.2,114.3,74.7z"/>
		<path class="st1" d="M135,134c-0.8,0.5-1.8,0.3-2.3-0.5c-0.5-0.8-0.3-1.8,0.5-2.3c0.4-0.3,0.9-0.3,1.3-0.2c0.3,0.8,0.7,1.6,1,2.4
			C135.4,133.6,135.2,133.8,135,134z"/>
		<path class="st1" d="M122.7,115.1c0.8-0.5,1.8-0.3,2.3,0.5c0.5,0.8,0.3,1.8-0.5,2.3c-0.8,0.5-1.8,0.3-2.3-0.5
			C121.7,116.6,122,115.6,122.7,115.1z"/>
		<path class="st1" d="M111.1,42.3c0.8-0.5,1.8-0.3,2.3,0.5c0.5,0.8,0.3,1.8-0.5,2.3c-0.8,0.5-1.8,0.3-2.3-0.5
			C110.1,43.9,110.3,42.8,111.1,42.3z"/>
		<path class="st1" d="M116.3,50.4c0.8-0.5,1.8-0.3,2.3,0.5c0.5,0.8,0.3,1.8-0.5,2.3c-0.8,0.5-1.8,0.3-2.3-0.5
			C115.4,51.9,115.6,50.9,116.3,50.4z"/>
		<path class="st1" d="M129.8,125.9c-0.8,0.5-1.8,0.3-2.3-0.5c-0.5-0.8-0.3-1.8,0.5-2.3c0.8-0.5,1.8-0.3,2.3,0.5
			C130.8,124.4,130.5,125.4,129.8,125.9z"/>
		<path class="st1" d="M119.5,82.7c0.8-0.5,1.8-0.3,2.3,0.5c0.5,0.8,0.3,1.8-0.5,2.3c-0.8,0.5-1.8,0.3-2.3-0.5
			C118.6,84.3,118.8,83.2,119.5,82.7z"/>
		<path class="st1" d="M254.4,262.8c-0.8,0.5-1.8,0.3-2.3-0.5c-0.5-0.8-0.3-1.8,0.5-2.3c0.8-0.5,1.8-0.3,2.3,0.5
			C255.4,261.3,255.2,262.3,254.4,262.8z"/>
		<path class="st1" d="M316.2,302.9c-0.8,0.5-1.8,0.3-2.3-0.5c-0.5-0.7-0.3-1.6,0.4-2.2c0.9,0.4,1.8,0.9,2.6,1.3
			C316.9,302.1,316.7,302.6,316.2,302.9z"/>
		<path class="st1" d="M247.4,251.9c0.8-0.5,1.8-0.3,2.3,0.5c0.5,0.8,0.3,1.8-0.5,2.3c-0.8,0.5-1.8,0.3-2.3-0.5
			C246.4,253.5,246.6,252.4,247.4,251.9z"/>
		<path class="st1" d="M293.7,292.6c0.5,0.8,0.3,1.8-0.5,2.3c-0.8,0.5-1.8,0.3-2.3-0.5c-0.5-0.8-0.3-1.8,0.5-2.3
			C292.2,291.7,293.2,291.9,293.7,292.6z"/>
		<path class="st1" d="M231.9,252.5c0.5,0.8,0.3,1.8-0.5,2.3c-0.8,0.5-1.8,0.3-2.3-0.5c-0.5-0.8-0.3-1.8,0.5-2.3
			C230.4,251.5,231.4,251.7,231.9,252.5z"/>
		<path class="st1" d="M288.2,286.7c-0.1,0.1-0.1,0.2-0.2,0.2c-0.8,0.5-1.8,0.3-2.3-0.5c-0.3-0.4-0.3-0.8-0.2-1.3
			C286.4,285.6,287.3,286.1,288.2,286.7z"/>
		<path class="st1" d="M244.2,219.6c0.8-0.5,1.8-0.3,2.3,0.5c0.5,0.8,0.3,1.8-0.5,2.3c-0.8,0.5-1.8,0.3-2.3-0.5
			C243.2,221.1,243.4,220.1,244.2,219.6z"/>
		<path class="st1" d="M100.6,26.2c0.8-0.5,1.8-0.3,2.3,0.5c0.5,0.8,0.3,1.8-0.5,2.3c-0.8,0.5-1.8,0.3-2.3-0.5
			C99.6,27.7,99.9,26.7,100.6,26.2z"/>
		<path class="st1" d="M257.9,268.1c0.8-0.5,1.8-0.3,2.3,0.5c0.5,0.8,0.3,1.8-0.5,2.3s-1.8,0.3-2.3-0.5
			C256.9,269.6,257.1,268.6,257.9,268.1z"/>
		<path class="st1" d="M249.5,227.7c0.8-0.5,1.8-0.3,2.3,0.5c0.5,0.8,0.3,1.8-0.5,2.3c-0.8,0.5-1.8,0.3-2.3-0.5
			C248.5,229.2,248.7,228.2,249.5,227.7z"/>
		<path class="st1" d="M239,211.5c0.8-0.5,1.8-0.3,2.3,0.5c0.5,0.8,0.3,1.8-0.5,2.3c-0.8,0.5-1.8,0.3-2.3-0.5
			C238,213.1,238.2,212,239,211.5z"/>
		<path class="st1" d="M226.5,246.4c-0.1,0.1-0.2,0.3-0.4,0.3c-0.8,0.5-1.8,0.3-2.3-0.5c-0.4-0.6-0.3-1.4,0.1-1.9
			c0.4,0.4,0.9,0.7,1.3,1.1C225.7,245.8,226.1,246.1,226.5,246.4z"/>
		<path class="st1" d="M256.5,238.5c-0.8,0.5-1.8,0.3-2.3-0.5c-0.5-0.8-0.3-1.8,0.5-2.3c0.8-0.5,1.8-0.3,2.3,0.5
			C257.5,237,257.3,238,256.5,238.5z"/>
		<path class="st1" d="M174.7,85.2c-0.8,0.5-1.8,0.3-2.3-0.5c-0.5-0.8-0.3-1.8,0.5-2.3c0.8-0.5,1.8-0.3,2.3,0.5
			C175.7,83.7,175.4,84.7,174.7,85.2z"/>
		<path class="st1" d="M183.1,125.6c-0.8,0.5-1.8,0.3-2.3-0.5c-0.5-0.8-0.3-1.8,0.5-2.3c0.8-0.5,1.8-0.3,2.3,0.5
			C184.1,124.1,183.9,125.1,183.1,125.6z"/>
		<path class="st1" d="M177.9,117.6c-0.8,0.5-1.8,0.3-2.3-0.5c-0.5-0.8-0.3-1.8,0.5-2.3c0.8-0.5,1.8-0.3,2.3,0.5
			C178.8,116,178.6,117.1,177.9,117.6z"/>
		<path class="st1" d="M172.6,109.5c-0.8,0.5-1.8,0.3-2.3-0.5c-0.5-0.8-0.3-1.8,0.5-2.3c0.8-0.5,1.8-0.3,2.3,0.5
			C173.6,108,173.4,109,172.6,109.5z"/>
		<path class="st1" d="M105.9,34.3c0.8-0.5,1.8-0.3,2.3,0.5c0.5,0.8,0.3,1.8-0.5,2.3c-0.8,0.5-1.8,0.3-2.3-0.5
			C104.9,35.8,105.1,34.8,105.9,34.3z"/>
		<path class="st1" d="M179.9,93.3c-0.8,0.5-1.8,0.3-2.3-0.5c-0.5-0.8-0.3-1.8,0.5-2.3c0.8-0.5,1.8-0.3,2.3,0.5
			C180.9,91.8,180.7,92.8,179.9,93.3z"/>
		<path class="st1" d="M210.9,220.3c0.5,0.8,0.3,1.8-0.5,2.3c-0.8,0.5-1.8,0.3-2.3-0.5c-0.5-0.8-0.3-1.8,0.5-2.3
			C209.4,219.3,210.4,219.5,210.9,220.3z"/>
		<path class="st1" d="M166.2,157.6c-0.5-0.8-0.3-1.8,0.5-2.3c0.6-0.4,1.2-0.3,1.8,0c-0.5,1-0.9,2-1.3,3
			C166.8,158.1,166.5,157.9,166.2,157.6z"/>
		<path class="st1" d="M170.6,133.8c-0.8,0.5-1.8,0.3-2.3-0.5c-0.5-0.8-0.3-1.8,0.5-2.3c0.8-0.5,1.8-0.3,2.3,0.5
			C171.6,132.3,171.3,133.3,170.6,133.8z"/>
		<path class="st1" d="M167.4,101.4c-0.8,0.5-1.8,0.3-2.3-0.5c-0.5-0.8-0.3-1.8,0.5-2.3c0.8-0.5,1.8-0.3,2.3,0.5
			C168.4,99.9,168.1,100.9,167.4,101.4z"/>
		<path class="st1" d="M160.6,115.4c0.5,0.8,0.3,1.8-0.5,2.3c-0.6,0.4-1.3,0.3-1.8,0c0.2-1,0.4-2,0.7-3
			C159.6,114.6,160.2,114.8,160.6,115.4z"/>
		<path class="st1" d="M163.5,123c0.8-0.5,1.8-0.3,2.3,0.5c0.5,0.8,0.3,1.8-0.5,2.3c-0.8,0.5-1.8,0.3-2.3-0.5
			C162.5,124.5,162.8,123.4,163.5,123z"/>
		<path class="st1" d="M266.3,308.5c0.8-0.5,1.8-0.3,2.3,0.5c0.5,0.8,0.3,1.8-0.5,2.3c-0.8,0.5-1.8,0.3-2.3-0.5
			C265.3,310,265.6,309,266.3,308.5z"/>
		<path class="st1" d="M132.3,212.1c0.8-0.5,1.8-0.3,2.3,0.5c0.5,0.8,0.3,1.8-0.5,2.3c-0.8,0.5-1.8,0.3-2.3-0.5
			C131.3,213.6,131.5,212.6,132.3,212.1z"/>
		<path class="st1" d="M115.2,158.3c-0.8,0.5-1.8,0.3-2.3-0.5c-0.2-0.2-0.2-0.5-0.2-0.8c0.9,0.3,1.8,0.7,2.8,1.1
			C115.3,158.2,115.3,158.3,115.2,158.3z"/>
		<path class="st1" d="M137.5,220.1c0.8-0.5,1.8-0.3,2.3,0.5c0.5,0.8,0.3,1.8-0.5,2.3c-0.8,0.5-1.8,0.3-2.3-0.5
			C136.6,221.7,136.8,220.6,137.5,220.1z"/>
		<path class="st1" d="M107.9,174.5c-0.8,0.5-1.8,0.3-2.3-0.5c-0.5-0.8-0.3-1.8,0.5-2.3c0.8-0.5,1.8-0.3,2.3,0.5
			C108.9,173,108.7,174,107.9,174.5z"/>
		<path class="st1" d="M97.4,158.4c-0.8,0.5-1.8,0.3-2.3-0.5c-0.5-0.8-0.3-1.8,0.5-2.3c0.8-0.5,1.8-0.3,2.3,0.5
			C98.4,156.9,98.2,157.9,97.4,158.4z"/>
		<path class="st1" d="M142.8,228.2c0.8-0.5,1.8-0.3,2.3,0.5c0.5,0.8,0.3,1.8-0.5,2.3c-0.8,0.5-1.8,0.3-2.3-0.5
			C141.8,229.7,142,228.7,142.8,228.2z"/>
		<path class="st1" d="M102.6,166.5c-0.8,0.5-1.8,0.3-2.3-0.5c-0.5-0.8-0.3-1.8,0.5-2.3c0.8-0.5,1.8-0.3,2.3,0.5
			C103.6,165,103.4,166,102.6,166.5z"/>
		<path class="st1" d="M114,101.7c-0.8,0.5-1.8,0.3-2.3-0.5c-0.5-0.8-0.3-1.8,0.5-2.3c0.8-0.5,1.8-0.3,2.3,0.5
			C115,100.2,114.8,101.2,114,101.7z"/>
		<path class="st1" d="M202.5,292.6c0.8-0.5,1.8-0.3,2.3,0.5c0.5,0.8,0.3,1.8-0.5,2.3c-0.8,0.5-1.8,0.3-2.3-0.5
			C201.5,294.1,201.7,293.1,202.5,292.6z"/>
		<path class="st1" d="M148,236.3c0.8-0.5,1.8-0.3,2.3,0.5c0.5,0.8,0.3,1.8-0.5,2.3c-0.8,0.5-1.8,0.3-2.3-0.5
			C147,237.8,147.3,236.8,148,236.3z"/>
		<path class="st1" d="M153.3,244.3c0.8-0.5,1.8-0.3,2.3,0.5c0.5,0.8,0.3,1.8-0.5,2.3c-0.8,0.5-1.8,0.3-2.3-0.5
			C152.3,245.9,152.5,244.8,153.3,244.3z"/>
		<path class="st1" d="M158.5,252.4c0.8-0.5,1.8-0.3,2.3,0.5c0.5,0.8,0.3,1.8-0.5,2.3c-0.8,0.5-1.8,0.3-2.3-0.5
			C157.5,253.9,157.7,252.9,158.5,252.4z"/>
		<path class="st1" d="M70.5,172c0.8-0.5,1.8-0.3,2.3,0.5c0.5,0.8,0.3,1.8-0.5,2.3c-0.8,0.5-1.8,0.3-2.3-0.5
			C69.5,173.5,69.8,172.5,70.5,172z"/>
		<path class="st1" d="M56.6,150.5c-0.8,0.5-1.8,0.3-2.3-0.5c-0.5-0.8-0.3-1.8,0.5-2.3c0.8-0.5,1.8-0.3,2.3,0.5
			C57.6,149,57.4,150,56.6,150.5z"/>
		<path class="st1" d="M65.3,163.9c0.8-0.5,1.8-0.3,2.3,0.5c0.5,0.8,0.3,1.8-0.5,2.3c-0.8,0.5-1.8,0.3-2.3-0.5
			C64.3,165.4,64.5,164.4,65.3,163.9z"/>
		<path class="st1" d="M199.1,287.3c-0.8,0.5-1.8,0.3-2.3-0.5c-0.5-0.8-0.3-1.8,0.5-2.3c0.8-0.5,1.8-0.3,2.3,0.5
			C200,285.8,199.8,286.8,199.1,287.3z"/>
		<path class="st1" d="M60,155.8c0.8-0.5,1.8-0.3,2.3,0.5c0.5,0.8,0.3,1.8-0.5,2.3c-0.8,0.5-1.8,0.3-2.3-0.5
			C59.1,157.4,59.3,156.3,60,155.8z"/>
		<path class="st1" d="M75.8,180c0.8-0.5,1.8-0.3,2.3,0.5c0.5,0.8,0.3,1.8-0.5,2.3c-0.8,0.5-1.8,0.3-2.3-0.5
			C74.8,181.5,75,180.5,75.8,180z"/>
		<path class="st1" d="M24.5,156c0.8-0.5,1.8-0.3,2.3,0.5c0.5,0.8,0.3,1.8-0.5,2.3c-0.3,0.2-0.6,0.3-1,0.2c-0.5-0.3-1-0.7-1.4-1.1
			C23.6,157.3,23.8,156.4,24.5,156z"/>
		<path class="st1" d="M116.6,187.9c0.8-0.5,1.8-0.3,2.3,0.5c0.5,0.8,0.3,1.8-0.5,2.3c-0.8,0.5-1.8,0.3-2.3-0.5
			C115.6,189.4,115.8,188.4,116.6,187.9z"/>
		<path class="st1" d="M52.7,172c0.8-0.5,1.8-0.3,2.3,0.5c0.5,0.8,0.3,1.8-0.5,2.3c-0.8,0.5-1.8,0.3-2.3-0.5
			C51.8,173.6,52,172.5,52.7,172z"/>
		<path class="st1" d="M113.1,182.6c-0.8,0.5-1.8,0.3-2.3-0.5c-0.5-0.8-0.3-1.8,0.5-2.3c0.8-0.5,1.8-0.3,2.3,0.5
			C114.1,181.1,113.9,182.1,113.1,182.6z"/>
		<path class="st1" d="M38.8,150.6c-0.8,0.5-1.8,0.3-2.3-0.5c-0.5-0.8-0.3-1.8,0.5-2.3c0.8-0.5,1.8-0.3,2.3,0.5
			C39.8,149.1,39.6,150.1,38.8,150.6z"/>
		<path class="st1" d="M47.5,164c0.8-0.5,1.8-0.3,2.3,0.5c0.5,0.8,0.3,1.8-0.5,2.3c-0.8,0.5-1.8,0.3-2.3-0.5
			C46.5,165.5,46.7,164.5,47.5,164z"/>
		<path class="st1" d="M42.3,155.9c0.8-0.5,1.8-0.3,2.3,0.5c0.5,0.8,0.3,1.8-0.5,2.3c-0.8,0.5-1.8,0.3-2.3-0.5
			C41.3,157.4,41.5,156.4,42.3,155.9z"/>
		<path class="st1" d="M235.5,319c-0.5-0.8-0.3-1.8,0.5-2.3c0.8-0.5,1.8-0.3,2.3,0.5c0.3,0.4,0.3,1,0.1,1.4
			C237.5,318.8,236.5,318.9,235.5,319C235.5,319,235.5,319,235.5,319z"/>
		<path class="st1" d="M262.9,303.2c-0.8,0.5-1.8,0.3-2.3-0.5c-0.5-0.8-0.3-1.8,0.5-2.3c0.8-0.5,1.8-0.3,2.3,0.5
			C263.9,301.7,263.6,302.7,262.9,303.2z"/>
		<path class="st1" d="M257.6,295.1c-0.8,0.5-1.8,0.3-2.3-0.5c-0.5-0.8-0.3-1.8,0.5-2.3c0.8-0.5,1.8-0.3,2.3,0.5
			C258.6,293.6,258.4,294.6,257.6,295.1z"/>
		<path class="st1" d="M239.9,295.2c-0.8,0.5-1.8,0.3-2.3-0.5c-0.5-0.8-0.3-1.8,0.5-2.3s1.8-0.3,2.3,0.5
			C240.8,293.7,240.6,294.7,239.9,295.2z"/>
		<path class="st1" d="M259.9,243.8c0.8-0.5,1.8-0.3,2.3,0.5c0.5,0.8,0.3,1.8-0.5,2.3c-0.8,0.5-1.8,0.3-2.3-0.5
			C259,245.3,259.2,244.3,259.9,243.8z"/>
		<path class="st1" d="M245.1,303.3c-0.8,0.5-1.8,0.3-2.3-0.5c-0.5-0.8-0.3-1.8,0.5-2.3c0.8-0.5,1.8-0.3,2.3,0.5
			C246.1,301.7,245.9,302.8,245.1,303.3z"/>
		<path class="st1" d="M248.5,308.6c0.8-0.5,1.8-0.3,2.3,0.5c0.5,0.8,0.3,1.8-0.5,2.3c-0.8,0.5-1.8,0.3-2.3-0.5
			C247.6,310.1,247.8,309.1,248.5,308.6z"/>
		<path class="st1" d="M185.6,211.8c0.8-0.5,1.8-0.3,2.3,0.5c0.5,0.8,0.3,1.8-0.5,2.3c0,0-0.1,0-0.1,0.1c-0.7-0.8-1.4-1.5-2.2-2.3
			C185.3,212.1,185.4,211.9,185.6,211.8z"/>
		<path class="st1" d="M200.5,204.1c0.5,0.8,0.3,1.8-0.5,2.3c-0.8,0.5-1.8,0.3-2.3-0.5c0-0.1,0-0.1-0.1-0.2c0-0.4-0.1-0.7-0.1-1.1
			c0.1-0.4,0.3-0.7,0.7-1C198.9,203.2,200,203.4,200.5,204.1z"/>
		<path class="st1" d="M252.4,287c-0.8,0.5-1.8,0.3-2.3-0.5c-0.5-0.8-0.3-1.8,0.5-2.3c0.8-0.5,1.8-0.3,2.3,0.5
			C253.4,285.5,253.2,286.6,252.4,287z"/>
		<path class="st1" d="M117.5,107c0.8-0.5,1.8-0.3,2.3,0.5c0.5,0.8,0.3,1.8-0.5,2.3c-0.8,0.5-1.8,0.3-2.3-0.5
			C116.5,108.5,116.7,107.5,117.5,107z"/>
		<path class="st1" d="M174.7,198c-0.3-0.5-0.3-1.1-0.1-1.6c0.6,0.8,1.3,1.5,1.9,2.3C175.8,198.8,175.1,198.6,174.7,198z"/>
		<path class="st1" d="M182.2,206.5c-0.8,0.5-1.8,0.3-2.3-0.5c-0.5-0.8-0.3-1.8,0.5-2.3c0.1-0.1,0.3-0.1,0.4-0.2
			c0.7,0.7,1.3,1.5,2,2.2C182.6,206.1,182.5,206.3,182.2,206.5z"/>
		<path class="st1" d="M184.7,292.7c0.8-0.5,1.8-0.3,2.3,0.5c0.5,0.8,0.3,1.8-0.5,2.3c-0.8,0.5-1.8,0.3-2.3-0.5
			C183.7,294.2,184,293.2,184.7,292.7z"/>
		<path class="st1" d="M181.3,287.4c-0.8,0.5-1.8,0.3-2.3-0.5c-0.5-0.8-0.3-1.8,0.5-2.3c0.8-0.5,1.8-0.3,2.3,0.5
			C182.3,285.9,182,286.9,181.3,287.4z"/>
		<path class="st1" d="M207.7,300.7c0.8-0.5,1.8-0.3,2.3,0.5c0.5,0.8,0.3,1.8-0.5,2.3c-0.8,0.5-1.8,0.3-2.3-0.5
			C206.8,302.2,207,301.2,207.7,300.7z"/>
		<path class="st1" d="M190,300.8c0.8-0.5,1.8-0.3,2.3,0.5c0.5,0.8,0.3,1.8-0.5,2.3c-0.8,0.5-1.8,0.3-2.3-0.5
			C189,302.3,189.2,301.3,190,300.8z"/>
		<path class="st1" d="M218.2,316.8c0.8-0.5,1.8-0.3,2.3,0.5c0.5,0.8,0.3,1.8-0.5,2.3c-0.8,0.5-1.8,0.3-2.3-0.5
			C217.2,318.3,217.5,317.3,218.2,316.8z"/>
		<path class="st1" d="M213,308.7c0.8-0.5,1.8-0.3,2.3,0.5c0.5,0.8,0.3,1.8-0.5,2.3c-0.8,0.5-1.8,0.3-2.3-0.5
			C212,310.3,212.2,309.2,213,308.7z"/>
		<path class="st1" d="M195.2,308.8c0.8-0.5,1.8-0.3,2.3,0.5c0.5,0.8,0.3,1.8-0.5,2.3c-0.8,0.5-1.8,0.3-2.3-0.5
			C194.2,310.3,194.4,309.3,195.2,308.8z"/>
		<path class="st1" d="M177.4,308.9c0.8-0.5,1.8-0.3,2.3,0.5c0.5,0.8,0.3,1.8-0.5,2.3c-0.8,0.5-1.8,0.3-2.3-0.5
			C176.4,310.4,176.7,309.4,177.4,308.9z"/>
		<path class="st1" d="M200.4,316.9c0.8-0.5,1.8-0.3,2.3,0.5c0.5,0.8,0.3,1.8-0.5,2.3c-0.8,0.5-1.8,0.3-2.3-0.5
			C199.5,318.4,199.7,317.4,200.4,316.9z"/>
		<path class="st1" d="M143.9,172.1c0.5,0.8,0.3,1.8-0.5,2.3c-0.8,0.5-1.8,0.3-2.3-0.5c-0.5-0.8-0.3-1.8,0.5-2.3
			c0.5-0.3,1-0.3,1.5-0.1c0.1,0.1,0.3,0.2,0.4,0.2C143.7,171.8,143.8,171.9,143.9,172.1z"/>
		<path class="st1" d="M182.7,317c0.8-0.5,1.8-0.3,2.3,0.5c0.5,0.8,0.3,1.8-0.5,2.3c-0.8,0.5-1.8,0.3-2.3-0.5
			C181.7,318.5,181.9,317.5,182.7,317z"/>
		<path class="st1" d="M168.7,295.6c-0.8,0.5-1.8,0.3-2.3-0.5c-0.5-0.8-0.3-1.8,0.5-2.3c0.8-0.5,1.8-0.3,2.3,0.5
			C169.7,294,169.5,295.1,168.7,295.6z"/>
		<path class="st1" d="M172.2,300.9c0.8-0.5,1.8-0.3,2.3,0.5c0.5,0.8,0.3,1.8-0.5,2.3c-0.8,0.5-1.8,0.3-2.3-0.5
			C171.2,302.4,171.4,301.4,172.2,300.9z"/>
		<path class="st1" d="M187.2,77.1c-0.8,0.5-1.8,0.3-2.3-0.5c-0.5-0.8-0.3-1.8,0.5-2.3c0.8-0.5,1.8-0.3,2.3,0.5
			C188.2,75.6,188,76.6,187.2,77.1z"/>
		<path class="st1" d="M120.4,166.4c-0.8,0.5-1.8,0.3-2.3-0.5c-0.5-0.8-0.3-1.8,0.5-2.3c0.8-0.5,1.8-0.3,2.3,0.5
			C121.4,164.9,121.2,165.9,120.4,166.4z"/>
		<path class="st1" d="M133.9,190.1c-0.5-0.8-0.3-1.8,0.5-2.3c0.8-0.5,1.8-0.3,2.3,0.5c0.5,0.8,0.3,1.8-0.5,2.3
			C135.4,191.1,134.4,190.9,133.9,190.1z"/>
		<path class="st1" d="M125.7,174.5c-0.8,0.5-1.8,0.3-2.3-0.5c-0.5-0.8-0.3-1.8,0.5-2.3c0.8-0.5,1.8-0.3,2.3,0.5
			C126.6,172.9,126.4,174,125.7,174.5z"/>
		<path class="st1" d="M130.9,182.5c-0.8,0.5-1.8,0.3-2.3-0.5c-0.5-0.8-0.3-1.8,0.5-2.3c0.8-0.5,1.8-0.3,2.3,0.5
			C131.9,181,131.7,182,130.9,182.5z"/>
		<path class="st1" d="M139.6,195.9c0.8-0.5,1.8-0.3,2.3,0.5c0.3,0.4,0.3,0.9,0.2,1.3c-1.1,0-2.1-0.1-3.2-0.1
			C138.7,196.9,139,196.3,139.6,195.9z"/>
		<path class="st1" d="M157.4,195.8c0.8-0.5,1.8-0.3,2.3,0.5c0.3,0.4,0.3,0.9,0.2,1.3c-1,0.1-2.1,0.1-3.1,0.2
			C156.5,197,156.7,196.2,157.4,195.8z"/>
		<path class="st1" d="M206.1,133.6c-0.2,0.1-0.4,0.2-0.6,0.2c0.3-0.9,0.6-1.7,1-2.6c0,0,0.1,0,0.1,0.1
			C207.1,132.1,206.9,133.1,206.1,133.6z"/>
		<path class="st1" d="M192.5,85.1c-0.8,0.5-1.8,0.3-2.3-0.5c-0.5-0.8-0.3-1.8,0.5-2.3c0.8-0.5,1.8-0.3,2.3,0.5
			C193.4,83.6,193.2,84.6,192.5,85.1z"/>
		<path class="st1" d="M135.5,244.4c0.8-0.5,1.8-0.3,2.3,0.5c0.5,0.8,0.3,1.8-0.5,2.3c-0.1,0.1-0.3,0.1-0.4,0.2
			c-0.7-0.4-1.4-0.9-2.1-1.4C134.7,245.4,134.9,244.8,135.5,244.4z"/>
		<path class="st1" d="M114.5,212.2c0.8-0.5,1.8-0.3,2.3,0.5c0.5,0.8,0.3,1.8-0.5,2.3c-0.8,0.5-1.8,0.3-2.3-0.5
			C113.5,213.7,113.7,212.7,114.5,212.2z"/>
		<path class="st1" d="M213.4,117.4c-0.3,0.2-0.6,0.2-0.9,0.2c0.4-0.9,0.9-1.7,1.3-2.6c0,0,0,0,0,0.1
			C214.4,115.9,214.2,116.9,213.4,117.4z"/>
		<path class="st1" d="M197.9,230.7c-0.8,0.5-1.8,0.3-2.3-0.5c-0.5-0.8-0.3-1.8,0.5-2.3c0.1-0.1,0.2-0.1,0.3-0.1
			c0.7,0.3,1.4,0.6,2.1,1C198.8,229.5,198.6,230.3,197.9,230.7z"/>
		<path class="st1" d="M229.4,279.1c-0.6,0.4-1.3,0.3-1.9-0.1C228.1,279,228.8,279,229.4,279.1C229.4,279,229.4,279.1,229.4,279.1z"
			/>
		<path class="st1" d="M194.1,252.2c0.8-0.5,1.8-0.3,2.3,0.5c0.5,0.8,0.3,1.8-0.5,2.3c-0.8,0.5-1.8,0.3-2.3-0.5
			C193.1,253.7,193.3,252.7,194.1,252.2z"/>
		<path class="st1" d="M183.6,236.1c0.8-0.5,1.8-0.3,2.3,0.5c0.5,0.8,0.3,1.8-0.5,2.3c-0.8,0.5-1.8,0.3-2.3-0.5
			C182.6,237.6,182.8,236.6,183.6,236.1z"/>
		<path class="st1" d="M188.8,244.1c0.8-0.5,1.8-0.3,2.3,0.5c0.5,0.8,0.3,1.8-0.5,2.3c-0.8,0.5-1.8,0.3-2.3-0.5
			C187.8,245.7,188.1,244.6,188.8,244.1z"/>
		<path class="st1" d="M174.9,222.7c-0.8,0.5-1.8,0.3-2.3-0.5c-0.5-0.8-0.3-1.8,0.5-2.3c0.8-0.5,1.8-0.3,2.3,0.5
			C175.9,221.2,175.7,222.2,174.9,222.7z"/>
		<path class="st1" d="M199.3,260.3c0.8-0.5,1.8-0.3,2.3,0.5c0.1,0.2,0.2,0.3,0.2,0.5c-1.1,0-2.1,0-3.2,0
			C198.7,260.9,198.9,260.5,199.3,260.3z"/>
		<path class="st1" d="M178.3,228c0.8-0.5,1.8-0.3,2.3,0.5c0.5,0.8,0.3,1.8-0.5,2.3c-0.8,0.5-1.8,0.3-2.3-0.5
			C177.4,229.5,177.6,228.5,178.3,228z"/>
		<path class="st1" d="M162.4,230.9c-0.8,0.5-1.8,0.3-2.3-0.5c-0.5-0.8-0.3-1.8,0.5-2.3c0.8-0.5,1.8-0.3,2.3,0.5
			C163.3,229.4,163.1,230.4,162.4,230.9z"/>
		<path class="st1" d="M176.3,252.3c0.8-0.5,1.8-0.3,2.3,0.5c0.5,0.8,0.3,1.8-0.5,2.3c-0.8,0.5-1.8,0.3-2.3-0.5
			C175.3,253.8,175.5,252.8,176.3,252.3z"/>
		<path class="st1" d="M171,244.2c0.8-0.5,1.8-0.3,2.3,0.5c0.5,0.8,0.3,1.8-0.5,2.3c-0.8,0.5-1.8,0.3-2.3-0.5
			C170.1,245.8,170.3,244.7,171,244.2z"/>
		<path class="st1" d="M165.8,236.2c0.8-0.5,1.8-0.3,2.3,0.5c0.5,0.8,0.3,1.8-0.5,2.3c-0.8,0.5-1.8,0.3-2.3-0.5
			C164.8,237.7,165,236.7,165.8,236.2z"/>
		<path class="st1" d="M183.7,260.8c-0.8-0.1-1.6-0.1-2.4-0.2c0.1-0.1,0.1-0.2,0.2-0.2C182.3,259.9,183.2,260.1,183.7,260.8z"/>
		<path class="st1" d="M155.3,220.1c0.8-0.5,1.8-0.3,2.3,0.5c0.5,0.8,0.3,1.8-0.5,2.3c-0.8,0.5-1.8,0.3-2.3-0.5
			C154.3,221.6,154.6,220.6,155.3,220.1z"/>
		<path class="st1" d="M159.6,309c0.8-0.5,1.8-0.3,2.3,0.5c0.5,0.8,0.3,1.8-0.5,2.3c-0.8,0.5-1.8,0.3-2.3-0.5
			C158.7,310.5,158.9,309.5,159.6,309z"/>
		<path class="st1" d="M77.8,155.7c0.8-0.5,1.8-0.3,2.3,0.5c0.5,0.8,0.3,1.8-0.5,2.3c-0.8,0.5-1.8,0.3-2.3-0.5
			C76.8,157.3,77.1,156.2,77.8,155.7z"/>
		<path class="st1" d="M136.6,301c0.8-0.5,1.8-0.3,2.3,0.5c0.5,0.8,0.3,1.8-0.5,2.3c-0.8,0.5-1.8,0.3-2.3-0.5
			C135.6,302.6,135.9,301.5,136.6,301z"/>
		<path class="st1" d="M93.5,179.9c0.8-0.5,1.8-0.3,2.3,0.5c0.5,0.8,0.3,1.8-0.5,2.3c-0.8,0.5-1.8,0.3-2.3-0.5
			C92.6,181.4,92.8,180.4,93.5,179.9z"/>
		<path class="st1" d="M88.3,171.9c0.8-0.5,1.8-0.3,2.3,0.5c0.5,0.8,0.3,1.8-0.5,2.3c-0.8,0.5-1.8,0.3-2.3-0.5
			C87.3,173.4,87.5,172.4,88.3,171.9z"/>
		<path class="st1" d="M72.6,147.7c0.8-0.5,1.8-0.3,2.3,0.5c0.5,0.8,0.3,1.8-0.5,2.3c-0.8,0.5-1.8,0.3-2.3-0.5
			C71.6,149.2,71.8,148.2,72.6,147.7z"/>
		<path class="st1" d="M124.1,196.4c0,0,0,0.1,0.1,0.2c-0.9-0.1-1.8-0.2-2.7-0.3c0.1-0.1,0.2-0.2,0.3-0.3
			C122.6,195.5,123.6,195.7,124.1,196.4z"/>
		<path class="st1" d="M83.1,163.8c0.8-0.5,1.8-0.3,2.3,0.5c0.5,0.8,0.3,1.8-0.5,2.3c-0.8,0.5-1.8,0.3-2.3-0.5
			C82.1,165.3,82.3,164.3,83.1,163.8z"/>
		<path class="st1" d="M19.2,148c0.8-0.5,1.8-0.3,2.3,0.5c0.5,0.8,0.3,1.8-0.5,2.3c-0.8,0.5-1.8,0.3-2.3-0.5
			C18.3,149.5,18.5,148.4,19.2,148z"/>
		<path class="st1" d="M121.2,303.3c-0.1,0.2-0.3,0.5-0.5,0.6c-0.2,0.1-0.3,0.2-0.5,0.2c-0.1-0.1-0.2-0.1-0.3-0.2
			C120.3,303.7,120.7,303.5,121.2,303.3z"/>
		<path class="st1" d="M98.8,188c0.8-0.5,1.8-0.3,2.3,0.5c0.5,0.8,0.3,1.8-0.5,2.3c-0.8,0.5-1.8,0.3-2.3-0.5
			C97.8,189.5,98,188.5,98.8,188z"/>
		<path class="st1" d="M119.8,220.2c0.8-0.5,1.8-0.3,2.3,0.5c0.5,0.8,0.3,1.8-0.5,2.3c-0.8,0.5-1.8,0.3-2.3-0.5
			C118.8,221.8,119,220.7,119.8,220.2z"/>
		<path class="st1" d="M201.5,44.8c-0.7,0.3-1.5,0.1-2-0.6c-0.5-0.8-0.3-1.8,0.5-2.3c0.6-0.4,1.3-0.3,1.8,0
			C201.7,42.8,201.6,43.8,201.5,44.8z"/>
		<path class="st1" d="M90.2,150.2c0.5,0.1,0.9,0.2,1.4,0.4C91.1,150.7,90.6,150.6,90.2,150.2z"/>
		<path class="st1" d="M141.4,311.4c-0.5-0.8-0.3-1.8,0.5-2.3s1.8-0.3,2.3,0.5c0.5,0.8,0.3,1.8-0.5,2.3
			C142.9,312.4,141.9,312.1,141.4,311.4z"/>
		<path class="st1" d="M199.8,68.9c-0.8,0.5-1.8,0.3-2.3-0.5c-0.5-0.8-0.3-1.8,0.5-2.3c0.8-0.5,1.8-0.3,2.3,0.5
			C200.7,67.4,200.5,68.4,199.8,68.9z"/>
		<path class="st1" d="M192.7,58.1c0.8-0.5,1.8-0.3,2.3,0.5c0.5,0.8,0.3,1.8-0.5,2.3c-0.8,0.5-1.8,0.3-2.3-0.5
			C191.7,59.6,191.9,58.6,192.7,58.1z"/>
		<path class="st1" d="M189.3,52.8c-0.5,0.3-1,0.3-1.4,0.1c0.6-0.8,1.2-1.7,1.8-2.5c0,0,0.1,0.1,0.1,0.1
			C190.2,51.3,190,52.3,189.3,52.8z"/>
		<path class="st1" d="M125,228.3c0.8-0.5,1.8-0.3,2.3,0.5c0.5,0.8,0.3,1.8-0.5,2.3c-0.8,0.5-1.8,0.3-2.3-0.5
			C124,229.8,124.2,228.8,125,228.3z"/>
		<path class="st1" d="M130.2,236.4c0.8-0.5,1.8-0.3,2.3,0.5c0.5,0.8,0.3,1.8-0.5,2.3c-0.8,0.5-1.8,0.3-2.3-0.5
			C129.3,237.9,129.5,236.9,130.2,236.4z"/>
		<path class="st1" d="M151.9,214.8c-0.8,0.5-1.8,0.3-2.3-0.5c-0.4-0.6-0.3-1.3,0-1.8c1,0.2,2,0.4,3,0.6
			C152.7,213.7,152.5,214.4,151.9,214.8z"/>
		<path class="st1" d="M151,295.7c-0.8,0.5-1.8,0.3-2.3-0.5c-0.5-0.8-0.3-1.8,0.5-2.3c0.8-0.5,1.8-0.3,2.3,0.5
			C151.9,294.1,151.7,295.2,151,295.7z"/>
		<path class="st1" d="M195.4,92.7c-0.5-0.8-0.3-1.8,0.5-2.3c0.5-0.3,1-0.3,1.5-0.1c-0.3,1-0.5,2.1-0.8,3.1
			C196.1,93.4,195.7,93.1,195.4,92.7z"/>
		<path class="st1" d="M217.1,260.2c0.8-0.5,1.8-0.3,2.3,0.5c0.1,0.2,0.2,0.5,0.2,0.7c-1.1,0-2.2,0-3.2,0
			C216.4,260.9,216.7,260.5,217.1,260.2z"/>
		<path class="st1" d="M154.4,300.9c0.8-0.5,1.8-0.3,2.3,0.5c0.5,0.8,0.3,1.8-0.5,2.3c-0.8,0.5-1.8,0.3-2.3-0.5
			C153.4,302.5,153.6,301.4,154.4,300.9z"/>
		<path class="st1" d="M164.9,317.1c0.8-0.5,1.8-0.3,2.3,0.5c0.4,0.6,0.3,1.3,0,1.8c-0.9-0.1-1.9-0.2-2.8-0.3
			C164,318.4,164.2,317.5,164.9,317.1z"/>
		<path class="st1" d="M202.3,155.1c0.8-0.5,1.8-0.3,2.3,0.5c0.5,0.8,0.3,1.8-0.5,2.3c-0.8,0.5-1.8,0.3-2.3-0.5
			C201.3,156.6,201.5,155.6,202.3,155.1z"/>
		<path class="st1" d="M210.7,195.5c0.8-0.5,1.8-0.3,2.3,0.5c0.5,0.8,0.3,1.8-0.5,2.3c-0.8,0.5-1.8,0.3-2.3-0.5
			C209.7,197,209.9,196,210.7,195.5z"/>
		<path class="st1" d="M221.8,214.6c-0.4-0.1-0.9-0.3-1.1-0.7c-0.5-0.8-0.3-1.8,0.5-2.3c0.4-0.2,0.8-0.3,1.2-0.2
			c-0.1,0.9-0.3,1.7-0.4,2.6C221.9,214.2,221.9,214.4,221.8,214.6z"/>
		<path class="st1" d="M244.4,244.4c0.5,0.8,0.3,1.8-0.5,2.3c-0.1,0.1-0.3,0.1-0.4,0.2c-0.3-1-0.6-2.1-0.9-3.1
			C243.3,243.5,244,243.7,244.4,244.4z"/>
		<path class="st1" d="M207.5,163.2c0.8-0.5,1.8-0.3,2.3,0.5c0.5,0.8,0.3,1.8-0.5,2.3c-0.8,0.5-1.8,0.3-2.3-0.5
			C206.5,164.7,206.8,163.7,207.5,163.2z"/>
		<path class="st1" d="M234.9,260.1c0.8-0.5,1.8-0.3,2.3,0.5c0.3,0.5,0.3,1.1,0.1,1.7c-1-0.1-2-0.2-3-0.2
			C234,261.3,234.2,260.5,234.9,260.1z"/>
		<path class="st1" d="M241,187.3c0.8-0.5,1.8-0.3,2.3,0.5c0.5,0.8,0.3,1.8-0.5,2.3c-0.8,0.5-1.8,0.3-2.3-0.5
			C240,188.8,240.3,187.8,241,187.3z"/>
		<path class="st1" d="M212.8,171.2c0.8-0.5,1.8-0.3,2.3,0.5c0.5,0.8,0.3,1.8-0.5,2.3c-0.8,0.5-1.8,0.3-2.3-0.5
			C211.8,172.8,212,171.7,212.8,171.2z"/>
		<path class="st1" d="M247.9,171.5c0.1,0.7,0.2,1.5,0.3,2.2c-0.1-0.1-0.3-0.2-0.4-0.4C247.5,172.8,247.5,172,247.9,171.5z"/>
		<path class="st1" d="M275.4,295c-0.8,0.5-1.8,0.3-2.3-0.5c-0.5-0.8-0.3-1.8,0.5-2.3c0.8-0.5,1.8-0.3,2.3,0.5
			C276.4,293.5,276.2,294.5,275.4,295z"/>
		<path class="st1" d="M268.4,284.2c0.8-0.5,1.8-0.3,2.3,0.5c0.5,0.8,0.3,1.8-0.5,2.3c-0.8,0.5-1.8,0.3-2.3-0.5
			C267.4,285.7,267.6,284.7,268.4,284.2z"/>
		<path class="st1" d="M296.1,302.5c-0.5-0.8-0.3-1.8,0.5-2.3c0.8-0.5,1.8-0.3,2.3,0.5c0.2,0.4,0.3,0.8,0.2,1.2
			c-0.8,0.4-1.6,0.8-2.4,1.1C296.5,302.9,296.3,302.7,296.1,302.5z"/>
		<path class="st1" d="M278.9,300.3c0.8-0.5,1.8-0.3,2.3,0.5c0.5,0.8,0.3,1.8-0.5,2.3c-0.8,0.5-1.8,0.3-2.3-0.5
			C277.9,301.8,278.1,300.8,278.9,300.3z"/>
		<path class="st1" d="M259,211.9c0.5,0.8,0.3,1.8-0.5,2.3c-0.8,0.5-1.8,0.3-2.3-0.5c-0.5-0.8-0.3-1.8,0.5-2.3
			C257.5,211,258.5,211.2,259,211.9z"/>
		<path class="st1" d="M262,219.5c0.8-0.5,1.8-0.3,2.3,0.5c0.5,0.8,0.3,1.8-0.5,2.3c-0.8,0.5-1.8,0.3-2.3-0.5
			C261,221,261.2,220,262,219.5z"/>
		<path class="st1" d="M275.2,270.3c-0.5-0.8-0.3-1.8,0.5-2.3c0,0,0.1,0,0.1-0.1c0.1,1,0.1,2,0.2,3
			C275.7,270.8,275.4,270.6,275.2,270.3z"/>
		<path class="st1" d="M267,254.6c-0.8,0.5-1.8,0.3-2.3-0.5c-0.5-0.8-0.3-1.8,0.5-2.3c0.8-0.5,1.8-0.3,2.3,0.5
			C268,253.1,267.7,254.1,267,254.6z"/>
		<path class="st1" d="M270.4,259.9c0.8-0.5,1.8-0.3,2.3,0.5c0.5,0.8,0.3,1.8-0.5,2.3s-1.8,0.3-2.3-0.5
			C269.4,261.4,269.7,260.4,270.4,259.9z"/>
		<path class="st1" d="M205.5,187.4c0.8-0.5,1.8-0.3,2.3,0.5c0.5,0.8,0.3,1.8-0.5,2.3c-0.8,0.5-1.8,0.3-2.3-0.5
			C204.5,189,204.7,187.9,205.5,187.4z"/>
		<path class="st1" d="M246.3,195.3c0.8-0.5,1.8-0.3,2.3,0.5c0.5,0.8,0.3,1.8-0.5,2.3c-0.8,0.5-1.8,0.3-2.3-0.5
			C245.3,196.8,245.5,195.8,246.3,195.3z"/>
		<path class="st1" d="M251.5,203.4c0.8-0.5,1.8-0.3,2.3,0.5c0.5,0.8,0.3,1.8-0.5,2.3c-0.8,0.5-1.8,0.3-2.3-0.5
			C250.5,204.9,250.7,203.9,251.5,203.4z"/>
		<path class="st1" d="M266.7,229.9c-0.5-0.8-0.3-1.8,0.5-2.3c0.1,0,0.2-0.1,0.2-0.1c0.4,1,0.7,2,1.1,3
			C267.9,230.7,267.2,230.5,266.7,229.9z"/>
		<path class="st1" d="M200.2,179.4c0.8-0.5,1.8-0.3,2.3,0.5c0.5,0.8,0.3,1.8-0.5,2.3c-0.8,0.5-1.8,0.3-2.3-0.5
			C199.2,180.9,199.5,179.9,200.2,179.4z"/>
		<path class="st1" d="M213.4,230.1c-0.5-0.8-0.3-1.8,0.5-2.3c0.8-0.5,1.8-0.3,2.3,0.5c0,0,0,0.1,0,0.1c-0.6,0.8-1.2,1.5-1.9,2.3
			C213.9,230.7,213.6,230.5,213.4,230.1z"/>
		<path class="st1" d="M215.5,205.9c-0.5-0.8-0.3-1.8,0.5-2.3c0.8-0.5,1.8-0.3,2.3,0.5c0.5,0.8,0.3,1.8-0.5,2.3
			C217,206.8,216,206.6,215.5,205.9z"/>
		<path class="st1" d="M265.1,276.3c-0.1-0.1-0.3-0.2-0.4-0.3C264.8,276.1,265,276.2,265.1,276.3z"/>
		<path class="st1" d="M148.7,182.4c-0.8,0.5-1.8,0.3-2.3-0.5c-0.5-0.8-0.3-1.8,0.5-2.3c0.8-0.5,1.8-0.3,2.3,0.5
			C149.7,180.9,149.5,181.9,148.7,182.4z"/>
		<path class="st1" d="M220.1,155c0.8-0.5,1.8-0.3,2.3,0.5c0.5,0.8,0.3,1.8-0.5,2.3c-0.8,0.5-1.8,0.3-2.3-0.5
			C219.1,156.5,219.3,155.5,220.1,155z"/>
		<path class="st1" d="M224.5,190.3c-0.7,0.1-1.4-0.1-1.7-0.7c-0.5-0.8-0.3-1.8,0.5-2.3c0.4-0.3,0.9-0.3,1.4-0.2c0,0.5,0,1,0,1.5
			C224.6,189.2,224.5,189.8,224.5,190.3z"/>
		<path class="st1" d="M214.8,147c0.8-0.5,1.8-0.3,2.3,0.5c0.5,0.8,0.3,1.8-0.5,2.3c-0.8,0.5-1.8,0.3-2.3-0.5
			C213.8,148.5,214,147.5,214.8,147z"/>
		<path class="st1" d="M217.1,125.6c-0.3-0.1-0.6-0.3-0.7-0.6c-0.4-0.5-0.3-1.2,0-1.7C216.6,124,216.9,124.8,217.1,125.6z"/>
		<path class="st1" d="M209.6,138.9c0.8-0.5,1.8-0.3,2.3,0.5c0.5,0.8,0.3,1.8-0.5,2.3c-0.8,0.5-1.8,0.3-2.3-0.5
			C208.6,140.4,208.8,139.4,209.6,138.9z"/>
		<path class="st1" d="M220.3,179.8c0.5,0.8,0.3,1.8-0.5,2.3c-0.8,0.5-1.8,0.3-2.3-0.5c-0.5-0.8-0.3-1.8,0.5-2.3
			C218.8,178.8,219.8,179,220.3,179.8z"/>
		<path class="st1" d="M215,284.5c0.8-0.5,1.8-0.3,2.3,0.5c0.5,0.8,0.3,1.8-0.5,2.3c-0.8,0.5-1.8,0.3-2.3-0.5
			C214.1,286,214.3,285,215,284.5z"/>
		<path class="st1" d="M230.8,308.6c0.8-0.5,1.8-0.3,2.3,0.5c0.5,0.8,0.3,1.8-0.5,2.3c-0.8,0.5-1.8,0.3-2.3-0.5
			C229.8,310.2,230,309.1,230.8,308.6z"/>
		<path class="st1" d="M225.5,300.6c0.8-0.5,1.8-0.3,2.3,0.5c0.5,0.8,0.3,1.8-0.5,2.3c-0.8,0.5-1.8,0.3-2.3-0.5
			C224.5,302.1,224.8,301.1,225.5,300.6z"/>
		<path class="st1" d="M220.3,292.5c0.8-0.5,1.8-0.3,2.3,0.5c0.5,0.8,0.3,1.8-0.5,2.3c-0.8,0.5-1.8,0.3-2.3-0.5
			C219.3,294,219.5,293,220.3,292.5z"/>
		<path class="st1" d="M244.9,165.8c-0.3,0.2-0.6,0.2-0.9,0.2c0.3-1,0.7-2,1-2.9c0.2,0.1,0.3,0.2,0.4,0.4
			C245.9,164.2,245.6,165.3,244.9,165.8z"/>
		<path class="st1" d="M205.2,214.5c-0.8,0.5-1.8,0.3-2.3-0.5c-0.5-0.8-0.3-1.8,0.5-2.3c0.8-0.5,1.8-0.3,2.3,0.5
			C206.2,213,206,214,205.2,214.5z"/>
		<path class="st1" d="M197.3,171.8c0.5,0.8,0.3,1.8-0.5,2.3c-0.1,0.1-0.3,0.1-0.5,0.2c0.1-1,0.2-2,0.3-3
			C196.9,171.4,197.1,171.6,197.3,171.8z"/>
		<path class="st1" d="M203.2,238.8c-0.8,0.5-1.8,0.3-2.3-0.5c-0.5-0.8-0.3-1.8,0.5-2.3s1.8-0.3,2.3,0.5
			C204.1,237.2,203.9,238.3,203.2,238.8z"/>
		<path class="st1" d="M153.9,190.5c-0.8,0.5-1.8,0.3-2.3-0.5c-0.5-0.8-0.3-1.8,0.5-2.3c0.8-0.5,1.8-0.3,2.3,0.5
			C154.9,189,154.7,190,153.9,190.5z"/>
		<path class="st1" d="M193.2,220.4c0.1,0.1,0.1,0.2,0.1,0.4c-0.3-0.3-0.7-0.7-1-1C192.6,219.8,192.9,220,193.2,220.4z"/>
		<path class="st1" d="M213.6,254.9c-0.8,0.5-1.8,0.3-2.3-0.5c-0.5-0.8-0.3-1.8,0.5-2.3c0.8-0.5,1.8-0.3,2.3,0.5
			C214.6,253.4,214.4,254.4,213.6,254.9z"/>
		<path class="st1" d="M208.4,246.8c-0.8,0.5-1.8,0.3-2.3-0.5c-0.5-0.8-0.3-1.8,0.5-2.3c0.8-0.5,1.8-0.3,2.3,0.5
			C209.4,245.3,209.2,246.3,208.4,246.8z"/>
		<path class="st1" d="M182,69c-0.8,0.5-1.8,0.3-2.3-0.5c-0.5-0.8-0.3-1.8,0.5-2.3c0.8-0.5,1.8-0.3,2.3,0.5
			C183,67.5,182.7,68.5,182,69z"/>
		<path class="st1" d="M185.2,101.4c-0.8,0.5-1.8,0.3-2.3-0.5c-0.5-0.8-0.3-1.8,0.5-2.3c0.8-0.5,1.8-0.3,2.3,0.5
			C186.1,99.8,185.9,100.9,185.2,101.4z"/>
		<path class="st1" d="M190.4,109.4c-0.8,0.5-1.8,0.3-2.3-0.5c-0.5-0.8-0.3-1.8,0.5-2.3c0.8-0.5,1.8-0.3,2.3,0.5
			C191.4,107.9,191.2,108.9,190.4,109.4z"/>
		<path class="st1" d="M98.8,75.2c0.4,0.6,0.3,1.4-0.2,2c-0.2-0.9-0.4-1.7-0.6-2.6C98.3,74.8,98.6,75,98.8,75.2z"/>
		<path class="st1" d="M173.5,141.4c-0.5-0.8-0.3-1.8,0.5-2.3c0.8-0.5,1.8-0.3,2.3,0.5c0.1,0.1,0.1,0.2,0.1,0.3
			c-0.4,0.7-0.8,1.5-1.2,2.2C174.6,142.2,173.9,141.9,173.5,141.4z"/>
		<path class="st1" d="M232.8,284.4c0.8-0.5,1.8-0.3,2.3,0.5c0.5,0.8,0.3,1.8-0.5,2.3c-0.8,0.5-1.8,0.3-2.3-0.5
			C231.8,285.9,232,284.9,232.8,284.4z"/>
	</g>
</g>
<g>
	<g>
		<path class="st2" d="M654.9,101.6c9.2,19.2,18.7,39.2,19.4,60.8c0.3,10.2-1.3,20.7-5.7,30c-2.2,4.8-5.2,9-8.6,13
			c-3.4,4-7,7.9-9.8,12.5c-9.2,15.3-6.3,34.3-5.5,51.2c0.4,8.5,0.6,17.3-1.3,25.7c-1.9,8.6-6.2,16.3-12.8,22.2
			c-6.9,6.2-15.2,10.3-23.7,13.9c-10.4,4.4-20.9,8.5-31.4,12.7c-2.7,1.1-5.3,2.2-8,3.2c-1.2,0.5-1.8-1.4-0.6-1.9
			c10.8-4.4,21.6-8.7,32.5-13.1c8.6-3.5,17.3-7,24.9-12.4c7.3-5.2,13.1-12.1,15.9-20.6c2.7-8.1,3-16.7,2.7-25.1
			c-0.5-16.8-3.9-34.7,2.5-50.9c1.7-4.3,4.2-8.2,7.1-11.8c3.2-4,6.8-7.8,9.8-12c6.1-8.5,9.1-18.8,9.8-29.2
			c1.4-21.4-6.9-41.7-15.8-60.6c-1.1-2.4-2.2-4.7-3.4-7.1C652.5,101.1,654.4,100.5,654.9,101.6L654.9,101.6z"/>
	</g>
	<g>
		<path class="st2" d="M654.6,102.6c-4.4,8.7-10.5,16.4-17.9,22.8c-7.1,6.1-15.2,10.2-23.5,14.3c-7.6,3.8-15.6,7.9-21,14.7
			c-5.3,6.6-6.9,14.9-6.6,23.2c0.6,16.8,7.9,33.5,4.2,50.4c-4.4,20.3-25.6,28.5-36,44.9c-2.7,4.3-4.7,9.1-4.8,14.2
			c-0.2,5.4,1.7,10.4,3.8,15.3c4.6,10.9,9.2,21.8,13.8,32.7c1.2,2.7,2.3,5.4,3.5,8.2c0.5,1.2-1.4,1.8-1.9,0.6
			c-4.7-11-9.3-22.1-14-33.1c-2.2-5.2-4.7-10.4-6.2-15.8c-1.3-4.8-1.3-9.8,0.2-14.6c3-9.8,10.6-17.3,18.1-24
			c7.3-6.5,15.3-13.1,19.5-22.2c3.6-7.8,3.5-16.6,2.5-25c-1.1-8.7-3.2-17.2-4.1-25.9c-0.9-8-0.7-16.4,2.8-23.8
			c3.7-7.8,10.5-13.3,17.8-17.4c7.8-4.4,16.2-7.7,23.7-12.7c8.3-5.5,15.5-12.8,20.9-21.2c1.3-2.1,2.5-4.2,3.6-6.3
			C653.4,100.6,655.2,101.5,654.6,102.6L654.6,102.6z"/>
	</g>
	<g>
		<path class="st2" d="M655.6,102.8c-0.4,10.1-0.9,20.2-2.7,30.2c-1.7,9.9-4.9,19.2-9.2,28.2c-4.3,8.9-9.3,17.4-13,26.5
			c-3.9,9.6-6.4,19.6-8.7,29.7c-2.3,10-4.7,19.9-7.7,29.7c-3,9.8-6.4,19.5-10,29.1c-3.6,9.6-7.2,19.2-11,28.8
			c-3.6,9.2-7.6,18.3-12.9,26.6c-9.4,14.8-22.3,27.1-36.6,37.1c-1.8,1.2-3.6,2.4-5.4,3.6c-1.1,0.7-2.2-1-1.1-1.7
			c14.7-9.5,28.1-21.1,38.2-35.4c11.3-15.9,17.6-34.9,24.4-53.1c7.3-19.2,13.9-38.6,18.6-58.6c2.3-9.8,4.4-19.6,7.6-29.2
			c3.1-9.2,7.5-17.8,11.9-26.4c4.6-8.8,8.8-17.8,11.3-27.4c2.5-9.8,3.4-19.9,3.9-30c0.1-2.5,0.2-5,0.3-7.5
			C653.7,101.7,655.7,101.5,655.6,102.8L655.6,102.8z"/>
	</g>
	<g>
		<path class="st2" d="M659.1,112c-0.3,2.7-1.4,5.2-3,7.3c-0.3,0.4-1,0.4-1.4,0.1c-0.4-0.4-0.4-1-0.1-1.4c1.5-1.9,2.3-4.1,2.6-6.4
			c0.1-0.5,0.7-0.9,1.2-0.8C658.9,111,659.2,111.5,659.1,112L659.1,112z"/>
	</g>
	<g>
		<path class="st2" d="M660.9,116.3c-0.7,4.2-3.1,8-6.6,10.4c-1.1,0.7-2.2-1-1.1-1.7c3.1-2.1,5.2-5.4,5.8-9.1
			C659.1,114.6,661.1,115,660.9,116.3L660.9,116.3z"/>
	</g>
	<g>
		<path class="st2" d="M662.9,122c0.1,0.7,0.1,1.3-0.1,2c-0.2,0.7-0.4,1.3-0.8,2c-0.6,1.3-1.5,2.5-2.4,3.6c-1.8,2.2-4.1,4.1-6.7,5.2
			c-1,0.4-1.8-1.2-0.8-1.7c2.4-1.2,4.4-2.7,6.2-4.7c0.8-1,1.5-2.1,2.1-3.2c0.3-0.6,0.6-1.1,0.9-1.7c0.3-0.6,0.7-1.1,1.1-1.6
			C662.6,121.7,662.8,121.8,662.9,122L662.9,122z"/>
	</g>
	<g>
		<path class="st2" d="M665.9,127.5c-1,3.5-3.4,6.7-6,9.2c-2.7,2.6-5.8,4.7-9.2,6.1c-1.1,0.4-1.6-1.3-0.6-1.7
			c3.2-1.4,6.1-3.3,8.6-5.7c2.5-2.5,4.2-5.4,6.1-8.3C665.1,126.6,666.1,126.8,665.9,127.5L665.9,127.5z"/>
	</g>
	<g>
		<path class="st2" d="M668.2,132.7c-1.5,5.1-4.4,9.6-8.3,13.2c-3.8,3.5-8.8,6.4-13.9,7.5c-1,0.2-1.5-1.2-0.5-1.5
			c5-1.4,9.4-3.6,13.4-7c3.9-3.3,7-7.6,9-12.2C667.9,132.5,668.2,132.6,668.2,132.7L668.2,132.7z"/>
	</g>
	<g>
		<path class="st2" d="M668.8,138.8c-0.3,3.3-2,5.9-4.1,8.4c-1.9,2.2-4,4.3-6.3,6.1c-4.5,3.5-10,6.6-15.8,7c-1.3,0.1-1.4-1.8-0.1-2
			c5.4-1,10.1-3.1,14.5-6.4c4.4-3.3,9.5-7.8,11.1-13.3C668.2,138.2,668.9,138.3,668.8,138.8L668.8,138.8z"/>
	</g>
	<g>
		<path class="st2" d="M670.6,142.1c-0.9,7.6-5.2,14.3-11.3,18.7c-3,2.1-6.3,3.6-9.7,4.8c-3.5,1.2-7.2,2.5-10.9,2.7
			c-1.2,0.1-1.5-1.7-0.4-2.1c3.2-1.1,6.7-1.6,10-2.6c3.3-1.1,6.4-2.4,9.3-4.3c6.2-4,10.2-10.3,11.4-17.5
			C669.1,140.7,670.7,141.1,670.6,142.1L670.6,142.1z"/>
	</g>
	<g>
		<path class="st2" d="M670.7,146.6c1.1,3.9-1.3,8.6-3.4,11.7c-2.2,3.3-5.1,6.1-8.2,8.6c-3.4,2.6-7.1,4.7-11,6.4
			c-2.1,1-4.2,1.8-6.3,2.6c-2,0.8-4.1,1.6-6.3,1.8c-0.7,0-0.9-0.8-0.4-1.2c1.7-1.2,3.6-1.9,5.6-2.6c2-0.8,4-1.5,5.9-2.4
			c3.6-1.6,7.2-3.4,10.4-5.7c3-2.1,5.8-4.7,8.1-7.7c1.2-1.6,2.3-3.4,3.1-5.3c0.8-2.1,1-4.1,1.3-6.3
			C669.6,146.1,670.5,146,670.7,146.6L670.7,146.6z"/>
	</g>
	<g>
		<path class="st2" d="M671,149.3c0.4,4.1,0.3,8-1.1,11.9c-1.3,3.7-3.4,7-6.1,9.8c-5.4,5.6-12.5,9-19.3,12.4
			c-4.9,2.4-9.6,4.9-14.7,6.8c-0.8,0.3-1.5-1-0.7-1.4c7.2-4.3,15.1-7.4,22.5-11.3c6.5-3.4,12.8-7.8,16.1-14.6c2-4.1,3-9,2.4-13.5
			C670,148.8,671,148.7,671,149.3L671,149.3z"/>
	</g>
	<g>
		<path class="st2" d="M674,162.3c0,3.5-2.3,7.1-4.3,9.8c-2.2,3.1-5,5.9-8,8.3c-6.2,5.1-13.3,9.1-20.7,12c-4.1,1.6-8.6,3.4-13.1,3.7
			c-1.1,0.1-1.3-1.4-0.4-1.8c3.6-1.3,7.3-2,10.9-3.3c3.6-1.3,7.2-2.8,10.6-4.6c6.6-3.5,13.1-7.7,17.9-13.4c1.4-1.6,2.6-3.3,3.6-5.2
			c1-1.8,1.6-3.9,2.6-5.7C673.5,161.9,674,161.9,674,162.3L674,162.3z"/>
	</g>
	<g>
		<path class="st2" d="M671.4,175.6c2.3,2.5-2.2,6.1-3.8,7.6c-2.7,2.5-5.6,4.9-8.7,7c-6.2,4.3-13.1,7.7-20.4,10
			c-2,0.6-4.1,1.2-6.1,1.6c-2.2,0.4-4.3,0.6-6.4,0.8c-1.4,0.2-1.5-2-0.1-2.2c1.7-0.3,3.4-0.8,5.1-1.2c1.6-0.4,3.2-0.7,4.8-1.2
			c3.3-0.9,6.6-2,9.8-3.3c6.3-2.6,12.2-5.9,17.6-10c1.6-1.2,3.1-2.5,4.6-3.8c1.6-1.4,3.4-2.9,3.3-5.2
			C671.2,175.6,671.3,175.5,671.4,175.6L671.4,175.6z"/>
	</g>
	<g>
		<path class="st2" d="M670.3,184.4c-7.5,12.8-21.1,19.2-34.8,23.4c-3.8,1.2-7.7,2.3-11.6,3.1c-1.1,0.2-1.4-1.6-0.4-1.9
			c3.2-1,6.5-1.8,9.7-2.7c3.2-0.9,6.5-1.9,9.6-3.1c6.3-2.4,12.4-5.4,17.7-9.6c3.4-2.7,6.5-5.9,8.9-9.5
			C669.9,183.6,670.6,184,670.3,184.4L670.3,184.4z"/>
	</g>
	<g>
		<path class="st2" d="M665.8,195.6c-4.6,6.9-11.9,11-19.2,14.5c-4,1.9-7.9,3.8-12.1,5.3c-4.3,1.6-8.6,2.4-13.2,2.1
			c-1-0.1-1.2-1.6-0.1-1.6c8.5-0.4,16.5-4,24.1-7.5c7.2-3.3,14.7-6.8,19.6-13.3C665.3,194.6,666.1,195.2,665.8,195.6L665.8,195.6z"
			/>
	</g>
	<g>
		<path class="st2" d="M659.1,203.9c0.2-0.1-0.3,1.2-0.3,1.2c-0.2,0.4-0.4,0.7-0.6,1c-0.5,0.7-1,1.4-1.6,2.1c-1.2,1.4-2.6,2.8-4.1,4
			c-2.8,2.4-6,4.6-9.3,6.3c-7.2,3.9-15.3,6.4-23.4,7.3c-0.8,0.1-1.1-1.2-0.3-1.4c7.9-2.1,15.9-4,23.2-7.7c3.3-1.7,6.4-3.8,9.3-6.2
			c1.4-1.2,2.7-2.6,4-3.9c0.7-0.7,1.3-1.4,2-2.1c0.3-0.3,0.7-0.9,1.1-0.9c0.1,0,0.2,0,0.2,0.1c0,0,0,0.1,0,0.1c0,0.1,0,0.2-0.1,0.2
			c0,0-0.1,0-0.1,0C659.1,204.3,659,204,659.1,203.9L659.1,203.9z"/>
	</g>
	<g>
		<path class="st2" d="M651.1,214.9c-2.3,2.5-3.9,5.6-5.9,8.4c-1.8,2.6-4,4.9-6.9,6.3c-3,1.5-6.3,2.3-9.5,3.1
			c-3.8,0.9-7.7,2-11.6,2.3c-0.9,0.1-1.1-1.2-0.3-1.5c6.6-2.4,14-2.3,20.5-5.1c3.2-1.4,5.4-3.7,7.4-6.6c1.8-2.6,3.3-5.3,5.7-7.4
			C650.9,214.1,651.4,214.5,651.1,214.9L651.1,214.9z"/>
	</g>
	<g>
		<path class="st2" d="M646.1,222c0.1,6.5-4.9,12.1-10.3,15.1c-3.1,1.7-6.4,2.9-9.8,3.6c-3.5,0.8-7.1,1.3-10.7,1
			c-0.8-0.1-0.9-1.4-0.1-1.6c3.1-0.8,6.4-1,9.5-1.5c3.2-0.5,6.5-1.4,9.5-2.8c5.8-2.7,10.1-7.7,11.6-14
			C645.8,221.8,646.1,221.8,646.1,222L646.1,222z"/>
	</g>
	<g>
		<path class="st2" d="M642.9,231.4c2,6.6-3,12.4-8.7,15c-6.9,3.1-14.8,2.8-21.6,6c-1.2,0.5-1.8-1.4-0.6-1.9
			c6.2-2.9,13.1-3,19.5-5.2c5.8-2,12-6.9,11.1-13.8C642.6,231.3,642.9,231.3,642.9,231.4L642.9,231.4z"/>
	</g>
	<g>
		<path class="st2" d="M642.1,238c1.9,7.3-3.5,13.8-9.7,17c-7.3,3.7-15.6,3.9-23.1,7c-1.2,0.5-1.8-1.4-0.6-1.9c6.7-3,14.2-3.4,21-6
			c3.2-1.2,6.3-3,8.5-5.8c2.1-2.8,3.3-6.4,2.6-9.9C640.6,237.6,641.9,237.1,642.1,238L642.1,238z"/>
	</g>
	<g>
		<path class="st2" d="M642.3,244.9c1.2,3.9,0.6,8.1-1.5,11.6c-2.2,3.5-5.6,5.7-9.3,7.4c-4.3,2-8.9,3.5-13.4,5
			c-4.2,1.4-9.2,2.2-12.6,5.2c-1,0.9-2.5-0.4-1.6-1.4c2.8-3,7-3.8,10.7-5c4.5-1.4,8.9-2.9,13.3-4.5c3.9-1.4,7.9-3.1,10.6-6.3
			c2.7-3.3,3.8-7.8,3.4-11.9C642,244.7,642.3,244.7,642.3,244.9L642.3,244.9z"/>
	</g>
	<g>
		<path class="st2" d="M643.7,253.2c0.1,7.9-3.9,15.4-10.5,19.7c-6.8,4.4-15.1,5.2-22.5,8.3c-4.1,1.7-8.1,4.1-10.5,8
			c-0.7,1.1-2.6,0.2-1.9-1c4.1-6.5,11.4-9.4,18.5-11.4c7.7-2.2,16-4,21.2-10.7c2.8-3.6,4.3-8.2,4.4-12.7
			C642.3,252.4,643.7,252.3,643.7,253.2L643.7,253.2z"/>
	</g>
	<g>
		<path class="st2" d="M643.5,262.5c-0.6,8.5-6.1,15.3-13,19.8c-7.5,4.8-16.1,7.3-24,11.3c-4.2,2.1-8.5,4.8-11.8,8.2
			c-0.8,0.8-2-0.3-1.3-1.2c11.1-13.4,31-12.7,42.7-25.2c3.4-3.6,6-7.8,6.3-12.8C642.4,261.8,643.6,261.7,643.5,262.5L643.5,262.5z"
			/>
	</g>
	<g>
		<path class="st2" d="M642.8,266.9c2.9,8.6-1.6,18-8,23.7c-7.3,6.4-16.9,9.2-26.1,11.8c-5.7,1.6-11.2,3.3-16.8,5.3
			c-1.3,0.5-1.8-1.4-0.6-1.9c4.4-2.1,9.2-3.3,13.9-4.6c4.6-1.2,9.2-2.3,13.7-3.9c8.3-3,16.6-7.6,20.9-15.7c2.4-4.4,3.3-9.4,2.3-14.4
			C641.9,266.6,642.6,266.4,642.8,266.9L642.8,266.9z"/>
	</g>
	<g>
		<path class="st2" d="M643,277.1c3.5,9.6-2.6,20.1-10.4,25.5c-8.2,5.7-18.1,6.6-27.7,8.2c-5.5,0.9-10.7,2.4-15.8,4.4
			c-0.9,0.4-1.6-1-0.8-1.5c3.8-2.5,8.3-3.6,12.8-4.5c4.5-0.9,9.1-1.4,13.7-2.1c9.3-1.6,18.5-5.1,24.1-13.1
			c3.5-4.9,4.5-10.9,3.8-16.8C642.7,276.9,643,276.9,643,277.1L643,277.1z"/>
	</g>
	<g>
		<path class="st2" d="M643.8,288.2c-1,9-5.8,17.4-12.9,23c-7.9,6.2-17.8,7.6-27.6,8.2c-2.9,0.2-5.8,0.3-8.7,0.6
			c-2.9,0.3-5.7,1-8.5,1.4c-1.1,0.1-1.2-1.4-0.4-1.8c2.2-0.9,4.7-1.2,7.1-1.5c2.4-0.3,4.8-0.5,7.2-0.6c4.9-0.3,9.8-0.4,14.6-1.2
			c4.7-0.7,9.3-2.2,13.3-4.8c3.8-2.5,7-5.8,9.5-9.6c2.7-4.2,4.5-9,5-14C642.5,287.1,643.8,287.4,643.8,288.2L643.8,288.2z"/>
	</g>
	<g>
		<path class="st2" d="M635.2,309.2c-6.5,15-24.5,18.6-39.2,19c-4.8,0.1-9.5,0.1-14.2,1.2c-1.2,0.3-1.9-1.4-0.6-1.9
			c3.7-1.4,7.8-1.6,11.7-1.6c4,0,8-0.1,12-0.4c7.7-0.7,15.4-2.7,21.7-7.3c3.3-2.4,6.3-5.5,8.4-9.1C635,308.9,635.3,309,635.2,309.2
			L635.2,309.2z"/>
	</g>
	<g>
		<path class="st2" d="M594.1,334.8c-0.5,0.8-1.4,1-2.3,1.1c-1.6,0.2-3.2,0.3-4.7,0.5c-3.1,0.3-6.2,0.5-9.4,0.7
			c-1.2,0.1-1.3-1.8-0.1-1.9c2.8-0.1,5.5-0.3,8.3-0.3c1.3,0,2.7-0.1,4-0.1c1,0,2.8,0.3,3.5-0.5C593.7,334,594.4,334.4,594.1,334.8
			L594.1,334.8z"/>
	</g>
	<g>
		<path class="st2" d="M650.3,109.5c0.1,3.8,1.5,7.2,3.4,10.5c0.2,0.3-0.2,0.6-0.4,0.4c-3-2.7-4-7-3.6-10.9
			C649.6,109.1,650.3,109.2,650.3,109.5L650.3,109.5z"/>
	</g>
	<g>
		<path class="st2" d="M648.2,112.5c-0.2,5.9,1.7,11.8,4.9,16.7c0.6,0.8-0.8,1.7-1.3,0.9c-1.7-2.7-2.9-5.5-3.5-8.6
			c-0.6-3-0.7-6-0.5-9C647.9,112.3,648.3,112.3,648.2,112.5L648.2,112.5z"/>
	</g>
	<g>
		<path class="st2" d="M646,116.1c-1.6,3.7-1.2,7.6,0,11.3c0.6,1.8,1.4,3.6,2.1,5.3c0.9,1.9,1.7,4,2.9,5.7c0.7,1-1.1,2-1.6,0.8
			c-0.9-2.1-2.1-4-3-6.1c-0.9-2-1.6-4.1-2.1-6.3c-0.8-3.7-1-7.7,1.4-10.9C645.8,115.7,646.1,115.9,646,116.1L646,116.1z"/>
	</g>
	<g>
		<path class="st2" d="M641.3,120.7c-2.7,6,0.4,12.2,2.9,17.7c2.3,5.1,4.2,11,1.6,16.4c-0.4,0.9-1.8,0.2-1.4-0.7
			c2.7-5.9-0.4-12.3-2.7-17.7c-2.2-5.2-4.2-10.9-1.8-16.4C640.3,119,641.7,119.8,641.3,120.7L641.3,120.7z"/>
	</g>
	<g>
		<path class="st2" d="M636.7,125.2c-3.2,5.9-1.3,13.1,1.1,18.9c1.3,3,2.7,5.9,3.9,8.9c1.1,2.8,2,5.7,1.7,8.8
			c-0.1,1.2-2,0.8-1.8-0.4c0.3-3.3-1.1-6.5-2.4-9.5c-1.3-3.1-2.8-6.2-3.9-9.3c-2-5.8-2.7-12.2,0.7-17.6
			C636.3,124.5,636.9,124.8,636.7,125.2L636.7,125.2z"/>
	</g>
	<g>
		<path class="st2" d="M632.5,128.5c-4.7,6.4-4,14.8-1.2,21.8c1.4,3.6,3.3,6.8,5.1,10.2c1.6,3,2.7,6,2.4,9.4c-0.1,1.2-2,0.8-1.9-0.4
			c0.5-3.8-1.3-7.5-3-10.8c-1.7-3.4-3.5-6.8-4.7-10.5c-2.2-6.7-2.5-14.8,2.6-20.3C632.2,127.5,632.8,128,632.5,128.5L632.5,128.5z"
			/>
	</g>
	<g>
		<path class="st2" d="M624.7,133c-5.3,6.7-3.2,15.9,0.4,22.8c3.7,7,8.8,13.4,11.2,21c0.3,1-1.3,1.5-1.5,0.5
			c-2.1-8.5-8.1-15.1-11.8-22.9c-3.2-7-4.4-15.8,1-22C624.3,131.8,625.1,132.5,624.7,133L624.7,133z"/>
	</g>
	<g>
		<path class="st2" d="M618.2,137c-3.1,3.5-2.4,8.6-1.2,12.8c1.4,4.5,3.5,8.8,5.8,13c4.1,7.5,9.7,15.6,7.9,24.6
			c-0.2,1.2-2.1,0.8-1.8-0.4c2.7-9.9-4.9-18.1-9-26.4c-2-4.1-4-8.5-4.9-13c-0.8-4-0.6-8.3,2.3-11.5
			C617.8,135.6,618.7,136.4,618.2,137L618.2,137z"/>
	</g>
	<g>
		<path class="st2" d="M613.8,139.5c-6.1,6-6.1,14.9-3.6,22.5c1.2,3.9,2.6,7.9,4.9,11.3c2.3,3.5,5.8,5.9,8.7,8.9
			c2.8,2.9,5.2,6.5,5.1,10.6c0,1.2-1.9,1.4-1.9,0.1c0.1-8.7-9.8-13-13.9-19.6c-2.2-3.6-3.8-7.8-4.9-11.8c-1.1-3.9-1.6-8-1-12
			c0.6-4.2,2.6-8.1,6.2-10.6C613.7,138.6,614.2,139.1,613.8,139.5L613.8,139.5z"/>
	</g>
	<g>
		<path class="st2" d="M607.4,141.8c-6.1,8-5.2,18.4-1.4,27.2c1.9,4.3,4.5,8.3,7.4,12c2.6,3.3,5.5,6.3,7.9,9.7
			c2.6,3.6,4.6,7.7,4.8,12.2c0,1.1-1.6,1.2-1.6,0.1c-0.4-8.9-7.8-15.4-12.9-22c-5.8-7.3-10.4-15.9-10-25.5
			c0.2-5.3,1.6-10.4,4.9-14.6C606.9,140.1,608,141.1,607.4,141.8L607.4,141.8z"/>
	</g>
	<g>
		<path class="st2" d="M600.2,146.3c-0.9,4.4-1.5,8.8-1.2,13.3c0.4,4.5,1.6,8.9,3.2,13.1c1.7,4.2,3.9,8.3,6.6,12
			c3,4.1,6.6,7.7,9.5,11.9c2.8,4.1,4.6,9.1,4.4,14.1c0,0.9-1.5,1-1.5,0.1c0.3-4.9-1.7-9.3-4.2-13.4c-2.7-4.4-6.2-8.2-9.4-12.3
			c-5.6-7.1-9.3-15.7-10.1-24.7c-0.4-4.8-0.1-10,1.8-14.5C599.5,145.5,600.3,145.8,600.2,146.3L600.2,146.3z"/>
	</g>
	<g>
		<path class="st2" d="M595.8,149.9c-1.6,5.2-2.1,10.4-1.3,15.8c0.8,5.2,2.5,10.3,4.6,15.2c2,4.7,4.6,9.1,7.6,13.2
			c3.2,4.2,7.2,7.7,10.3,12.1c3.1,4.4,5,9.6,3.9,14.9c-0.2,1-1.8,0.7-1.6-0.3c1.2-5.1-1-10.2-3.9-14.3c-3.1-4.3-6.9-8-10.1-12.1
			c-6.3-8-10.9-17.5-12.3-27.6c-0.8-5.7-0.6-11.9,2-17.1C595.2,149.2,596,149.4,595.8,149.9L595.8,149.9z"/>
	</g>
	<g>
		<path class="st2" d="M591.4,154.1c-1.3,5.6-2.1,11.4-1.2,17.2c0.8,5.7,2.8,11.2,5.4,16.3c2.5,4.8,5.7,9.4,9.3,13.5
			c3.1,3.5,6.5,6.9,9.2,10.7c3,4.2,5.4,8.9,5.5,14.1c0,0.8-1.1,0.8-1.2,0.1c-1.2-10-8.7-17.1-14.9-24.4c-7.1-8.4-13-18-14.6-29.2
			c-0.9-6.2-0.8-12.8,1.8-18.6C590.9,153.5,591.5,153.7,591.4,154.1L591.4,154.1z"/>
	</g>
	<g>
		<path class="st2" d="M585.5,166.3c0,5.5,0.5,11.2,2,16.6c1.5,5.4,3.8,10.6,6.4,15.5c2.6,4.8,5.6,9.5,8.9,13.9
			c3.1,4.1,6.4,8.1,9.2,12.5c3,4.7,5.2,9.9,4.6,15.6c-0.1,1.1-2,1-1.9-0.1c0.7-10.8-7.2-18.9-13.2-26.8c-3.3-4.4-6.3-9-8.8-13.9
			c-2.5-4.9-4.3-9.8-5.7-15.1c-1.6-5.9-2.7-11.8-2.4-18C584.5,165.8,585.5,165.7,585.5,166.3L585.5,166.3z"/>
	</g>
	<g>
		<path class="st2" d="M585.6,184.6c2.3,8.1,4.2,16.2,7.4,24c3.3,7.8,7.5,15.2,12.2,22.3c2.8,4.1,6,7.7,9.4,11.2
			c0.8,0.8-0.4,2.1-1.2,1.3c-2.9-3.1-5.5-6.6-8.1-9.9c-2.7-3.4-5.1-7-7.3-10.8c-4.3-7.5-7.7-15.5-10.1-23.8
			c-1.4-4.7-2.4-9.4-2.7-14.3C585.3,184.5,585.6,184.4,585.6,184.6L585.6,184.6z"/>
	</g>
	<g>
		<path class="st2" d="M589.6,211.3c0.7,4,2,8,3.5,11.8c1.4,3.8,3.3,7.3,5.6,10.6c2.4,3.4,5.3,6.2,8,9.4c2.4,2.8,4.7,6.7,3.7,10.5
			c-0.1,0.5-1,0.6-1-0.1c0-4.7-2.4-8.1-5.5-11.5c-2.7-2.9-5.2-5.8-7.3-9.1c-2-3.2-3.8-6.6-5.1-10.2c-1.4-3.7-2-7.6-2.4-11.5
			C589.1,211,589.5,210.9,589.6,211.3L589.6,211.3z"/>
	</g>
	<g>
		<path class="st2" d="M589.8,218.7c0.8,7.3,3.8,13.9,7.3,20.3c3.5,6.3,7.3,12.5,9.1,19.6c0.9,3.7,1.4,7.8,0.6,11.6
			c-0.2,1-1.7,0.7-1.6-0.3c0.9-7.5-1.4-14.5-4.8-21.2c-3.1-6.3-6.9-12.3-9.3-18.9c-1.3-3.6-2-7.3-1.7-11.1
			C589.5,218.5,589.8,218.5,589.8,218.7L589.8,218.7z"/>
	</g>
	<g>
		<path class="st2" d="M590.4,226.2c-2.2,8.6-0.5,17.6,4.4,25c2.5,3.8,5.8,7,8,11c2.1,3.8,3.1,7.9,1.6,12.1c-0.5,1.3-2.4,0.3-1.9-1
			c1.6-4.3-0.1-9.2-2.5-12.8c-2.5-3.8-5.6-7.1-7.9-11c-4.1-7-5.1-15.7-3.2-23.5C589.2,224.9,590.7,225.2,590.4,226.2L590.4,226.2z"
			/>
	</g>
	<g>
		<path class="st2" d="M588.8,232.4c-2.7,6.7-1.5,14.2,1.3,20.7c1.4,3.4,3.2,6.4,5.2,9.5c2,3,4.1,6,5.5,9.4c1.5,3.6,2,7.6,0.3,11.3
			c-0.3,0.7-1.6,0.3-1.3-0.5c1.1-3.6,0.6-7.4-0.8-10.8c-1.5-3.5-4-6.6-6.2-9.7c-3.9-5.7-6.7-12.3-6.9-19.2
			c-0.1-3.8,0.7-7.5,2.4-10.9C588.3,231.7,589,232,588.8,232.4L588.8,232.4z"/>
	</g>
	<g>
		<path class="st2" d="M585.4,239.1c-2.7,7.1-1.9,14.8,0.7,21.8c1.3,3.5,3,6.9,5,10.1c2,3.2,4.1,6.3,5.5,9.9c1.4,3.7,1.9,8,0.2,11.7
			c-0.5,1-1.8,0.2-1.5-0.8c3-7.9-3-14.9-6.7-21.4c-3.6-6.2-6.3-13.3-6.6-20.5c-0.2-4,0.4-7.9,2-11.5
			C584.4,237.4,585.7,238.1,585.4,239.1L585.4,239.1z"/>
	</g>
	<g>
		<path class="st2" d="M581.8,243.9c-3.1,7.7-2.5,16.2,0.3,23.9c1.3,3.7,3.2,7.1,5.3,10.4c2.1,3.3,4.6,6.2,6.3,9.7
			c1.8,3.7,2.6,8,1,11.9c-0.5,1.3-2.4,0.3-1.9-1c1.4-3.8,0.1-7.9-1.9-11.2c-1.9-3.3-4.3-6.4-6.3-9.8c-3.9-6.6-6.6-14-6.9-21.7
			c-0.2-4.5,0.5-9,2.2-13.1C580.5,241.8,582.2,242.7,581.8,243.9L581.8,243.9z"/>
	</g>
	<g>
		<path class="st2" d="M576.7,248.7c-0.8,2.1-1.8,4.1-2.3,6.3c-0.5,2.2-0.7,4.5-0.6,6.7c0.1,4.4,1.4,8.7,3.2,12.7
			c1.8,4,4.1,7.7,6.7,11.2c2.5,3.5,4.9,7,6.5,11c1.8,4.3,2.3,9,0.6,13.5c-0.5,1.3-2.5,0.3-1.9-1c3.8-8.9-3.2-17.1-7.7-24.1
			c-4.6-7.1-8.6-15-8.8-23.6c-0.1-4.4,0.5-9.9,3.5-13.3C576.2,247.5,576.9,248.1,576.7,248.7L576.7,248.7z"/>
	</g>
	<g>
		<path class="st2" d="M572.7,253.5c-2.7,3.4-4.1,7.1-4,11.4c0,4.3,1.2,8.6,2.8,12.6c1.7,4.4,4,8.5,6.8,12.3
			c2.8,3.8,6.1,7.4,8.2,11.7c2.2,4.4,3.3,9.2,1.3,13.9c-0.4,0.9-1.7,0.2-1.4-0.7c3.8-10.1-5.6-18.4-10.7-25.8
			c-2.6-3.8-4.8-7.9-6.4-12.3c-1.5-4-2.5-8.1-2.3-12.4c0.2-4.1,1.5-9,5.5-11C572.7,253.2,572.9,253.4,572.7,253.5L572.7,253.5z"/>
	</g>
	<g>
		<path class="st2" d="M567.1,258.3c-2.6,4-2.6,8.5-1.7,13c0.9,4.6,2.6,9,4.7,13.2c2.1,4.2,4.7,8,7.4,11.8c2.7,3.7,5.4,7.5,7.2,11.8
			c1.9,4.4,2.9,9.5,1.4,14.2c-0.5,1.5-2.8,1-2.4-0.5c2.6-9.6-3.6-17.9-8.9-25.4c-2.8-3.9-5.2-7.9-7.2-12.2
			c-1.9-4.1-3.6-8.6-4.1-13.1c-0.5-4.6,0.1-9.5,2.9-13.4C566.6,257.3,567.4,257.8,567.1,258.3L567.1,258.3z"/>
	</g>
	<g>
		<path class="st2" d="M562.9,262.1c-6.7,8-1.8,19.1,2.1,27.2c2.2,4.6,4.5,9.1,7,13.5c2.4,4.2,5.1,8.3,7.4,12.6
			c2.3,4.5,3.6,9.7,1.4,14.5c-0.7,1.5-3,0.3-2.3-1.1c2.1-4.5,0.7-9.8-1.5-13.9c-2.4-4.4-5.1-8.5-7.5-12.9c-2.4-4.4-4.6-8.9-6.6-13.4
			c-1.9-4.3-3.8-8.7-4.5-13.4c-0.6-4.8,0.3-10,3.6-13.7C562.6,260.8,563.4,261.5,562.9,262.1L562.9,262.1z"/>
	</g>
	<g>
		<path class="st2" d="M558.3,267.6c-5.7,9.3-1.8,19.9,2.5,28.9c2.3,4.9,4.7,9.6,7.4,14.3c2.4,4.2,5,8.3,6.9,12.8
			c1.9,4.5,3.1,9.3,1.1,14c-0.5,1.2-2.2,0.3-1.8-0.9c1.8-4.4,0.7-9.2-1.3-13.3c-2.1-4.5-4.9-8.7-7.3-13c-2.5-4.5-4.8-9.2-7-13.9
			c-2.1-4.4-3.8-9-4.5-13.9c-0.7-5.3-0.3-11,2.6-15.6C557.4,266.1,558.8,266.7,558.3,267.6L558.3,267.6z"/>
	</g>
	<g>
		<path class="st2" d="M552.7,273.8c-2.2,9.5-0.2,18.9,3.7,27.7c3.8,8.6,9.1,16.4,12.8,25c2,4.7,3.6,9.7,4.5,14.8
			c0.2,1.2-1.9,1.4-2,0.1c-0.8-9.6-5.7-18.1-10.2-26.4c-4.5-8.4-8.9-16.8-10.6-26.3c-0.4-2.6-0.7-5.2-0.5-7.8
			c0.1-2.6,0.7-4.9,1.6-7.3C552.1,273.1,552.8,273.4,552.7,273.8L552.7,273.8z"/>
	</g>
</g>
<g id="aman" transform="translate(5895.442 -2362.918)">
	<g id="Group_1336" transform="translate(-5895.442 2383.875)">
		<ellipse id="Ellipse_600" class="st3" cx="359" cy="345.8" rx="307" ry="8.1"/>
		<g id="Group_1335" transform="translate(16.494)">
			<path id="Rectangle_765" class="st4" d="M69.2,207.2h175.6c3.4,0,6.2,2.8,6.2,6.2v90.2c0,3.4-2.8,6.2-6.2,6.2H69.2
				c-3.4,0-6.2-2.8-6.2-6.2v-90.2C63,210,65.8,207.2,69.2,207.2z"/>
			<path id="Path_2534" class="st4" d="M464.2,13.6h175.6c3.4,0,6.2,2.8,6.2,6.2v90.2c0,3.4-2.8,6.2-6.2,6.2H464.2
				c-3.4,0-6.2-2.8-6.2-6.2c0,0,0,0,0,0V19.8C458,16.3,460.8,13.6,464.2,13.6C464.2,13.6,464.2,13.6,464.2,13.6z"/>
			<linearGradient id="Path_2530_1_" gradientUnits="userSpaceOnUse" x1="209.7564" y1="161.813" x2="516.3717" y2="161.813">
				<stop  offset="0" style="stop-color:#FF9520"/>
				<stop  offset="0.3366" style="stop-color:#FF9821"/>
				<stop  offset="0.5734" style="stop-color:#FFA126"/>
				<stop  offset="0.7796" style="stop-color:#FFB12D"/>
				<stop  offset="0.9673" style="stop-color:#FFC637"/>
				<stop  offset="1" style="stop-color:#FFCB39"/>
			</linearGradient>
			<path id="Path_2530" class="st5" d="M516.4,25.9v143.7c0,23.3-6.4,46.2-18.4,66.2c-6.1,8.2-12.8,15.9-20.2,23
				c-6.7,6.4-13.4,12-21,18.4c-8,6.7-16.4,13-25.2,18.7l-22.5,14.7c-13.9,8.5-29.8,13-46,13.1c-16.2-0.1-32.2-4.6-46-13.1
				l-22.5-14.7c-8.7-5.7-17.1-12-25.2-18.7c-7.5-6.4-14.3-12-21-18.4c-7.4-7.1-14.1-14.8-20.2-23c-12-20-18.4-42.9-18.4-66.2V25.9
				c0-14.3,11.5-25.8,25.8-25.9c0,0,0,0,0,0h254.9C504.8,0,516.4,11.6,516.4,25.9C516.4,25.8,516.4,25.9,516.4,25.9z"/>
			<linearGradient id="Path_2344_1_" gradientUnits="userSpaceOnUse" x1="187.4615" y1="182.813" x2="494.0768" y2="182.813">
				<stop  offset="0" style="stop-color:#FF9520"/>
				<stop  offset="0.3366" style="stop-color:#FF9821"/>
				<stop  offset="0.5734" style="stop-color:#FFA126"/>
				<stop  offset="0.7796" style="stop-color:#FFB12D"/>
				<stop  offset="0.9673" style="stop-color:#FFC637"/>
				<stop  offset="1" style="stop-color:#FFCB39"/>
			</linearGradient>
			<path id="Path_2344" class="st6" d="M494.1,46.9v143.7c0,23.3-6.4,46.2-18.4,66.2c-6.1,8.2-12.8,15.9-20.2,23
				c-6.7,6.4-13.4,12-21,18.4c-8,6.7-16.4,13-25.2,18.7l-22.5,14.7c-13.9,8.5-29.8,13-46,13.1c-16.2-0.1-32.2-4.6-46-13.1
				l-22.5-14.7c-8.7-5.7-17.1-12-25.2-18.7c-7.5-6.4-14.3-12-21-18.4c-7.4-7.1-14.1-14.8-20.2-23c-12-20-18.4-42.9-18.4-66.2V46.9
				c0-14.3,11.5-25.8,25.8-25.9c0,0,0,0,0,0h254.9C482.5,21,494.1,32.6,494.1,46.9C494.1,46.8,494.1,46.9,494.1,46.9z"/>
			<g id="Group_1328" transform="translate(245.642 83.05)">
				<path id="Path_2345" class="st1" d="M95.6,19.9l32.2,128.6H63.4L95.6,19.9z"/>
				<circle id="Ellipse_620" class="st1" cx="95.2" cy="43.2" r="43.2"/>
			</g>
			<linearGradient id="Path_2533_1_" gradientUnits="userSpaceOnUse" x1="51.9903" y1="267.497" x2="239.9523" y2="267.497">
				<stop  offset="0" style="stop-color:#FF9520"/>
				<stop  offset="0.3366" style="stop-color:#FF9821"/>
				<stop  offset="0.5734" style="stop-color:#FFA126"/>
				<stop  offset="0.7796" style="stop-color:#FFB12D"/>
				<stop  offset="0.9673" style="stop-color:#FFC637"/>
				<stop  offset="1" style="stop-color:#FFCB39"/>
			</linearGradient>
			<path id="Path_2533" class="st7" d="M58.2,216.2h175.6c3.4,0,6.2,2.8,6.2,6.2v90.2c0,3.4-2.8,6.2-6.2,6.2H58.2
				c-3.4,0-6.2-2.8-6.2-6.2c0,0,0,0,0,0v-90.2C52,219,54.8,216.2,58.2,216.2C58.2,216.2,58.2,216.2,58.2,216.2z"/>
			<rect id="Rectangle_713" x="52" y="235.7" class="st1" width="188" height="20.6"/>
			<g id="Group_1330" transform="translate(12.643 284.549)">
				<g id="Group_1329">
					<circle id="Ellipse_621" class="st1" cx="63.8" cy="11.8" r="11.8"/>
					<circle id="Ellipse_622" class="st1" cx="81.5" cy="11.8" r="11.8"/>
				</g>
				<path id="Rectangle_714" class="st1" d="M156.9,5.1h53c2.6,0,4.7,2.1,4.7,4.7v3.8c0,2.6-2.1,4.7-4.7,4.7h-53
					c-2.6,0-4.7-2.1-4.7-4.7V9.9C152.2,7.3,154.3,5.1,156.9,5.1z"/>
			</g>
			<linearGradient id="Rectangle_715_1_" gradientUnits="userSpaceOnUse" x1="445.0393" y1="77.849" x2="633.0013" y2="77.849">
				<stop  offset="0" style="stop-color:#FF9520"/>
				<stop  offset="0.3366" style="stop-color:#FF9821"/>
				<stop  offset="0.5734" style="stop-color:#FFA126"/>
				<stop  offset="0.7796" style="stop-color:#FFB12D"/>
				<stop  offset="0.9673" style="stop-color:#FFC637"/>
				<stop  offset="1" style="stop-color:#FFCB39"/>
			</linearGradient>
			<path id="Rectangle_715" class="st8" d="M451.2,26.6h175.6c3.4,0,6.2,2.8,6.2,6.2v90.2c0,3.4-2.8,6.2-6.2,6.2H451.2
				c-3.4,0-6.2-2.8-6.2-6.2V32.8C445,29.3,447.8,26.6,451.2,26.6z"/>
			<rect id="Rectangle_716" x="445" y="46" class="st1" width="188" height="20.6"/>
			<g id="Group_1333" transform="translate(405.692 94.901)">
				<g id="Group_1332">
					<circle id="Ellipse_623" class="st1" cx="63.8" cy="11.8" r="11.8"/>
					<circle id="Ellipse_624" class="st1" cx="81.5" cy="11.8" r="11.8"/>
				</g>
				<path id="Rectangle_717" class="st1" d="M156.9,5.1h53c2.6,0,4.7,2.1,4.7,4.7v3.8c0,2.6-2.1,4.7-4.7,4.7h-53
					c-2.6,0-4.7-2.1-4.7-4.7V9.9C152.2,7.3,154.3,5.1,156.9,5.1z"/>
			</g>
		</g>
	</g>
	<g id="Group_1339" transform="translate(-5630.675 2362.917)">
		
			<linearGradient id="Ellipse_149_1_" gradientUnits="userSpaceOnUse" x1="-413.8615" y1="570.6933" x2="-413.8615" y2="569.6933" gradientTransform="matrix(84.464 0 0 -84.464 35050.6211 48203.0352)">
			<stop  offset="0" style="stop-color:#FFA333"/>
			<stop  offset="1" style="stop-color:#FF8E55"/>
		</linearGradient>
		<circle id="Ellipse_149" class="st9" cx="94.2" cy="42.2" r="42.2"/>
		<g id="Group_1338" transform="translate(23.331 26.333)">
			<path id="Path_2346" class="st10" d="M53.4,0h35.1c0.8,0,1.4,0.6,1.4,1.4c0,0,0,0,0,0v19.4c0,2.9-0.8,5.7-2.3,8.1l0,0
				c-1.6,2.6-3.8,4.8-6.4,6.4l-4.5,2.8c-3.5,2.2-8,2.1-11.5,0l-4.4-2.7c-2.6-1.6-4.8-3.8-6.4-6.5l-0.1-0.1c-1.4-2.4-2.2-5.2-2.2-8
				L52,1.4C52,0.6,52.6,0,53.4,0C53.4,0,53.4,0,53.4,0z"/>
			<g id="Group_1337" transform="translate(13.993 9.195)">
				<path id="Path_2347" class="st1" d="M56.9,2.3l3.7,14.6h-7.3L56.9,2.3z"/>
				<circle id="Ellipse_625" class="st1" cx="56.9" cy="4.9" r="4.9"/>
			</g>
		</g>
	</g>
	<g id="Group_1346" transform="translate(-5780.536 2397.94)">
		<g id="Group_1343">
			
				<linearGradient id="Path_2348_1_" gradientUnits="userSpaceOnUse" x1="-245.8051" y1="525.2064" x2="-245.8051" y2="524.2064" gradientTransform="matrix(9.8979 0 0 -15.2671 2505.2949 8279.4346)">
				<stop  offset="0" style="stop-color:#FFE8E0"/>
				<stop  offset="1" style="stop-color:#FFB5AA"/>
			</linearGradient>
			<path id="Path_2348" class="st11" d="M67.4,261.1l0.1,14.9l8.8,0.3l1-14.9L67.4,261.1z"/>
			
				<linearGradient id="Path_2349_1_" gradientUnits="userSpaceOnUse" x1="-243.8893" y1="524.1493" x2="-243.8893" y2="523.1493" gradientTransform="matrix(9.0562 0 0 -14.1001 2313.5994 7652.5234)">
				<stop  offset="0" style="stop-color:#FFE8E0"/>
				<stop  offset="1" style="stop-color:#FFB5AA"/>
			</linearGradient>
			<path id="Path_2349" class="st12" d="M100.4,263.4l1,12.4l8.1,0.3l-0.2-14.1L100.4,263.4z"/>
			<g id="Group_1340" transform="translate(9.373 58.309)">
				<rect id="Rectangle_718" x="52" y="0" class="st13" width="4.2" height="277.6"/>
				<rect id="Rectangle_719" x="101.9" y="0" class="st13" width="4.2" height="277.6"/>
				<rect id="Rectangle_720" x="52.5" y="221.9" class="st13" width="51.8" height="3.9"/>
				<rect id="Rectangle_721" x="52.5" y="163.9" class="st13" width="51.8" height="3.9"/>
				<rect id="Rectangle_722" x="52.5" y="104.3" class="st13" width="51.8" height="3.9"/>
				<rect id="Rectangle_723" x="52.5" y="46.3" class="st13" width="51.8" height="3.9"/>
			</g>
			<g id="Group_1342">
				
					<linearGradient id="Path_2350_1_" gradientUnits="userSpaceOnUse" x1="-261.3094" y1="536.8429" x2="-259.6634" y2="535.9359" gradientTransform="matrix(33.561 0 0 -170.4502 8839.0674 91604.5313)">
					<stop  offset="0" style="stop-color:#002A5E"/>
					<stop  offset="1" style="stop-color:#2541A3"/>
				</linearGradient>
				<path id="Path_2350" class="st14" d="M107.2,112.8c6.6,12.7,10.3,26.7,10.7,41.1c0.1,3.2,0.2,6.8,0.3,10.6
					c0.1,2.9,0.2,6,0.3,9.2c0.6,24.8-0.9,79.8-1.3,93.6c-0.1,1.8-1.5,3.3-3.3,3.4L99,271.4c-1.8,0.1-3.4-1.2-3.6-3
					c-1.4-10.8-6.1-47.2-8.5-72.5c-0.6-6.5-1.1-13.5-1.4-20.5c-0.1-3.1-0.3-6.1-0.3-9.2C84.2,122.1,89.7,79.5,107.2,112.8z"/>
				
					<linearGradient id="Path_2351_1_" gradientUnits="userSpaceOnUse" x1="-260.4249" y1="536.8363" x2="-260.4249" y2="535.8363" gradientTransform="matrix(34.0537 0 0 -170.6499 8943.0127 91709.9844)">
					<stop  offset="0" style="stop-color:#0C3275"/>
					<stop  offset="1" style="stop-color:#213F9C"/>
				</linearGradient>
				<path id="Path_2351" class="st15" d="M83.7,111.6c5.7,13.1,8.4,27.4,7.8,41.7c-0.1,3.2-0.3,6.8-0.4,10.6c-0.1,2.9-0.2,6-0.4,9.2
					c-1.1,25.1-6.6,80.7-7.9,93.7c-0.2,1.6-1.5,2.8-3.1,2.7L64,269.1c-1.6,0-2.8-1.3-2.9-2.8c-0.6-10.3-2.8-47.6-3.4-73.3
					c-0.2-6.6-0.2-13.5,0-20.6c0.1-3.1,0.2-6.1,0.3-9.2C60.1,119.3,68.5,77.2,83.7,111.6z"/>
				
					<linearGradient id="Path_2352_1_" gradientUnits="userSpaceOnUse" x1="-212.9512" y1="520.3849" x2="-211.7282" y2="520.3849" gradientTransform="matrix(7.2319 0 0 -11.4075 1814.0594 6018.3994)">
					<stop  offset="0" style="stop-color:#FFE8E0"/>
					<stop  offset="1" style="stop-color:#FFB5AA"/>
				</linearGradient>
				<path id="Path_2352" class="st16" d="M88.1,76.7c0,0-0.6,9.3-0.2,10.2c0.8,1.7,2.2,0.8,4.9,0.5c1.3-0.1,2.1-1.5,2-3.2
					c-0.2-2.4-0.4-5.6,0.1-6.6C95.8,75.7,88.1,76.7,88.1,76.7z"/>
				<g id="Group_1341">
					
						<linearGradient id="Path_2353_1_" gradientUnits="userSpaceOnUse" x1="-263.2248" y1="535.3751" x2="-264.2248" y2="535.3751" gradientTransform="matrix(75.8184 0 0 -92.6848 20087.1465 49730.4609)">
						<stop  offset="0" style="stop-color:#969FE7"/>
						<stop  offset="0.833" style="stop-color:#626FDB"/>
					</linearGradient>
					<path id="Path_2353" class="st17" d="M116.6,104.1c-2.6,10.6-0.7,22.8,0.8,32.1c1.2,7.5,2.3,11,0.2,13.5
						c-3.2,3.9-10.1,2.4-14.2,1.5c-5.9-1.2-7.9-4.3-13.8-4.8c-0.6,0-1.1-0.1-1.7-0.1c-2.4,0.1-4.8,0.8-9.9,2.5
						c-18.8,6.2-19.6,7.5-21.1,6.5c-6.2-3.9,8.1-26.1,3.9-56.3C59.2,87,56.4,87,54.1,75c5.2-2.9,9.7-7,13-12c1.1,5.1,3,9.4,6.4,13.2
						c1,1.1,2.2,2.2,3.4,3.1c4.1,3,9,4.6,14.1,4.6c2.8,0,5.6-0.5,8.3-1.4c5.7-1.8,10.7-5.1,14.7-9.6c1.6-1.8,2.9-3.8,4-5.9
						c3.2,4.3,7.3,7.9,12,10.4c-2,5.3-4,7.8-5.6,11.4C120.5,97.4,118.3,97.2,116.6,104.1z"/>
					<path id="Path_2354" class="st18" d="M89,49.3"/>
					
						<linearGradient id="Path_2355_1_" gradientUnits="userSpaceOnUse" x1="-255.6182" y1="534.561" x2="-253.8952" y2="535.361" gradientTransform="matrix(17.7202 0 0 -77.4087 4643.6812 41449.2578)">
						<stop  offset="0" style="stop-color:#FFE8E0"/>
						<stop  offset="1" style="stop-color:#FFB5AA"/>
					</linearGradient>
					<path id="Path_2355" class="st19" d="M134.4,56.4c-1.3,10.3-2.9,16.6-4.6,21c-4.7-2.6-8.8-6.1-12-10.4c2.6-5.2,3.9-11,5.3-18.1
						c0.9-4.2,0.9-5.7,2.9-28.8c1.2-14.3,1.8-20,2.9-20.1c1.1-0.1,2.3,5.6,2.7,7.6C134.6,22.4,137.2,34.6,134.4,56.4z"/>
					
						<linearGradient id="Path_2356_1_" gradientUnits="userSpaceOnUse" x1="-253.8034" y1="533.5895" x2="-252.1764" y2="534.4805" gradientTransform="matrix(15.3096 0 0 -56.7629 3934.3455 30360.4609)">
						<stop  offset="0" style="stop-color:#FFE8E0"/>
						<stop  offset="1" style="stop-color:#FFB5AA"/>
					</linearGradient>
					<path id="Path_2356" class="st20" d="M65.4,52.4c0.3,3.6,0.9,7.1,1.6,10.6c-3.3,5-7.7,9.1-13,12c-0.3-1.4-0.6-3.1-0.8-4.9
						c-4.3-29.2,3.7-44.5,8.3-48.9c0.8-0.8,3.8-3.6,5.2-2.8c1.6,1-0.1,6.1-1,12.2C64.7,37.8,64.6,45.1,65.4,52.4z"/>
				</g>
			</g>
			
				<linearGradient id="Ellipse_626_1_" gradientUnits="userSpaceOnUse" x1="-251.6328" y1="504.242" x2="-251.6328" y2="503.242" gradientTransform="matrix(13.8 0 0 -5.78 3544.0522 3188.9678)">
				<stop  offset="0" style="stop-color:#002A5E"/>
				<stop  offset="1" style="stop-color:#2541A3"/>
			</linearGradient>
			<ellipse id="Ellipse_626" class="st21" cx="71.5" cy="277.3" rx="6.9" ry="2.9"/>
			
				<linearGradient id="Ellipse_627_1_" gradientUnits="userSpaceOnUse" x1="-251.6328" y1="504.242" x2="-251.6328" y2="503.242" gradientTransform="matrix(13.8 0 0 -5.78 3577.8853 3189.1838)">
				<stop  offset="0" style="stop-color:#002A5E"/>
				<stop  offset="1" style="stop-color:#2541A3"/>
			</linearGradient>
			<ellipse id="Ellipse_627" class="st22" cx="105.4" cy="277.6" rx="6.9" ry="2.9"/>
			
				<linearGradient id="Ellipse_628_1_" gradientUnits="userSpaceOnUse" x1="-255.6572" y1="528.1862" x2="-254.6572" y2="528.1862" gradientTransform="matrix(18.12 0 0 -20.984 4713.8794 11155.7451)">
				<stop  offset="0" style="stop-color:#432929"/>
				<stop  offset="1" style="stop-color:#966565"/>
			</linearGradient>
			<ellipse id="Ellipse_628" class="st23" cx="90.4" cy="72.3" rx="9.1" ry="10.5"/>
			
				<linearGradient id="Path_2357_1_" gradientUnits="userSpaceOnUse" x1="-262.1218" y1="533.433" x2="-261.1218" y2="533.433" gradientTransform="matrix(42.5562 0 0 -48.1956 11224.1182 25803.668)">
				<stop  offset="0" style="stop-color:#432929"/>
				<stop  offset="1" style="stop-color:#966565"/>
			</linearGradient>
			<path id="Path_2357" class="st24" d="M95.2,76.5c2.4,8.3,3.4,14.1,6.3,18.8c5.2,8.4,10.5,11,10.2,15c-0.4,4.9-9.9,10.1-16,7.9
				c-5.1-1.8-5.6-7.9-9.2-7.9c-4.3,0-5.9,8.4-9.6,8.4c-3.5,0-6.4-6.7-7.3-11.1c-1-5.4-0.1-11.1,2.6-15.9c3.9-6.6,7.5-4.8,11.3-11.8
				c2.2-4.1,2.6-7.7,5.9-9.1c0.2-0.1,2.7-1,4.2,0.2C95.1,72.3,94.9,75.2,95.2,76.5z"/>
		</g>
		<g id="Group_1345" transform="translate(252.206 88.969)">
			<g id="Group_1344" transform="translate(0 32.468)">
				
					<linearGradient id="Path_657_1_" gradientUnits="userSpaceOnUse" x1="-512.4094" y1="409.9044" x2="-511.4094" y2="409.9044" gradientTransform="matrix(30.3931 0 0 -31.7712 15699.8359 13226.46)">
					<stop  offset="0" style="stop-color:#002A5E"/>
					<stop  offset="1" style="stop-color:#2541A3"/>
				</linearGradient>
				<path id="Path_657" class="st25" d="M155.5,208.9c0,0-24.4,11.7-28.4,10.1c-4-1.6,5.3-5.3,10-10.4s1.9-17.8,1.9-17.8
					s7-4,7.4-3.4S160.3,206.9,155.5,208.9z"/>
				
					<linearGradient id="Path_660_1_" gradientUnits="userSpaceOnUse" x1="-513.0798" y1="406.1091" x2="-512.0798" y2="406.1091" gradientTransform="matrix(33.7656 0 0 -19.6318 17402.2852 8181.1309)">
					<stop  offset="0" style="stop-color:#002A5E"/>
					<stop  offset="1" style="stop-color:#2541A3"/>
				</linearGradient>
				<path id="Path_660" class="st26" d="M110.2,216.9c4.2-0.5-2.6-18.3-2.6-18.3l-6.4,0.5c0.6,4.7-2.3,9.2-6.9,10.6
					c-8.1,2.9-17.9,2-16.3,3.4S74.3,221.1,110.2,216.9z"/>
				<path id="Rectangle_569" class="st27" d="M52.9,2.8l0.1-0.1c0.5-0.4,1.2-0.2,1.6,0.3L65,18.4c0.4,0.5,0.2,1.2-0.3,1.6l-0.1,0.1
					c-0.5,0.4-1.2,0.2-1.6-0.3L52.6,4.3C52.3,3.8,52.4,3.1,52.9,2.8z"/>
				
					<linearGradient id="Path_665_1_" gradientUnits="userSpaceOnUse" x1="-505.2762" y1="404.465" x2="-504.2762" y2="404.465" gradientTransform="matrix(14.7344 0 0 -16.8438 7561.7026 6821.1304)">
					<stop  offset="0" style="stop-color:#FFE8E0"/>
					<stop  offset="1" style="stop-color:#FFB5AA"/>
				</linearGradient>
				<path id="Path_665" class="st28" d="M118.2,16.3c0,0-2.1-14-1.2-15.6s10.5-0.8,13.9,7.2C134.3,15.8,122.5,18,118.2,16.3z"/>
				
					<linearGradient id="Path_663_1_" gradientUnits="userSpaceOnUse" x1="-511.7158" y1="414.9849" x2="-511.7158" y2="414.3169" gradientTransform="matrix(29.541 0 0 -142.4255 15226.2754 59191.7227)">
					<stop  offset="0" style="stop-color:#0C3275"/>
					<stop  offset="1" style="stop-color:#213F9C"/>
				</linearGradient>
				<path id="Path_663" class="st29" d="M101.7,88.5c0,2.4-13.1,18.7-2.8,111.4c0.2,1.8,1.8,3.1,3.6,3l4.9-0.3c1.7-0.1,3-1.4,3.2-3
					c1.6-14.9,9.1-83.1,11-87.8c2.1-5.2,3.4-52.5,2.8-51.3S101.7,88.5,101.7,88.5z"/>
				
					<linearGradient id="Path_666_1_" gradientUnits="userSpaceOnUse" x1="-18.6944" y1="410.6454" x2="-18.6444" y2="410.6454" gradientTransform="matrix(11.3276 0 0 -36.1335 5834.4634 14941.5098)">
					<stop  offset="0.216" style="stop-color:#432929"/>
					<stop  offset="1" style="stop-color:#966565"/>
				</linearGradient>
				<path id="Path_666" class="st30" d="M158,121.1c0,0,3.6-33.6,4.9-35.7s7.5,37.5,6.3,36s-5.4-35.7-6-33.9S159.2,123.4,158,121.1z
					"/>
				
					<linearGradient id="Path_668_1_" gradientUnits="userSpaceOnUse" x1="-97.6867" y1="407.2618" x2="-97.6437" y2="407.2618" gradientTransform="matrix(13.4487 0 0 -22.209 6935.1187 9135.2441)">
					<stop  offset="0" style="stop-color:#FFE8E0"/>
					<stop  offset="1" style="stop-color:#FFB5AA"/>
				</linearGradient>
				<path id="Path_668" class="st31" d="M157.6,81.6c0.3,0.9,2.9,16.1,5.7,18.7s7.9,0.5,7.8-2.9s-1.2-2.8-3.7-5.7
					s-5.8-12.4-5.8-12.4L157.6,81.6z"/>
				
					<linearGradient id="Path_664_1_" gradientUnits="userSpaceOnUse" x1="-513.3474" y1="414.9172" x2="-513.3474" y2="413.9172" gradientTransform="matrix(38.6802 0 0 -120.0117 19987.1719 49870.7539)">
					<stop  offset="0" style="stop-color:#0C3275"/>
					<stop  offset="1" style="stop-color:#213F9C"/>
				</linearGradient>
				<path id="Path_664" class="st32" d="M136.7,193.4c0.9,2,3.2,3,5.3,2.1c0.1-0.1,0.3-0.1,0.4-0.2c3.6-2,8.3-4.7,7.8-5.1
					c-0.8-0.6-6.6-53.1-11-61.6c-3.3-6.4,2.6-34.7,5.7-47.9c0.5-2.2-0.9-4.3-3-4.8c-0.7-0.2-1.5-0.1-2.2,0.1l-25.3,8.2
					c-1.7,0.6-2.8,2.2-2.8,4c0.3,9.1,1.3,36,1.2,41.6C112.5,135.6,130.9,179.6,136.7,193.4z"/>
				
					<linearGradient id="Path_672_1_" gradientUnits="userSpaceOnUse" x1="-512.9984" y1="413.9856" x2="-512.9984" y2="412.9856" gradientTransform="matrix(36.2793 0 0 -76.2778 18758.0488 31589.6152)">
					<stop  offset="0" style="stop-color:#598FE8"/>
					<stop  offset="1" style="stop-color:#79C2F0"/>
				</linearGradient>
				<path id="Path_672" class="st33" d="M164.9,82.4c0.3,1.5-0.6,3-2.1,3.4c-1.7,0.5-3.8,1.2-4.3,2.1c-0.9,1.6-9.4-17.1-18.6-36
					s-15.4-42.2-8.3-40.1C138.8,13.9,150.9,13.4,164.9,82.4z"/>
				
					<linearGradient id="Path_670_1_" gradientUnits="userSpaceOnUse" x1="-514.7043" y1="414.297" x2="-514.7043" y2="413.297" gradientTransform="matrix(52.0796 0 0 -86.8584 26928.2422 35994.1211)">
					<stop  offset="0" style="stop-color:#598FE8"/>
					<stop  offset="1" style="stop-color:#79C2F0"/>
				</linearGradient>
				<path id="Path_670" class="st34" d="M146.7,84.8c1,3.1-0.6,6.3-3.7,7.4c0,0,0,0,0,0c-0.2,0.1-0.4,0.1-0.5,0.2
					c-7.7,1.7-19.3,4-23.5,3.4c-6.4-0.9-13.3-2.3-20.2-2.8s4.1-71.9,12.8-78.4s12.2-5.7,14.4-5.5c2.3,0.2,9.6,4.4,9.6,4.4
					s9.7,19.7,12.5,25c0.5,1,0.6,2.1,0.4,3.1C147.1,47.9,142.3,71.2,146.7,84.8z"/>
				<g id="Group_999" transform="translate(2.376 9.769)">
					<path id="Path_661" class="st35" d="M68.6,24c-3.5-3.1-4-4.4-8.8-7S48.3-4.3,54.5,0.9s8.6,11.9,9.2,7.5
						c0.6-4.4,3.2,6.1,7.3,10.6S68.6,24,68.6,24z"/>
					
						<linearGradient id="Path_662_1_" gradientUnits="userSpaceOnUse" x1="-518.035" y1="402.8761" x2="-517.359" y2="402.5871" gradientTransform="matrix(60.3252 0 0 -53.3411 31318.877 21507.2168)">
						<stop  offset="0" style="stop-color:#79C2F0"/>
						<stop  offset="1" style="stop-color:#598FE8"/>
					</linearGradient>
					<path id="Path_662" class="st36" d="M123.8,11.4c-0.2-7.5-10.5-9.6-13.7-2.7c-5,11-14.9,31.1-18.6,29.1
						c-5-2.7-21.2-24.9-23.3-22.1S63,20.2,63.5,22S82.6,66.5,99,56.3C110.2,49.2,124.2,25.1,123.8,11.4z"/>
				</g>
				<path id="Path_671" class="st37" d="M144.9,160.6l7.4,5.1l20.4-48l-25.1,0.4l-3.1,41.5C144.5,160.1,144.6,160.4,144.9,160.6z"/>
				<path id="Path_673" class="st38" d="M152.3,165.8l31.3-1.4c0.5-0.1,0.8-0.5,0.8-1l0-0.1l-5.9-44.7c0-0.4-0.4-0.8-0.8-0.8
					l-30,0.5L152.3,165.8z"/>
				
					<ellipse id="Ellipse_173" transform="matrix(0.9999 -1.600399e-02 1.600399e-02 0.9999 -1.8988 2.7204)" class="st1" cx="169" cy="120" rx="0.6" ry="0.7"/>
				
					<ellipse id="Ellipse_174" transform="matrix(0.9999 -1.600399e-02 1.600399e-02 0.9999 -1.9029 2.5482)" class="st1" cx="158.3" cy="120.2" rx="0.6" ry="0.7"/>
			</g>
			
				<linearGradient id="Ellipse_629_1_" gradientUnits="userSpaceOnUse" x1="-510.5236" y1="440.5663" x2="-511.0544" y2="441.414" gradientTransform="matrix(26.218 0 0 -26.218 13514.6367 11589.8145)">
				<stop  offset="0" style="stop-color:#FFE8E0"/>
				<stop  offset="1" style="stop-color:#FFB5AA"/>
			</linearGradient>
			<circle id="Ellipse_629" class="st39" cx="121.4" cy="25.8" r="13.1"/>
			
				<linearGradient id="Path_2358_1_" gradientUnits="userSpaceOnUse" x1="-516.3555" y1="443.6487" x2="-515.3555" y2="443.6487" gradientTransform="matrix(73.7549 0 0 -40.1125 38184.7539 17815.9316)">
				<stop  offset="0" style="stop-color:#432929"/>
				<stop  offset="1" style="stop-color:#966565"/>
			</linearGradient>
			<path id="Path_2358" class="st40" d="M124.6,34.2c0,0,4.4-5.3,2.2-8.4c-2.1-3.1-5.7-3.5-7.3-0.6c0,0-1.6-7.7-0.9-9.9
				c0,0-14.5,2.4-17.3-7.2s15.2-11.2,14.8-1.9c0,0,19.2-3.6,24.4,8.4c0,0,27.9-15.7,33-0.9s-7.1,22.9-15.8,16.9s-15.6-9.8-15.6-9.8
				s1.7,11.1-2.5,16.2S128.2,41,124.6,34.2z"/>
		</g>
	</g>
</g>
<g>
	<g>
		<path class="st2" d="M692,302.8c-1.6,8.5-3.3,17.3-8.3,24.5c-2.3,3.4-5.4,6.4-9,8.4c-1.9,1-3.9,1.7-5.9,2.2
			c-2.1,0.5-4.2,0.9-6.2,1.7c-6.7,2.8-10.3,9.7-14,15.4c-1.9,2.9-3.9,5.8-6.6,8.1c-2.7,2.3-5.9,3.8-9.5,4.2
			c-3.7,0.4-7.5-0.3-11.1-1.1c-4.4-1-8.9-2.2-13.3-3.4c-1.1-0.3-2.3-0.6-3.4-0.9c-0.5-0.1-0.3-0.9,0.2-0.8c4.6,1.2,9.1,2.3,13.7,3.5
			c3.6,0.9,7.3,1.9,11.1,1.9c3.6,0.1,7.2-0.8,10.1-2.9c2.8-2,5-4.7,6.9-7.5c3.8-5.6,7.1-12.3,13-16c1.6-1,3.3-1.7,5.1-2.2
			c2-0.5,4.1-0.9,6.1-1.6c4-1.3,7.5-4,10.2-7.2c5.6-6.6,7.7-15.2,9.4-23.6c0.2-1,0.4-2.1,0.6-3.1C691.4,302,692.1,302.3,692,302.8
			L692,302.8z"/>
	</g>
	<g>
		<path class="st2" d="M691.7,303c-3.5,1.8-7.4,2.8-11.3,3.1c-3.8,0.3-7.4-0.3-11.1-1c-3.4-0.6-7-1.1-10.4-0.2
			c-3.3,0.9-5.8,3.2-7.7,6c-3.8,5.6-5.5,12.8-10.7,17.4c-6.3,5.6-15.2,3.2-22.5,6c-1.9,0.7-3.7,1.8-5,3.5c-1.3,1.7-1.9,3.8-2.4,5.9
			c-1.1,4.7-2.2,9.3-3.3,14c-0.3,1.2-0.6,2.3-0.8,3.5c-0.1,0.5-0.9,0.3-0.8-0.2c1.1-4.7,2.2-9.4,3.4-14.2c0.5-2.2,0.9-4.5,1.8-6.7
			c0.7-1.9,1.9-3.5,3.6-4.7c3.3-2.5,7.6-3.1,11.6-3.5c4-0.4,8.1-0.6,11.7-2.6c3-1.7,5.1-4.6,6.8-7.6c1.7-3.1,3.1-6.4,4.9-9.4
			c1.6-2.8,3.7-5.5,6.6-7.1c3.1-1.7,6.6-1.8,10-1.4c3.6,0.4,7.1,1.4,10.8,1.5c4,0.2,8.1-0.5,11.9-1.9c0.9-0.4,1.8-0.8,2.7-1.2
			C691.8,302.1,692.2,302.8,691.7,303L691.7,303z"/>
	</g>
	<g>
		<path class="st2" d="M692,303.3c-2.6,3.2-5.2,6.4-8.1,9.2c-2.9,2.8-6.2,5.1-9.8,7c-3.5,1.9-7.2,3.5-10.6,5.5
			c-3.6,2.2-6.8,4.9-10,7.6c-3.1,2.7-6.3,5.4-9.6,7.8c-3.3,2.5-6.8,4.8-10.2,7.1c-3.5,2.3-7,4.6-10.5,6.8c-3.4,2.1-6.9,4.1-10.6,5.6
			c-6.6,2.6-13.8,3.5-20.8,3.3c-0.9,0-1.8-0.1-2.6-0.1c-0.5,0-0.5-0.8,0-0.8c7.1,0.4,14.2-0.2,21-2.4c7.5-2.5,14.1-7.2,20.7-11.5
			c7-4.5,13.8-9.3,20.1-14.7c3.1-2.6,6.1-5.4,9.5-7.7c3.2-2.3,6.7-4,10.2-5.7c3.6-1.8,7.1-3.7,10.2-6.3c3.2-2.6,5.9-5.7,8.5-8.8
			c0.6-0.8,1.3-1.6,1.9-2.4C691.6,302.5,692.3,302.9,692,303.3L692,303.3z"/>
	</g>
	<g>
		<path class="st2" d="M690.9,307.2c-0.7,0.8-1.7,1.4-2.7,1.7c-0.2,0.1-0.4-0.1-0.5-0.3c0-0.2,0.1-0.4,0.3-0.5
			c0.9-0.3,1.7-0.8,2.4-1.5c0.1-0.2,0.4-0.1,0.6,0C691.1,306.8,691,307,690.9,307.2L690.9,307.2z"/>
	</g>
	<g>
		<path class="st2" d="M690.5,309c-1.2,1.2-2.9,1.9-4.7,1.8c-0.5,0-0.5-0.8,0-0.8c1.5,0.1,3-0.5,4.1-1.6
			C690.3,308,690.8,308.6,690.5,309L690.5,309z"/>
	</g>
	<g>
		<path class="st2" d="M689.7,311.3c-0.1,0.2-0.3,0.5-0.5,0.6c-0.2,0.2-0.5,0.3-0.7,0.5c-0.5,0.3-1.1,0.5-1.6,0.6
			c-1.1,0.3-2.3,0.4-3.4,0.1c-0.4-0.1-0.3-0.8,0.1-0.8c1.1,0.2,2.1,0.2,3.2-0.1c0.5-0.1,1-0.3,1.5-0.5c0.2-0.1,0.5-0.2,0.7-0.3
			c0.2-0.1,0.5-0.2,0.7-0.3C689.7,311.2,689.8,311.3,689.7,311.3L689.7,311.3z"/>
	</g>
	<g>
		<path class="st2" d="M689.4,313.9c-1.2,0.9-2.7,1.4-4.2,1.6c-1.5,0.2-3,0.2-4.5-0.2c-0.5-0.1-0.2-0.8,0.2-0.7
			c1.4,0.3,2.8,0.4,4.2,0.2c1.4-0.2,2.7-0.7,4-1.3C689.4,313.4,689.6,313.7,689.4,313.9L689.4,313.9z"/>
	</g>
	<g>
		<path class="st2" d="M688.9,316.1c-1.7,1.3-3.7,2.1-5.9,2.3c-2.1,0.2-4.4,0-6.3-0.9c-0.4-0.2-0.2-0.8,0.2-0.6c2,0.7,3.9,1.1,6,0.9
			c2.1-0.2,4.1-0.8,5.9-1.8C688.9,316,688.9,316.1,688.9,316.1L688.9,316.1z"/>
	</g>
	<g>
		<path class="st2" d="M687.6,318.2c-0.9,1-2.1,1.5-3.3,1.8c-1.2,0.3-2.3,0.4-3.5,0.5c-2.3,0.1-4.8-0.3-6.8-1.5
			c-0.5-0.3,0-0.9,0.4-0.7c2,1,4,1.4,6.3,1.4c2.2,0,5-0.3,6.8-1.7C687.6,317.9,687.8,318.1,687.6,318.2L687.6,318.2z"/>
	</g>
	<g>
		<path class="st2" d="M687.4,319.7c-2.1,2.2-5.1,3.4-8.2,3.4c-1.5,0-2.9-0.3-4.3-0.8c-1.4-0.4-2.9-0.9-4.2-1.7
			c-0.4-0.3-0.1-0.9,0.4-0.8c1.3,0.4,2.6,1.1,3.9,1.5c1.3,0.4,2.7,0.7,4.1,0.8c3,0.2,5.8-0.9,7.9-3
			C687.3,318.9,687.7,319.4,687.4,319.7L687.4,319.7z"/>
	</g>
	<g>
		<path class="st2" d="M686.4,321.3c-0.6,1.5-2.5,2.5-3.9,3c-1.5,0.5-3.1,0.8-4.7,0.8c-1.7,0-3.4-0.2-5.1-0.5
			c-0.9-0.2-1.8-0.4-2.7-0.6c-0.9-0.2-1.7-0.5-2.5-0.9c-0.2-0.1-0.1-0.5,0.2-0.5c0.8,0,1.6,0.3,2.4,0.5c0.8,0.2,1.7,0.5,2.5,0.7
			c1.6,0.4,3.2,0.6,4.8,0.6c1.5,0,3-0.1,4.5-0.6c0.8-0.2,1.6-0.6,2.3-1c0.8-0.5,1.3-1.1,1.9-1.7C686.2,320.8,686.5,321,686.4,321.3
			L686.4,321.3z"/>
	</g>
	<g>
		<path class="st2" d="M685.9,322.2c-0.8,1.4-1.8,2.7-3.2,3.6c-1.3,0.9-2.8,1.5-4.3,1.7c-3.1,0.5-6.2-0.1-9.3-0.6
			c-2.1-0.4-4.3-0.7-6.4-1.3c-0.4-0.1-0.3-0.7,0.1-0.6c3.4,0.3,6.7,1.2,10,1.7c2.9,0.4,6,0.5,8.7-0.9c1.6-0.9,3.1-2.2,4-3.8
			C685.7,321.8,686,322,685.9,322.2L685.9,322.2z"/>
	</g>
	<g>
		<path class="st2" d="M683.7,327.2c-0.8,1.1-2.5,1.7-3.7,2.2c-1.5,0.5-3,0.7-4.6,0.8c-3.2,0.2-6.5-0.2-9.6-1
			c-1.7-0.5-3.6-1-5.1-1.9c-0.4-0.2-0.1-0.8,0.3-0.7c1.5,0.4,2.9,1.1,4.3,1.6c1.5,0.5,3,0.8,4.6,1c3,0.4,6.1,0.6,9.1-0.1
			c0.8-0.2,1.6-0.5,2.4-0.8c0.8-0.4,1.4-0.9,2.2-1.2C683.6,326.9,683.8,327,683.7,327.2L683.7,327.2z"/>
	</g>
	<g>
		<path class="st2" d="M679.7,330.9c0.2,1.4-2.2,1.5-3.1,1.6c-1.5,0.2-3,0.2-4.5,0.2c-3.1-0.1-6.1-0.6-9-1.6
			c-0.8-0.3-1.6-0.6-2.4-0.9c-0.8-0.4-1.5-0.8-2.3-1.3c-0.5-0.3,0-1,0.5-0.8c0.6,0.3,1.3,0.6,1.9,0.8c0.6,0.3,1.2,0.5,1.9,0.8
			c1.3,0.5,2.6,0.9,4,1.3c2.7,0.7,5.4,1,8.2,1c0.8,0,1.6-0.1,2.4-0.1c0.9-0.1,1.8-0.1,2.3-0.9C679.6,330.8,679.7,330.8,679.7,330.9
			L679.7,330.9z"/>
	</g>
	<g>
		<path class="st2" d="M677.2,333.5c-5.5,2.4-11.5,1.2-16.9-0.7c-1.5-0.5-3.1-1.1-4.5-1.8c-0.4-0.2-0.1-0.8,0.3-0.7
			c1.3,0.4,2.5,1,3.8,1.4c1.3,0.5,2.6,0.9,3.9,1.3c2.6,0.7,5.3,1.2,8.1,1.1c1.8-0.1,3.5-0.4,5.2-1
			C677.3,333.1,677.4,333.4,677.2,333.5L677.2,333.5z"/>
	</g>
	<g>
		<path class="st2" d="M673.1,336.1c-3.1,1.1-6.5,0.7-9.7,0.1c-1.7-0.3-3.5-0.7-5.2-1.2c-1.8-0.5-3.4-1.3-4.8-2.5
			c-0.3-0.3,0-0.8,0.4-0.6c2.9,1.9,6.4,2.6,9.7,3.3c3.1,0.7,6.4,1.3,9.6,0.4C673.1,335.6,673.3,336,673.1,336.1L673.1,336.1z"/>
	</g>
	<g>
		<path class="st2" d="M668.9,337.2c0.1,0-0.4,0.3-0.4,0.3c-0.1,0.1-0.3,0.1-0.5,0.2c-0.3,0.1-0.7,0.2-1,0.3
			c-0.8,0.2-1.5,0.3-2.3,0.3c-1.5,0.1-3,0.1-4.5-0.2c-3.3-0.4-6.5-1.6-9.4-3.2c-0.3-0.2-0.1-0.7,0.3-0.5c3.1,1.2,6.1,2.5,9.4,3
			c1.5,0.2,3,0.3,4.5,0.2c0.8-0.1,1.5-0.2,2.3-0.3c0.4-0.1,0.8-0.1,1.1-0.2C668.6,337.1,668.8,337,668.9,337.2c0.1,0,0.1,0,0.1,0
			c0,0,0,0,0,0.1c0,0,0,0.1-0.1,0c0,0,0,0,0,0C668.8,337.3,668.8,337.1,668.9,337.2L668.9,337.2z"/>
	</g>
	<g>
		<path class="st2" d="M663.6,338.8c-1.4,0.3-2.6,0.9-3.9,1.4c-1.2,0.4-2.5,0.6-3.8,0.4c-1.3-0.2-2.6-0.8-3.8-1.3
			c-1.5-0.6-3-1.2-4.3-2c-0.3-0.2-0.1-0.7,0.3-0.6c2.7,0.8,5.1,2.6,7.9,3.2c1.4,0.3,2.7,0.1,4-0.4c1.2-0.4,2.3-0.9,3.6-1.1
			C663.8,338.5,663.8,338.8,663.6,338.8L663.6,338.8z"/>
	</g>
	<g>
		<path class="st2" d="M660.3,340c-1.5,2.2-4.5,2.8-7,2.5c-1.4-0.2-2.8-0.6-4.1-1.2c-1.3-0.6-2.6-1.3-3.7-2.2
			c-0.3-0.2,0.1-0.7,0.4-0.5c1.2,0.5,2.3,1.2,3.5,1.8c1.2,0.6,2.4,1.1,3.7,1.4c2.5,0.5,5.1-0.1,7.1-1.8
			C660.3,339.8,660.4,339.9,660.3,340L660.3,340z"/>
	</g>
	<g>
		<path class="st2" d="M657,342.2c-0.9,2.6-4,3.3-6.4,2.8c-3-0.6-5.5-2.6-8.5-3.2c-0.5-0.1-0.3-0.9,0.2-0.8c2.7,0.5,5,2.2,7.6,3
			c2.4,0.8,5.6,0.6,6.9-1.8C656.9,342.1,657,342.2,657,342.2L657,342.2z"/>
	</g>
	<g>
		<path class="st2" d="M655.2,344.2c-1.1,2.9-4.5,3.7-7.2,3.2c-3.2-0.5-6-2.5-9.2-3.2c-0.5-0.1-0.3-0.9,0.2-0.8
			c2.9,0.6,5.4,2.3,8.3,3.1c1.3,0.4,2.8,0.5,4.1,0.2c1.4-0.4,2.6-1.3,3.2-2.6C654.8,343.7,655.3,343.9,655.2,344.2L655.2,344.2z"/>
	</g>
	<g>
		<path class="st2" d="M653.6,346.5c-0.5,1.6-1.7,2.8-3.3,3.4c-1.6,0.6-3.2,0.5-4.8,0.2c-1.9-0.4-3.7-1-5.5-1.6
			c-1.7-0.6-3.5-1.5-5.4-1.3c-0.5,0-0.7-0.7-0.2-0.8c1.6-0.3,3.2,0.4,4.7,0.9c1.8,0.6,3.6,1.2,5.4,1.7c1.6,0.5,3.3,0.9,5,0.5
			c1.7-0.4,3.1-1.6,4-3.1C653.5,346.4,653.6,346.4,653.6,346.5L653.6,346.5z"/>
	</g>
	<g>
		<path class="st2" d="M652.1,349.5c-1.8,2.6-5,4.1-8.1,3.9c-3.3-0.2-6.2-1.9-9.3-2.7c-1.7-0.4-3.6-0.6-5.3,0.1
			c-0.5,0.2-0.9-0.6-0.4-0.8c2.9-1.1,6-0.3,8.8,0.7c3,1.1,6.2,2.5,9.5,1.6c1.8-0.5,3.4-1.6,4.5-3.1
			C651.8,349,652.3,349.2,652.1,349.5L652.1,349.5z"/>
	</g>
	<g>
		<path class="st2" d="M649.8,352.5c-2.2,2.6-5.7,3.5-9,3.3c-3.6-0.2-7-1.5-10.5-2.1c-1.9-0.3-3.9-0.5-5.8-0.2
			c-0.5,0.1-0.6-0.6-0.1-0.7c6.8-1.7,13.2,3.3,20,2c2-0.4,3.8-1.1,5.1-2.7C649.6,352,650,352.3,649.8,352.5L649.8,352.5z"/>
	</g>
	<g>
		<path class="st2" d="M648.5,353.8c-1.1,3.5-4.8,5.5-8.3,5.8c-3.9,0.3-7.7-1-11.3-2.4c-2.2-0.9-4.5-1.6-6.7-2.3
			c-0.5-0.2-0.3-0.9,0.2-0.8c1.9,0.4,3.8,1.1,5.6,1.8c1.8,0.7,3.6,1.4,5.4,2c3.4,1,7.2,1.5,10.6-0.1c1.8-0.9,3.3-2.3,4.2-4.2
			C648.2,353.5,648.5,353.6,648.5,353.8L648.5,353.8z"/>
	</g>
	<g>
		<path class="st2" d="M646.1,357.2c-1.2,4-5.7,5.9-9.5,5.8c-4-0.1-7.5-2.2-11-4c-2-1-4.1-1.8-6.2-2.3c-0.4-0.1-0.3-0.7,0.1-0.7
			c1.9,0.1,3.6,0.8,5.2,1.6c1.7,0.8,3.3,1.7,5,2.6c3.4,1.7,7.3,2.8,11,1.5c2.3-0.8,4.1-2.5,5.3-4.6C646,357,646.1,357.1,646.1,357.2
			L646.1,357.2z"/>
	</g>
	<g>
		<path class="st2" d="M643.7,361c-2.5,2.7-6.1,4.3-9.7,4.4c-4.1,0.1-7.6-1.8-11-3.9c-1-0.6-2-1.3-3-1.9c-1-0.6-2.1-1-3.1-1.6
			c-0.4-0.2-0.1-0.7,0.3-0.7c0.9,0.2,1.8,0.7,2.7,1.2c0.9,0.5,1.7,1,2.5,1.5c1.7,1.1,3.3,2.2,5,3.1c1.7,0.9,3.6,1.5,5.5,1.6
			c1.8,0.1,3.7-0.2,5.4-0.9c1.9-0.7,3.6-1.9,5-3.4C643.5,360.3,643.9,360.7,643.7,361L643.7,361z"/>
	</g>
	<g>
		<path class="st2" d="M635.8,365.8c-5.7,3.3-12.5,0.2-17.3-3.2c-1.6-1.1-3.1-2.3-4.9-3c-0.5-0.2-0.3-0.9,0.2-0.8
			c1.5,0.4,2.9,1.3,4.2,2.3c1.3,1,2.6,1.9,4,2.7c2.7,1.6,5.7,2.8,8.8,2.8c1.6,0,3.4-0.3,4.9-1C635.9,365.6,635.9,365.7,635.8,365.8
			L635.8,365.8z"/>
	</g>
	<g>
		<path class="st2" d="M616.3,364.3c-0.4,0.1-0.7,0-1-0.2c-0.6-0.3-1.1-0.6-1.7-1c-1.1-0.7-2.2-1.3-3.2-2c-0.4-0.3,0-0.9,0.4-0.6
			c0.9,0.6,1.9,1.2,2.8,1.9c0.4,0.3,0.9,0.6,1.3,0.9c0.3,0.2,0.8,0.8,1.3,0.7C616.4,363.9,616.5,364.2,616.3,364.3L616.3,364.3z"/>
	</g>
	<g>
		<path class="st2" d="M688.6,304.3c-0.9,1.2-1.2,2.7-1.4,4.2c0,0.1-0.2,0.1-0.2,0c-0.3-1.6,0.4-3.2,1.4-4.4
			C688.5,304,688.7,304.1,688.6,304.3L688.6,304.3z"/>
	</g>
	<g>
		<path class="st2" d="M687.3,304.7c-1.5,1.9-2.3,4.3-2.4,6.6c0,0.4-0.7,0.4-0.6,0c0.1-1.3,0.4-2.5,0.9-3.6c0.5-1.1,1.2-2.1,2-3.1
			C687.2,304.6,687.3,304.7,687.3,304.7L687.3,304.7z"/>
	</g>
	<g>
		<path class="st2" d="M685.7,305.4c-1.4,0.8-2.2,2.2-2.7,3.7c-0.2,0.7-0.4,1.5-0.6,2.2c-0.2,0.8-0.4,1.7-0.4,2.6
			c0,0.5-0.8,0.4-0.7-0.1c0.2-0.9,0.3-1.8,0.5-2.7c0.2-0.9,0.5-1.7,0.8-2.6c0.6-1.4,1.5-2.8,3.1-3.2
			C685.7,305.2,685.7,305.3,685.7,305.4L685.7,305.4z"/>
	</g>
	<g>
		<path class="st2" d="M683,305.8c-2.3,1.3-2.8,4.1-3.3,6.5c-0.5,2.2-1.3,4.6-3.4,5.7c-0.4,0.2-0.6-0.4-0.3-0.6
			c2.3-1.3,2.8-4.1,3.4-6.4c0.5-2.2,1.2-4.6,3.3-5.8C683.1,305,683.4,305.5,683,305.8L683,305.8z"/>
	</g>
	<g>
		<path class="st2" d="M680.4,306.1c-2.4,1.2-3.6,3.9-4.2,6.4c-0.3,1.3-0.5,2.6-0.8,3.8c-0.3,1.2-0.7,2.3-1.5,3.3
			c-0.3,0.4-0.8-0.2-0.5-0.6c0.9-1,1.2-2.4,1.5-3.7c0.3-1.3,0.6-2.7,1-4c0.7-2.4,2.1-4.6,4.5-5.6C680.5,305.8,680.6,306,680.4,306.1
			L680.4,306.1z"/>
	</g>
	<g>
		<path class="st2" d="M678.3,306.2c-3.1,1-4.8,3.9-5.6,6.8c-0.4,1.5-0.5,3-0.8,4.5c-0.2,1.3-0.6,2.6-1.5,3.6
			c-0.3,0.4-0.9-0.2-0.5-0.6c1.1-1.1,1.4-2.8,1.6-4.2c0.3-1.5,0.5-3.1,1-4.5c0.9-2.7,2.7-5.4,5.7-6
			C678.4,305.8,678.5,306.1,678.3,306.2L678.3,306.2z"/>
	</g>
	<g>
		<path class="st2" d="M674.6,305.8c-3.3,0.9-4.9,4.4-5.3,7.5c-0.5,3.2-0.3,6.5-1.4,9.5c-0.1,0.4-0.8,0.2-0.6-0.2
			c1.3-3.3,1-6.9,1.7-10.3c0.6-3,2.3-6.2,5.6-7C674.8,305.3,674.9,305.7,674.6,305.8L674.6,305.8z"/>
	</g>
	<g>
		<path class="st2" d="M671.6,305.5c-1.9,0.4-2.9,2.2-3.4,3.9c-0.6,1.8-1,3.7-1.2,5.6c-0.5,3.4-0.6,7.4-3.3,9.9
			c-0.4,0.3-0.9-0.3-0.5-0.5c3.2-2.6,2.7-7.1,3.4-10.8c0.3-1.8,0.7-3.7,1.5-5.4c0.7-1.5,1.8-2.9,3.5-3.2
			C671.8,305,671.9,305.4,671.6,305.5L671.6,305.5z"/>
	</g>
	<g>
		<path class="st2" d="M669.6,305.3c-3.4,0.5-5.6,3.4-6.6,6.5c-0.5,1.6-1,3.2-1.1,4.9c-0.1,1.7,0.5,3.3,0.7,5
			c0.2,1.6,0.1,3.4-0.9,4.7c-0.3,0.4-0.9,0-0.6-0.4c2.1-2.8-0.1-6.6,0.2-9.7c0.1-1.7,0.6-3.4,1.2-5c0.6-1.5,1.4-3,2.6-4.2
			c1.2-1.2,2.8-2,4.6-2C669.7,305,669.7,305.3,669.6,305.3L669.6,305.3z"/>
	</g>
	<g>
		<path class="st2" d="M666.9,304.5c-3.9,1.1-6.1,4.7-7,8.5c-0.4,1.9-0.5,3.8-0.5,5.7c0.1,1.7,0.3,3.4,0.2,5c0,1.8-0.3,3.6-1.4,5.1
			c-0.2,0.4-0.8,0-0.6-0.4c2-3,1.2-6.9,1-10.3c-0.1-3.8,0.4-7.7,2.9-10.7c1.3-1.7,3-3,5.1-3.6C667.1,303.8,667.3,304.4,666.9,304.5
			L666.9,304.5z"/>
	</g>
	<g>
		<path class="st2" d="M663.5,304.2c-1.4,1.2-2.6,2.5-3.6,4.1c-1,1.6-1.6,3.3-2.1,5.1c-0.5,1.8-0.7,3.6-0.7,5.5
			c0,2.1,0.3,4.1,0.2,6.2c-0.1,2-0.7,4.1-2,5.7c-0.2,0.3-0.7,0-0.5-0.3c1.3-1.5,1.7-3.4,1.8-5.4c0.2-2.1-0.1-4.2-0.1-6.3
			c-0.1-3.7,0.7-7.4,2.6-10.5c1-1.7,2.4-3.3,4.1-4.3C663.4,303.8,663.6,304.1,663.5,304.2L663.5,304.2z"/>
	</g>
	<g>
		<path class="st2" d="M661.2,304.4c-1.8,1.3-3.2,2.9-4.2,4.8c-1,1.9-1.7,4-2.1,6c-0.5,2-0.7,4.1-0.7,6.1c0,2.1,0.5,4.3,0.5,6.4
			c0,2.2-0.7,4.3-2.3,5.8c-0.3,0.3-0.8-0.2-0.4-0.5c1.6-1.4,2.1-3.6,2.1-5.6c0-2.1-0.3-4.3-0.4-6.4c-0.1-4.1,0.6-8.3,2.6-12
			c1.1-2,2.7-4,4.8-5.1C661.2,304,661.4,304.3,661.2,304.4L661.2,304.4z"/>
	</g>
	<g>
		<path class="st2" d="M658.7,304.7c-1.8,1.5-3.4,3.2-4.5,5.3c-1.1,2-1.8,4.3-2.1,6.6c-0.3,2.2-0.4,4.4-0.2,6.6
			c0.2,1.9,0.5,3.8,0.4,5.7c0,2.1-0.4,4.2-1.6,5.9c-0.2,0.2-0.6,0-0.4-0.3c2-3.5,1.3-7.7,1-11.5c-0.3-4.5,0.1-9,2.2-13
			c1.2-2.2,2.8-4.4,5.1-5.6C658.7,304.4,658.9,304.6,658.7,304.7L658.7,304.7z"/>
	</g>
	<g>
		<path class="st2" d="M653.9,307.2c-1.3,1.8-2.5,3.8-3.3,5.9c-0.8,2.1-1.3,4.4-1.6,6.6c-0.3,2.2-0.5,4.4-0.4,6.6
			c0,2.1,0.2,4.2,0,6.3c-0.2,2.3-0.7,4.5-2.2,6.2c-0.3,0.3-0.9-0.2-0.6-0.5c2.8-3.3,2.2-7.9,2.1-11.9c0-2.2,0.1-4.4,0.5-6.6
			c0.4-2.2,1-4.2,1.7-6.3c0.9-2.3,2-4.5,3.5-6.4C653.7,306.8,654,307,653.9,307.2L653.9,307.2z"/>
	</g>
	<g>
		<path class="st2" d="M649.5,313.2c-1.2,3.2-2.5,6.3-3.3,9.6c-0.8,3.3-1.2,6.8-1.3,10.2c-0.1,2,0.1,3.9,0.4,5.9
			c0.1,0.4-0.6,0.6-0.7,0.1c-0.2-1.7-0.2-3.5-0.3-5.2c-0.1-1.8,0-3.5,0.2-5.3c0.4-3.5,1.2-6.9,2.4-10.2c0.7-1.8,1.5-3.7,2.6-5.3
			C649.5,313.1,649.6,313.2,649.5,313.2L649.5,313.2z"/>
	</g>
	<g>
		<path class="st2" d="M644.5,322.9c-0.7,1.5-1.3,3.1-1.7,4.7c-0.4,1.6-0.7,3.2-0.7,4.8c0,1.7,0.2,3.3,0.4,5c0.1,1.5,0,3.3-1.3,4.3
			c-0.2,0.1-0.5-0.1-0.3-0.3c1.1-1.5,1.2-3.2,1-5.1c-0.2-1.6-0.3-3.1-0.2-4.7c0.1-1.5,0.4-3.1,0.8-4.5c0.4-1.5,1.2-3,2-4.3
			C644.3,322.7,644.5,322.8,644.5,322.9L644.5,322.9z"/>
	</g>
	<g>
		<path class="st2" d="M642.7,325.4c-1.5,2.6-2.1,5.4-2.5,8.4c-0.4,2.9-0.6,5.8-1.7,8.6c-0.6,1.4-1.4,2.9-2.6,3.9
			c-0.3,0.3-0.7-0.2-0.4-0.5c2.1-2.2,3-5.1,3.5-8.1c0.5-2.8,0.7-5.7,1.5-8.4c0.4-1.5,1.1-2.9,2.1-4
			C642.7,325.2,642.8,325.3,642.7,325.4L642.7,325.4z"/>
	</g>
	<g>
		<path class="st2" d="M641.1,328c-2.8,2.3-4.4,5.6-4.5,9.2c-0.1,1.8,0.2,3.7,0,5.5c-0.2,1.7-0.9,3.3-2.4,4.3
			c-0.5,0.3-0.8-0.5-0.4-0.8c1.6-1,2.2-3,2.3-4.8c0.1-1.8-0.1-3.7,0-5.5c0.3-3.3,2.1-6.4,4.6-8.4C641,327.2,641.5,327.7,641.1,328
			L641.1,328z"/>
	</g>
	<g>
		<path class="st2" d="M639.1,329.6c-2.5,1.5-3.9,4.3-4.6,7.1c-0.3,1.4-0.5,2.9-0.6,4.3c-0.1,1.5-0.1,2.9-0.5,4.4
			c-0.4,1.5-1.2,3-2.6,3.7c-0.3,0.2-0.6-0.3-0.3-0.5c1.2-0.9,2-2.3,2.3-3.7c0.4-1.5,0.3-3.1,0.3-4.7c0.1-2.8,0.8-5.6,2.4-7.9
			c0.9-1.3,2-2.3,3.4-3C639.1,329.2,639.3,329.5,639.1,329.6L639.1,329.6z"/>
	</g>
	<g>
		<path class="st2" d="M636.4,330.9c-2.6,1.7-4.2,4.4-5,7.3c-0.4,1.5-0.7,3-0.8,4.5c-0.1,1.5-0.2,3.1-0.6,4.5
			c-0.4,1.5-1.3,3.1-2.7,3.9c-0.4,0.2-0.7-0.4-0.3-0.6c2.9-1.9,2.6-5.6,2.9-8.6c0.3-2.9,1.1-5.8,2.7-8.3c0.9-1.3,2-2.5,3.4-3.3
			C636.5,330.2,636.7,330.7,636.4,330.9L636.4,330.9z"/>
	</g>
	<g>
		<path class="st2" d="M634.1,331.6c-2.9,1.8-4.7,4.7-5.6,7.9c-0.4,1.5-0.7,3.1-0.8,4.7c-0.1,1.6,0,3.1-0.3,4.7
			c-0.3,1.7-1.1,3.2-2.5,4.1c-0.5,0.3-0.8-0.5-0.4-0.8c1.4-0.9,1.9-2.6,2.1-4.1c0.2-1.6,0.1-3.1,0.3-4.7c0.3-3.1,1.2-6.1,3-8.7
			c1-1.5,2.3-2.8,3.9-3.8C634.2,330.7,634.5,331.4,634.1,331.6L634.1,331.6z"/>
	</g>
	<g>
		<path class="st2" d="M631.3,332c-0.8,0.5-1.6,0.9-2.3,1.5c-0.7,0.6-1.3,1.3-1.8,2c-1,1.5-1.6,3.2-2,4.9c-0.4,1.7-0.5,3.5-0.5,5.3
			c0,1.7-0.1,3.5-0.5,5.1c-0.5,1.8-1.4,3.5-3,4.5c-0.5,0.3-0.9-0.5-0.4-0.8c3.4-2,3.1-6.4,3.3-9.7c0.2-3.4,0.8-6.9,2.8-9.8
			c1-1.5,2.6-3.1,4.3-3.5C631.4,331.5,631.5,331.9,631.3,332L631.3,332z"/>
	</g>
	<g>
		<path class="st2" d="M628.8,332.6c-1.7,0.5-3,1.3-4.1,2.8c-1,1.4-1.7,3.1-2.1,4.8c-0.5,1.8-0.7,3.7-0.7,5.7c0,1.9,0.2,3.9-0.1,5.8
			c-0.4,2-1.1,3.8-2.9,4.9c-0.4,0.2-0.6-0.3-0.3-0.6c3.7-2.4,2.6-7.3,2.7-11c0-1.9,0.3-3.7,0.8-5.5c0.5-1.6,1.1-3.2,2.2-4.6
			c1-1.3,2.6-2.6,4.4-2.3C628.9,332.5,628.9,332.6,628.8,332.6L628.8,332.6z"/>
	</g>
	<g>
		<path class="st2" d="M625.8,332.8c-1.8,0.7-2.9,2.2-3.7,3.8c-0.8,1.7-1.3,3.6-1.6,5.4c-0.3,1.9-0.4,3.7-0.4,5.6
			c0,1.9,0,3.7-0.5,5.6c-0.4,1.9-1.3,3.8-2.9,5c-0.5,0.4-1.2-0.3-0.7-0.7c3.2-2.5,3.1-6.7,3.2-10.4c0-1.9,0.2-3.8,0.6-5.7
			c0.4-1.8,0.9-3.7,1.8-5.2c0.9-1.6,2.3-3.1,4.2-3.7C625.9,332.4,626,332.8,625.8,332.8L625.8,332.8z"/>
	</g>
	<g>
		<path class="st2" d="M623.6,333.1c-4.1,1-5.1,5.8-5.8,9.4c-0.4,2-0.7,4.1-0.9,6.1c-0.2,2-0.3,3.9-0.6,5.9c-0.3,2-1.2,4-3,5.1
			c-0.6,0.3-1-0.6-0.5-0.9c1.8-1,2.6-3,2.8-4.9c0.3-2,0.4-4,0.6-6c0.3-2,0.6-4,1.1-6c0.4-1.9,0.8-3.8,1.8-5.5c1-1.7,2.5-3.2,4.5-3.6
			C623.8,332.6,623.9,333,623.6,333.1L623.6,333.1z"/>
	</g>
	<g>
		<path class="st2" d="M620.7,333.8c-4.1,1.7-5.3,6.1-6.1,10c-0.4,2.1-0.8,4.3-1,6.4c-0.2,1.9-0.3,3.9-0.8,5.8
			c-0.5,1.9-1.2,3.8-3,4.8c-0.4,0.3-0.8-0.4-0.4-0.7c1.6-1,2.4-2.8,2.8-4.6c0.4-2,0.5-4,0.7-6c0.3-2.1,0.6-4.1,1-6.2
			c0.4-1.9,0.9-3.9,1.9-5.6c1-1.9,2.5-3.7,4.6-4.5C620.8,333.1,621.1,333.6,620.7,333.8L620.7,333.8z"/>
	</g>
	<g>
		<path class="st2" d="M617.4,334.5c-3,2.6-4.6,6.1-5.4,9.9c-0.8,3.7-1,7.5-1.8,11.2c-0.5,2-1.1,4-2.1,5.9c-0.2,0.5-1,0-0.7-0.4
			c2-3.3,2.5-7.3,3-11.1c0.5-3.8,1.1-7.6,2.8-11.1c0.5-0.9,1-1.9,1.7-2.7c0.7-0.8,1.4-1.4,2.3-2
			C617.4,334.1,617.5,334.3,617.4,334.5L617.4,334.5z"/>
	</g>
</g>
</svg>
