<?xml version="1.0" encoding="utf-8"?>
<!-- Generator: Adobe Illustrator 23.0.3, SVG Export Plug-In . SVG Version: 6.00 Build 0)  -->
<svg version="1.1" id="Layer_1" xmlns="http://www.w3.org/2000/svg" xmlns:xlink="http://www.w3.org/1999/xlink" x="0px" y="0px"
	 viewBox="0 0 914.4 107.8" style="enable-background:new 0 0 914.4 107.8;" xml:space="preserve">
<style type="text/css">
	.st0{fill:#F8F9FA;}
	.st1{fill:#FF9520;}
	.st2{fill:#3F3D56;}
</style>
<g>
	<path class="st0" d="M0,107.8h459.7C307.3,107.8,154.1,87.1,0,45.5V107.8z"/>
	<path class="st0" d="M459.7,107.8h454.7V45.5C763.7,87,612.1,107.7,459.7,107.8z"/>
</g>
<g>
	<path class="st1" d="M118.3,79C94,99.1,73.5,91.6,58.8,73.8c-0.4-0.5-0.7-0.8-1-1.3c-0.7-0.8-1.3-1.7-1.9-2.6
		C43.8,52.9,42.4,33,65,14.4C88.5-5,142.8,0.7,146.8,1.1l0,0c0.2,0.1,0.2,0,0.2,0S142.6,58.9,118.3,79z"/>
	<path class="st2" d="M61.5,69.5l26.3-1.8l-28.1,3.3l-1.9,1.5c-0.7-0.8-1.3-1.7-1.9-2.6l25.4-18.8l0.2-0.1l0,0l2.4-1.7l8.6-27
		l-6.8,25.7L85,48.3L104.4,34l10.6-25.8l-7.3,23.3l39-30.5l0.1-0.1l-0.1,0.1l-30.3,24.6l20.3,0.3l-22.9,1.8L97,41.1l23.7-3.6
		L94.5,43l-9.3,7.4l33.3-4.4l-36.6,7L61.5,69.5z"/>
</g>
</svg>
