<?xml version="1.0" encoding="utf-8"?>
<!-- Generator: Adobe Illustrator 23.0.3, SVG Export Plug-In . SVG Version: 6.00 Build 0)  -->
<svg version="1.1" id="Layer_1" xmlns="http://www.w3.org/2000/svg" xmlns:xlink="http://www.w3.org/1999/xlink" x="0px" y="0px"
	 viewBox="0 0 914.4 149.6" style="enable-background:new 0 0 914.4 149.6;" xml:space="preserve">
<style type="text/css">
	.st0{fill:#F7FBFE;}
	.st1{fill:#FF9520;}
	.st2{fill:#3F3D56;}
</style>
<path class="st0" d="M884.8,86.2c-50-50-117.2-88.6-177.5-61.1c-44.1,20.2-75.2,72.1-119.9,90.5c-31.8,13.1-66.4,7.3-99.8,10
	c-48.6,3.8-96.5,27.2-144.8,23.6C122,118.9,139,29.9,0,7.6v142h914.4v-41.5C903.2,105,893.9,95.3,884.8,86.2z"/>
<g>
	<path class="st1" d="M747.3,46.5c19.1,31.6,7,54-16.2,68c-0.5,0.3-1.1,0.7-1.6,0.9c-1.1,0.6-2.2,1.2-3.3,1.8
		c-21.8,11.1-45.1,9.4-62.9-20.1c-18.4-30.5-2.7-92.3-1.5-96.9l0,0c0.1-0.2,0.1-0.3,0.1-0.3S728.2,14.9,747.3,46.5z"/>
	<path class="st2" d="M726.6,110.6l2.4-30.7l-1,33.1l1.5,2.5c-1.1,0.6-2.2,1.2-3.3,1.8l-17.4-32.7l-0.1-0.3v-0.1l-1.7-3.1
		l-29.9-14.6L705.7,79l0.4,0.6l-13.3-24.6l-28.1-16.7l25.8,12.4L661.8,0.3l-0.1-0.2l0.1,0.1l23.4,39.2l3.8-23.4l-1.8,26.8l12.6,21.6
		l-0.1-28l1.9,31.1l7,12l0.5-39.4l1.9,43.5L726.6,110.6z"/>
</g>
<g>
	<path class="st1" d="M542.9,123.7c-13.1,28.2-34.4,30.3-55,20.7c-0.5-0.2-1-0.4-1.4-0.7c-0.9-0.5-1.9-0.9-2.8-1.4
		c-18-10-27.7-27-15.6-53.2c12.6-27.1,63.1-45.3,66.8-46.6l0,0c0.1-0.1,0.2-0.1,0.2-0.1S556,95.5,542.9,123.7z"/>
	<path class="st2" d="M488.5,139.4l22.5-12.8l-23.5,14.9l-1.1,2.2c-0.9-0.5-1.9-0.9-2.8-1.4l14.5-27.5l0.1-0.2l0,0l1.4-2.6
		l-3.9-27.6l4.9,25.7l-0.2,0.6l11-20.8l-1.6-27.4l3.5,23.8l21.6-43.6l0.1-0.1l-0.1,0.1l-16.3,34.4l18.1-8.4l-19.6,11.4L508,99
		l19.4-13.2l-20.8,16l-5.1,10.5l27.7-18.1L499.7,116L488.5,139.4z"/>
</g>
</svg>
