<?xml version="1.0" encoding="utf-8"?>
<!-- Generator: Adobe Illustrator 23.0.3, SVG Export Plug-In . SVG Version: 6.00 Build 0)  -->
<svg version="1.1" id="Layer_1" xmlns="http://www.w3.org/2000/svg" xmlns:xlink="http://www.w3.org/1999/xlink" x="0px" y="0px"
	 viewBox="0 0 895.2 214.2" style="enable-background:new 0 0 895.2 214.2;" xml:space="preserve">
<style type="text/css">
	.st0{fill:#F7FBFE;}
	.st1{fill:#FF9520;}
	.st2{fill:#3F3D56;}
</style>
<path class="st0" d="M494.6,86.7c-55.8-6.4-82.6,14.6-131.9,37.1c-36.6,16.9-68.2,41-106.4,55.2C172.9,210,165.8,89,90.9,128.5
	C55.1,147.4,29.7,208.1,0,214.2h895.2v-39.5c-180.4-189.6-121.6-3.4-242.5-3.4C558.6,165.2,594.9,97,494.6,86.7z"/>
<g>
	<path class="st1" d="M823.1,84.5c27.7,34.5,16.8,63.1-8.6,83.4c-0.6,0.5-1.2,1-1.8,1.4c-1.2,0.9-2.4,1.8-3.6,2.7
		c-24.2,16.7-52.1,18.2-77.8-14c-26.6-33.3-17.7-109.3-17-115l0,0c0-0.2,0-0.3,0-0.3S795.4,49.9,823.1,84.5z"/>
	<path class="st2" d="M808.6,163.9l-1.9-36.9l4,39.5l2.1,2.7c-1.2,0.9-2.4,1.8-3.6,2.7l-25.9-36.1l-0.2-0.3l0-0.1l-2.5-3.4
		l-37.8-12.6l35.9,10.1l0.6,0.7l-19.6-27.2l-36-15.4l32.6,10.7L714.3,43l-0.1-0.2l0.1,0.1l34,43l0.9-28.4l2.1,32.2l18.4,23.7
		L765,80.1l7.2,36.7l10.2,13.2L776.9,83l9.1,51.4L808.6,163.9z"/>
</g>
<g>
	<path class="st1" d="M482.7,107c-16.5,26.4-37.9,25.8-57.1,13.7c-0.5-0.3-0.9-0.5-1.3-0.9c-0.8-0.6-1.8-1.1-2.6-1.7
		c-16.6-12.2-24.1-30.2-8.9-54.7c15.9-25.3,68.2-37.1,72.1-37.9l0,0c0.1-0.1,0.2-0.1,0.2-0.1S499.2,80.7,482.7,107z"/>
	<path class="st2" d="M426.8,115.8l23.9-9.9l-25.2,11.9l-1.4,2c-0.8-0.6-1.8-1.1-2.6-1.7l17.8-25.5l0.1-0.2l0,0l1.7-2.4l-0.4-27.9
		l1.7,26.1l-0.3,0.6l13.5-19.3l1.8-27.4l0.5,24.1l26.8-40.6l0.1-0.1l-0.1,0.1l-20.4,32.1l19-6.1l-20.9,8.9l-11.4,17.6L472,67.5
		l-22.6,13.3l-6.4,9.8L472.8,76l-32,18L426.8,115.8z"/>
</g>
</svg>
