<?xml version="1.0" encoding="utf-8"?>
<!-- Generator: Adobe Illustrator 23.0.3, SVG Export Plug-In . SVG Version: 6.00 Build 0)  -->
<svg version="1.1" id="Layer_1" xmlns="http://www.w3.org/2000/svg" xmlns:xlink="http://www.w3.org/1999/xlink" x="0px" y="0px"
	 viewBox="0 0 914.4 142" style="enable-background:new 0 0 914.4 142;" xml:space="preserve">
<style type="text/css">
	.st0{fill:#FFFFFF;}
	.st1{fill:#FF9520;}
	.st2{fill:#3F3D56;}
</style>
<path class="st0" d="M0,0c308.1,83.1,612.9,82.9,914.4,0v0L0,0L0,0z"/>
<g>
	<path class="st1" d="M118.2,91.9c-15.3,27.6-37.1,28.1-57.3,16.9c-0.5-0.3-0.9-0.5-1.4-0.8c-0.9-0.5-1.8-1.1-2.7-1.7
		C39.3,94.8,30.7,76.8,45,51.2C59.8,24.6,112.4,10,116.3,8.9l0,0c0.2,0,0.2-0.1,0.2-0.1S133.5,64.3,118.2,91.9z"/>
	<path class="st2" d="M61.8,103.8l23.8-11.3l-25,13.3l-1.2,2.1c-0.9-0.5-1.8-1.1-2.7-1.7l16.8-26.8l0.1-0.2l0,0l1.6-2.5l-1.9-28.3
		l3,26.4L76,75.4l12.8-20.3l0.4-27.9l1.7,24.4L116.1,9l0.1-0.1L116.1,9L96.9,43l19-7.1l-20.7,10L84.5,64.4l20.7-12L82.9,67.1
		L77,77.4l29.4-16.3L74.9,81L61.8,103.8z"/>
</g>
</svg>
