<?xml version="1.0" encoding="utf-8"?>
<!-- Generator: Adobe Illustrator 23.0.3, SVG Export Plug-In . SVG Version: 6.00 Build 0)  -->
<svg version="1.1" id="Layer_1" xmlns="http://www.w3.org/2000/svg" xmlns:xlink="http://www.w3.org/1999/xlink" x="0px" y="0px"
	 viewBox="0 0 914.4 142" style="enable-background:new 0 0 914.4 142;" xml:space="preserve">
<style type="text/css">
	.st0{fill:#FFFFFF;}
	.st1{fill:#FF9520;}
	.st2{fill:#3F3D56;}
</style>
<path class="st0" d="M59.5,50.3c25.2,1.4,36.6-3.1,76.4-37.6c4.6-4,16.3-12.7,37.9-12.7h415.2c8.8,0,16.9,4.6,21.5,12.1
	C658.2,89.5,726.5-14.7,744,22c56.9,119.3,38.8-46.6,94.2-0.8c0.6,0.5,1.2,1,1.7,1.6C883,66.4,914.4,81.1,914.4,0v0L61.2,0
	C28.7,0,27.1,48.5,59.5,50.3z"/>
<g>
	<path class="st1" d="M99.3,95.7C84,123.3,62.2,123.8,42,112.6c-0.5-0.3-0.9-0.5-1.4-0.8c-0.9-0.5-1.8-1.1-2.7-1.7
		C20.4,98.6,11.8,80.6,26.1,55c14.8-26.6,67.4-41.2,71.3-42.3l0,0c0.2,0,0.2-0.1,0.2-0.1S114.6,68.1,99.3,95.7z"/>
	<path class="st2" d="M42.9,107.6l23.8-11.3l-25,13.3l-1.2,2.1c-0.9-0.5-1.8-1.1-2.7-1.7l16.8-26.8l0.1-0.2l0,0l1.6-2.5l-1.9-28.3
		l3,26.4l-0.3,0.6l12.8-20.3L70.3,31L72,55.4l25.2-42.6l0.1-0.1l-0.1,0.1L78,46.8l19-7.1l-20.7,10L65.6,68.2l20.7-12L64,70.9
		l-5.9,10.3l29.4-16.3L56,84.8L42.9,107.6z"/>
</g>
</svg>
