<?xml version="1.0" encoding="utf-8"?>
<!-- Generator: Adobe Illustrator 23.0.3, SVG Export Plug-In . SVG Version: 6.00 Build 0)  -->
<svg version="1.1" id="Layer_1" xmlns="http://www.w3.org/2000/svg" xmlns:xlink="http://www.w3.org/1999/xlink" x="0px" y="0px"
	 viewBox="0 0 914.4 142" style="enable-background:new 0 0 914.4 142;" xml:space="preserve">
<style type="text/css">
	.st0{fill:#FFFFFF;}
	.st1{fill:#FF9520;}
	.st2{fill:#3F3D56;}
</style>
<path class="st0" d="M0,0c139,22.3,122,111.3,342.8,141.6c48.3,3.6,96.2-19.8,144.8-23.6c33.4-2.7,68,3.1,99.8-10
	c44.7-18.4,75.8-70.3,119.9-90.5C767.6-10,834.8,28.6,884.8,78.6c9.1,9.1,18.4,18.8,29.6,21.9V0H0z"/>
<g>
	<path class="st1" d="M368.4,100.3c-15.3,27.6-37.1,28.1-57.3,16.9c-0.5-0.3-0.9-0.5-1.4-0.8c-0.9-0.5-1.8-1.1-2.7-1.7
		c-17.5-11.5-26.1-29.5-11.8-55.1C310,33,362.6,18.4,366.5,17.3l0,0c0.2,0,0.2-0.1,0.2-0.1S383.7,72.7,368.4,100.3z"/>
	<path class="st2" d="M312,112.2l23.8-11.3l-25,13.3l-1.2,2.1c-0.9-0.5-1.8-1.1-2.7-1.7l16.8-26.8l0.1-0.2l0,0l1.6-2.5l-1.9-28.3
		l3,26.4l-0.3,0.6L339,63.5l0.4-27.9l1.7,24.4l25.2-42.6l0.1-0.1l-0.1,0.1l-19.2,34l19-7.1l-20.7,10l-10.7,18.5l20.7-12l-22.3,14.7
		l-5.9,10.3l29.4-16.3l-31.5,19.9L312,112.2z"/>
</g>
</svg>
