<?xml version="1.0" encoding="utf-8"?>
<!-- Generator: Adobe Illustrator 23.0.3, SVG Export Plug-In . SVG Version: 6.00 Build 0)  -->
<svg version="1.1" id="Layer_1" xmlns="http://www.w3.org/2000/svg" xmlns:xlink="http://www.w3.org/1999/xlink" x="0px" y="0px"
	 viewBox="0 0 954 415.3" style="enable-background:new 0 0 954 415.3;" xml:space="preserve">
<style type="text/css">
	.st0{opacity:0.5;fill:#FF9520;enable-background:new    ;}
	.st1{fill:#FF9520;}
	.st2{fill:none;stroke:#535461;stroke-miterlimit:10;}
	.st3{opacity:0.1;enable-background:new    ;}
	.st4{fill:none;stroke:#535461;stroke-width:2;stroke-miterlimit:10;}
</style>
<path class="st0" d="M236.7,225.6c-57.7-19.9-123.6-36.8-177.5-8.2c-6.8,3.6-13.6,8.2-17.2,15c-9.7,17.9,5.7,41.1-1.8,60
	S4.3,320.9,6.6,341.1c0.6,5.3,3.5,10.1,6.8,14.2c21.1,25.8,59.8,28.4,92.5,22s64.7-19.7,98-18c32,1.7,61.4,17,90.8,29.9
	c49.4,21.8,107.2,37.5,156.6,15.6c22.6-10.1,41.3-27.2,63-39.2c29.2-16,62.7-22.1,95.7-17.6c22,3.1,43,10.9,64.5,16.3
	c48.9,12.2,99.9,11.8,150.3,11.3c9.4-0.1,18.9-0.2,27.9-2.9c13.3-4,24.3-13.2,34.9-22.2c13.9-11.8,28.5-24.8,33-42.5
	c5.3-21-5.7-43.3-21.9-57.6s-37-22.1-57.3-29.6c-5-1.8-10.3-3.7-15.5-2.3c-3.4,0.9-6.2,3.2-8.7,5.6c-14.4,13.8-26.5,37.3-46.1,33.5
	c-7-1.3-12.7-6.2-18.3-10.7c-29.6-24-69.4-42.5-105.1-29.3c-26.1,9.7-44.5,34.6-71,43.4c-18.8,6.3-39.3,3.5-59.1,4.8
	c-28.8,1.8-56.8,11.9-85.7,11.3c-73.5-1.6-134.8-71.9-208-65.2c-5.7,0.5-12,1.8-15.5,6.4"/>
<path class="st1" d="M144,158.8c0,0-61.1,36.9,51.6,93.7c0,0,24.8-46.1-2.6-83.7c-11-15.2-31.6-19.7-48-10.5L144,158.8z"/>
<path class="st2" d="M144.7,158c0,0,52.3,40,50.9,94.4"/>
<path class="st1" d="M917.1,128c12.4,45.3-40.4,174.2-40.4,174.2s-111.1-84.1-123.5-129.4c-13.4-45,12.1-92.3,57.1-105.8
	c45-13.4,92.3,12.1,105.8,57.1C916.5,125.5,916.8,126.7,917.1,128L917.1,128z"/>
<path class="st3" d="M917.1,128c12.4,45.3-40.4,174.2-40.4,174.2s-111.1-84.1-123.5-129.4c-13.4-45,12.1-92.3,57.1-105.8
	c45-13.4,92.3,12.1,105.8,57.1C916.5,125.5,916.8,126.7,917.1,128L917.1,128z"/>
<path class="st2" d="M813.2,68.7c0,0,69.2,104.4,64,233.8"/>
<path class="st1" d="M934.8,210.8c0,0-62.7-34.1-54.8,91.8c0,0,52.3-1.9,70.9-44.5c7.5-17.2,1-37.3-15.2-46.8L934.8,210.8z"/>
<path class="st2" d="M935.8,211c0,0-8.1,65.4-55.8,91.6"/>
<path class="st1" d="M16.6,196.7c0,0-61.1,36.9,51.6,93.7c0,0,24.8-46.1-2.6-83.7c-11-15.2-31.6-19.7-48-10.5L16.6,196.7z"/>
<path class="st2" d="M17.3,195.9c0,0,52.3,40,50.9,94.5"/>
<path class="st3" d="M813.3,93c0,0,7.8,15.9,11.9,16.8l-6,6.9l-8.7-16.6L813.3,93z"/>
<path class="st4" d="M82.7,7.2c0,0-26.2,54.2-9,118.4s11.8,141-5.4,160"/>
<circle class="st1" cx="82.7" cy="7.2" r="7.2"/>
<path class="st4" d="M71.8,42.1c0,0,27.2,4.9,34.4-5"/>
<path class="st4" d="M69.2,57.9c0,0-16.4-18.1-15.4-28.9"/>
<path class="st4" d="M67.8,91c0,0,14.9,3.9,28.4-25"/>
<path class="st4" d="M71.8,115.1c0,0-37-23.8-32.5-39.2"/>
<path class="st4" d="M77.6,142.4c0,0,25.9-23,23.2-45.6"/>
<path class="st4" d="M80.4,158.4c0,0-33-9.2-32-23.7"/>
<path class="st4" d="M82.7,177.5c0,0,20.8-19.3,23.5-31"/>
<path class="st4" d="M84.1,210.2c0,0-21.3-24.9-22.2-37.5"/>
<path class="st4" d="M84.1,230.8c0,0,23.9-26.5,25.7-39.2"/>
<circle class="st1" cx="53.8" cy="30.7" r="7.2"/>
<circle class="st1" cx="45.6" cy="134.7" r="7.2"/>
<circle class="st1" cx="39.3" cy="75.9" r="7.2"/>
<circle class="st1" cx="106.2" cy="37.1" r="7.2"/>
<circle class="st1" cx="106.2" cy="148.3" r="7.2"/>
<circle class="st1" cx="94.4" cy="66" r="7.2"/>
<circle class="st1" cx="108.9" cy="196.2" r="7.2"/>
<circle class="st1" cx="60.1" cy="177.2" r="7.2"/>
<circle class="st1" cx="101.7" cy="96.7" r="7.2"/>
</svg>
