<?xml version="1.0" encoding="utf-8"?>
<!-- Generator: Adobe Illustrator 23.0.3, SVG Export Plug-In . SVG Version: 6.00 Build 0)  -->
<svg version="1.1" id="Layer_1" xmlns="http://www.w3.org/2000/svg" xmlns:xlink="http://www.w3.org/1999/xlink" x="0px" y="0px"
	 viewBox="0 0 914.4 456.4" style="enable-background:new 0 0 914.4 456.4;" xml:space="preserve">
<style type="text/css">
	.st0{fill:#F7FBFE;}
	.st1{fill:#FFFFFF;}
	.st2{fill:url(#SVGID_1_);}
	.st3{fill:url(#SVGID_2_);}
	.st4{fill:#FF9520;}
	.st5{fill:#3F3D56;}
</style>
<rect x="0" y="206.4" class="st0" width="914.4" height="250"/>
<rect y="0.6" class="st1" width="914.4" height="206.4"/>
<linearGradient id="SVGID_1_" gradientUnits="userSpaceOnUse" x1="-375.8136" y1="354.2" x2="1170.5902" y2="354.2" gradientTransform="matrix(1 0 0 -1 0 458)">
	<stop  offset="0" style="stop-color:#FF9520"/>
	<stop  offset="0.3366" style="stop-color:#FF9821"/>
	<stop  offset="0.5734" style="stop-color:#FFA126"/>
	<stop  offset="0.7796" style="stop-color:#FFB12D"/>
	<stop  offset="0.9673" style="stop-color:#FFC637"/>
	<stop  offset="1" style="stop-color:#FFCB39"/>
</linearGradient>
<path class="st2" d="M884.8,76.4c-50-50-117.2-88.6-177.5-61.1c-44.1,20.2-75.2,72.1-119.9,90.5c-31.8,13.1-66.4,7.3-99.8,10
	c-48.6,3.8-95.9,24.8-144.8,23.6C221.6,136,119.9-4,0,2.7v202.5h914.4V98.3C903.2,95.2,893.9,85.4,884.8,76.4z"/>
<linearGradient id="SVGID_2_" gradientUnits="userSpaceOnUse" x1="-375.8136" y1="126.9695" x2="1170.5902" y2="126.9695" gradientTransform="matrix(1 0 0 -1 0 458)">
	<stop  offset="0" style="stop-color:#FF9520"/>
	<stop  offset="0.3366" style="stop-color:#FF9821"/>
	<stop  offset="0.5734" style="stop-color:#FFA126"/>
	<stop  offset="0.7796" style="stop-color:#FFB12D"/>
	<stop  offset="0.9673" style="stop-color:#FFC637"/>
	<stop  offset="1" style="stop-color:#FFCB39"/>
</linearGradient>
<path class="st3" d="M0,456.4c38.2,11.9,67.7-50.7,111-84.4c74.9-58.4,181.1,78.2,264.5,32.5c38.2-21.1,69.8-56.7,106.4-81.7
	c49.3-33.4,105.9-46.1,161.7-36.7c37.2,6.5,72.6,22.7,109,34c52.9,16.3,107.1,41.6,161.8,77.9V204.2H0L0,456.4z"/>
<g>
	<path class="st4" d="M837.2,311.5c28.5,47.1,10.4,80.5-24.2,101.4c-0.8,0.5-1.6,1-2.4,1.4c-1.6,0.9-3.3,1.8-4.9,2.7
		c-32.5,16.6-67.2,14-93.7-29.9c-27.4-45.4-4-137.6-2.2-144.5l0,0c0.1-0.3,0.1-0.4,0.1-0.4S808.7,264.4,837.2,311.5z"/>
	<path class="st5" d="M806.4,407.1l3.6-45.8l-1.5,49.4l2.2,3.7c-1.6,0.9-3.3,1.8-4.9,2.7l-26-48.7l-0.2-0.4l0-0.1l-2.5-4.6
		l-44.5-21.7l42.6,18.3l0.6,0.9L756,324.1l-41.9-24.9l38.4,18.5l-42.7-75.1l-0.1-0.3l0.1,0.2l34.9,58.5l5.7-34.9l-2.7,40l18.8,32.2
		l-0.2-41.7l2.9,46.4l10.4,17.9l0.8-58.7l2.8,64.9L806.4,407.1z"/>
</g>
<g>
	<path class="st4" d="M397.6,90.3c-15.3,27.6-37.1,28.1-57.3,16.9c-0.5-0.3-0.9-0.5-1.4-0.8c-0.9-0.5-1.8-1.1-2.7-1.7
		c-17.5-11.5-26.1-29.5-11.8-55.1C339.1,23,391.7,8.4,395.6,7.3l0,0c0.2,0,0.2-0.1,0.2-0.1S413,62.7,397.6,90.3z"/>
	<path class="st5" d="M341.3,102.2l23.8-11.3l-25,13.3l-1.2,2.1c-0.9-0.5-1.8-1.1-2.7-1.7l16.8-26.8l0.1-0.2l0,0l1.6-2.5l-1.9-28.3
		l3,26.4l-0.3,0.6l12.7-20.3l0.4-27.9l1.7,24.4l25.2-42.6l0.1-0.1l-0.1,0.1l-19.2,34l19-7.1l-20.7,10l-10.7,18.5l20.7-12l-22.3,14.7
		l-5.9,10.3L386,59.4l-31.5,19.9L341.3,102.2z"/>
</g>
<g>
	<path class="st4" d="M612.3,408.2c-13.1,28.2-34.4,30.3-55,20.7c-0.5-0.2-1-0.4-1.4-0.7c-0.9-0.5-1.9-0.9-2.8-1.4
		c-18-10-27.7-27-15.6-53.2c12.6-27.1,63.1-45.3,66.8-46.6l0,0c0.1-0.1,0.2-0.1,0.2-0.1S625.4,380,612.3,408.2z"/>
	<path class="st5" d="M557.9,423.9l22.5-12.8L556.9,426l-1.1,2.2c-0.9-0.5-1.9-0.9-2.8-1.4l14.5-27.5l0.1-0.2l0,0l1.4-2.6l-3.9-27.6
		l4.9,25.7l-0.2,0.6l11-20.8l-1.6-27.4l3.5,23.8l21.6-43.6l0.1-0.1l-0.1,0.1L588,361.6l18.1-8.4l-19.6,11.4l-9.1,18.9l19.4-13.2
		l-20.8,16l-5.1,10.5l27.7-18.1l-29.5,21.8L557.9,423.9z"/>
</g>
</svg>
