<svg xmlns="http://www.w3.org/2000/svg" xmlns:xlink="http://www.w3.org/1999/xlink" width="1730" height="913" viewBox="0 0 1730 913">
  <defs>
    <linearGradient id="linear-gradient" x1="-0.407" y1="-1.071" x2="0.442" y2="0.532" gradientUnits="objectBoundingBox">
      <stop offset="0.038" stop-color="#ffa333"/>
      <stop offset="0.235" stop-color="#ffad49"/>
      <stop offset="0.646" stop-color="#ffc783"/>
      <stop offset="1" stop-color="#ffe0bb"/>
    </linearGradient>
    <linearGradient id="linear-gradient-2" x1="-0.099" y1="0.043" x2="0.436" y2="0.417" gradientUnits="objectBoundingBox">
      <stop offset="0" stop-color="#ffa333"/>
      <stop offset="0.205" stop-color="#ffad49"/>
      <stop offset="0.631" stop-color="#ffc783"/>
      <stop offset="1" stop-color="#ffe0bb"/>
    </linearGradient>
    <linearGradient id="linear-gradient-3" x1="0.952" y1="-3.195" x2="0.048" y2="4.195" gradientUnits="objectBoundingBox">
      <stop offset="0" stop-color="#ffa333"/>
      <stop offset="0.317" stop-color="#fead49"/>
      <stop offset="0.979" stop-color="#fcc984"/>
      <stop offset="1" stop-color="#fcca86"/>
    </linearGradient>
    <linearGradient id="linear-gradient-4" x1="0.944" y1="-0.984" x2="0.056" y2="1.983" xlink:href="#linear-gradient"/>
    <linearGradient id="linear-gradient-5" x1="1.112" y1="0.449" x2="-0.003" y2="0.867" xlink:href="#linear-gradient"/>
    <linearGradient id="linear-gradient-7" x1="1.219" y1="0.389" x2="-0.147" y2="0.616" xlink:href="#linear-gradient"/>
    <linearGradient id="linear-gradient-8" x1="0.42" y1="0.007" x2="0.564" y2="0.988" gradientUnits="objectBoundingBox">
      <stop offset="0.41" stop-color="#ffa333"/>
      <stop offset="0.597" stop-color="#fead49"/>
      <stop offset="0.987" stop-color="#fcc984"/>
      <stop offset="1" stop-color="#fcca86"/>
    </linearGradient>
    <linearGradient id="linear-gradient-9" x1="0.933" y1="0.937" x2="0.304" y2="0.32" gradientUnits="objectBoundingBox">
      <stop offset="0" stop-color="#34dfae"/>
      <stop offset="1" stop-color="#03ca8a"/>
    </linearGradient>
    <linearGradient id="linear-gradient-10" x1="0.84" y1="1.14" x2="0.003" y2="0.232" xlink:href="#linear-gradient-9"/>
    <linearGradient id="linear-gradient-11" x1="0.497" y1="1.581" x2="0.506" y2="-0.316" gradientUnits="objectBoundingBox">
      <stop offset="0" stop-color="#ffa333"/>
      <stop offset="1" stop-color="#ff8e55"/>
    </linearGradient>
    <linearGradient id="linear-gradient-12" x1="0.5" y1="1" x2="0.5" gradientUnits="objectBoundingBox">
      <stop offset="0" stop-color="#addcff"/>
      <stop offset="1" stop-color="#8ac3ff"/>
    </linearGradient>
    <linearGradient id="linear-gradient-13" x1="0.5" y1="1" x2="0.5" y2="0" xlink:href="#linear-gradient-11"/>
    <linearGradient id="linear-gradient-21" x1="1" y1="0.5" x2="0" y2="0.5" xlink:href="#linear-gradient-12"/>
    <linearGradient id="linear-gradient-23" x1="0.879" y1="1.01" x2="0.098" y2="0.216" gradientUnits="objectBoundingBox">
      <stop offset="0" stop-color="#969fe7"/>
      <stop offset="0.833" stop-color="#626fdb"/>
    </linearGradient>
    <linearGradient id="linear-gradient-24" x1="0.208" y1="0.106" x2="0.753" y2="0.749" gradientUnits="objectBoundingBox">
      <stop offset="0" stop-color="#432929"/>
      <stop offset="1" stop-color="#966565"/>
    </linearGradient>
    <linearGradient id="linear-gradient-25" x1="0.839" y1="0.648" x2="-0.076" y2="0.407" gradientUnits="objectBoundingBox">
      <stop offset="0" stop-color="#737fdf"/>
      <stop offset="0.525" stop-color="#626fdb"/>
    </linearGradient>
    <linearGradient id="linear-gradient-26" x1="0.253" y1="0.755" x2="0.901" y2="-0.147" gradientUnits="objectBoundingBox">
      <stop offset="0.055" stop-color="#737fdf"/>
      <stop offset="1" stop-color="#626fdb"/>
    </linearGradient>
    <linearGradient id="linear-gradient-27" y1="0.5" x2="1" y2="0.5" gradientUnits="objectBoundingBox">
      <stop offset="0.356" stop-color="#f0f5fb"/>
      <stop offset="1" stop-color="#eaeff8"/>
    </linearGradient>
    <linearGradient id="linear-gradient-28" x1="0.903" y1="0.665" x2="-0.095" y2="0.343" gradientUnits="objectBoundingBox">
      <stop offset="0" stop-color="#ffe8e0"/>
      <stop offset="1" stop-color="#ffb5aa"/>
    </linearGradient>
    <linearGradient id="linear-gradient-29" x1="0.169" y1="0.017" x2="1.018" y2="0.913" xlink:href="#linear-gradient-24"/>
    <linearGradient id="linear-gradient-30" x1="0.828" y1="0.97" x2="-0.216" y2="0.222" gradientUnits="objectBoundingBox">
      <stop offset="0" stop-color="#f0f5fb"/>
      <stop offset="0.617" stop-color="#eaeff8"/>
    </linearGradient>
    <linearGradient id="linear-gradient-31" x1="1.083" y1="0.624" x2="0.003" y2="0.409" xlink:href="#linear-gradient-28"/>
    <linearGradient id="linear-gradient-32" x1="0.31" y1="0.889" x2="0.819" y2="0.101" gradientUnits="objectBoundingBox">
      <stop offset="0" stop-color="#ffe4e4"/>
      <stop offset="1" stop-color="#ffafaf"/>
    </linearGradient>
    <linearGradient id="linear-gradient-33" x1="0.166" y1="0.936" x2="0.762" y2="-0.026" xlink:href="#linear-gradient-32"/>
    <linearGradient id="linear-gradient-34" x1="0" y1="0.5" x2="1" y2="0.5" xlink:href="#linear-gradient-28"/>
    <linearGradient id="linear-gradient-35" x1="1" y1="0.5" x2="0" y2="0.5" gradientUnits="objectBoundingBox">
      <stop offset="0" stop-color="#34dfae"/>
      <stop offset="0.743" stop-color="#03ca8a"/>
    </linearGradient>
    <linearGradient id="linear-gradient-36" x1="0.69" y1="0.591" x2="0.011" y2="0.442" gradientUnits="objectBoundingBox">
      <stop offset="0" stop-color="#f67471"/>
      <stop offset="1" stop-color="#eb4d49"/>
    </linearGradient>
    <linearGradient id="linear-gradient-37" x1="0.684" y1="0.59" x2="0.023" y2="0.348" xlink:href="#linear-gradient-36"/>
    <linearGradient id="linear-gradient-38" y1="0.5" x2="1" y2="0.5" gradientUnits="objectBoundingBox">
      <stop offset="0.216" stop-color="#432929"/>
      <stop offset="1" stop-color="#966565"/>
    </linearGradient>
    <linearGradient id="linear-gradient-39" x1="0.906" y1="0.855" x2="0.329" y2="0.102" xlink:href="#linear-gradient-28"/>
    <linearGradient id="linear-gradient-41" x1="0.861" y1="0.006" x2="0.244" y2="1.016" xlink:href="#linear-gradient-38"/>
    <linearGradient id="linear-gradient-42" x1="1.14" y1="0.82" x2="-0.061" y2="0.317" gradientUnits="objectBoundingBox">
      <stop offset="0" stop-color="#34dfae"/>
      <stop offset="0.829" stop-color="#03ca8a"/>
    </linearGradient>
    <linearGradient id="linear-gradient-43" x1="1.362" y1="0.581" x2="0.388" y2="0.446" gradientUnits="objectBoundingBox">
      <stop offset="0" stop-color="#f0f5fb"/>
      <stop offset="0.189" stop-color="#edf2f8"/>
      <stop offset="0.325" stop-color="#e5e9ee"/>
      <stop offset="0.444" stop-color="#d7dadf"/>
      <stop offset="0.553" stop-color="#c3c5c8"/>
      <stop offset="0.655" stop-color="#a9abac"/>
      <stop offset="0.72" stop-color="#969696"/>
    </linearGradient>
    <linearGradient id="linear-gradient-44" x1="0.8" y1="0.584" x2="0.175" y2="0.376" xlink:href="#linear-gradient-9"/>
  </defs>
  <g id="Group_1148" data-name="Group 1148" transform="translate(-17627 -3326)">
    <g id="Group_1147" data-name="Group 1147" transform="translate(17437 3326)">
      <g id="Group_1025" data-name="Group 1025" transform="translate(726.527)">
        <path id="Path_687" data-name="Path 687" d="M-1573.909,4826.16v10.055c-6.008.511-10.627.787-13.222.817-153.161,1.88-231,3.1-284.658,4.516-41.353,1.083-68.38,1.748-104.389,4.005-78.506,4.926-171.1,8.124-262.015,7.613-2.37-.021-4.741-.031-7.112-.051-2.759-.02-5.518-.041-8.276-.082q-10.821-.108-21.591-.286l-5.007-.092q-5.487-.108-10.964-.225c-1.758-.041-3.505-.082-5.252-.133s-3.515-.082-5.272-.133q-3.71-.092-7.408-.2t-7.367-.224l-7.347-.246q-8.093-.275-16.114-.6c-.214-.021-.419-.021-.633-.031-2.657-.112-5.313-.225-7.95-.347-2.79-.123-5.579-.255-8.348-.388-108.62-5.262-203.475-17.779-253.1-41.486-42.1-20.1-84.719-45.42-78.445-68.125,8.042-29.1,130.323-13.8,138.047-42.589,5.344-19.9-50.866-34.067-50.191-53.931,1.614-48.414,338.56-55.965,675.668-64.886l8.124-.214h.01c.368.8.746,1.594,1.134,2.381-301.958,7.806-577.492,17.708-578.953,59.49-.674,18.956,55.536,32.474,50.192,51.479-7.725,27.477-130.006,12.875-138.048,40.648-6.274,21.673,36.346,45.849,78.445,65.029,49.629,22.633,144.485,34.578,253.1,39.605,2.769.123,5.559.246,8.348.368,2.636.113,5.293.225,7.95.328.214.01.418.01.633.03q8.016.307,16.114.572,3.664.122,7.347.235t7.367.214c2.463.071,4.936.144,7.408.194,1.758.052,3.515.092,5.273.133s3.495.082,5.252.123q5.472.123,10.964.215l5.007.092q10.76.168,21.591.276,4.139.045,8.277.071c2.371.02,4.741.03,7.112.051,90.912.491,183.509-2.564,262.015-7.265,36.009-2.156,63.036-2.79,104.389-3.822C-1724.259,4828.285-1668.2,4827.345-1573.909,4826.16Z" transform="translate(2767.093 -3940.457)" fill="url(#linear-gradient)"/>
        <path id="Path_688" data-name="Path 688" d="M-2659.437,4637.926c-.194,5.58,4.107,10.709,10.269,15.645,9.2,7.356,22.541,14.285,31.309,21.622,6.284,5.242,10.218,10.7,8.614,16.666-1.338,5.007-6.151,8.675-13.212,11.475-21.959,8.717-65.744,9.06-95.27,14.972a14.649,14.649,0,0,1-15.239-6.091,11.242,11.242,0,0,1-1.686-4.17,11.075,11.075,0,0,1,.327-5.09,14.006,14.006,0,0,1,7.885-8.633c5.968-2.687,10-6.123,11.213-10.637.01-.042.02-.072.031-.112,5.1-19.844-50.9-34-50.222-53.819,1.038-31.106,140.5-45.34,329.505-53.913,8.319-.376,10.132,11.538,2.076,13.649l-.629.165a6.893,6.893,0,0,1-1.282.209C-2568.769,4598.887-2658.6,4612.983-2659.437,4637.926Z" transform="translate(2765.426 -3940.524)" fill="url(#linear-gradient-2)"/>
        <path id="Path_690" data-name="Path 690" d="M-2347.36,4845.08q8.017.322,16.114.6Q-2339.354,4845.407-2347.36,4845.08Z" transform="translate(2774.548 -3934.649)" fill="url(#linear-gradient-3)"/>
        <path id="Path_691" data-name="Path 691" d="M-1688.282,4575.378c-1.4-.133-2.779-.255-4.128-.378C-1691.061,4575.112-1689.692,4575.235-1688.282,4575.378Z" transform="translate(2788.838 -3940.542)" fill="url(#linear-gradient-4)"/>
        <path id="Path_692" data-name="Path 692" d="M-1613.979,4050.314c-11.731,16.891-8.614,39.259-5.109,64.375,5.313,38.1,18.648,41.179,18.393,65.4-.48,44.775-46.534,77.873-56.2,84.811-18.107,13.018-23.7,11.1-79.7,31.676-56.312,20.692-84.944,31.4-108.313,49.047-3.771,2.851-40.444,31.125-61.309,75.615-30.052,64.079-13.662,132.652-2.381,169.346.255.817.5,1.625.746,2.4,4.649,14.867,8.185,23.92,6.744,24.441-.726.256-2.943-1.533-6.366-5.16-2.974-4.854-5.886-10.034-8.665-15.531v-.011c-.583-1.145-1.155-2.309-1.717-3.484-301.958,7.806-577.491,17.708-578.953,59.49-.675,18.956,55.536,32.474,50.192,51.479-7.725,27.477-130.006,12.875-138.048,40.648-6.274,21.673,36.346,45.85,78.445,65.029,49.63,22.633,144.485,34.578,253.1,39.6l8.348.368c2.636.112,5.293.225,7.95.327.215.01.419.01.634.03q8.016.307,16.114.572,3.664.122,7.347.235t7.367.214c2.463.072,4.936.144,7.408.194,1.757.052,3.515.092,5.272.133s3.495.082,5.252.123q5.472.123,10.964.215l5.007.092q10.76.168,21.591.276,4.138.045,8.276.071c2.371.021,4.742.03,7.112.051,90.912.491,183.509-2.564,262.015-7.265,36.009-2.156,63.036-2.79,104.389-3.821,41.547-1.053,97.6-1.993,191.9-3.179V4030.46C-1590.814,4033.014-1604.905,4037.255-1613.979,4050.314Zm-58.949,536.568c1.349.112,2.718.235,4.128.378C-1670.2,4587.127-1671.579,4587-1672.928,4586.881Z" transform="translate(2769.356 -3952.424)" fill="url(#linear-gradient-5)"/>
        <path id="Path_693" data-name="Path 693" d="M-1688.282,4575.378c-1.4-.133-2.779-.255-4.128-.378C-1691.061,4575.112-1689.692,4575.235-1688.282,4575.378Z" transform="translate(2788.838 -3940.542)" fill="url(#linear-gradient-4)"/>
        <path id="Path_694" data-name="Path 694" d="M-1596.17,4263.852v36.009h-60.7c-11.639,0-16.359-15.317-6.54-21.551.327-.2.664-.4,1.012-.572a13.476,13.476,0,0,1,8.042-1.186,11.979,11.979,0,0,0,12.313-6.56,27.823,27.823,0,0,1,10.034-11.24A27.774,27.774,0,0,1-1596.17,4263.852Z" transform="translate(2789.355 -3947.538)" fill="#f9c287"/>
        <path id="Path_399" data-name="Path 399" d="M-1607.881,4104.391a6.052,6.052,0,0,0,6.075-6.029c0-.092,0-.184-.005-.274a8.675,8.675,0,0,0-2.21-5.433,8.946,8.946,0,0,0-8.619-2.552,6,6,0,0,1-6.32-2.557,14.343,14.343,0,0,0-19.808-4.376,14.34,14.34,0,0,0-5.177,5.8,6.192,6.192,0,0,1-6.355,3.389,6.934,6.934,0,0,0-4.155.611,5.951,5.951,0,0,0-.519.3c-5.072,3.216-2.633,11.123,3.372,11.123Z" transform="translate(2789.595 -3951.323)" fill="#f9c287"/>
        <path id="Path_399-2" data-name="Path 399" d="M-1785.895,4357.8a11.03,11.03,0,0,0,11.07-10.989c0-.166,0-.333-.009-.5a15.806,15.806,0,0,0-4.028-9.9,16.3,16.3,0,0,0-15.706-4.65,10.936,10.936,0,0,1-11.519-4.661,26.139,26.139,0,0,0-36.1-7.977,26.149,26.149,0,0,0-9.433,10.575,11.285,11.285,0,0,1-11.583,6.177,12.615,12.615,0,0,0-7.57,1.114q-.486.248-.947.54c-9.243,5.86-4.8,20.27,6.146,20.27Z" transform="translate(2784.817 -3946.215)" fill="#f9c287"/>
        <path id="Path_399-3" data-name="Path 399" d="M-1606.989,4401.3a4.946,4.946,0,0,0,4.965-4.927c0-.074,0-.15,0-.224a7.089,7.089,0,0,0-1.807-4.439,7.309,7.309,0,0,0-7.044-2.084,4.9,4.9,0,0,1-5.165-2.091,11.723,11.723,0,0,0-16.188-3.577,11.728,11.728,0,0,0-4.23,4.743,5.062,5.062,0,0,1-5.194,2.771,5.656,5.656,0,0,0-3.4.5c-.145.075-.287.155-.424.243-4.146,2.628-2.152,9.09,2.756,9.09Z" transform="translate(2789.814 -3944.75)" fill="#f9c287"/>
        <path id="Path_695" data-name="Path 695" d="M-1627.8,4051.98c-11.731,16.891-8.614,39.259-5.109,64.375,5.313,38.1,18.648,41.179,18.393,65.4-.48,44.776-46.534,77.873-56.2,84.811-18.107,13.018-23.7,11.1-79.7,31.676-56.312,20.692-84.944,31.4-108.313,49.047-3.771,2.851-40.444,31.125-61.309,75.615-30.052,64.079-13.662,132.653-2.381,169.346.255.817.5,1.625.746,2.4,4.649,14.867,8.185,23.92,6.744,24.441-.726.256-2.943-1.532-6.366-5.16-2.974-4.854-5.886-10.034-8.665-15.531v-.011q-.874-1.717-1.717-3.484c-.388-.787-.767-1.584-1.134-2.381h-.01c-.378-.807-.746-1.614-1.114-2.432-.4-.858-.777-1.716-1.155-2.6-.46-1.042-.92-2.1-1.359-3.178-.327-.787-.654-1.574-.971-2.371-.1-.245-.194-.48-.286-.725-.347-.848-.675-1.707-1-2.575-.429-1.113-.848-2.228-1.257-3.362a195.877,195.877,0,0,1-11.751-62.464,202.2,202.2,0,0,1,21.489-94.958c2.657-5.364,5.477-10.5,8.41-15.4a219.335,219.335,0,0,1,32.432-41.895c39.779-39.913,95.213-60.522,108.313-65.4,35.416-13.171,61.6-15.879,92.986-41.895,14.806-12.272,31.492-26.486,35.764-49.047,4.108-21.7-5.191-40.934-21.458-74.593-17.105-35.385-25.116-38.032-26.567-55.178-2.6-30.664,20.2-55.883,30.655-67.44,20.825-23.032,52.011-43.795,79.7-52.93v78.036C-1604.637,4034.681-1618.728,4038.921-1627.8,4051.98Z" transform="translate(2783.179 -3954.09)" fill="url(#linear-gradient-7)"/>
        <path id="Path_696" data-name="Path 696" d="M-1703.722,4210.045c-3.965,7-11.039,19.5-27.6,24.065-10.686,2.951-23.94,2.2-33.317-3.1a27.184,27.184,0,0,1-4.7-3.354c-11.441-10.24-10.736-28.117-7.375-42.28a92.179,92.179,0,0,1,4.959-15.147c3.462-8,7.514-16.936,18.591-21.97,10.851-4.93,24.142-4.146,34,.233,15.948,7.1,19.308,22.065,20.882,29.067C-1694.684,4193.6-1701.531,4206.174-1703.722,4210.045Z" transform="translate(2786.952 -3949.927)" fill="url(#linear-gradient-8)"/>
        <path id="Path_697" data-name="Path 697" d="M-1715.478,4215.929c-.026,6.019-5.865,10.886-13.027,10.864h-40.833c-11.441-10.24-10.736-28.117-7.375-42.28,9.616.4,18.868,4.58,24.444,11.921,2.945,3.755,8.333,5.585,13.557,4.611a21.625,21.625,0,0,1,18.49,4.591,14.431,14.431,0,0,1,4.733,9.8C-1715.478,4215.59-1715.478,4215.759-1715.478,4215.929Z" transform="translate(2786.952 -3949.062)" fill="#f9c287"/>
      </g>
      <g id="Group_1120" data-name="Group 1120" transform="translate(934.424 123.787)">
        <g id="Group_995" data-name="Group 995" transform="translate(158.338 174.857)">
          <g id="Group_994" data-name="Group 994">
            <path id="Path_624" data-name="Path 624" d="M1606.791,5850.347c-2.033,6.891-5.711,10.63-7.123,11.453-3.041,1.769-58.485,28.925-24.192,22.424a53.455,53.455,0,0,1,11.556-1.139c3.744.135,3.582,5.778-.166,5.778H1479.051l-.01-.006c-1.9-4.788-3.963-9.923-6.088-15.557-2-5.185-2.731-9.171-2.514-12.2.45-7.122,6.113-8.906,12.615-8.534a43.149,43.149,0,0,1,7.355,1.148,2,2,0,0,1,.311.062c3.025.746,5.819,1.628,8.022,2.4,1.924.714,3.693-1.333,3.2-3.615a213.186,213.186,0,0,1-4.654-30.2c-.311-4.655-.388-8.69-.28-12.243a68.031,68.031,0,0,1,1.211-10.5,14.318,14.318,0,0,1,.558-2.018,13.771,13.771,0,0,1,2.25-4.189,12.524,12.524,0,0,1,1.738-1.878,11.926,11.926,0,0,1,8.365-3.2c.931.03,1.815.03,2.669.03,5.1-.016,8.487-.449,11.141-1.521a15.426,15.426,0,0,0,5.571-3.911c.326-.356.682-.745,1.024-1.132.652-.714,1.288-1.459,1.956-2.312,1.955-2.343,4.22-5.214,7.386-8.8,2.375-2.7,5.292-5.741,8.907-9.264,25.2-24.207,50.385-32.462,46.381-26.582-2.311,3.368-5.291,18.248-4.546,36.2a120.375,120.375,0,0,0,3.476,25.339c.419,1.661.884,3.321,1.4,4.966a86.546,86.546,0,0,0,4.671,12.026C1609.289,5830.175,1609.149,5842.373,1606.791,5850.347Z" transform="translate(-961.125 -5373.682)" fill="url(#linear-gradient-9)"/>
            <g id="Group_993" data-name="Group 993">
              <path id="Path_625" data-name="Path 625" d="M1162.129,5888.341h-83.864a48.018,48.018,0,0,1-42.336-24.889q-.287-.529-.544-1.037c-2.972-5.841-1.588-12.365,2.9-15.764,16.344-12.416,8.659-12.792,12.638-42.151,4.339-32.331,17.984-53.013,18.462-46.37.137,1.964,1.93,6.251,5.107,11.665a123.961,123.961,0,0,0,16.464,21.725c.086.1.188.222.274.325a99.107,99.107,0,0,0,25.208,19.641c.752.392,1.521.786,2.289,1.161a76.867,76.867,0,0,1,8.437,4.714c20.563,13.3,19.64,28.813,18.565,31.562-.82,2.135-13,27.873-13.236,35.148-.068,1.726.529,2.425,2.1,1.537,1.367-.768,3.467-2.732,6.508-6.234C1156.561,5861.425,1163.017,5868.546,1162.129,5888.341Z" transform="translate(-970.651 -5373.162)" fill="url(#linear-gradient-10)"/>
              <g id="Group_992" data-name="Group 992">
                <g id="Group_976" data-name="Group 976" transform="translate(146.872)">
                  <g id="Group_975" data-name="Group 975">
                    <g id="Group_974" data-name="Group 974">
                      <path id="Path_626" data-name="Path 626" d="M1532.675,5414.92v448.13a37.345,37.345,0,0,1-20.793,33.486H1136.529a36.812,36.812,0,0,1-4.3-2.482c-.652-.451-1.288-.9-1.909-1.4a37.243,37.243,0,0,1-14.587-29.607V5414.92c0-18.512,14.245-33.564,31.857-33.564h353.224C1518.43,5381.356,1532.675,5396.408,1532.675,5414.92Z" transform="translate(-1115.736 -5381.356)" fill="#7da6f8"/>
                    </g>
                    <path id="Path_627" data-name="Path 627" d="M1500.365,5434.419v417.142a16.868,16.868,0,0,1-17.015,16.718H1163.684a16.869,16.869,0,0,1-17.015-16.718V5434.419c0-16.668,13.752-30.18,30.716-30.18H1469.65C1486.613,5404.24,1500.365,5417.751,1500.365,5434.419Z" transform="translate(-1115.061 -5380.856)" fill="#fff"/>
                  </g>
                </g>
                <g id="Group_985" data-name="Group 985" transform="translate(112.919 17.736)">
                  <path id="Path_628" data-name="Path 628" d="M1567.308,5541.031h-484.8l45.04-125.519c3.627-10.112,12.794-16.8,23.026-16.8h348.669c10.231,0,19.4,6.687,23.026,16.8Z" transform="translate(-1082.508 -5398.713)" fill="url(#linear-gradient-11)"/>
                  <g id="Group_977" data-name="Group 977" transform="translate(0 134.66)">
                    <path id="Path_629" data-name="Path 629" d="M1136.372,5530.5v35.909a26.932,26.932,0,0,1-53.864,0V5530.5Z" transform="translate(-1082.508 -5530.497)" fill="url(#linear-gradient-12)"/>
                  </g>
                  <g id="Group_978" data-name="Group 978" transform="translate(53.864 134.66)">
                    <path id="Path_630" data-name="Path 630" d="M1189.085,5530.5v35.909a26.932,26.932,0,0,1-53.863,0V5530.5Z" transform="translate(-1135.222 -5530.497)" fill="url(#linear-gradient-13)"/>
                  </g>
                  <g id="Group_979" data-name="Group 979" transform="translate(107.728 134.66)">
                    <path id="Path_631" data-name="Path 631" d="M1241.8,5530.5v35.909a26.932,26.932,0,0,1-53.863,0V5530.5Z" transform="translate(-1187.935 -5530.497)" fill="url(#linear-gradient-12)"/>
                  </g>
                  <g id="Group_980" data-name="Group 980" transform="translate(161.591 134.66)">
                    <path id="Path_632" data-name="Path 632" d="M1294.511,5530.5v35.909a26.932,26.932,0,0,1-53.863,0V5530.5Z" transform="translate(-1240.648 -5530.497)" fill="url(#linear-gradient-13)"/>
                  </g>
                  <path id="Path_633" data-name="Path 633" d="M1347.224,5530.5v35.909a26.932,26.932,0,0,1-53.863,0V5530.5Z" transform="translate(-1077.907 -5395.837)" fill="url(#linear-gradient-12)"/>
                  <path id="Path_634" data-name="Path 634" d="M1347.224,5533.373h-53.864l5.593-134.659h42.677Z" transform="translate(-1077.907 -5398.713)" fill="#c7e7ff"/>
                  <g id="Group_981" data-name="Group 981" transform="translate(269.317 134.66)">
                    <path id="Path_635" data-name="Path 635" d="M1399.966,5530.5v35.909a26.946,26.946,0,0,1-53.892,0V5530.5Z" transform="translate(-1346.074 -5530.497)" fill="url(#linear-gradient-13)"/>
                  </g>
                  <g id="Group_982" data-name="Group 982" transform="translate(323.209 134.66)">
                    <path id="Path_636" data-name="Path 636" d="M1452.678,5530.5v35.909a26.932,26.932,0,0,1-53.863,0V5530.5Z" transform="translate(-1398.815 -5530.497)" fill="url(#linear-gradient-12)"/>
                  </g>
                  <g id="Group_983" data-name="Group 983" transform="translate(377.072 134.66)">
                    <path id="Path_637" data-name="Path 637" d="M1505.391,5530.5v35.909a26.932,26.932,0,0,1-53.863,0V5530.5Z" transform="translate(-1451.528 -5530.497)" fill="url(#linear-gradient-13)"/>
                  </g>
                  <g id="Group_984" data-name="Group 984" transform="translate(430.936 134.66)">
                    <path id="Path_638" data-name="Path 638" d="M1558.105,5530.5v35.909a26.932,26.932,0,0,1-53.864,0V5530.5Z" transform="translate(-1504.241 -5530.497)" fill="url(#linear-gradient-12)"/>
                  </g>
                  <path id="Path_639" data-name="Path 639" d="M1452.977,5533.373h-53.863l-13.983-134.659h48.27Z" transform="translate(-1075.905 -5398.713)" fill="#c7e7ff"/>
                  <path id="Path_640" data-name="Path 640" d="M1558.7,5533.373h-53.864l-27.966-134.66h19.27a17.615,17.615,0,0,1,16.5,11.447Z" transform="translate(-1073.903 -5398.713)" fill="#c7e7ff"/>
                  <path id="Path_641" data-name="Path 641" d="M1255.781,5398.714,1241.8,5533.373h-53.864l19.577-134.659Z" transform="translate(-1080.208 -5398.713)" fill="#c7e7ff"/>
                  <path id="Path_642" data-name="Path 642" d="M1164.339,5398.713l-27.966,134.66h-53.864l46.061-123.212a17.617,17.617,0,0,1,16.5-11.447Z" transform="translate(-1082.508 -5398.713)" fill="#c7e7ff"/>
                </g>
                <g id="Group_988" data-name="Group 988" transform="translate(0 232.861)">
                  <rect id="Rectangle_560" data-name="Rectangle 560" width="317.925" height="90.205" rx="2.475" fill="url(#linear-gradient-21)"/>
                  <g id="Group_987" data-name="Group 987" transform="translate(35.166 15.958)">
                    <ellipse id="Ellipse_171" data-name="Ellipse 171" cx="29.145" cy="29.145" rx="29.145" ry="29.145" fill="#fff"/>
                    <g id="Group_986" data-name="Group 986" transform="translate(77.442 5.412)">
                      <rect id="Rectangle_561" data-name="Rectangle 561" width="121.576" height="18.32" rx="0.836" fill="#fff"/>
                      <rect id="Rectangle_562" data-name="Rectangle 562" width="170.151" height="18.32" rx="0.836" transform="translate(0 29.145)" fill="#fff"/>
                    </g>
                  </g>
                </g>
                <g id="Group_991" data-name="Group 991" transform="translate(483.646 318.562)">
                  <rect id="Rectangle_563" data-name="Rectangle 563" width="234.503" height="66.536" rx="2.475" fill="url(#linear-gradient-21)"/>
                  <g id="Group_990" data-name="Group 990" transform="translate(25.939 11.77)">
                    <ellipse id="Ellipse_172" data-name="Ellipse 172" cx="21.497" cy="21.497" rx="21.497" ry="21.497" fill="#fff"/>
                    <g id="Group_989" data-name="Group 989" transform="translate(57.122 3.992)">
                      <rect id="Rectangle_564" data-name="Rectangle 564" width="89.675" height="13.513" rx="0.836" fill="#fff"/>
                      <rect id="Rectangle_565" data-name="Rectangle 565" width="125.504" height="13.513" rx="0.836" transform="translate(0 21.498)" fill="#fff"/>
                    </g>
                  </g>
                </g>
                <rect id="Rectangle_566" data-name="Rectangle 566" width="78.803" height="78.803" rx="14.338" transform="translate(211.494 394.021)" fill="#eaeff8"/>
                <rect id="Rectangle_567" data-name="Rectangle 567" width="78.803" height="78.803" rx="14.338" transform="translate(313.864 394.021)" fill="#eaeff8"/>
                <rect id="Rectangle_568" data-name="Rectangle 568" width="78.803" height="78.803" rx="14.338" transform="translate(420.378 394.021)" fill="#eaeff8"/>
              </g>
            </g>
          </g>
        </g>
        <g id="Group_997" data-name="Group 997" transform="translate(709.644 249.202)">
          <path id="Path_643" data-name="Path 643" d="M1717.984,5912.752a2.857,2.857,0,0,1,4.026,1.03,4.292,4.292,0,0,0,5.386,1.714c3.065-2.043.363-12.671-4.734-16.579s-9,1.189-12.247,4.366-17.088,22.03-14.373,22.967C1697.962,5926.914,1712.074,5916.475,1717.984,5912.752Z" transform="translate(-1507.514 -5444.438)" fill="#e13f64"/>
          <path id="Path_644" data-name="Path 644" d="M1617.6,5922.485c1.64-.087,2.365,2.964,4,3.137,4.047.43,9.375-7.038,6.831-12.935s-8.44-3.351-12.823-2.16-25.66,10.9-23.746,13.044C1593.217,5925.087,1610.628,5922.854,1617.6,5922.485Z" transform="translate(-1509.783 -5444.188)" fill="#e13f64"/>
          <path id="Path_645" data-name="Path 645" d="M1691.231,5795.685s-3.344,9.587-.178,12.842,40.67,31.39,32.113,92.927l-12.263,4.327s-48.21-89.938-46.2-95.69l8.694-24.928Z" transform="translate(-1508.192 -5446.89)" fill="#ffd3ca"/>
          <path id="Path_646" data-name="Path 646" d="M1635.561,5807.227l-2.148,14.184a4.509,4.509,0,0,0,.59,2.978c4.223,7.1,21.827,41.949-6.89,88.853a4.512,4.512,0,0,0-.663,2.124h0a4.5,4.5,0,0,1-7.47,3.172,13.285,13.285,0,0,1-4.333-11.019c.616-12.169-6.028-81.641-5.822-85.7.156-3.082,6.578-14.057,9.658-19.156a4.5,4.5,0,0,1,4.642-2.1l8.762,1.55A4.508,4.508,0,0,1,1635.561,5807.227Z" transform="translate(-1509.41 -5446.556)" fill="#ffd3ca"/>
          <g id="Group_996" data-name="Group 996">
            <path id="Path_647" data-name="Path 647" d="M1715.487,5837.5c-19.448.494-53.37-4.582-72.818-4.088-13.095.333-20.419,2.887-29.26,4.857-13.139,2.927-26.826-2.5-34.72-14.361-3.358-5.046-4.938-10.053-3.346-14.575.055-.158.111-.316.167-.476,2.8-7.959,5.919-17.544,9.373-29.183,3.79-12.731,7.972-27.916,12.547-46.135q.392-1.549.785-3.127,1.413-5.655,2.912-10.943c1.186-4.189,2.419-8.205,3.669-12.057a267.059,267.059,0,0,1,13.256-33.271q1.638-3.418,3.277-6.53a168.178,168.178,0,0,1,16.3-25.74,78.867,78.867,0,0,1,8-9.015.778.778,0,0,1,.485-.207c.654-.036,1.3-.071,1.939-.1,7.954-.419,14.582-.633,20.166-.5,9.1.2,15.468,1.318,20.379,3.975,8.085,4.353,12.211,12.875,18.056,28.345,4.061,10.75,8.952,24.851,16.589,43.233,21.384,51.5,22.795,82.813,21.894,110.867C1744.744,5830.812,1726.766,5837.5,1715.487,5837.5Z" transform="translate(-1510.154 -5450.232)" fill="url(#linear-gradient-23)"/>
            <path id="Path_648" data-name="Path 648" d="M1635.608,5504.557c-16.77,4.939-23.747,21.311-24.424,22.971-2.61,6.4-2.783,11.778-2.894,16.6-.472,20.519,8.356,43.052,15.24,42.733,3.76-.174,3.079-6.99,12.462-19.433,7.891-10.465,12.487-11.1,13.177-17.02,1.123-9.632-1.146-10.61.357-17.491,2.32-10.622,22.367-12.36,22.891-18.255C1672.853,5509.76,1653.433,5499.307,1635.608,5504.557Z" transform="translate(-1509.422 -5453.044)" fill="url(#linear-gradient-24)"/>
            <path id="Path_649" data-name="Path 649" d="M1694.31,5678.159a.882.882,0,0,1-.814.93c-6.275.513-13.534.868-21.01,1.083-6.1.175-12.378.276-18.368.276-3.407,0-6.7,0-9.848-.041a.884.884,0,0,1-.827-.6c-2.608-7.369-8.507-20.429-13.074-44.555-4.824-25.534-2.491-33.819-7.952-55.235-3.5-13.708-.9-7.259-5.3-16.2.583-.7-.451,2.926,0,2.651,2.978-1.9,10.277-12.049,14.807-15.246a.9.9,0,0,1,1.393.517c7.518,29.431,16.5,38.948,39.754,46.729,1.3.434,3.583-.107,6.572-1.413a.889.889,0,0,1,1.212.569c1.642,5.748,3.4,12.361,5.177,20.05A324.03,324.03,0,0,1,1694.31,5678.159Z" transform="translate(-1509.232 -5451.999)" fill="url(#linear-gradient-25)"/>
            <path id="Path_650" data-name="Path 650" d="M1689.4,5582.557a13.082,13.082,0,0,0,.186,3.578c.052.346.105.743.158,1.141.133.662.239,1.352.371,2.121.106.609.212,1.271.372,1.961.079.425.185.9.265,1.378.047.265.093.538.145.814a.912.912,0,0,1-.384.928c-8.35,5.55-14.949,8.895-17.6,7.958a56.311,56.311,0,0,1-9.622-4.426c-10.177-5.831-18.977-14.763-25.948-26.107a97.967,97.967,0,0,1-6.229-11.848,120.245,120.245,0,0,1-7.124-21.064.912.912,0,0,1,.475-1.02c4.1-2.06,7.338-3.547,7.338-3.547s3.489-1.486,8-3.3a.9.9,0,0,1,1.235.814c.186,6.761-1.9,14.393-3.068,28.4a.913.913,0,0,0,.792.982,64.966,64.966,0,0,0,7.354.425,67.606,67.606,0,0,0,11.01-.934.905.905,0,0,0,.735-1.05c-.125-.707-.243-1.355-.374-1.939-2.386-11.662-4.877-25.1.98-33.158a3.884,3.884,0,0,1,.53-.027c3.42,0,23.591,12.06,34.722,18.819,3.048,1.855,5.434,3.313,6.6,4.029a1.587,1.587,0,0,1,.266.185,1.4,1.4,0,0,1,.291.265l.344.344a58.554,58.554,0,0,1,5.646,8.614c.4.662.8,1.352,1.193,2.094q1.234,2.188,2.545,4.612.676,1.192,1.352,2.465c.424.821.9,1.669,1.351,2.543.478.849.928,1.724,1.4,2.6.522,1,1.043,2,1.564,2.983a.894.894,0,0,1-.228,1.113c-6.931,5.63-10.33,2.525-16.7,7.036-.445.315-3.337-3.56-3.584-4.046-1.235-2.422-3.863,7.429-5.228,5.054-.529-.9-.848-1.219-1.033-1.008C1689.457,5582.371,1689.43,5582.451,1689.4,5582.557Z" transform="translate(-1509.079 -5452.574)" fill="url(#linear-gradient-26)"/>
            <path id="Path_651" data-name="Path 651" d="M1661.82,5538.453c-1.909,5.726-.319,9.846.641,14.453a10.216,10.216,0,0,1-10.307,12.322c-2.278-.073-4.469-.155-6.146-.1-1.947.062-5.284.149-8.229.136a4.142,4.142,0,0,1-4-4.6c1.475-15.953,6.035-39.288-.326-47.391a.881.881,0,0,1,.307-1.347c8.178-3.917,30.457-18.51,30.71-10.577C1664.914,5515.207,1664.47,5530.5,1661.82,5538.453Z" transform="translate(-1508.877 -5453.134)" fill="#ffb5aa"/>
            <path id="Path_652" data-name="Path 652" d="M1656.941,5685.18a4.037,4.037,0,0,1-4.029,3.684c-14.153-.026-26.32-.5-30.693-1.246-13.042-2.173,2.172-81.531-6.521-76.1s-27.168,26.081-40.235,29.342c-13.041,3.259-63.057-83.706-59.8-91.313,3.658-8.561,56.536,49.991,63.057,52.165,5.54,1.881,22.106-37.135,30.933-51.527,1.564-2.544,2.889-4.321,3.87-4.983a138.885,138.885,0,0,1,12.67-7.025q.592-.3,1.16-.582a49.123,49.123,0,0,0,10.3-6.89l.111-.095a3.243,3.243,0,0,1,5.368,2.627c-.451,6.944-1.944,16.191-2.863,27.867-.265,3.208-.451,6.759-.556,10.682-.08,2.2-.106,4.533-.106,7C1639.554,5636.754,1658.506,5666.122,1656.941,5685.18Z" transform="translate(-1511.446 -5452.461)" fill="url(#linear-gradient-27)"/>
            <path id="Path_654" data-name="Path 654" d="M1670.911,5498.577a.9.9,0,0,0-.478.541c-2.1,6.687-2.569,13.033-10.25,19.979-3.629,3.282-10.431,7.891-16.033,7.366-4.615-.431-10.178-2.875-11.71-4.41-8.045-8.062-5.231-16.315-10.457-44.148-1.164-6.2-1.739-8.116-.463-10.361,4.572-8.039,25.186-6.753,39.453,1.454.79.454,19.344,11.36,16.708,21.3A13.119,13.119,0,0,1,1670.911,5498.577Z" transform="translate(-1509.149 -5453.938)" fill="url(#linear-gradient-28)"/>
            <path id="Path_655" data-name="Path 655" d="M1658.843,5488.293a.858.858,0,0,0,.079-.213c.185-.771,1.6-5.4,8.832-5.134,7.89.291,6.674,13.772,1.89,15.188-2.738.81-6.7,11.54-7.95,21.376-1.125,8.871-2.919,20.158,0,28.61,6.7,19.389,24.8,51.657,34.36,39.309,13.177-17.02,16.573-49.518,9.9-63.29s-19.349-12.648-23.633-27.129l-4.259-14.4a.884.884,0,0,1-.031-.153c-.155-1.5-2.935-25.547-21.233-27.763-18.887-2.288-33.24,1.958-39.24,16.854-4.262,10.58,1.49,19.523,5.182,23.817a1.26,1.26,0,0,0,2.208-.978l-.88-7.065a2.02,2.02,0,0,1,3.07-1.963c5.516,3.381,16.586,8.81,27.9,6.5a4.711,4.711,0,0,0,3.182-2.4Z" transform="translate(-1509.252 -5454.113)" fill="url(#linear-gradient-29)"/>
            <path id="Path_653" data-name="Path 653" d="M1784.166,5645.521v12.814a.894.894,0,0,1-1.1.873c-19.106-4.755-57.046-22.724-68.871-34.549-8.062-8.062-13.151-20.548-19.558-33.188-1.38-2.729-2.81-5.467-4.353-8.144-.531-.9-.848-1.216-1.032-1a.466.466,0,0,0-.1.215,12.78,12.78,0,0,0,.184,3.577c.051.347.1.746.153,1.134.133.664.245,1.359.378,2.125.1.613.2,1.267.368,1.962.082.418.184.9.266,1.38,4.271,21.366,16.962,69.811,22.613,89.562.184.654-.255,1.247-1.226,1.788-3.822,2.156-15.9,3.484-30.185,4.2a8.851,8.851,0,0,1-9.258-7.766c-.551-4.412-1.578-9.666-1.4-14.8,0-.031,0-.061,0-.09l-1.222-13.862-1.962-22.378a148.425,148.425,0,0,0-2.228-16c-.889-4.5-1.758-9.809-2.585-15.378-1.992-13.621-3.791-28.815-5.283-37.348-.184-1.062-.337-2.013-.531-2.83-1.819-8.915-3.7-18.859-1.882-26.652a7.2,7.2,0,0,1,9.3-5.2c9.543,3.3,19.764,11.985,28.817,17.487,3.055,1.85,5.436,3.311,6.6,4.026a1.38,1.38,0,0,1,.266.184,1.471,1.471,0,0,1,.3.265l.347.348a58.524,58.524,0,0,1,5.641,8.614c.4.664.8,1.38,1.2,2.095.818,1.451,1.666,2.994,2.544,4.608.45.8.869,1.615,1.349,2.462.429.828.9,1.676,1.349,2.544.48.848.93,1.727,1.41,2.606.633,1.216,1.267,2.432,1.911,3.627,8.134,15.368,16.645,31.778,19.558,33.526,4.277,2.56,32.051,21.243,47.966,36.522A.893.893,0,0,1,1784.166,5645.521Z" transform="translate(-1508.411 -5452.554)" fill="url(#linear-gradient-30)"/>
            <path id="Path_656" data-name="Path 656" d="M1517.769,5531.868l1.308,2.617a10.859,10.859,0,0,1,1.066,6.182l-.5,4.1a1.377,1.377,0,0,1-2.274.869l-3.546-3.1a1.377,1.377,0,0,0-2.257,1.307l.005.025a59.4,59.4,0,0,0,5.5,15.661l.424.819a3.725,3.725,0,0,0,5.887.974l4.073-3.911a5.914,5.914,0,0,0,1.8-4.727l-.755-9.732a15.5,15.5,0,0,0-7.479-12.09l-1.306-.784A1.377,1.377,0,0,0,1517.769,5531.868Z" transform="translate(-1511.533 -5452.46)" fill="url(#linear-gradient-31)"/>
          </g>
        </g>
        <g id="Group_1000" data-name="Group 1000" transform="translate(0 0)">
          <path id="Path_657" data-name="Path 657" d="M867.552,5892.852s43.671,20.9,50.76,18.021-9.529-9.386-17.842-18.629-3.452-31.771-3.452-31.771-12.487-7.137-13.231-5.989S858.974,5889.259,867.552,5892.852Z" transform="translate(-815.981 -5176.483)" fill="#7a879f"/>
          <g id="Group_998" data-name="Group 998" transform="translate(117.293 0)">
            <path id="Path_658" data-name="Path 658" d="M1080.275,5278.414c25.888-8.6,53.027,1.446,68.4,25.141,12.391,19.1,17.435,47.52,7.892,72.285-1.716,4.45-14.933,37.322-42.094,37.713-20.482.294-66.422-20.4-69.216-44-1.479-12.486-5.715-13.565-3.144-18.856-15.785,0,1.328-6.285-14.457-6.285l49.986-69.142Z" transform="translate(-935.434 -5273.393)" fill="url(#linear-gradient-32)"/>
            <path id="Path_659" data-name="Path 659" d="M1076.947,5633.962a34.312,34.312,0,0,0-10.523-12.571c-9.287-6.439-15.857-2.256-23.677-9.428-1.213-1.112-7.358-7.067-7.893-15.714-.287-4.631.939-11.591,10.523-22,14.252-15.479,24.4-14.049,42.092-25.143,11.97-7.5,28.946-18.144,34.2-37.712,4.322-16.09-1.128-31.347-7.892-50.285-8.081-22.623-15.224-26.558-26.309-56.57a191.591,191.591,0,0,1-7.892-25.143c-4.155-17.886-9-38.724-2.63-59.713,8.241-27.169,29.284-38.936,34.2-40.855a49.373,49.373,0,0,1,15.095-3.131c.414-.006.69,0,.69-.012,0-.125-37.765-4.162-68.4,0-22.054,3-48.534,6.735-73.664,28.285-10.264,8.8-20.988,18-26.308,34.571-10.3,32.1,10.842,68.368,18.415,81.713,8.17,14.4,11.5,14.841,34.2,50.284,10.672,16.66,15.58,25.37,15.785,37.713.28,16.979-8.5,31.27-10.524,34.571-5.256,8.558-8.557,9.5-15.785,18.857-10.781,13.964-16.371,20.86-15.785,28.285.718,9.1,8.534,15.229,13.155,18.856,3.378,2.652,7.853,5.377,23.677,9.429,24.028,6.149,31.216,4.342,36.832,12.571,3.851,5.643,4.109,11.823,7.892,12.57C1070.24,5644.145,1074.2,5638.689,1076.947,5633.962Z" transform="translate(-955.783 -5273.807)" fill="url(#linear-gradient-33)"/>
          </g>
          <path id="Path_660" data-name="Path 660" d="M946.762,5906.7c-7.485-.865,4.642-32.677,4.642-32.677l11.47.823s-2.185,13.73,12.289,18.948,31.951,3.57,29.22,6.041S1010.939,5914.116,946.762,5906.7Z" transform="translate(-814.266 -5176.055)" fill="#7a879f"/>
          <rect id="Rectangle_569" data-name="Rectangle 569" width="4.434" height="37.693" rx="2" transform="translate(240.05 351.912) rotate(33.826)" fill="#444d6e"/>
          <g id="Group_999" data-name="Group 999" transform="translate(109.587 365.918)">
            <path id="Path_661" data-name="Path 661" d="M1022.176,5592.5c6.358-5.691,7.262-7.891,15.989-12.672s20.658-38.5,9.394-29.132-15.6,21.458-16.715,13.589-5.8,11-13.243,19.256S1022.176,5592.5,1022.176,5592.5Z" transform="translate(-922.307 -5549.063)" fill="url(#linear-gradient-34)"/>
            <path id="Path_662" data-name="Path 662" d="M924.307,5569.546c.426-13.634,19.04-17.331,24.736-4.937,9.114,19.831,26.991,56.322,33.578,52.688,9-4.966,38.393-44.995,42.092-40.06s9.443,8.213,8.631,11.51-34.616,80.409-64.157,61.948C948.754,5637.924,923.537,5594.221,924.307,5569.546Z" transform="translate(-924.29 -5548.89)" fill="url(#linear-gradient-35)"/>
          </g>
          <path id="Path_663" data-name="Path 663" d="M962.545,5682.409c0,4.345,23.493,33.385,5.019,199.123a6.091,6.091,0,0,1-6.386,5.409l-8.773-.49a6.075,6.075,0,0,1-5.706-5.411c-2.891-26.654-16.252-148.579-19.656-156.892-3.823-9.336-6.007-93.914-4.915-91.716S962.545,5682.409,962.545,5682.409Z" transform="translate(-814.756 -5181.327)" fill="url(#linear-gradient-36)"/>
          <path id="Path_664" data-name="Path 664" d="M900.993,5869.311a7.194,7.194,0,0,1-10.1,3.5c-6.413-3.533-14.782-8.357-13.938-9.029,1.351-1.078,11.874-94.945,19.722-110.086,5.95-11.478-4.658-61.936-10.14-85.676a7.192,7.192,0,0,1,9.237-8.454l45.288,14.738a7.19,7.19,0,0,1,4.963,7.112c-.62,16.294-2.387,64.287-2.089,74.331C944.237,5765.976,911.355,5844.755,900.993,5869.311Z" transform="translate(-815.737 -5180.742)" fill="url(#linear-gradient-37)"/>
          <path id="Path_665" data-name="Path 665" d="M933.847,5551.882s2.731-19.085,1.5-21.282-13.518-1.1-17.887,9.749S928.248,5554.216,933.847,5551.882Z" transform="translate(-814.869 -5183.568)" fill="#ffb5aa"/>
          <path id="Path_666" data-name="Path 666" d="M863.5,5739.83s-6.452-60.026-8.709-63.8-13.344,67.036-11.284,64.363,9.666-63.875,10.727-60.509S861.423,5743.8,863.5,5739.83Z" transform="translate(-816.471 -5180.378)" fill="url(#linear-gradient-38)"/>
          <path id="Path_667" data-name="Path 667" d="M914.613,5533s7.282,9.016,13.564,9.152,18.707-3.021,20.755-11.808c0,0,.955-4.325,1.092-5.012s1.957.8,2.776-.846-1.957-29.428-.046-34.508S885.532,5490.944,914.613,5533Z" transform="translate(-815.07 -5184.468)" fill="url(#linear-gradient-39)"/>
          <path id="Path_668" data-name="Path 668" d="M864.372,5669.336c-.547,1.648-5.189,28.833-10.1,33.5s-14.2.823-13.927-5.217,2.185-4.943,6.554-10.161,10.378-22.243,10.378-22.243Z" transform="translate(-816.535 -5180.61)" fill="url(#linear-gradient-34)"/>
          <path id="Path_669" data-name="Path 669" d="M929.1,5500.812c.417.111,12.016,3.845,14.2,2.609,1.1-.621,2.47-3.146,3.564-5.5a.724.724,0,0,1,1.38.367c-.251,2.923.463,6.235.973,6.6.955.687,14.291-18.9,3.914-27.14s-34.683-22.243-55.164,12.631-17.888,54.1-36.867,64.531-22.53,60.686-25.125,62.746-42.466,34.6,1.912,49.015c42.868,13.927,74.907-30.7,77.035-33.749a.7.7,0,0,0,.128-.36c.367-4.8,7.31-95.852,7.177-96.52-.137-.687-5.689-7.631-6.919-9s-3.687-14.142-1.639-18.124,8.193.687,9.7-.274S926.691,5500.171,929.1,5500.812Z" transform="translate(-817.043 -5184.917)" fill="url(#linear-gradient-41)"/>
          <path id="Path_670" data-name="Path 670" d="M883.04,5677.792a10.4,10.4,0,0,0,7.583,13.423c13.758,3.033,34.565,7.142,41.989,6.076,11.47-1.648,23.758-4.119,36.048-4.943s-7.373-128.513-22.94-140.046-21.711-7.414-25.807-9.886-16.385,3.708-17.2,7.827c-.7,3.5-17.356,35.237-22.354,44.71a8,8,0,0,0-.717,5.537C882.227,5611.757,890.862,5653.427,883.04,5677.792Z" transform="translate(-815.682 -5183.303)" fill="url(#linear-gradient-42)"/>
          <path id="Path_671" data-name="Path 671" d="M887.181,5809.146l-13.216,9.189-36.415-85.712,44.806.712,5.518,74.226A1.772,1.772,0,0,1,887.181,5809.146Z" transform="translate(-816.596 -5179.14)" fill="url(#linear-gradient-43)"/>
          <path id="Path_672" data-name="Path 672" d="M851.064,5673.305a5.231,5.231,0,0,0,3.7,6.066c3.081.882,6.7,2.217,7.605,3.8,1.638,2.883,16.795-30.48,33.18-64.256s27.445-75.378,14.747-71.67C897.76,5550.906,876.047,5550.151,851.064,5673.305Z" transform="translate(-816.303 -5183.19)" fill="url(#linear-gradient-44)"/>
          <path id="Path_673" data-name="Path 673" d="M874.409,5818.338l-55.879-2.577a1.6,1.6,0,0,1-1.328-1.908l10.546-79.953a1.509,1.509,0,0,1,1.417-1.416l53.635.853Z" transform="translate(-817.04 -5179.144)" fill="#eaeff8"/>
          <ellipse id="Ellipse_173" data-name="Ellipse 173" cx="1.286" cy="1.089" rx="1.286" ry="1.089" transform="matrix(0.016, -1, 1, 0.016, 26.302, 558.666)" fill="#fff"/>
          <ellipse id="Ellipse_174" data-name="Ellipse 174" cx="1.286" cy="1.089" rx="1.286" ry="1.089" transform="matrix(0.016, -1, 1, 0.016, 45.54, 558.973)" fill="#fff"/>
        </g>
      </g>
    </g>
    <g id="Rectangle_627" data-name="Rectangle 627" transform="translate(17627 3326)" fill="#fff" stroke="#707070" stroke-width="1" opacity="0">
      <rect width="1730" height="913" stroke="none"/>
      <rect x="0.5" y="0.5" width="1729" height="912" fill="none"/>
    </g>
  </g>
</svg>
