<svg xmlns="http://www.w3.org/2000/svg" width="864.676" height="352.732" viewBox="0 0 864.676 352.732">
  <g id="Group_1208" data-name="Group 1208" transform="translate(-18765 -9656.265)">
    <path id="Path_2172" data-name="Path 2172" d="M210.565,344.5l-6.211-1.775L201.2,331.885l3.155-21.393L209.58,303l3.45,1.183,5.225,10.253,1.183,16.463-2.662,10.45-2.958,2.859Z" transform="translate(18762.15 9651.579)" fill="#ececec" opacity="0.63"/>
    <path id="Path_2173" data-name="Path 2173" d="M240,291.256V263.948l3.746-6.408,5.718-4.141h6.7l6.014,5.718,4.831,8.577v23.66H240Z" transform="translate(18761.602 9652.281)" fill="#ececec" opacity="0.63"/>
    <path id="Path_2174" data-name="Path 2174" d="M263.749,180.673a17.846,17.846,0,0,1,2.169-1.183,25.993,25.993,0,0,1,3.943,0l4.732-6.014,6.9-1.676,4.929.986,4.141,3.943,4.831,1.084,5.028,6.507-1.38,5.324-2.169,2.859-7.985,1.972h-22.97l-4.338-3.845-1.38-5.718,2.957-3.746Z" transform="translate(18761.316 9653.437)" fill="#ececec" opacity="0.63"/>
    <path id="Path_2175" data-name="Path 2175" d="M561.445,75.868s1.676-.986,2.267-1.282c.69-.3,4.141,0,4.141,0l4.929-6.211,7.2-1.676,5.126.986,4.338,4.141,5.028,1.084,5.225,6.8-1.479,5.521-2.267,2.958-8.38,1.972H563.515L558.98,86.22,557.6,80.3l3.056-3.845Z" transform="translate(18757.102 9654.927)" fill="#ececec" opacity="0.63"/>
    <rect id="Rectangle_650" data-name="Rectangle 650" width="19.322" height="16.759" transform="translate(19277.834 9745.187)" fill="#ececec" opacity="0.63"/>
    <ellipse id="Ellipse_577" data-name="Ellipse 577" cx="13.309" cy="13.309" rx="13.309" ry="13.309" transform="translate(19275.764 9811.731)" fill="#ececec" opacity="0.63"/>
    <ellipse id="Ellipse_578" data-name="Ellipse 578" cx="17.942" cy="17.942" rx="17.942" ry="17.942" transform="translate(19217.895 9943.637)" fill="#ececec" opacity="0.63"/>
    <rect id="Rectangle_651" data-name="Rectangle 651" width="26.223" height="149.749" transform="translate(19262.355 9855.306)" fill="#ececec" opacity="0.63"/>
    <path id="Path_2176" data-name="Path 2176" d="M334.013,324.472c4.436,4.436,7.985,9.858,13.112,13.506V239H324.943A3.955,3.955,0,0,0,321,242.943V310.67C325.732,314.811,329.577,320.036,334.013,324.472Z" transform="translate(18760.453 9652.485)" fill="#ececec" opacity="0.63"/>
    <path id="Path_2177" data-name="Path 2177" d="M146.193,354.4V284.6c-4.732,3.352-9.563,6.7-14.393,10.056v59.052c.1.2.3.493.394.69Z" transform="translate(18763.135 9651.84)" fill="#ececec" opacity="0.63"/>
    <path id="Path_2178" data-name="Path 2178" d="M411.637,227.5h-14a4.208,4.208,0,0,0-4.239,4.239V296.41c2.957,1.38,5.915,2.76,7.887,5.521a18.26,18.26,0,0,1,2.958,11.731c-.394,7.69-4.732,14.1-10.943,18.435v17.154a25.5,25.5,0,0,1,3.943-4.042c3.056-2.465,6.408-4.239,9.366-6.9a51.923,51.923,0,0,1,5.028-4.239Z" transform="translate(18759.43 9652.649)" fill="#ececec" opacity="0.63"/>
    <g id="Group_1207" data-name="Group 1207" transform="translate(18765 9656.265)">
      <path id="Path_457" data-name="Path 457" d="M408.572,156.1a1.977,1.977,0,0,0-1.972,1.972v10.351a1.972,1.972,0,1,0,3.943,0V158.072A1.977,1.977,0,0,0,408.572,156.1Z" transform="translate(-5.759 -2.605)" fill="#ececec"/>
      <path id="Path_458" data-name="Path 458" d="M416.872,156.1a1.978,1.978,0,0,0-1.972,1.972v10.351a1.972,1.972,0,1,0,3.943,0V158.072A1.977,1.977,0,0,0,416.872,156.1Z" transform="translate(-5.877 -2.605)" fill="#ececec"/>
      <path id="Path_459" data-name="Path 459" d="M408.572,180a1.977,1.977,0,0,0-1.972,1.972v10.351a1.972,1.972,0,0,0,3.943,0V181.972A1.977,1.977,0,0,0,408.572,180Z" transform="translate(-5.759 -2.944)" fill="#ececec"/>
      <path id="Path_460" data-name="Path 460" d="M416.872,180a1.978,1.978,0,0,0-1.972,1.972v10.351a1.972,1.972,0,0,0,3.943,0V181.972A1.977,1.977,0,0,0,416.872,180Z" transform="translate(-5.877 -2.944)" fill="#ececec"/>
      <path id="Path_461" data-name="Path 461" d="M408.572,203.9a1.977,1.977,0,0,0-1.972,1.972v10.351a1.972,1.972,0,1,0,3.943,0V205.872A1.977,1.977,0,0,0,408.572,203.9Z" transform="translate(-5.759 -3.282)" fill="#ececec"/>
      <path id="Path_462" data-name="Path 462" d="M416.872,203.9a1.978,1.978,0,0,0-1.972,1.972v10.351a1.972,1.972,0,0,0,3.943,0V205.872A1.977,1.977,0,0,0,416.872,203.9Z" transform="translate(-5.877 -3.282)" fill="#ececec"/>
      <path id="Path_463" data-name="Path 463" d="M524.142,332.109V321.265c0-2.169-1.085-2.465-2.169-2.465-.887,0-1.873.3-1.873,2.366v19.421c0,2.464.887,2.662,1.873,2.662h.2c1.282,0,1.972-.493,1.972-2.859v-8.281Z" transform="translate(-7.367 -4.91)" fill="#ececec"/>
      <path id="Path_464" data-name="Path 464" d="M541.643,321.167c0-1.972-1.084-2.267-2.169-2.267h0c-.986,0-1.774.3-1.774,2.267v19.717a2.472,2.472,0,0,0,.591,1.972,1.928,1.928,0,0,0,1.38.394h0a2.041,2.041,0,0,0,1.479-.493,2.51,2.51,0,0,0,.591-1.873V330.139C541.643,330.04,541.643,323.533,541.643,321.167Z" transform="translate(-7.616 -4.911)" fill="#ececec"/>
      <path id="Path_465" data-name="Path 465" d="M521.976,267.1c-.1,0-.3-.1-.394-.1a1.119,1.119,0,0,0-.789.3,2.277,2.277,0,0,0-.493,1.676v4.338c0,3.943,0,8.084.2,12.027,0,.69,1.282,1.972,1.972,2.169.2,0,.3.1.493.1,1.281,0,1.38-1.775,1.38-2.267v-7h0v-3.253a26.345,26.345,0,0,0-.2-5.619A3.973,3.973,0,0,0,521.976,267.1Z" transform="translate(-7.37 -4.176)" fill="#ececec"/>
      <path id="Path_466" data-name="Path 466" d="M541.745,276.368v-1.38a24.515,24.515,0,0,0-.2-5.422,3.512,3.512,0,0,0-1.971-2.267c-.1,0-.3-.1-.394-.1a1.12,1.12,0,0,0-.789.3,2.82,2.82,0,0,0-.493,1.676v16.562a2.928,2.928,0,0,0,.493,1.774.9.9,0,0,0,.69.3.593.593,0,0,0,.395-.1,3.916,3.916,0,0,0,2.07-2.267,36.535,36.535,0,0,0,.2-5.718v-3.352Z" transform="translate(-7.619 -4.179)" fill="#ececec"/>
      <path id="Path_467" data-name="Path 467" d="M521.874,216.1c-.2,0-.3-.1-.394-.1-.887,0-1.282.986-1.38,1.972v3.155c0,4.338-.1,8.872.1,13.21a3.1,3.1,0,0,0,2.07,2.07c.2,0,.3.1.493.1,1.282,0,1.38-1.774,1.38-2.267v-6.7h0v-3.352a29.206,29.206,0,0,0-.2-5.915A3.723,3.723,0,0,0,521.874,216.1Z" transform="translate(-7.366 -3.454)" fill="#ececec"/>
      <path id="Path_468" data-name="Path 468" d="M539.375,216.1h-.395a1.12,1.12,0,0,0-.789.3,2.41,2.41,0,0,0-.591,1.775v16.266c0,1.873.69,2.267,1.775,2.267h.1c.986,0,1.972-.3,1.972-2.267v-8.478h0v-1.577a29.193,29.193,0,0,0-.2-5.915C541.445,217.579,540.163,216.3,539.375,216.1Z" transform="translate(-7.615 -3.455)" fill="#ececec"/>
      <path id="Path_469" data-name="Path 469" d="M553,149.1h0c-3.253,0-6.408.1-9.661.1H517.514c-3.352,0-6.7,0-10.154-.1a3,3,0,0,0-2.169.592,3.3,3.3,0,0,0-.591,2.267v1.676c0,12.52.1,25.04,0,37.462,0,1.282.2,2.169.69,2.563a3.354,3.354,0,0,0,2.465.69H552.61c3.155,0,3.648-.493,3.648-3.549V152.255a3.354,3.354,0,0,0-.69-2.465A3.474,3.474,0,0,0,553,149.1Zm-1.085,41.109H508.74V153.24h43.18Z" transform="translate(-7.147 -2.506)" fill="#ececec"/>
      <path id="Path_470" data-name="Path 470" d="M530.473,187.452h0c8.38,0,15.675-7.2,15.773-15.28a15.814,15.814,0,0,0-4.633-11.238A15.377,15.377,0,0,0,530.67,156.3,15.933,15.933,0,0,0,514.7,171.778a15.317,15.317,0,0,0,4.535,10.844A17.1,17.1,0,0,0,530.473,187.452Zm.2-27.406h.2a11.685,11.685,0,0,1-.3,23.364h-.2a11.687,11.687,0,0,1,.3-23.364Z" transform="translate(-7.29 -2.608)" fill="#ececec"/>
      <path id="Path_471" data-name="Path 471" d="M629.758,278.9c-2.366,0-2.958.493-2.958,2.958v29.871c0,2.267.493,2.76,2.859,2.76h35.293c2.563,0,2.859-.2,2.76-2.662-.1-6.211-.2-12.323-.493-18.534-.2-4.042-.789-7.985-1.282-12.027A2.344,2.344,0,0,0,663.276,279C652.136,279,640.9,278.9,629.758,278.9Zm1.183,31.645v-27.5h31.448q.887,13.6,1.774,27.5Z" transform="translate(-8.878 -4.345)" fill="#ececec"/>
      <path id="Path_472" data-name="Path 472" d="M629.658,237.4c-2.267,0-2.958.69-2.958,2.958v29.477c0,2.76.493,3.352,3.253,3.352h32.335q3.253,0,2.662-2.957a164.67,164.67,0,0,0-8.971-30.561,3.029,3.029,0,0,0-3.253-2.267C645.135,237.5,637.446,237.4,629.658,237.4Zm30.857,30.167a8.353,8.353,0,0,1,0,1.577H630.939V241.836a6.656,6.656,0,0,1,1.38-.2H651.05a1.833,1.833,0,0,1,2.07,1.282C655.585,251,658.05,259.286,660.514,267.566Z" transform="translate(-8.877 -3.757)" fill="#ececec"/>
      <path id="Path_473" data-name="Path 473" d="M628.966,231.671q10.943.148,21.886,0a1.976,1.976,0,0,0,1.873-2.859,67.575,67.575,0,0,0-9.07-17.055c-4.141-5.422-8.577-10.548-13.013-15.773-.591-.69-1.972-1.38-2.465-1.084a3.615,3.615,0,0,0-1.479,2.563c-.1,5.126-.1,10.253-.1,15.379V228.91C626.7,230.586,627.389,231.671,628.966,231.671Zm19.027-4.633-.493.493H630.938v-3.253c4.929,0,9.858-.1,14.787.1C646.514,224.474,647.2,226.15,647.992,227.037Zm-17.154-24.843c5.127,5.816,10.056,11.337,13.7,18.139h-13.7Z" transform="translate(-8.875 -3.154)" fill="#ececec"/>
      <path id="Path_474" data-name="Path 474" d="M657.062,336.9h-21.1c-1.281,0-2.464.3-2.464,1.774,0,1.676,1.084,1.972,2.563,1.972h21c1.38,0,2.464-.394,2.464-1.873C659.723,337.294,658.54,336.9,657.062,336.9Z" transform="translate(-8.973 -5.166)" fill="#ececec"/>
      <path id="Path_475" data-name="Path 475" d="M657.752,295.1H636.26c-1.479,0-2.76.2-2.76,2.07,0,1.676,1.38,1.873,2.662,1.873h21.491c1.38,0,2.859-.1,2.859-1.873C660.611,295.3,659.23,295.1,657.752,295.1Z" transform="translate(-8.973 -4.574)" fill="#ececec"/>
      <path id="Path_476" data-name="Path 476" d="M635.966,253.7c-1.38,0-2.366.493-2.366,1.972.1,1.479,1.084,1.873,2.464,1.873h16.168c1.38,0,2.366-.592,2.366-2.07,0-1.38-.986-1.873-2.267-1.873C646.909,253.7,641.487,253.7,635.966,253.7Z" transform="translate(-8.975 -3.986)" fill="#ececec"/>
      <path id="Path_477" data-name="Path 477" d="M332.272,260.006a1.978,1.978,0,0,0,1.972-1.972v-9.563a1.972,1.972,0,0,0-3.943,0v9.563A1.977,1.977,0,0,0,332.272,260.006Z" transform="translate(-4.678 -3.886)" fill="#ececec"/>
      <path id="Path_478" data-name="Path 478" d="M341.872,260.006a1.977,1.977,0,0,0,1.972-1.972v-9.563a1.972,1.972,0,0,0-3.943,0v9.563A1.978,1.978,0,0,0,341.872,260.006Z" transform="translate(-4.814 -3.886)" fill="#ececec"/>
      <path id="Path_479" data-name="Path 479" d="M332.272,282.006a1.977,1.977,0,0,0,1.972-1.972v-9.563a1.972,1.972,0,0,0-3.943,0v9.563A1.977,1.977,0,0,0,332.272,282.006Z" transform="translate(-4.678 -4.197)" fill="#ececec"/>
      <path id="Path_480" data-name="Path 480" d="M341.872,282.006a1.977,1.977,0,0,0,1.972-1.972v-9.563a1.972,1.972,0,0,0-3.943,0v9.563A1.977,1.977,0,0,0,341.872,282.006Z" transform="translate(-4.814 -4.197)" fill="#ececec"/>
      <path id="Path_481" data-name="Path 481" d="M332.272,304.006a1.978,1.978,0,0,0,1.972-1.972v-9.563a1.972,1.972,0,0,0-3.943,0v9.563A1.978,1.978,0,0,0,332.272,304.006Z" transform="translate(-4.678 -4.509)" fill="#ececec"/>
      <path id="Path_482" data-name="Path 482" d="M341.872,304.006a1.977,1.977,0,0,0,1.972-1.972v-9.563a1.972,1.972,0,0,0-3.943,0v9.563A1.978,1.978,0,0,0,341.872,304.006Z" transform="translate(-4.814 -4.509)" fill="#ececec"/>
      <path id="Path_483" data-name="Path 483" d="M351.872,260.006a1.978,1.978,0,0,0,1.972-1.972v-9.563a1.972,1.972,0,0,0-3.943,0v9.563A1.978,1.978,0,0,0,351.872,260.006Z" transform="translate(-4.956 -3.886)" fill="#ececec"/>
      <path id="Path_484" data-name="Path 484" d="M351.872,282.006a1.977,1.977,0,0,0,1.972-1.972v-9.563a1.972,1.972,0,0,0-3.943,0v9.563A1.977,1.977,0,0,0,351.872,282.006Z" transform="translate(-4.956 -4.197)" fill="#ececec"/>
      <path id="Path_485" data-name="Path 485" d="M351.872,304.006a1.978,1.978,0,0,0,1.972-1.972v-9.563a1.972,1.972,0,0,0-3.943,0v9.563A1.978,1.978,0,0,0,351.872,304.006Z" transform="translate(-4.956 -4.509)" fill="#ececec"/>
      <path id="Path_486" data-name="Path 486" d="M341.872,325.906a1.978,1.978,0,0,0,1.972-1.972v-9.563a1.972,1.972,0,0,0-3.943,0v9.563A1.978,1.978,0,0,0,341.872,325.906Z" transform="translate(-4.814 -4.819)" fill="#ececec"/>
      <path id="Path_487" data-name="Path 487" d="M351.872,325.906a1.978,1.978,0,0,0,1.972-1.972v-9.563a1.972,1.972,0,0,0-3.943,0v9.563A1.978,1.978,0,0,0,351.872,325.906Z" transform="translate(-4.956 -4.819)" fill="#ececec"/>
      <path id="Path_488" data-name="Path 488" d="M619.812,34.51a48.634,48.634,0,0,1,5.323,7.985c.591,1.183,1.282,2.366,1.972,3.549.493.789.887,1.676,1.38,2.465a3.572,3.572,0,0,1,.592,2.267c-.1,1.479-.1,3.056-.1,4.535v1.577a3.346,3.346,0,0,0,3.352,3.45h3.549a3.346,3.346,0,0,0,3.352-3.45V55.705c0-.986,0-2.07-.1-3.056a7.318,7.318,0,0,1,1.282-5.028c.986-1.577,1.873-3.155,2.76-4.633,1.084-1.873,2.169-3.746,3.253-5.521.789-1.183,1.577-2.267,2.465-3.352.591-.69,1.084-1.38,1.577-2.07a18.656,18.656,0,0,0,3.549-8.478c.1-.592.1-1.183.2-1.873v-.2a5.257,5.257,0,0,0,2.76.394,5.1,5.1,0,0,0,2.76-1.282l.2.1a8.71,8.71,0,0,0,8.084.493,1.08,1.08,0,0,1,.789,0,6.575,6.575,0,0,0,7.2-.789,6.228,6.228,0,0,0,2.169-6.9,6.313,6.313,0,0,0-5.422-4.831,1.168,1.168,0,0,1-.69-.394,8.687,8.687,0,0,0-9.07-4.141,9.022,9.022,0,0,0-7.394,7.2.344.344,0,0,1-.1.2h-.2a5.389,5.389,0,0,0-2.859,1.282v-.1A19.927,19.927,0,0,0,638.148.893,21.993,21.993,0,0,0,635.881.5c-.394,0-.69-.1-1.084-.1h-1.775l-.3.1c-.1,0-.2.1-.394.1a20.063,20.063,0,0,0-17.351,27.209A76.548,76.548,0,0,0,619.812,34.51ZM656.091,14.5h.394a2.654,2.654,0,0,0,1.972-.2,2.28,2.28,0,0,0,.591-1.873h0A5.572,5.572,0,0,1,663.386,7.1a5.38,5.38,0,0,1,6.112,2.958,2.338,2.338,0,0,0,2.366,1.577,3.226,3.226,0,1,1-1.972,5.816,1.989,1.989,0,0,0-1.38-.493,2.386,2.386,0,0,0-1.281.394,5.661,5.661,0,0,1-6.507-.592,2.03,2.03,0,0,0-1.676-.69,2.085,2.085,0,0,0-1.38,1.183,1.977,1.977,0,0,1-2.169.887,2.022,2.022,0,0,1-1.282-1.873A2.3,2.3,0,0,1,656.091,14.5ZM635.585,56.79h-3.352V54.522h3.45v2.169C635.684,56.79,635.684,56.79,635.585,56.79Zm-3.155-5.619v-.3h3.352v.3Zm4.239-3.845H631.74c-.3-.493-.591-1.084-.887-1.676h6.7A14.449,14.449,0,0,0,636.67,47.326ZM620.3,10.85a16.9,16.9,0,0,1,11.14-7.2,16.542,16.542,0,0,1,19.027,13.013A15.385,15.385,0,0,1,648.5,28.694c-.789,1.282-1.676,2.366-2.464,3.45A52.474,52.474,0,0,0,639.627,42c-.2.3-.2.3-.493.3h-1.282l.394-1.084c.493-1.183.887-2.366,1.38-3.549l.69-1.775a75.032,75.032,0,0,0,3.253-9.365v-.2c0-.2.1-.3.1-.493a1.675,1.675,0,0,0-1.282-1.972,1.612,1.612,0,0,0-1.972,1.183,2.876,2.876,0,0,0-.2.887c-.1.394-.2.789-.3,1.084-.789,2.07-1.577,4.239-2.366,6.309-.591,1.479-1.084,2.958-1.577,4.338l-.1.2L634.4,42a.344.344,0,0,1-.1.2h-.394c-.3,0-.3,0-.395-.2L629.67,31.947a1.684,1.684,0,0,0-2.267-1.084,1.569,1.569,0,0,0-.887.887,1.919,1.919,0,0,0,0,1.479l2.07,5.324L629.867,42c0,.1.1.2.1.3h-1.085l-.1-.1a67.359,67.359,0,0,0-7.394-11.041,18.467,18.467,0,0,1-3.549-6.9A16.975,16.975,0,0,1,620.3,10.85Z" transform="translate(-8.692 -0.4)" fill="#ececec"/>
      <path id="Path_489" data-name="Path 489" d="M623.994,24.294c.2,1.183.493,2.267.789,3.45l.2.592a1.526,1.526,0,0,0,.789,1.084,1.856,1.856,0,0,0,.789.2.888.888,0,0,0,.493-.1,1.743,1.743,0,0,0,1.183-2.169c0-.1-.1-.2-.1-.394v-.1a25.577,25.577,0,0,1-1.084-6.8V18.872a1.865,1.865,0,0,0-1.676-1.972,2.077,2.077,0,0,0-1.282.493,1.937,1.937,0,0,0-.493,1.479v.3C623.7,21.041,623.8,22.716,623.994,24.294Z" transform="translate(-8.833 -0.634)" fill="#ececec"/>
      <path id="Path_490" data-name="Path 490" d="M642.977,23.309h.1a1.725,1.725,0,0,0,1.676-1.676,2.73,2.73,0,0,1,.1-.887h.1V18.775c0-.2,0-.3-.1-.394A1.894,1.894,0,0,0,643.076,17a1.621,1.621,0,0,0-1.578,1.577,25.882,25.882,0,0,0-.1,2.76A1.735,1.735,0,0,0,642.977,23.309Z" transform="translate(-9.085 -0.635)" fill="#ececec"/>
      <path id="Path_491" data-name="Path 491" d="M629.588,9.234c.1.1.2.1.3.2l.2.2.3-.1c.1,0,.2-.1.3-.1.2-.1.394-.1.591-.3.591-.493,1.281-1.084,1.972-1.676a1.547,1.547,0,0,0,.1-2.169,1.714,1.714,0,0,0-2.267-.394A11.075,11.075,0,0,0,629.1,6.671a1.887,1.887,0,0,0-.2,1.775C628.9,8.741,629.292,9.037,629.588,9.234Z" transform="translate(-8.906 -0.46)" fill="#ececec"/>
      <path id="Path_492" data-name="Path 492" d="M242,183.337a9.552,9.552,0,0,0,9.464,8.281h8.084c.1,0,.2,0,.2.1a9.336,9.336,0,0,0,8.38,4.535h23.66a7.462,7.462,0,0,0,1.479-.1,10.408,10.408,0,0,0,9.07-11.534,10.637,10.637,0,0,0-11.436-9.464c-.3,0-.3,0-.394-.2a11.948,11.948,0,0,0-11.83-5.126,11.457,11.457,0,0,0-1.774.394,9.9,9.9,0,0,1-2.366.394c-.3,0-.3,0-.394-.2a12.557,12.557,0,0,0-9.168-5.323,12.283,12.283,0,0,0-9.858,3.648,14.427,14.427,0,0,0-2.07,2.76c-.2.3-.493.69-.69.986a9.462,9.462,0,0,0-9.661,5.718,8.183,8.183,0,0,0-.592,2.07c-.1.3-.1.591-.2.887v1.577l.1.394C241.9,183.14,242,183.239,242,183.337Zm37.856-9.858q5.323-.444,8.281,4.436A1.92,1.92,0,0,0,290.7,179a6.784,6.784,0,0,1,5.126.986,6.562,6.562,0,0,1,2.957,4.535,6.8,6.8,0,0,1-5.521,7.887,6.507,6.507,0,0,1-1.38.1H268.123a5.846,5.846,0,0,1-.986-11.633,8.36,8.36,0,0,1,2.267.1c1.577.3,2.169,0,2.76-1.479C273.545,175.746,276.108,173.775,279.855,173.479Zm-29.969,2.859a4.085,4.085,0,0,1,1.577-.2,9.83,9.83,0,0,1,1.577.2,1.882,1.882,0,0,0,2.662-1.38,8.721,8.721,0,0,1,15.971-1.775l-2.662,3.845a9.446,9.446,0,0,0-7.887,2.859,9.618,9.618,0,0,0-2.662,7.887h-7.1a5.828,5.828,0,0,1-5.718-4.929A5.936,5.936,0,0,1,249.885,176.338Z" transform="translate(-3.426 -2.732)" fill="#ececec"/>
      <path id="Path_493" data-name="Path 493" d="M150.27,326.471a2.082,2.082,0,0,0,2.07-2.07V319.57a2.082,2.082,0,0,0-2.07-2.07,2.022,2.022,0,0,0-2.07,2.07V324.4A2.022,2.022,0,0,0,150.27,326.471Z" transform="translate(-2.099 -4.891)" fill="#ececec"/>
      <path id="Path_494" data-name="Path 494" d="M150.27,341.171a2.082,2.082,0,0,0,2.07-2.07V334.27a2.082,2.082,0,0,0-2.07-2.07,2.022,2.022,0,0,0-2.07,2.07V339.1A2.022,2.022,0,0,0,150.27,341.171Z" transform="translate(-2.099 -5.099)" fill="#ececec"/>
      <path id="Path_495" data-name="Path 495" d="M150.27,311.772a2.082,2.082,0,0,0,2.07-2.07V304.97a2.082,2.082,0,0,0-2.07-2.07,2.022,2.022,0,0,0-2.07,2.07V309.8A2,2,0,0,0,150.27,311.772Z" transform="translate(-2.099 -4.684)" fill="#ececec"/>
      <path id="Path_496" data-name="Path 496" d="M139.77,341.171a2.082,2.082,0,0,0,2.07-2.07V334.27a2.082,2.082,0,0,0-2.07-2.07,2.022,2.022,0,0,0-2.07,2.07V339.1A2.022,2.022,0,0,0,139.77,341.171Z" transform="translate(-1.95 -5.099)" fill="#ececec"/>
      <path id="Path_497" data-name="Path 497" d="M139.77,326.471a2.082,2.082,0,0,0,2.07-2.07V319.57a2.082,2.082,0,0,0-2.07-2.07,2.022,2.022,0,0,0-2.07,2.07V324.4A2.022,2.022,0,0,0,139.77,326.471Z" transform="translate(-1.95 -4.891)" fill="#ececec"/>
      <path id="Path_498" data-name="Path 498" d="M139.77,311.772a2.082,2.082,0,0,0,2.07-2.07V304.97a2.082,2.082,0,0,0-2.07-2.07,2.021,2.021,0,0,0-2.07,2.07V309.8A2,2,0,0,0,139.77,311.772Z" transform="translate(-1.95 -4.684)" fill="#ececec"/>
      <path id="Path_499" data-name="Path 499" d="M862.8,349.7H742.827V334.122a20.21,20.21,0,1,0-3.352,0V349.7H729.42v-.69h1.972a1.767,1.767,0,0,0,1.775-1.774v-3.056a4.859,4.859,0,0,0-3.746-4.732v-2.07a1.775,1.775,0,0,0-3.549,0v1.972h-3.943v-1.972a1.775,1.775,0,0,0-3.549,0v2.07a4.859,4.859,0,0,0-3.746,4.732v3.056a1.767,1.767,0,0,0,1.775,1.774h1.972v.69h-13.8v-8.182a16.562,16.562,0,1,0-3.549,0V349.7H670.566c8.182-44.461,5.028-87.148-17.154-127.666h13.7c1.38,0,2.366-.394,2.366-1.972s-1.085-1.873-2.465-1.873c-4.436,0-8.873-.1-13.407.1a3.838,3.838,0,0,1-3.943-2.169,152.847,152.847,0,0,0-40.025-43.771c-2.465-1.873-3.549-3.549-3.253-6.605a59.388,59.388,0,0,0,0-9.365c0-.69-1.183-1.676-1.873-1.775-.493-.1-1.281,1.084-1.774,1.775-.3.394-.1,1.084-.1,1.676v60.432h-9.858c-1.38,0-2.662.1-2.662,1.873,0,1.676,1.183,1.972,2.563,1.873,3.253-.1,6.506,0,9.858,0V349.9H584.6V308.786l-.493.493v-2.366a19.8,19.8,0,0,0-.1-2.465,13.842,13.842,0,0,1,.1-3.549c1.183-5.619-1.676-9.76-5.028-13.309a5.43,5.43,0,0,0-2.662-1.183,16.791,16.791,0,0,1-1.873,1.873c-2.465,2.465-4.732,4.732-4.732,8.478v12.52l-1.577-1.577c-2.859-2.859-5.324-4.239-7.689-4.239-2.169,0-4.338,1.183-6.506,3.648l-.789.887-1.873-2.859.3-.493c.2-.3.394-.69.592-.986a16.311,16.311,0,0,1,1.479-2.465,2.472,2.472,0,0,0,.1-3.45,6.594,6.594,0,0,1-1.676-3.943c-.1-13.013-.1-26.125,0-39.236a7.255,7.255,0,0,1,1.676-4.042,2.382,2.382,0,0,0,0-3.45,6.83,6.83,0,0,1-1.676-3.943c-.1-11.041-.1-22.28-.1-33.223v-4.042a13.338,13.338,0,0,1,.2-1.972c0-.3.1-.592.1-.986l.1-.789,1.577-.1c.493,0,.887-.1,1.38-.1,4.535-.1,4.535-.1,4.535-4.535V133.6c0-1.183,0-2.563-.69-3.155a2.046,2.046,0,0,0-1.479-.394h0a1.788,1.788,0,0,0-1.38.493c-.591.592-.591,1.972-.493,3.352v4.633l-6.605-.3v-6.014c0-4.535,0-8.873-.1-13.309,0-1.577-.591-3.253-1.084-3.45-.1,0-.2-.1-.394-.1a15.421,15.421,0,0,0-2.169.493,13.124,13.124,0,0,1-1.873.493l-.591.1-.394-.493c-6.605-8.084-6.8-8.873-7-19.815a39.878,39.878,0,0,0-.986-9.168c-.2-.592-.3-1.282-.493-1.873a10.476,10.476,0,0,0,4.929,1.282h8.774c.3,0,.394,0,.493.2a10.031,10.031,0,0,0,8.774,4.831h25.533a8.48,8.48,0,0,0,1.577-.1,11.018,11.018,0,0,0,9.563-12.126,10.406,10.406,0,0,0-4.042-7.394,10.91,10.91,0,0,0-7.985-2.465.725.725,0,0,1-.789-.394,12.687,12.687,0,0,0-12.52-5.422c-.69.1-1.282.3-1.873.394A8.3,8.3,0,0,1,564,64.3c-.394,0-.493-.1-.591-.3a13.007,13.007,0,0,0-20.012-1.775,16.8,16.8,0,0,0-2.267,2.958l-.887,1.183a10.114,10.114,0,0,0-10.351,5.816c-3.056-8.478-5.915-17.351-5.225-27.012a1.927,1.927,0,0,0-.394-1.38,2.228,2.228,0,0,0-1.479-.493h-.2a1.535,1.535,0,0,0-1.38.591,2.077,2.077,0,0,0-.3,1.676c.887,7.788-1.479,14.886-3.746,21.886l-.592,1.775c-.394,1.282-.887,2.662-1.281,3.943-3.155,9.661-6.507,19.618-5.126,30.265a4.839,4.839,0,0,1-.69,3.056c-1.577,2.465-3.253,4.929-4.633,7.1l-1.775,2.563-.591-.1a11.529,11.529,0,0,1-1.972-.493,9.834,9.834,0,0,0-1.972-.394c-.2,0-.3,0-.394.1-.493.3-.887,1.972-1.084,2.859l-.1.493a7.638,7.638,0,0,0-.1,2.169v17.351h-6.8v-5.619c0-2.465-.2-3.352-2.07-3.45-1.183,0-1.479.394-1.676.789a6.27,6.27,0,0,0-.3,2.465v65.952c0,3.155.3,3.549,3.549,3.549h4.042l.2.69c.1.2.1.394.2.592a2.918,2.918,0,0,1,.2.986v39.828a4.268,4.268,0,0,1-1.479,2.859,2.868,2.868,0,0,0-1.183,1.972,3.079,3.079,0,0,0,1.085,1.972,5.1,5.1,0,0,1,1.577,3.155c.1,13.8.1,27.308,0,40.124a5.475,5.475,0,0,1-1.676,3.45c-1.38,1.282-1.38,2.169-.2,3.746a8.473,8.473,0,0,1,1.873,4.042c.1,11.83.1,23.956.1,35.589v6.112c0,.69-.1,1.282-.1,1.972a2.773,2.773,0,0,1-.1.789H475.764a3.04,3.04,0,0,1-.1-.986,7.71,7.71,0,0,0-1.282-5.225c-1.775-2.662-1.775-5.521-1.676-8.478v-.887a14.836,14.836,0,0,0,0-2.958c-.3-2.169.394-3.056,2.76-3.549,10.844-2.07,18.632-13.6,16.562-24.646A22.04,22.04,0,0,0,480.2,286.9a22.293,22.293,0,0,0-20.407.493c-.69.3-1.577.789-1.774.69s-.2-1.183-.2-1.873V274.972c0-5.718-1.775-7.394-7.492-7.394H430.317c-1.479,0-2.366,0-2.662-.3s-.3-1.183-.3-2.76v-35.49c0-4.732-1.775-6.605-6.408-6.7V151.151a4.628,4.628,0,0,0-4.633-4.633H397.193a4.733,4.733,0,0,0-4.732,4.732v71.079c-2.465,0-4.042.493-5.028,1.479s-1.479,2.563-1.479,5.028v60.728c0,1.38,0,2.267-.3,2.465s-1.084.1-2.366-.2a20.086,20.086,0,0,0-18.041,5.915,19.823,19.823,0,0,0-5.028,18.139q2.81,12.274,15.675,15.379c1.577.394,2.07.986,2.07,2.563-.1,4.338-.1,9.07,0,14.788a2.748,2.748,0,0,1-.1.986H362.59v-.2a25.031,25.031,0,0,0,0-3.845v-1.676c0-2.169-.493-2.76-2.563-2.859h-.493V239.876a6.185,6.185,0,0,0-6.211-6.211H320.1a6.185,6.185,0,0,0-6.211,6.211v64.671l-6.9-6.9c-3.549-3.549-7.394-7.2-12.619-8.774-1.676-.493-3.352-.986-5.028-1.38a17.17,17.17,0,0,0-2.169-.493l-.493-.1V273.3c0-4.633-3.155-7.788-7.887-7.887h-2.859V231.5h3.253a1.936,1.936,0,0,0,1.972-1.577c.2-.591.2-1.38-.986-2.169-1.282-.887-2.465-1.775-3.648-2.662l-10.548-7.69c-4.831-3.549-9.76-7.1-14.689-10.647a3.264,3.264,0,0,0-1.972-.887,2.874,2.874,0,0,0-1.479.592c-8.182,5.915-16.266,11.83-24.449,17.745l-4.732,3.45a2.029,2.029,0,0,0-1.084,2.267,2.163,2.163,0,0,0,2.267,1.577H222.8V349.8H209.391v-6.605c2.662-.69,4.633-2.465,6.112-5.324a23.638,23.638,0,0,0,2.07-7.69,47.934,47.934,0,0,0-.2-10.548,58.211,58.211,0,0,0-3.253-14.492,16.666,16.666,0,0,0-3.648-6.211c-1.972-1.972-4.338-1.972-6.408,0l-.1.1a6.251,6.251,0,0,0-.986,1.183,9.848,9.848,0,0,1-.789,1.38,24.067,24.067,0,0,0-2.07,4.239,55.754,55.754,0,0,0-3.253,15.971,38.315,38.315,0,0,0,.592,11.929c.887,3.943,2.563,8.084,7.591,9.661V349.9h-.789a10.686,10.686,0,0,0-10.154-6.408,10.154,10.154,0,0,0-6.7,2.958c-.2.2-.2.2-.3.1a6.957,6.957,0,0,0-7.591,2.07l-.887,1.183H172.62V308.983a1.908,1.908,0,0,0-.986-1.676l-11.731-7.3v-28.1h0V259.494a2.07,2.07,0,0,0-4.141,0v11.337l-15.576,9.76-11.929-10.056a2.159,2.159,0,0,0-2.169-.3,2.091,2.091,0,0,0-1.183,1.873v33.518l-9.563-6.014a2.192,2.192,0,0,0-2.07-.1,2.077,2.077,0,0,0-1.084,1.775v48.7H1.873A1.872,1.872,0,0,0,0,351.867a1.813,1.813,0,0,0,1.873,1.873H862.8a1.872,1.872,0,0,0,1.873-1.873A2.151,2.151,0,0,0,862.8,349.7Zm-138.51-35.687a16.759,16.759,0,1,1,18.534,16.661v-8.577l3.155-3.155a1.743,1.743,0,1,0-2.465-2.465l-2.465,2.465-2.464-2.465a1.743,1.743,0,0,0-2.465,2.465l3.155,3.155v8.577A16.849,16.849,0,0,1,724.294,314.011Zm-34.5,11.14a13.112,13.112,0,1,1,26.223,0,12.916,12.916,0,0,1-11.337,12.914v-7.3l3.155-3.155a1.666,1.666,0,0,0,0-2.366,1.726,1.726,0,0,0-2.465,0l-2.465,2.465-2.465-2.465a1.726,1.726,0,0,0-2.465,0,1.666,1.666,0,0,0,0,2.366l3.155,3.155v7.3A12.989,12.989,0,0,1,689.789,325.151ZM203.181,336.192a16.789,16.789,0,0,1-1.479-5.915,60.234,60.234,0,0,1,2.76-23.364,21.91,21.91,0,0,1,1.38-3.155l.3-.493a3.886,3.886,0,0,1,.887-1.084,1.363,1.363,0,0,1,.887-.493h0a1.02,1.02,0,0,1,.69.493,10.422,10.422,0,0,1,1.676,2.563,35.933,35.933,0,0,1,2.859,10.844c.3,2.169.493,4.338.69,6.211v.2c.1.69.1,1.282.2,1.676,0,4.535-.1,7.788-.986,10.943-.2.493-.394.986-.592,1.577a4.773,4.773,0,0,1-4.535,2.957h0A4.855,4.855,0,0,1,203.181,336.192Zm515,9.365v-1.282a1.348,1.348,0,0,1,1.38-1.38h8.577a1.348,1.348,0,0,1,1.38,1.38v1.282Zm3.648,3.549h3.943v.69h-3.943ZM606.881,222.131h2.76c1.282.1,2.268-.493,2.268-1.873,0-1.577-.986-1.972-2.366-1.972h-2.662v-43.18c1.479,1.084,2.859,1.873,4.14,2.859a153.024,153.024,0,0,1,37.166,42.785,160.785,160.785,0,0,1,20.407,56.883,185.643,185.643,0,0,1,1.972,40.518,237.346,237.346,0,0,1-3.845,31.251.362.362,0,0,1-.1.3H654.989c.69-4.831,1.479-9.563,2.07-14.295.69-5.521,1.084-11.041,1.479-16.562.2-2.169-1.183-2.465-2.958-2.465h-34.8c-2.662,0-3.056.394-3.056,3.056V349.7H606.683V222.131ZM622.062,349.7V320.32H654.6c-.1,2.267-.1,4.535-.394,6.8-.986,7.492-2.169,15.083-3.253,22.576Zm-47.715,0V317.067H577.9c.3,0,.591.1.986.1l1.479.2V346.05c0,1.577,0,2.859-.493,3.648h-5.521Zm-.2-38.25a32.687,32.687,0,0,0,.1-6.211c-.2-4.141-.3-8.38,2.07-12.52l.789-1.282.789,1.183c2.859,4.042,2.662,8.38,2.465,12.52a32.691,32.691,0,0,0,.1,6.211l.1,1.084h-6.6Zm-18.435-.592c2.169-1.972,3.549-3.155,5.126-3.155s3.155,1.084,6.014,3.155l2.465,1.676H553.941Zm14.2,6.309V349.7H552.758V317.165Zm-70.98-66.15h49.095v46.137H498.932V251.016Zm-.1-4.732V202.315h49.095v43.968H498.833ZM570.109,66.861a9.477,9.477,0,0,1,9.267,4.929,1.977,1.977,0,0,0,2.465,1.084,7.63,7.63,0,0,1,9.07,6.211,7.692,7.692,0,0,1-6.211,8.873,8.478,8.478,0,0,1-1.577.1H557.49a6.593,6.593,0,0,1-1.183-13.112,10.725,10.725,0,0,1,2.563.1c1.577.3,2.07,0,2.662-1.479C563.109,69.523,565.968,67.256,570.109,66.861Zm-32.434,3.253a5.471,5.471,0,0,1,3.549,0,1.712,1.712,0,0,0,2.464-1.282,9.911,9.911,0,0,1,8.577-6.9,9.68,9.68,0,0,1,9.365,5.126l-3.056,4.436a10.092,10.092,0,0,0-11.14,11.633h-8.084a6.635,6.635,0,0,1-1.676-13.013Zm-14.492-7.3,7.985,25.237H515.3ZM515.1,92.3h16.858v11.731H515.1Zm-8.675,26.716c2.07-3.056,3.943-6.014,6.013-8.774a5.258,5.258,0,0,1,3.549-1.873c2.366-.1,4.929-.1,7.492-.1,2.366,0,4.831,0,7.2.1a4.3,4.3,0,0,1,3.352,1.676c2.07,2.958,4.042,5.915,6.112,9.07l3.155,4.831H503.171S505.734,120.2,506.424,119.012Zm-4.732,9.661h43.771v9.267H501.692Zm-10.943,69.107V142.574h65.164v55.207Zm8.182,103.907h49V349.7h-49v-48.01Zm-66.84,48.01a2.449,2.449,0,0,1,.1-.789,10.3,10.3,0,0,1,5.619-7.2c5.028-2.366,9.464-1.873,13.21,1.282,1.873,1.577,3.155,1.479,4.831-.394,2.662-2.957,6.014-3.845,10.055-2.465a8.974,8.974,0,0,1,5.915,7.788,8.533,8.533,0,0,1-.1,1.774Zm-43.081,0a7.8,7.8,0,0,1,.493-1.282c1.676-3.155,3.943-4.831,6.9-5.126,2.07-.2,3.253-1.183,3.943-3.352a11.541,11.541,0,0,1,20.111-3.648c2.465,2.957,2.563,3.056,5.816,1.577l.2-.1a11.659,11.659,0,0,1,8.774-.394c.394.1.69.3.69.493.1.2.1.2-.394.394-.1.1-.2.1-.3.2-4.436,2.859-6.9,6.507-7.394,11.14a.362.362,0,0,1-.1.3H389.011Zm11.337-38.94h14.2v14.59c0,1.183-.1,1.873-.394,2.169a2.646,2.646,0,0,1-1.972.3,14.917,14.917,0,0,0-15.083,9.07c-.789,1.972-2.267,2.465-3.943,2.957a9.041,9.041,0,0,0-2.267.887.305.305,0,0,1-.2.1,1.579,1.579,0,0,1-.2-.986v-9.563a2.447,2.447,0,0,1,1.282-2.07A19.5,19.5,0,0,0,400.348,310.757Zm49.095,0H418.684V294.491H452.7Q447.816,302.772,449.443,310.757ZM418.783,314.7h31.941a26.577,26.577,0,0,0,2.366,4.338,6.147,6.147,0,0,1,1.084,3.352v14.492c0,1.183-.2,1.873-.493,2.07s-1.084,0-2.169-.592c0,0-3.943-2.07-7.1-2.07h-.1c-2.859,0-3.45-.394-4.633-1.183a19.357,19.357,0,0,0-4.535-2.169c-3.549-1.282-7.591,0-9.661.887-1.084.493-1.577.394-2.07-.394a3.143,3.143,0,0,0-1.282-1.282c-3.352-1.676-3.549-4.436-3.45-8.182C418.783,320.714,418.783,317.461,418.783,314.7Zm39.631,11.041c0-.789.1-.986.2-.986,0,0,.2-.1.887.3a23.164,23.164,0,0,0,8.084,3.056c.986.2,1.38.591,1.281,1.479v1.479c0,.592.1,1.282.1,1.873.1,1.38.3,2.76-.3,3.45-.493.591-1.282.3-2.465-.2a6.963,6.963,0,0,0-2.366-.591h-.1a24,24,0,0,0-2.662.1c-1.38.2-2.169.3-2.465.1-.3-.3-.3-1.183-.3-2.662V328.7C458.414,327.714,458.414,326.728,458.414,325.742Zm-1.676-29.871a17.6,17.6,0,0,1,14-7,19.309,19.309,0,0,1,6.112.986,17.219,17.219,0,0,1,11.633,16.661,17.531,17.531,0,0,1-13.21,17.153c-.887.2-1.38.2-1.676,0s-.493-.789-.493-1.676c0-2.267.1-3.648,2.465-4.436,2.267-.789,3.746-2.859,4.239-5.816.2-1.479-.3-2.563-1.577-2.859a1.849,1.849,0,0,0-1.479.2,2.575,2.575,0,0,0-.986,1.775,4.363,4.363,0,0,1-.493,1.479c-.493.887-.986,1.676-1.676,1.577-.493-.1-.493-.3-.394-1.084,0-.3.1-.592,0-.789a11.924,11.924,0,0,1-.1-1.873,13.881,13.881,0,0,0-.1-1.972c-.2-1.38-.986-2.169-2.267-2.07-1.084.1-1.676.887-1.774,2.267v4.831c0,.591,0,.887-.394.986s-.789-.1-1.38-.592a4.524,4.524,0,0,1-1.282-2.76,3.121,3.121,0,0,0-.986-1.775,1.533,1.533,0,0,0-1.479-.2,2.147,2.147,0,0,0-1.479,2.662q.3,4.88,5.619,6.8c.591.2,1.183,1.183,1.479,2.465a3.7,3.7,0,0,1-.2,2.859c-.394.394-.887.394-1.676.2l-.2-.1a17.247,17.247,0,0,1-12.422-11.14A16.74,16.74,0,0,1,456.738,295.871Zm-5.619-24.054c2.76,0,2.958.2,2.958,2.958v15.773h-35.49V274.774c0-2.859.1-2.958,2.859-2.958ZM396.8,151.249a.884.884,0,0,1,.887-.887h19.125a.674.674,0,0,1,.69.69v70.684H396.8Zm-5.816,75.614c.394-.394,1.38-.394,3.155-.394h26.716a2.849,2.849,0,0,1,2.169.591,2.887,2.887,0,0,1,.591,2.07v12.422H390.588V230.116C390.588,228.243,390.588,227.356,390.983,226.863Zm32.631,34.11H390.588V245.4h33.026Zm-32.927,3.943h33.026v.69c0,1.774-.592,2.07-2.169,2.07-5.324.1-6.9,1.775-6.9,7.2v9.563H390.588C390.588,278.126,390.687,271.62,390.687,264.916Zm-.2,24.054v-.69h24.054v18.534H399.756a22.9,22.9,0,0,0-2.76-6.605,4.265,4.265,0,0,0,2.169-2.366,3.981,3.981,0,0,0-.2-3.352,1.8,1.8,0,0,0-1.873-1.084,1.82,1.82,0,0,0-1.873,1.577,13.415,13.415,0,0,0-.2,2.07v.493c-2.662-1.873-4.633-3.352-4.535-7.3Zm-12.422,38.349c-.1.3-.3.3-1.084.1a.888.888,0,0,0-.493-.1,16.152,16.152,0,0,1-12.027-13.112c-.887-7,2.267-13.506,8.084-16.562a15.517,15.517,0,0,1,7.788-1.972h.1a15.834,15.834,0,0,1,15.872,14.689c.69,7.788-3.746,14.295-11.436,16.661-.887.3-1.676.493-1.972.3s-.3-.986-.394-2.07c-.2-2.662.2-4.14,2.662-5.126,1.873-.69,3.056-2.465,3.45-5.225.2-1.479-.394-2.563-1.676-2.76-.69-.1-1.873,0-2.366,1.873a6.377,6.377,0,0,1-.394,1.282c-.394.887-.789,1.38-1.282,1.282-.3-.1-.394-.2-.3-.887V315.1c0-.493-.1-.986-.1-1.38a11.931,11.931,0,0,0-.1-1.873,2.113,2.113,0,0,0-2.267-2.07c-1.084.1-1.676.887-1.676,2.267v3.943c0,.69,0,.887-.493.986-.69.1-1.183-.591-1.38-.887a5.2,5.2,0,0,1-.493-1.479c0-.2-.1-.3-.1-.493-.2-.493-.591-2.169-2.366-1.873-1.282.2-1.873,1.183-1.775,2.76.3,2.76,1.873,4.732,4.634,6.014a1.826,1.826,0,0,0,.69.2c.789.2,1.183.394,1.183,1.084a6.064,6.064,0,0,0,.1,1.282A9.544,9.544,0,0,1,378.068,327.319ZM382.5,349.3V333.925a2.885,2.885,0,0,1,.986-2.267,2.779,2.779,0,0,1,2.366-.493c.592.1.592.394.592,1.084v3.45c0,2.958.1,6.112-.1,9.168a10.533,10.533,0,0,1-1.183,3.648c-.2.394-.394.887-.591,1.282H382.5C382.5,349.6,382.5,349.5,382.5,349.3ZM318.228,239.876a2.231,2.231,0,0,1,2.267-2.267h33.223a2.231,2.231,0,0,1,2.267,2.267V340.628a24.264,24.264,0,0,1-12.422-6.8l-14-14v-9.07a1.972,1.972,0,1,0-3.943,0v5.126c-2.366-2.366-4.831-4.831-7.394-7.3V239.876Zm-41.9,29.378h2.958A3.424,3.424,0,0,1,283.033,273v10.056c0,2.465-1.282,3.845-3.845,3.845H276.33Zm0,21.787h7.1c1.577,0,2.76,0,3.943.1,5.718.394,10.844,2.957,15.576,7.69L320.1,315.982l20.012,20.013c5.028,5.028,10.548,7.985,17.055,8.872a3.048,3.048,0,0,1,.789.2l.986.2V349.9H345.634a23.955,23.955,0,0,1-7.492-5.225l-1.282-1.282c-12.027-11.929-24.449-24.252-36.574-36.476a29.255,29.255,0,0,0-21.491-8.971,7.46,7.46,0,0,1-1.479-.1c-.2,0-.3-.1-.493-.2l-.591-.3v-6.309Zm.394,11.239a2.528,2.528,0,0,1,1.873-.592,25.513,25.513,0,0,1,18.632,7.591c4.436,4.338,8.774,8.774,13.112,13.112,5.816,5.816,11.633,11.534,17.449,17.351,2.465,2.465,4.929,4.929,7.591,7.492l2.563,2.563H276.231V304.054A2.859,2.859,0,0,1,276.724,302.279Zm-49.292-9.858a1.572,1.572,0,0,1,.394-1.183,1.449,1.449,0,0,1,1.183-.394h41.109a2.666,2.666,0,0,1,1.873.592,2.011,2.011,0,0,1,.394,1.774,20.56,20.56,0,0,0,0,2.465v1.972H227.531v-2.07C227.432,294.491,227.432,293.505,227.432,292.421Zm37.955-9.76v-5.816c0-4.338,0-8.873-.1-13.309A15.31,15.31,0,0,0,250.5,249.143h-.394c-8.084,0-14.985,6.112-15.478,13.7-.3,4.732-.3,9.563-.2,14.2V287h-6.7v-44.56h44.658V286.9h-6.8v-.69C265.387,286.21,265.387,283.45,265.387,282.661Zm-27.209-12.323h0V264.62a11.584,11.584,0,0,1,23.167-.1c.1,4.633.1,9.267.1,13.7v6.8a1.936,1.936,0,0,1-.493,1.479,1.673,1.673,0,0,1-1.282.394H239.46c-.2,0-.394-.1-.592-.1-.1,0-.2-.1-.3-.1l-.493-.1v-14A18.221,18.221,0,0,0,238.178,270.338Zm29.871-32.04H230.291c-2.662,0-2.859-.3-2.958-2.957v-3.746l1.282-.1h41.011a3.024,3.024,0,0,1,2.07.591,3.178,3.178,0,0,1,.591,2.07v.2C272.189,238,271.894,238.3,268.049,238.3Zm-29.181,96.513c.69-.69,1.676-.69,3.451-.69h16.759a2.43,2.43,0,0,1,1.775.592,2.205,2.205,0,0,1,.493,1.873v.2c-.1,4.042-.394,4.338-4.535,4.436H240.248c-1.479,0-2.169-.69-2.169-2.267v-.2C238.178,336.586,238.178,335.5,238.868,334.812Zm22.181-4.929a2.423,2.423,0,0,1-1.676.493H240.643a2.528,2.528,0,0,1-1.873-.591,2.816,2.816,0,0,1-.592-1.873v-.2c.1-3.943.394-4.239,4.535-4.239h16.661a2.319,2.319,0,0,1,1.577.493,2.233,2.233,0,0,1,.493,1.676v1.873h0C261.542,328.7,261.542,329.39,261.049,329.883Zm-22.773-23.266c0-1.183,0-2.169.1-3.352a2,2,0,0,1,1.676-1.479h19.717a1.986,1.986,0,0,1,1.676,1.676c.1,1.084.1,2.07.1,3.155v1.972H238.277v-1.972Zm-.1,10.45c0-4.239.3-4.535,4.732-4.535h16.365a2.207,2.207,0,0,1,1.676.591,2.754,2.754,0,0,1,.493,1.676v.1c0,4.042-.2,4.535-4.338,4.535H240.347a2.754,2.754,0,0,1-1.676-.493,2.233,2.233,0,0,1-.493-1.676Zm0,32.434v-.2c.1-4.141.394-4.338,4.633-4.436h16.562c1.774,0,2.07,1.084,2.07,2.169v.1a18.255,18.255,0,0,1-.1,2.465H238.079C238.178,349.7,238.178,349.6,238.178,349.5Zm27.209-2.07V304.448c0-2.465.3-2.76,2.76-2.76h.394c1.577,0,2.662,0,3.352.69.591.592.591,1.577.591,3.549V349.7h-6.9A7.417,7.417,0,0,1,265.387,347.43ZM228.615,225.68a5.419,5.419,0,0,1,.887-.69l5.324-3.845c4.141-2.958,8.774-6.408,13.309-9.661a2.834,2.834,0,0,1,1.775-.69,2.664,2.664,0,0,1,1.676.69c4.436,3.352,9.168,6.7,13.309,9.661l4.929,3.549c.394.3.69.493,1.183.887l2.366,1.774H226.644Zm-1.183,121.849V304.645c0-1.282,0-1.873.394-2.366.493-.493,1.183-.493,2.366-.493h3.943l.1,1.282V349.8h-6.8Zm-36.082,1.38a5.82,5.82,0,0,1,5.521-1.084,5.761,5.761,0,0,1,3.056,1.873h-8.182Zm-22.28-38.842V349.7H160.4V304.645Zm-39.433-33.814,7.591,6.408-7.591,4.732Zm0,32.73V292.224l12.027-7.492h.1l14.59-9.168V349.9H129.637V308.983Zm-12.717-4.239,8.675,5.422V349.8H116.92Z" transform="translate(0 -1.008)" fill="#ececec"/>
    </g>
    <path id="Path_453" data-name="Path 453" d="M614,173.5V353.514h33.42S651.265,219.046,614,173.5Z" transform="translate(18756.303 9653.412)" fill="#ececec" opacity="0.63"/>
    <ellipse id="Ellipse_47" data-name="Ellipse 47" cx="17.942" cy="17.942" rx="17.942" ry="17.942" transform="translate(19487.816 9950.931)" fill="#ececec" opacity="0.63"/>
  </g>
</svg>
