<?xml version="1.0" encoding="utf-8"?>
<!-- Generator: Adobe Illustrator 23.0.3, SVG Export Plug-In . SVG Version: 6.00 Build 0)  -->
<svg version="1.1" id="Layer_1" xmlns="http://www.w3.org/2000/svg" xmlns:xlink="http://www.w3.org/1999/xlink" x="0px" y="0px"
	 viewBox="0 0 630.1 571" style="enable-background:new 0 0 630.1 571;" xml:space="preserve">
<style type="text/css">
	.st0{fill:#FFFFFF;}
	.st1{fill:url(#Path_707_1_);}
	.st2{fill:url(#Path_708_1_);}
	.st3{fill:#E5E9F6;}
	.st4{fill:#444D6E;}
	.st5{fill:#443C77;}
	.st6{fill:#2B1256;}
	.st7{fill:#4D4F82;}
	.st8{fill:#49CFA0;}
	.st9{fill:#77EDC0;}
	.st10{fill:#979298;}
	.st11{fill:#B4AEB1;}
	.st12{fill:#F8C8AF;}
	.st13{fill:url(#Path_718_1_);}
	.st14{fill:url(#Path_720_1_);}
	.st15{fill:url(#Ellipse_175_1_);}
	.st16{fill:url(#Ellipse_176_1_);}
	.st17{fill:#B5C3E0;}
	.st18{fill:#6B9AF7;}
	.st19{fill:url(#Path_724_1_);}
	.st20{fill:url(#Path_729_1_);}
	.st21{fill:#EEF7FF;}
	.st22{opacity:0.63;fill:#EEF7FF;enable-background:new    ;}
	.st23{opacity:0.1;}
	.st24{fill:#3F3D56;}
	.st25{fill:#FF9520;}
	.st26{opacity:0.1;enable-background:new    ;}
	.st27{opacity:0.1;fill:#FF9520;enable-background:new    ;}
	.st28{fill:none;stroke:#3F3D56;stroke-width:4;stroke-miterlimit:10;}
</style>
<g id="Group_1167" transform="translate(-1074.381 -467.878)">
	<path id="Path_735" class="st0" d="M1673.8,773.8c-17.2-73.5-102.8-116.5-167.4-110.3c-52.5,5-55,32.7-115,51
		c-80.9,24.7-137.6-34.5-164.3-8.7c-20.7,19.9,20.4,73,1.9,88.9c-12.9,11-34.4-10.7-60-3.8c-40.2,10.9-78.1,89.5-48.5,142.2
		c29.7,52.8,109.9,49.3,153,33.2c20.9-7.8,19-13.3,39.6-21.5c57.8-22.8,94.9,12.1,163.2,14.9c10.1,0.4,109.5,3.1,165.2-65.2
		C1647.3,887.3,1688.2,835.4,1673.8,773.8z"/>
	<g id="Group_1064" transform="translate(1202.641 467.878)">
		<linearGradient id="Path_707_1_" gradientUnits="userSpaceOnUse" x1="-1.925345e-02" y1="223.7596" x2="457.8185" y2="223.7596">
			<stop  offset="0" style="stop-color:#FF9520"/>
			<stop  offset="0.3366" style="stop-color:#FF9821"/>
			<stop  offset="0.5734" style="stop-color:#FFA126"/>
			<stop  offset="0.7796" style="stop-color:#FFB12D"/>
			<stop  offset="0.9673" style="stop-color:#FFC637"/>
			<stop  offset="1" style="stop-color:#FFCB39"/>
		</linearGradient>
		<path id="Path_707" class="st1" d="M261.2,447.2c6.6-0.7,12.5-1.5,17.5-2.2c0.6-0.1,1.3-0.2,1.9-0.3c8.7-1.3,14.4-2.5,15.8-2.7
			c1.1-0.2,2.3-0.5,3.4-0.7c6.4-1.3,12.7-2.7,18.9-4.1c10.5-2.4,20.9-5.4,31.1-9c3-1.1,6-2.3,9.1-3.6c1.8-0.8,3.5-1.6,5.3-2.4
			c1.2-0.5,2.3-1.1,3.5-1.7c1.9-0.9,3.8-2,5.8-3c5.9-3.3,11.6-6.9,17-11c3-2.2,6-4.6,9-7.2c1.3-1.1,2.6-2.2,3.9-3.4
			c1.8-1.7,3.7-3.5,5.5-5.3c0.5-0.5,0.9-1,1.4-1.5s1-1,1.5-1.5c1.9-2,3.8-4.1,5.6-6.2c41.8-48.4,51.2-115.6,28.1-160.1
			c-28.1-54-90.9-26.8-137.1-98.6c-5-7.6-8.8-16-11.1-24.9h-56.2c-12,0-16.9-15.8-6.7-22.2c0.3-0.2,0.7-0.4,1-0.6
			c2.6-1.3,5.5-1.7,8.3-1.2c5.2,0.7,10.4-2,12.7-6.8c5-10.2,15.5-16.5,26.8-16.1c-0.8-1.1-1.6-2.3-2.5-3.5
			C237.4-9.5,148.2-13,83,25.4c4,2.4,7.4,5.7,9.9,9.7c2.9,4.4,8.3,6.6,13.5,5.5c6.6-1.6,13.7,0.5,18.4,5.4c2.9,3.2,4.5,7.3,4.7,11.6
			c0,0.2,0,0.4,0,0.6c0,7.1-5.8,12.9-12.9,12.8l0,0h-84c-3.2,4.5-6.2,9.2-8.9,14C4.3,119.8-10.5,179.5,9.5,214.2
			C22.6,237,43.4,234,60.8,249.5c0.6,0.5,1.1,1,1.7,1.6c1.5,1.4,2.8,2.9,4.1,4.5c1,1.3,2.1,2.7,3.1,4.2c0.2,0.4,0.5,0.7,0.7,1.1
			c1.8,2.8,3.4,5.8,4.8,8.8l0,0c0.4,0.9,0.8,1.8,1.1,2.7c0.2,0.7,0.5,1.3,0.7,2c0.1,0.2,0.1,0.4,0.2,0.6c0.1,0.3,0.2,0.7,0.3,1
			c0,0.1,0.1,0.2,0.1,0.4c0.6,2.1,1.2,4.3,1.6,6.5c0.9,4.9,1.4,9.8,1.4,14.8c0,1.5,0,2.9-0.1,4.4v0.1c-0.1,1.3-0.1,2.6-0.2,3.9
			s-0.2,2.7-0.3,4.1c-0.2,1.7-0.4,3.5-0.6,5.2c0,0.3-0.1,0.6-0.1,0.9c-0.2,1.3-0.3,2.6-0.5,3.9c0,0.2-0.1,0.5-0.1,0.7
			c0,0.1,0,0.2,0,0.3c-0.4,2.5-0.7,5-1.1,7.4c-0.1,0.4-0.1,0.9-0.2,1.3c-0.2,1-0.3,2.1-0.5,3.2c-1,6.6-2,13.3-2.5,20
			c-0.1,1.6-0.2,3.2-0.3,4.8c-0.2,4.6-0.2,9.1,0.2,13.7c0,1,0.2,1.9,0.3,2.9c0.2,1.5,0.4,2.9,0.6,4.3c0,0.2,0.1,0.4,0.1,0.6
			c0.1,0.3,0.1,0.6,0.2,0.9c0.5,2.7,1.2,5.4,2,8c0.6,2,1.3,3.9,2.1,5.9c0.9,2.2,1.9,4.4,3.1,6.5c3.9,7.1,8.9,13.5,15,18.9
			c0.3,0.3,0.7,0.6,1.1,0.9c0.1,0.1,0.3,0.3,0.4,0.4c0.5,0.4,1,0.9,1.6,1.3c0.8,0.7,1.7,1.3,2.5,2l0,0c6.1,4.5,12.7,8.3,19.7,11.4
			c3.8,1.7,7.8,3.2,11.9,4.5c3,1,6.2,1.9,9.3,2.8c2.7,0.7,5.4,1.4,8.1,1.9c3.2,0.7,6.4,1.3,9.7,1.9c1.7,0.3,3.3,0.5,5,0.8"/>
		
			<linearGradient id="Path_708_1_" gradientUnits="userSpaceOnUse" x1="-642.1665" y1="5.6898" x2="-642.7086" y2="7.0147" gradientTransform="matrix(70.2162 0 0 29.4969 45240.1563 -54.3257)">
			<stop  offset="0" style="stop-color:#A2F7FF"/>
			<stop  offset="1.200000e-02" style="stop-color:#A1F5FE"/>
			<stop  offset="0.208" style="stop-color:#A0DDFE"/>
			<stop  offset="0.392" style="stop-color:#A0CFFE"/>
			<stop  offset="0.55" style="stop-color:#A0CBFE"/>
		</linearGradient>
		<path id="Path_708" class="st2" d="M99,126.7c0.2-0.1,0.4-0.3,0.7-0.4c1.6-0.8,3.4-1.1,5.2-0.8c3.3,0.4,6.5-1.3,8-4.3
			c4.3-8.9,15.1-12.7,24.1-8.3c3,1.5,5.5,3.7,7.3,6.5c1.7,2.6,4.9,3.9,7.9,3.2c3.9-0.9,8.1,0.3,10.8,3.2c1.7,1.9,2.7,4.3,2.8,6.8
			v0.4c0,4.2-3.4,7.6-7.6,7.6h-54.9C95.7,140.6,92.6,130.7,99,126.7z"/>
		<path id="Rectangle_583" class="st3" d="M68,169.4h196.3c2.8,0,5,2.2,5,5v123.2c0,2.8-2.2,5-5,5H68c-2.8,0-5-2.2-5-5V174.4
			C63,171.6,65.3,169.4,68,169.4z"/>
		<path id="Rectangle_584" class="st4" d="M68,169.4h196.3c2.8,0,5,2.2,5,5v103.9c0,2.8-2.2,5-5,5H68c-2.8,0-5-2.2-5-5V174.4
			C63,171.6,65.3,169.4,68,169.4z"/>
		<path id="Rectangle_585" class="st0" d="M75.3,174.9h181.9c2.8,0,5,2.2,5,5v91.9c0,2.8-2.2,5-5,5H75.3c-2.8,0-5-2.2-5-5v-91.9
			C70.3,177.1,72.6,174.9,75.3,174.9z"/>
		<path id="Path_709" class="st5" d="M310.9,287.4l3,33.3c0,0,17.8,9,30.9,0l2.4-35.1C347.3,285.5,313.7,278.4,310.9,287.4z"/>
		<path id="Path_710" class="st6" d="M311.6,279c0,0-4.3,15.5,7.2,18.7s16.7,1.9,21,0s10.2-7.4,6.9-13.2s-6.6-9.7-13.1-11.3
			S311.6,279,311.6,279z"/>
		<path id="Path_711" class="st7" d="M312.4,280.8c0,0-3.9,8.6,3.4,12.9s19.2,4.7,24.8,0.6s5.6-5.3,5.6-5.3s3-3.6-3-8.4
			S312.4,280.8,312.4,280.8z"/>
		<path id="Path_712" class="st8" d="M309,271.9c0,0-8.9-14.9-11.8-18.4s-3.6-9.4,6.9-17.4s5.6-21.7,5.6-21.7s3-12.9,12.1-3.6
			S309,271.9,309,271.9z"/>
		<path id="Path_713" class="st8" d="M341.8,228.3c0,0,11.8-6.8,13.4-6.8s13.1,0,7.5,9.7s-6.6,10.3-0.7,16.8s-4.6,20.4-4.6,20.4
			l-21.3-18.7L341.8,228.3z"/>
		<path id="Path_714" class="st9" d="M330.9,292.6c0,0-9.8,1-14.4-4.2s-5.6-5.5-8.9-8.7s-4.6-6.8-1.3-16.8s9.2-11.3,6.6-21.3
			s-9.8-15.8,1-21.3c0,0,13.4-1.6,13.8-11.3s15.4-7.8,22-1.6c0,0,2.6,12.3-3.6,20.7c0,0-0.3,13.9,10.2,19.1s9.2,19.7,3.3,24.6
			s-17.7,12-19,17.4S330.9,292.6,330.9,292.6z"/>
		<path id="Path_715" class="st10" d="M358,424.3c-3,1.3-6.1,2.5-9.1,3.6l-29.1-99.3l1.2-2.5l0,0l8,0.4l0.7,2.5l0,0L358,424.3z"/>
		<path id="Path_716" class="st11" d="M403.8,324.2L403.8,324.2c0,2.7-2.2,4.9-4.9,4.9l0,0H77v-9.8h321.9
			C401.6,319.3,403.8,321.5,403.8,324.2L403.8,324.2z"/>
		<path id="Path_717" class="st12" d="M210.1,324.9c0,0,37.6,2.6,41.2-5s-6.4-16.7-6.7-16.9s-50.6-0.4-45.5,12.3
			S210.1,324.9,210.1,324.9z"/>
		
			<linearGradient id="Path_718_1_" gradientUnits="userSpaceOnUse" x1="-641.7337" y1="3.0115" x2="-642.5087" y2="2.4695" gradientTransform="matrix(66.2728 0 0 63.3738 42776.3906 127.9887)">
			<stop  offset="0" style="stop-color:#969FE7"/>
			<stop  offset="1" style="stop-color:#626FDB"/>
		</linearGradient>
		<path id="Path_718" class="st13" d="M192.3,259.6l55.8,40.2c0,0,14,10.6,3.3,20.2s-47.5-7.2-47.5-7.2S181,264.5,192.3,259.6z"/>
		<path id="Path_719" class="st12" d="M120.4,320.2c-0.3,1-0.9,1.8-1.9,2.2c0,0-4.8,0.4-11.1,0.8c-10,0.5-23.9,0.6-28.7-1.9
			c-0.4-0.2-0.8-0.5-1.2-0.9c0,0,0-0.1-0.1-0.1s0,0,0-0.1c-1.1-1.4-0.2-2.8,2-4c6-3.4,21.1-5.7,24.1-6.7c1.2-0.4,3.6,0.1,6.3,1.2
			c2.5,1,4.8,2.3,6.9,3.9C119.2,316.5,120.8,318.5,120.4,320.2z"/>
		
			<linearGradient id="Path_720_1_" gradientUnits="userSpaceOnUse" x1="-642.6993" y1="2.9246" x2="-641.7814" y2="2.5075" gradientTransform="matrix(66.4924 0 0 63.3727 42801.3359 127.1779)">
			<stop  offset="0" style="stop-color:#969FE7"/>
			<stop  offset="0.255" style="stop-color:#8F99E5"/>
			<stop  offset="0.603" style="stop-color:#7E89E1"/>
			<stop  offset="1" style="stop-color:#626FDB"/>
		</linearGradient>
		<path id="Path_720" class="st14" d="M136.7,276.3c-0.5,2.1-1.1,4.3-1.8,6.5c-2.1,6.8-4.9,13.9-7.1,19.3c-2.5,5.8-4.4,9.9-4.4,9.9
			s-2.6,1.2-6.6,2.8c-2.3,0.9-5.1,1.9-8.2,2.9c-2.9,0.9-6.1,1.9-9.3,2.6c-7.6,1.8-15.4,2.7-20.5,0.7c-0.4-0.2-0.8-0.3-1.2-0.5
			l-0.3-0.1c-0.6-0.3-1.1-0.7-1.6-1.1c-7.1-6.4-3.4-13.2,0-17.1c1-1.2,2.1-2.2,3.3-3.2l1.7-1.2l20.8-14.9l9.1-6.5l16.2-11.6l8.2-5.9
			C139.1,260.5,138.8,267.7,136.7,276.3z"/>
		
			<linearGradient id="Ellipse_175_1_" gradientUnits="userSpaceOnUse" x1="-640.3573" y1="6.6292" x2="-639.5152" y2="5.7172" gradientTransform="matrix(48.898 0 0 28.91 31458.8008 -8.075714e-02)">
			<stop  offset="0" style="stop-color:#432929"/>
			<stop  offset="1" style="stop-color:#966565"/>
		</linearGradient>
		<ellipse id="Ellipse_175" class="st15" cx="163.9" cy="180.5" rx="24.4" ry="14.5"/>
		
			<linearGradient id="Ellipse_176_1_" gradientUnits="userSpaceOnUse" x1="-643.2122" y1="1.5322" x2="-642.5412" y2="2.2102" gradientTransform="matrix(77.046 0 0 84.228 49699.2188 60.6757)">
			<stop  offset="0" style="stop-color:#432929"/>
			<stop  offset="1" style="stop-color:#966565"/>
		</linearGradient>
		<ellipse id="Ellipse_176" class="st16" cx="163.9" cy="213.6" rx="38.5" ry="42.1"/>
		<path id="Path_721" class="st4" d="M163.9,446.5L163.9,446.5h-1.6c-3.3-0.6-6.5-1.2-9.8-1.9c-2.8-0.6-5.5-1.2-8.2-2
			c-3.2-0.8-6.3-1.8-9.4-2.8c-4.1-1.4-8.1-2.9-12-4.6c-7-3.1-13.7-6.9-19.9-11.4l0,0c-0.9-0.7-1.7-1.3-2.5-2
			c-0.5-0.4-1.1-0.9-1.6-1.3c-7.6-24.1,1-60.7,7.2-91.5c0.5-2.3,0.9-4.6,1.4-6.9c0.2-1,0.4-2,0.6-2.9s0.3-1.9,0.5-2.8
			c0.4-2.2,0.8-4.4,1.1-6.5c0.4-2.5,0.7-4.9,1-7.2c0.1-0.6,0.1-1.1,0.2-1.7c0.8-6.6,2.4-13.1,4.8-19.3c0.9-2.2,1.8-4.4,3-6.5
			c2.4-4.7,5.5-9,9.2-12.7l0,0c5.6-5.8,12.6-10,20.4-12.2c0.7-0.2,1.3-0.3,1.9-0.5c0.8-0.2,1.6-0.3,2.4-0.4l10.5-1.5h0.2l0,0v6
			l0.1,21.3v6.5l0.1,19.3v8.7v4.7v2.2v2.6v9.8v10.4v3.1v1.5v3.2L163.9,446.5z"/>
		<path id="Path_722" class="st4" d="M173.5,249.4c0,0,35.1,3.4,40.9,53.3s42.1,144.4-28.7,143.7l-23.2,0.1l0.7-198.7L173.5,249.4z"
			/>
		<path id="Path_723" class="st17" d="M166.2,447.3c-1.7-0.2-3.4-0.5-5-0.8c-3.3-0.6-6.5-1.2-9.8-1.9V339.5h24.4v109"/>
		<path id="Rectangle_586" class="st18" d="M155.2,315.3h18.2c8.2,0,14.8,6.6,14.8,14.8l0,0c0,8.2-6.6,14.8-14.8,14.8h-18.2
			c-8.2,0-14.8-6.6-14.8-14.8l0,0C140.4,321.9,147,315.3,155.2,315.3z"/>
		
			<linearGradient id="Path_724_1_" gradientUnits="userSpaceOnUse" x1="-639.8307" y1="1.1819" x2="-639.7777" y2="1.5948" gradientTransform="matrix(47.6963 0 0 115.2432 30674.5977 120.6795)">
			<stop  offset="0" style="stop-color:#432929"/>
			<stop  offset="1" style="stop-color:#966565"/>
		</linearGradient>
		<path id="Path_724" class="st19" d="M161.8,201.1c0,0-16.8,7.5-11.1,21.5s-4.4,48.5-12.7,59.9s0.8,22.2,6.9,22.9
			c4.7,0.3,8.6,4,9.1,8.7c0.5,3.6,6,1.3,11.6-5.2s13.5-16.2,16-24.8s-1.5-18.1-4.2-27.1s-10.6-26.9-9.6-33.1s7.8-13.1,5.1-17.8
			S165.4,199.4,161.8,201.1z"/>
		
			<linearGradient id="Path_729_1_" gradientUnits="userSpaceOnUse" x1="189.5205" y1="473.2773" x2="299.868" y2="473.2773" gradientTransform="matrix(1 0 0 -1 128.26 572)">
			<stop  offset="0" style="stop-color:#FF9520"/>
			<stop  offset="0.3366" style="stop-color:#FF9821"/>
			<stop  offset="0.5734" style="stop-color:#FFA126"/>
			<stop  offset="0.7796" style="stop-color:#FFB12D"/>
			<stop  offset="0.9673" style="stop-color:#FFC637"/>
			<stop  offset="1" style="stop-color:#FFCB39"/>
		</linearGradient>
		<path id="Path_729" class="st20" d="M425.5,135.4c-1.2,3.6-2.9,7.1-5,10.3c-0.4-3.6-2-6.9-4.4-9.6c-4.5-4.8-11.2-6.7-17.6-5.2
			c-5,1.1-10.1-1-12.9-5.2c-8.7-13.6-26.8-17.6-40.4-8.9c-3.1,2-5.9,4.6-8.1,7.6c-4.2-5-8-10.4-11.2-16c-8.4-14.9-10-30-6.1-40.5
			c6.2-16.7,30.4-18,50.4-14.7c17.5,2.9,29.9,12.4,37.6,20.4c1.2,1.3,2.4,2.6,3.4,3.7c0.4,0.4,0.7,0.9,1.1,1.3
			c1.1,1.3,1.9,2.5,2.7,3.5c1,1.4,1.6,2.4,2,3C420.4,90.7,433.7,112,425.5,135.4z"/>
		<path id="Path_730" class="st21" d="M420.4,144.7c-4.1,5.9-10.1,10.1-17.1,11.9c-16.6,4.5-34.9-4.1-51.6-18.4
			c-5.3-4.5-10.1-9.4-14.6-14.7c9.4-13.1,27.6-16.2,40.8-6.8c3,2.2,5.6,4.9,7.6,8.1c2.8,4.2,7.9,6.3,12.9,5.2
			c6.4-1.5,13.1,0.4,17.6,5.2C418.5,137.8,420,141.2,420.4,144.7z"/>
		<path id="Path_731" class="st22" d="M130.3,58.6c0,7.2-5.9,13-13,12.9l0,0H32.9c13.5-18.7,30.8-34.3,50.7-45.9
			c4,2.4,7.4,5.8,9.9,9.7c2.9,4.5,8.3,6.7,13.6,5.5c6.7-1.6,13.8,0.5,18.5,5.5c2.9,3.2,4.6,7.3,4.7,11.7
			C130.3,58.2,130.3,58.4,130.3,58.6z"/>
		<path id="Path_732" class="st22" d="M165.7,132.7v0.4c0,4.2-3.4,7.6-7.6,7.6h-54.9c-7.5,0-10.6-9.9-4.2-14
			c0.2-0.1,0.4-0.3,0.7-0.4c1.6-0.8,3.4-1.1,5.2-0.8c3.3,0.4,6.5-1.3,8-4.3c4.3-8.9,15.1-12.7,24.1-8.3c3,1.5,5.5,3.7,7.3,6.5
			c1.7,2.6,4.9,3.9,7.9,3.2c3.9-0.9,8.1,0.3,10.8,3.2C164.7,127.8,165.6,130.2,165.7,132.7z"/>
		<path id="Path_733" class="st22" d="M297.8,161.6v0.2c0,2.4-2,4.4-4.5,4.4h-32c-2.5,0-4.4-2-4.5-4.4c0-1.5,0.7-2.9,2-3.7
			c0.1-0.1,0.2-0.2,0.4-0.2c0.9-0.5,2-0.6,3-0.5c1.9,0.3,3.8-0.7,4.7-2.5c2.5-5.2,8.8-7.4,14-4.9c1.7,0.8,3.2,2.2,4.3,3.8
			c1,1.5,2.9,2.3,4.6,1.9c2.3-0.6,4.7,0.2,6.3,1.9C297.1,158.7,297.7,160.1,297.8,161.6z"/>
		<path id="Path_734" class="st22" d="M297.2,98.5h-56.6c-12.1,0-17-15.9-6.8-22.4c0.3-0.2,0.7-0.4,1-0.6c2.6-1.3,5.5-1.7,8.4-1.2
			c5.3,0.7,10.4-2,12.8-6.8c5-10.3,15.6-16.6,27-16.2C294.3,68.1,292.8,81.8,297.2,98.5z"/>
		<path id="Path_181" class="st0" d="M71,120.8l-20,18.7c-0.1,0.1-0.4,0.1-0.5,0l-0.1-0.1l-3-8.8c-0.1-0.3,0-0.7,0.4-0.8l8.2-3.9
			c0.1,0,0.1-0.1,0.1-0.2l-0.1-0.1l-9.3,1.8c-0.3,0.1-0.6-0.1-0.7-0.3l-4.3-7.1c-0.1-0.2,0-0.4,0.1-0.5c0.1,0,0.1-0.1,0.2,0
			l28.8,0.8c0.2,0,0.3,0.2,0.3,0.3C71.1,120.7,71,120.8,71,120.8L71,120.8z"/>
		<path id="Path_181-2" class="st0" d="M211.6,15.1l-14.9,14c-0.1,0.1-0.3,0.1-0.4,0c0,0,0-0.1-0.1-0.1l-2.2-6.6
			c-0.1-0.2,0-0.5,0.3-0.6l6.1-2.9c0,0,0.1-0.1,0-0.1c0,0,0,0-0.1,0l-6.9,1.3c-0.2,0-0.4-0.1-0.5-0.2l-3.2-5.3
			c-0.1-0.1,0-0.3,0.1-0.4h0.1l21.5,0.6C211.5,14.8,211.6,14.9,211.6,15.1C211.6,15,211.6,15.1,211.6,15.1z"/>
		<path id="Path_181-3" class="st0" d="M215.2,80.4l-40.6,34.2c-0.3,0.2-0.7,0.2-1,0c-0.1-0.1-0.1-0.1-0.1-0.2L168.1,99
			c-0.2-0.6,0.1-1.3,0.7-1.5l16.4-7.4c0.1,0,0.2-0.2,0.1-0.3l0,0c-0.1-0.1-0.2-0.1-0.3-0.1l-18.5,3.6c-0.5,0.1-1.1-0.1-1.4-0.5
			L157,80.5c-0.2-0.3-0.1-0.7,0.2-0.8c0,0,0,0,0.1,0c0.1-0.1,0.2-0.1,0.4-0.1l57-0.1c0.3,0,0.6,0.2,0.6,0.5c0,0,0,0,0,0.1
			C215.4,80.1,215.4,80.3,215.2,80.4z"/>
		<path id="Path_181-4" class="st0" d="M391.7,72.6l-20.5,19.2c-0.1,0.1-0.4,0.1-0.5,0l-0.1-0.1l-3.1-9.1c-0.1-0.3,0-0.7,0.4-0.9
			l8.4-4c0.1,0,0.1-0.1,0.1-0.2s-0.1-0.1-0.1-0.1l-9.5,1.8c-0.3,0.1-0.6-0.1-0.7-0.3l-4.4-7.3c-0.1-0.2,0-0.4,0.1-0.5l0,0
			c0.1,0,0.1,0,0.2,0l29.6,0.9c0.2,0,0.3,0.2,0.3,0.4C391.8,72.4,391.8,72.5,391.7,72.6z"/>
	</g>
</g>
<g class="st23">
	<ellipse class="st24" cx="273.8" cy="460.2" rx="6.7" ry="8.8"/>
	<path class="st24" d="M279.1,422.5c0.9-1.6,1.4-3.5,1.4-5.4c0-4.9-3-8.8-6.7-8.8c-3.7,0-6.8,4-6.8,8.8c0,1.9,0.5,3.8,1.4,5.4
		c-1.9,3.3-1.9,7.4,0,10.8c-1.9,3.3-1.9,7.4,0,10.8c-0.9,1.6-1.4,3.5-1.4,5.4c0,4.9,3,8.8,6.7,8.8s6.7-4,6.7-8.8
		c0-1.9-0.5-3.8-1.4-5.4c1.9-3.3,1.9-7.4,0-10.8C281,429.9,281,425.8,279.1,422.5L279.1,422.5z"/>
	<ellipse class="st24" cx="273.8" cy="406.3" rx="6.7" ry="8.8"/>
	<ellipse class="st24" cx="273.8" cy="395.5" rx="6.7" ry="8.8"/>
	<path class="st25" d="M248.6,321.8c-0.9-1.2-1.8-2.4-2.5-3.7l17.7-2.9l-19.1,0.1c-3.7-8.1-3.9-17.3-0.6-25.6l25.7,13.3L246,285.7
		c8.8-15.5,28.5-20.9,44-12.1c15.5,8.8,20.9,28.5,12.1,44c-0.8,1.5-1.8,2.9-2.8,4.2c1.4,1.8,2.7,3.8,3.7,5.9l-23,12l24.5-8.2
		c3.5,10.3,1.5,21.7-5.2,30.3c11,14,8.6,34.3-5.4,45.3c-14,11-34.3,8.6-45.3-5.4c-9.2-11.7-9.2-28.2,0-39.9
		C239.4,350,239.4,333.5,248.6,321.8L248.6,321.8z"/>
	<path class="st26" d="M306.2,341.7c0,7.2-2.4,14.3-6.9,20c11,14,8.6,34.3-5.4,45.3c-14,11-34.3,8.6-45.3-5.4
		c-9.2-11.7-9.2-28.2,0-39.9C244.2,356.2,306.2,338.1,306.2,341.7z"/>
</g>
<g class="st23">
	<ellipse class="st24" cx="352.4" cy="441.4" rx="5" ry="6.6"/>
	<path class="st24" d="M356.4,413.2c0.7-1.2,1.1-2.6,1-4c0-3.6-2.3-6.6-5-6.6c-2.8,0-5,3-5,6.6c0,1.4,0.3,2.8,1.1,4
		c-1.4,2.5-1.4,5.6,0,8.1c-1.4,2.5-1.4,5.6,0,8.1c-0.7,1.2-1.1,2.6-1.1,4c0,3.6,2.3,6.6,5,6.6s5-3,5-6.6c0-1.4-0.3-2.8-1-4
		c1.4-2.5,1.4-5.6,0-8.1C357.8,418.7,357.8,415.7,356.4,413.2z"/>
	<ellipse class="st24" cx="352.4" cy="401.1" rx="5" ry="6.6"/>
	<ellipse class="st24" cx="352.4" cy="393" rx="5" ry="6.6"/>
	<path class="st25" d="M333.6,337.9c-0.7-0.9-1.3-1.8-1.9-2.8l13.2-2.2l-14.3,0.1c-2.8-6-2.9-13-0.5-19.1l19.2,10l-17.7-13
		c6.7-11.5,21.4-15.5,32.9-8.8c11.5,6.7,15.5,21.4,8.8,32.9c-0.6,1-1.2,2-2,2.9c1.1,1.4,2,2.8,2.8,4.4l-17.2,8.9l18.3-6.1
		c2.6,7.7,1.1,16.2-3.9,22.6c8.2,10.5,6.4,25.6-4,33.9c-10.5,8.2-25.6,6.4-33.9-4c-6.9-8.8-6.9-21.1,0-29.9
		C326.7,359,326.7,346.6,333.6,337.9L333.6,337.9z"/>
	<path class="st26" d="M376.7,352.8c0,5.4-1.8,10.7-5.2,14.9c8.2,10.5,6.4,25.6-4,33.9c-10.5,8.2-25.6,6.4-33.9-4
		c-6.9-8.8-6.9-21.1,0-29.9C330.4,363.6,376.7,350.1,376.7,352.8z"/>
</g>
<g class="st23">
	<ellipse class="st24" cx="604.8" cy="436.5" rx="6.7" ry="8.8"/>
	<path class="st24" d="M599.5,398.8c-0.9-1.6-1.4-3.5-1.4-5.4c0-4.9,3-8.8,6.7-8.8s6.7,3.9,6.7,8.8c0,1.9-0.5,3.8-1.4,5.4
		c1.9,3.3,1.9,7.4,0,10.8c1.9,3.3,1.9,7.4,0,10.8c0.9,1.6,1.4,3.5,1.4,5.4c0,4.9-3,8.8-6.7,8.8s-6.7-4-6.7-8.8
		c0-1.9,0.5-3.8,1.4-5.4c-1.9-3.3-1.9-7.4,0-10.8C597.6,406.2,597.6,402.2,599.5,398.8z"/>
	<ellipse class="st24" cx="604.8" cy="382.7" rx="6.7" ry="8.8"/>
	<ellipse class="st24" cx="604.8" cy="371.9" rx="6.7" ry="8.8"/>
	<path class="st25" d="M630,298.1c0.9-1.2,1.8-2.4,2.5-3.7l-17.7-2.9l19.1,0.1c3.7-8.1,3.9-17.3,0.6-25.6l-25.7,13.3l23.7-17.4
		c-8.8-15.5-28.5-20.9-44-12.1c-15.5,8.8-20.9,28.5-12.1,44c0.8,1.5,1.8,2.9,2.8,4.2c-1.4,1.8-2.7,3.8-3.7,5.9l23,12l-24.5-8.2
		c-3.5,10.3-1.5,21.7,5.2,30.3c-11,14-8.6,34.3,5.4,45.3c14,11,34.3,8.6,45.3-5.4c9.2-11.7,9.2-28.2,0-39.9
		C639.2,326.3,639.2,309.8,630,298.1L630,298.1z"/>
	<path class="st26" d="M572.4,318c0,7.2,2.4,14.3,6.9,20c-11,14-8.6,34.3,5.4,45.3c14,11,34.3,8.6,45.3-5.4
		c9.2-11.7,9.2-28.2,0-39.9C634.3,332.5,572.4,314.4,572.4,318z"/>
</g>
<g class="st23">
	<ellipse class="st24" cx="539.8" cy="437.8" rx="5" ry="6.6"/>
	<path class="st24" d="M535.8,409.6c-0.7-1.2-1.1-2.6-1-4c0-3.6,2.3-6.6,5-6.6c2.8,0,5,3,5,6.6c0,1.4-0.3,2.8-1.1,4
		c1.4,2.5,1.4,5.6,0,8.1c1.4,2.5,1.4,5.6,0,8.1c0.7,1.2,1.1,2.6,1.1,4c0,3.6-2.3,6.6-5,6.6c-2.8,0-5-3-5-6.6c0-1.4,0.3-2.8,1-4
		c-1.4-2.5-1.4-5.6,0-8.1C534.4,415.2,534.4,412.1,535.8,409.6z"/>
	<ellipse class="st24" cx="539.8" cy="397.5" rx="5" ry="6.6"/>
	<ellipse class="st24" cx="539.8" cy="389.5" rx="5" ry="6.6"/>
	<path class="st25" d="M558.6,334.4c0.7-0.9,1.3-1.8,1.9-2.8l-13.2-2.2l14.3,0.1c2.8-6,2.9-13,0.5-19.1l-19.2,10l17.7-13
		c-6.7-11.5-21.4-15.5-32.9-8.8c-11.5,6.7-15.5,21.4-8.8,32.9c0.6,1,1.2,2,2,2.9c-1.1,1.4-2,2.8-2.8,4.4l17.2,8.9l-18.3-6.1
		c-2.6,7.7-1.1,16.2,3.9,22.6c-8.2,10.5-6.4,25.6,4,33.9c10.5,8.2,25.6,6.4,33.9-4c6.9-8.8,6.9-21.1,0-29.9
		C565.5,355.4,565.5,343.1,558.6,334.4L558.6,334.4z"/>
	<path class="st26" d="M515.5,349.3c0,5.4,1.8,10.7,5.2,14.9c-8.2,10.5-6.4,25.6,4,33.9c10.5,8.2,25.6,6.4,33.9-4
		c6.9-8.8,6.9-21.1,0-29.9C561.8,360.1,515.5,346.6,515.5,349.3z"/>
</g>
<g class="st23">
	<ellipse class="st24" cx="26.5" cy="436.5" rx="6.7" ry="8.8"/>
	<path class="st24" d="M31.8,398.8c0.9-1.6,1.4-3.5,1.4-5.4c0-4.9-3-8.8-6.7-8.8s-6.7,3.9-6.7,8.8c0,1.9,0.5,3.8,1.4,5.4
		c-1.9,3.3-1.9,7.4,0,10.8c-1.9,3.3-1.9,7.4,0,10.8c-0.9,1.6-1.4,3.5-1.4,5.4c0,4.9,3,8.8,6.7,8.8s6.8-3.9,6.8-8.8
		c0-1.9-0.5-3.8-1.4-5.4c1.9-3.3,1.9-7.4,0-10.8C33.7,406.3,33.7,402.2,31.8,398.8L31.8,398.8z"/>
	<ellipse class="st24" cx="26.5" cy="382.7" rx="6.7" ry="8.8"/>
	<ellipse class="st24" cx="26.5" cy="371.9" rx="6.7" ry="8.8"/>
	<path class="st25" d="M1.2,298.1c-0.9-1.2-1.8-2.4-2.5-3.7l17.7-2.9l-19.2,0.2c-3.7-8.1-3.9-17.3-0.6-25.6l25.7,13.3L-1.3,262
		c8.8-15.5,28.6-20.8,44-12c15.5,8.8,20.8,28.6,12,44c-0.8,1.4-1.7,2.8-2.8,4.1c1.4,1.8,2.7,3.8,3.7,5.9l-23,11.9l24.5-8.2
		c3.5,10.3,1.5,21.7-5.2,30.3c11,14,8.6,34.3-5.4,45.3c-14,11-34.3,8.6-45.3-5.4C-8,366.2-8,349.7,1.2,338
		C-8,326.3-8,309.8,1.2,298.1L1.2,298.1z"/>
	<path class="st26" d="M58.9,318c0,7.2-2.4,14.3-6.9,20c11,14,8.6,34.3-5.4,45.3c-14,11-34.3,8.6-45.3-5.4C-8,366.2-8,349.7,1.2,338
		C-3.1,332.5,58.9,314.4,58.9,318z"/>
</g>
<g class="st23">
	<ellipse class="st24" cx="91.5" cy="437.8" rx="5" ry="6.6"/>
	<path class="st24" d="M95.5,409.6c0.7-1.2,1.1-2.6,1-4c0-3.6-2.2-6.6-5-6.6c-2.8,0-5,3-5,6.6c0,1.4,0.4,2.8,1.1,4
		c-1.4,2.5-1.4,5.6,0,8.1c-1.4,2.5-1.4,5.6,0,8.1c-0.7,1.2-1.1,2.6-1.1,4c0,3.6,2.3,6.6,5,6.6c2.8,0,5-3,5-6.6c0-1.4-0.3-2.8-1-4
		c1.4-2.5,1.4-5.6,0-8.1C96.9,415.2,96.9,412.1,95.5,409.6z"/>
	<ellipse class="st24" cx="91.5" cy="397.5" rx="5" ry="6.6"/>
	<ellipse class="st24" cx="91.5" cy="389.5" rx="5" ry="6.6"/>
	<path class="st25" d="M72.6,334.4c-0.7-0.9-1.3-1.8-1.9-2.8l13.2-2.2l-14.3,0.1c-2.8-6-2.9-13-0.5-19.1l19.2,10l-17.7-13
		c6.7-11.5,21.4-15.5,32.9-8.8c11.5,6.7,15.5,21.4,8.8,32.9c-0.6,1-1.2,2-2,2.9c1.1,1.4,2,2.8,2.8,4.4l-17.2,8.9l18.3-6.1
		c2.6,7.7,1.1,16.2-3.9,22.6c8.2,10.5,6.4,25.6-4,33.9c-10.5,8.2-25.6,6.4-33.9-4c-6.9-8.8-6.9-21.1,0-29.9
		C65.8,355.4,65.8,343.1,72.6,334.4L72.6,334.4z"/>
	<path class="st26" d="M115.7,349.3c0,5.4-1.8,10.7-5.2,14.9c8.2,10.5,6.4,25.6-4,33.9c-10.5,8.2-25.6,6.4-33.9-4
		c-6.9-8.8-6.9-21.1,0-29.9C69.4,360.1,115.7,346.6,115.7,349.3z"/>
</g>
<ellipse class="st27" cx="314.4" cy="447.9" rx="324.4" ry="5.2"/>
<path class="st27" d="M468.8,311.2c-2.1-0.4-4.3-0.2-6.3,0.7c-2.4,1.1-5.1,1.1-7.5,0c-2.8-1.2-6.1-1.2-8.9,0.2
	c-0.8,0.4-1.7,0.6-2.6,0.6c-3.6,0-6.6-3.6-7.2-8.4c0.7-0.5,1.3-1.2,1.8-1.9c2.1-3.4,5.4-5.6,9-5.6s6.9,2.2,9,5.5
	c1.3,2.1,3.5,3.3,6,3.3h0.1C465.1,305.5,467.6,307.8,468.8,311.2z"/>
<path class="st27" d="M479.7,296.2l-5.8,3.7l3.6-6.4c-1-0.8-2.2-1.2-3.5-1.2h-0.1c-0.4,0-0.8,0-1.2-0.1l-2,1.2l0.8-1.5
	c-1.4-0.5-2.6-1.4-3.5-2.6l-3.6,2.2l2.2-4c-2.1-2.5-4.8-4-7.9-4c-3.7,0-6.9,2.2-9,5.6c-1.3,2.1-3.5,3.3-6,3.2h-0.2
	c-4,0-7.3,4.6-7.3,10.2s3.3,10.3,7.3,10.3c0.9,0,1.8-0.2,2.6-0.6c2.8-1.4,6-1.4,8.9-0.2c2.4,1.1,5.1,1.1,7.5,0
	c2.8-1.2,6-1.2,8.8,0.2c0.8,0.4,1.6,0.6,2.5,0.6c4,0,7.3-4.6,7.3-10.3C481.3,300.3,480.7,298.1,479.7,296.2z"/>
<path class="st27" d="M221.6,308c-1.5-0.3-3-0.1-4.4,0.5c-1.7,0.7-3.6,0.7-5.3,0c-2-0.9-4.3-0.8-6.2,0.1c-0.5,0.3-1.2,0.4-1.8,0.4
	c-2.5,0-4.6-2.5-5-5.9c0.5-0.4,0.9-0.8,1.3-1.4c1.5-2.4,3.8-3.9,6.3-3.9c2.6,0,4.8,1.5,6.3,3.9c0.9,1.4,2.5,2.3,4.2,2.3h0.1
	C219,304.1,220.8,305.7,221.6,308z"/>
<path class="st27" d="M229.3,297.5l-4.1,2.6l2.5-4.5c-0.7-0.6-1.6-0.9-2.5-0.9h-0.1c-0.3,0-0.6,0-0.8-0.1l-1.4,0.9l0.6-1.1
	c-1-0.3-1.8-1-2.4-1.8l-2.5,1.6l1.6-2.8c-1.3-1.7-3.4-2.7-5.5-2.8c-2.6,0-4.9,1.5-6.3,3.9c-0.9,1.4-2.5,2.3-4.2,2.3H204
	c-2.8,0-5.1,3.2-5.1,7.2c0,4,2.3,7.2,5.1,7.2c0.6,0,1.2-0.2,1.8-0.4c2-0.9,4.2-1,6.2-0.1c0.8,0.4,1.7,0.6,2.7,0.6
	c0.9,0,1.8-0.2,2.6-0.6c2-0.9,4.2-0.8,6.2,0.1c0.5,0.3,1.2,0.4,1.8,0.4c2.8,0,5.1-3.2,5.1-7.2C230.4,300.4,230,298.9,229.3,297.5z"
	/>
<path class="st27" d="M149.6,354.4c1.5-0.3,3-0.1,4.4,0.5c1.7,0.8,3.6,0.8,5.3,0c2-0.9,4.3-0.8,6.2,0.1c0.5,0.3,1.2,0.4,1.8,0.4
	c2.5,0,4.6-2.5,5-5.9c-0.5-0.4-0.9-0.8-1.3-1.4c-1.5-2.4-3.8-3.9-6.3-3.9c-2.6,0-4.8,1.5-6.3,3.9c-0.9,1.4-2.5,2.3-4.2,2.3h-0.1
	C152.2,350.5,150.4,352.1,149.6,354.4z"/>
<path class="st27" d="M141.9,343.9l4.1,2.6l-2.5-4.5c0.7-0.6,1.6-0.9,2.5-0.9h0.1c0.3,0,0.6,0,0.8-0.1l1.4,0.9l-0.6-1.1
	c1-0.3,1.8-1,2.4-1.8l2.5,1.6l-1.5-2.8c1.3-1.7,3.4-2.7,5.5-2.8c2.6,0,4.9,1.5,6.3,3.9c0.9,1.4,2.5,2.3,4.2,2.3h0.1
	c2.8,0,5.1,3.2,5.1,7.2c0,4-2.3,7.2-5.1,7.2c-0.6,0-1.2-0.2-1.8-0.4c-2-1-4.2-1-6.2-0.1c-0.8,0.4-1.7,0.6-2.7,0.6
	c-0.9,0-1.8-0.2-2.6-0.6c-2-0.9-4.2-0.8-6.2,0.1c-0.5,0.3-1.2,0.4-1.8,0.4c-2.8,0-5.1-3.2-5.1-7.2
	C140.8,346.8,141.2,345.3,141.9,343.9z"/>
<path class="st25" d="M403.5,472.7c-0.1-2.5-1.5-4.7-3.6-6l-1.6,3.2l0.1-3.9c-3.9-1.1-7.9,1.1-9,4.9c-1.1,3.9,1.1,7.9,4.9,9
	c3.9,1.1,7.9-1.1,9-4.9C403.4,474.3,403.5,473.5,403.5,472.7z"/>
<path class="st28" d="M22.1,493.5c1.5-2.9-0.2-6.4-2.2-8.9c-2-2.6-4.5-5.2-4.4-8.5c0.1-4.7,5-7.4,9-9.9c2.9-1.8,5.7-4,8.1-6.5
	c1-1,1.9-2.1,2.5-3.3c0.8-1.8,0.8-3.9,0.7-5.9c-0.2-6.7-0.5-13.3-1-20"/>
<path class="st25" d="M42.4,430.1c-0.1-2.5-1.5-4.7-3.6-6l-1.6,3.2l0.1-3.9c-3.9-1.1-7.9,1.1-9,4.9c-1.1,3.9,1.1,7.9,4.9,9
	s7.9-1.1,9-4.9C42.3,431.7,42.4,430.9,42.4,430.1L42.4,430.1z"/>
<path class="st25" d="M25.8,465.3c-4,0.2-7.4-2.9-7.6-6.9c-0.2-3.4,2-6.4,5.3-7.4l0,3l1.7-3.3l0,0c4-0.2,7.4,2.9,7.6,6.9
	C32.9,461.7,29.8,465.1,25.8,465.3L25.8,465.3z"/>
<path class="st25" d="M43.5,453.5c-4,0.2-7.4-2.9-7.7-6.9c-0.2-4,2.9-7.4,6.9-7.7c1.4-0.1,2.8,0.3,4,0.9l-1.3,3.6l2.6-2.6
	c3,2.7,3.2,7.3,0.4,10.3C47.2,452.6,45.3,453.4,43.5,453.5L43.5,453.5z"/>
<path class="st26" d="M41.4,432c-1.7,0.2-3.3,0.7-5,0.8c-1.7,0.1-3.6-0.3-4.6-1.6c-0.5-0.8-0.9-1.6-1.3-2.4
	c-0.5-0.7-1.1-1.3-1.8-1.7c-1.8,3.6-0.4,8,3.2,9.8c3.6,1.8,8,0.4,9.8-3.2c0.3-0.6,0.5-1.2,0.6-1.8C41.9,432,41.6,432,41.4,432z"/>
<path class="st26" d="M43.5,453.5c-4,0.2-7.4-2.9-7.6-6.9c-0.1-1.2,0.2-2.4,0.7-3.5c0.6,0.4,1.1,0.9,1.5,1.5
	c0.4,0.8,0.9,1.6,1.4,2.4c1.1,1.3,3.1,1.8,4.8,1.7c1.8-0.1,3.5-0.6,5.2-0.7c0.2,0,0.5,0,0.7,0C49.5,451.1,46.7,453.3,43.5,453.5z"/>
<path class="st26" d="M25.8,465.3c-4,0.2-7.4-2.9-7.6-6.9c-0.1-1.1,0.2-2.3,0.6-3.3c0.6,0.4,1.1,0.9,1.5,1.5c0.5,0.8,1,1.7,1.6,2.5
	c1.2,1.4,3.3,1.9,5.2,1.8c1.9-0.1,3.6-0.5,5.3-0.6C31.5,463.1,28.8,465.1,25.8,465.3z"/>
<path class="st28" d="M262.6,444.7c-1.5-2.9,0.2-6.4,2.2-8.9c2-2.6,4.5-5.2,4.4-8.5c-0.1-4.7-5-7.4-9-9.9c-2.9-1.8-5.7-4-8.1-6.5
	c-1-1-1.9-2.1-2.5-3.3c-0.8-1.8-0.8-3.9-0.7-5.9c0.2-6.7,0.5-13.3,1-20"/>
<path class="st25" d="M242.4,381.3c0.1-2.5,1.5-4.7,3.6-6l1.6,3.2l0-3.9c0.8-0.2,1.6-0.3,2.4-0.3c4,0.2,7.1,3.6,6.9,7.6
	c-0.2,4-3.6,7.1-7.6,6.9C245.3,388.8,242.2,385.4,242.4,381.3L242.4,381.3z"/>
<path class="st25" d="M255.4,430.7c1.8,3.6,6.2,5,9.8,3.2c3.6-1.8,5-6.2,3.2-9.8c-1.8-3.6-6.2-5-9.8-3.2c-1.6,0.8-2.9,2.2-3.5,3.9
	l4.6,3.7l-5-1.2C254.6,428.5,254.9,429.6,255.4,430.7z"/>
<path class="st25" d="M259,416.5c4,0.2,7.4-2.9,7.6-6.9c0.2-3.4-2-6.5-5.3-7.4l0,3l-1.7-3.3l0,0c-4-0.2-7.4,2.9-7.6,6.9
	c0,0.8,0.1,1.7,0.3,2.5C253.3,414.3,255.9,416.4,259,416.5z"/>
<path class="st25" d="M241.3,404.7c4,0.2,7.4-2.9,7.6-6.9c0.2-4-2.9-7.4-6.9-7.6c-1.4-0.1-2.8,0.3-4,0.9l1.3,3.6l-2.7-2.5
	c-1.4,1.3-2.3,3.1-2.4,5c0,0.7,0,1.4,0.2,2C235.3,402.3,238.1,404.6,241.3,404.7z"/>
<path class="st26" d="M243.4,383.3c1.7,0.2,3.3,0.7,5,0.8c1.7,0.1,3.6-0.3,4.6-1.6c0.5-0.8,0.9-1.6,1.3-2.4c0.5-0.7,1.1-1.3,1.8-1.7
	c1.8,3.6,0.4,8-3.2,9.8c-3.6,1.8-8,0.4-9.8-3.2c-0.3-0.6-0.5-1.2-0.6-1.8C242.8,383.2,243.1,383.3,243.4,383.3z"/>
<path class="st26" d="M241.3,404.7c4,0.2,7.4-2.9,7.6-7c0.1-1.2-0.2-2.4-0.7-3.4c-0.6,0.4-1.1,0.9-1.5,1.5c-0.4,0.8-0.9,1.6-1.4,2.4
	c-1.1,1.3-3.1,1.8-4.8,1.7c-1.8-0.1-3.5-0.6-5.2-0.7c-0.2,0-0.5,0-0.7,0C235.3,402.3,238.1,404.6,241.3,404.7z"/>
<path class="st26" d="M259,416.5c4,0.2,7.4-2.9,7.6-6.9c0.1-1.1-0.2-2.3-0.6-3.3c-0.6,0.4-1.1,0.9-1.5,1.5c-0.5,0.8-1,1.7-1.6,2.5
	c-1.2,1.4-3.3,1.9-5.2,1.8c-1.9-0.1-3.6-0.5-5.3-0.6C253.3,414.3,255.9,416.4,259,416.5z"/>
<path class="st26" d="M255.4,430.7c1.9,3.6,6.3,5,9.8,3.1c3.3-1.7,4.8-5.6,3.5-9c-0.6,0.4-1.1,0.9-1.6,1.4c-0.7,0.8-1.2,1.8-2,2.6
	c-1.5,1.5-3.9,2.1-6,2.1C257.9,430.9,256.6,430.8,255.4,430.7z"/>
<path class="st28" d="M485.1,491.2c1.5-2.9-0.2-6.4-2.2-8.9c-2-2.6-4.5-5.2-4.4-8.5c0.1-4.7,5-7.4,9-9.9c2.9-1.8,5.7-4,8.1-6.5
	c1-1,1.9-2.1,2.5-3.3c0.8-1.8,0.8-3.9,0.7-5.9c-0.2-6.7-0.5-13.3-1-20"/>
<path class="st25" d="M505.3,427.8c-0.1-2.5-1.5-4.7-3.6-6L500,425l0-3.9c-0.8-0.2-1.6-0.3-2.4-0.3c-4,0.2-7.1,3.6-6.9,7.6
	s3.6,7.1,7.6,6.9C502.4,435.2,505.5,431.8,505.3,427.8C505.3,427.8,505.3,427.8,505.3,427.8L505.3,427.8z"/>
<path class="st25" d="M492.3,477.1c-1.8,3.6-6.2,5-9.8,3.1c-3.6-1.8-5-6.2-3.1-9.8s6.2-5,9.8-3.1c1.6,0.8,2.9,2.2,3.5,3.9l-4.6,3.7
	l5-1.2C493.1,474.9,492.8,476.1,492.3,477.1z"/>
<path class="st25" d="M488.7,462.9c-4,0.2-7.4-2.9-7.6-6.9c-0.2-3.4,2-6.5,5.3-7.4l0,3l1.7-3.3l0,0c4-0.2,7.4,2.9,7.6,6.9
	C495.8,459.4,492.7,462.8,488.7,462.9C488.7,463,488.7,463,488.7,462.9L488.7,462.9z"/>
<path class="st25" d="M506.4,451.2c-4,0.2-7.4-2.9-7.6-6.9c-0.2-4,2.9-7.4,6.9-7.6c1.4-0.1,2.8,0.3,4,0.9l-1.3,3.6l2.7-2.5
	c1.4,1.3,2.3,3.1,2.4,5c0,0.7,0,1.4-0.2,2C512.4,448.8,509.7,451,506.4,451.2z"/>
<path class="st26" d="M504.3,429.7c-1.7,0.2-3.3,0.7-5,0.8c-1.7,0.1-3.6-0.3-4.6-1.6c-0.5-0.8-0.9-1.6-1.3-2.4
	c-0.5-0.7-1.1-1.3-1.8-1.7c-1.8,3.6-0.4,8,3.2,9.8c3.6,1.8,8,0.4,9.8-3.2c0.3-0.6,0.5-1.2,0.6-1.8
	C504.9,429.7,504.6,429.7,504.3,429.7z"/>
<path class="st26" d="M506.4,451.2c-4,0.2-7.4-2.9-7.6-7c-0.1-1.2,0.2-2.4,0.7-3.4c0.6,0.4,1.1,0.9,1.5,1.5c0.4,0.8,0.9,1.6,1.4,2.4
	c1.1,1.3,3.1,1.8,4.8,1.7c1.8-0.1,3.5-0.6,5.2-0.7c0.2,0,0.5,0,0.7,0C512.4,448.7,509.7,451,506.4,451.2z"/>
<path class="st26" d="M488.7,462.9c-4,0.2-7.4-2.9-7.6-6.9c-0.1-1.2,0.2-2.3,0.6-3.4c0.6,0.4,1.1,0.9,1.5,1.5
	c0.6,0.8,0.9,1.7,1.6,2.5c1.2,1.4,3.3,1.9,5.2,1.8s3.6-0.5,5.3-0.6C494.4,460.7,491.8,462.8,488.7,462.9z"/>
</svg>
