<?xml version="1.0" encoding="utf-8"?>
<!-- Generator: Adobe Illustrator 23.0.3, SVG Export Plug-In . SVG Version: 6.00 Build 0)  -->
<svg version="1.1" id="Layer_1" xmlns="http://www.w3.org/2000/svg" xmlns:xlink="http://www.w3.org/1999/xlink" x="0px" y="0px"
	 viewBox="0 0 451.2 394.5" style="enable-background:new 0 0 451.2 394.5;" xml:space="preserve">
<style type="text/css">
	.st0{fill:#F8F9FD;}
	.st1{fill:#FFFFFF;}
	.st2{fill:none;stroke:#3F3D56;stroke-width:5;stroke-linecap:round;stroke-miterlimit:10;}
	.st3{fill:#0468AD;}
	.st4{fill:#F3F7FA;}
	.st5{fill:#15D297;}
	.st6{fill:#FF2B86;}
	.st7{fill:#5948E6;}
	.st8{fill:none;stroke:#3F3D56;stroke-width:4;stroke-linecap:round;stroke-miterlimit:10;}
	.st9{fill:url(#Path_2217_1_);}
	.st10{fill:url(#Path_2218_1_);}
	.st11{fill:url(#Path_2219_1_);}
	.st12{fill:none;stroke:#FFA910;stroke-width:3;stroke-linecap:round;stroke-miterlimit:10;}
	.st13{fill:none;stroke:#FFFFFF;stroke-width:3;stroke-linecap:round;stroke-miterlimit:10;}
	.st14{fill:url(#Ellipse_151_1_);}
	.st15{fill:url(#Ellipse_152_1_);}
	.st16{fill:url(#Rectangle_466_1_);}
	.st17{fill:url(#Path_347_1_);}
	.st18{fill:url(#Path_2212_1_);}
</style>
<g id="Group_1261" transform="translate(903.364 -4107.769)">
	<path id="Path_2226" class="st0" d="M-677.8,4488.9c124.6,0,225.6,3,225.6,6.6c0,3.7-101,6.6-225.6,6.6c-29.8,0-73.3-0.5-100.4-0.8
		c-14.2-0.2-23.8-0.3-23.8-0.3s-101.4-3.2-101.4-5.6C-903.4,4491.9-802.4,4488.9-677.8,4488.9z"/>
	<path id="Path_2213" class="st1" d="M-597.6,4204.8v279.1c0,6.2-5.1,11.3-11.3,11.3h-120.5c-6.2,0-11.3-5.1-11.3-11.3c0,0,0,0,0,0
		v-279.1c0-6.2,5.1-11.3,11.3-11.3c0,0,0,0,0,0h18.7v2.4c0,7.7,6.3,14,14,14h55c7.7,0,14-6.3,14-14c0,0,0,0,0,0v-2.4h18.7
		C-602.7,4193.5-597.6,4198.5-597.6,4204.8z"/>
	<g id="Group_1252">
		<path id="Path_2214" class="st2" d="M-747.5,4204.4v-6.7c0-6.2,5.1-11.3,11.3-11.3h120.5c6.2,0,11.3,5.1,11.3,11.3v279.1
			c0,6.2-5.1,11.3-11.3,11.3h-120.5c-6.2,0-11.3-5.1-11.3-11.3v-251.8"/>
		<line id="Line_26" class="st2" x1="-747.5" y1="4217.5" x2="-747.5" y2="4212.2"/>
	</g>
	<g id="Group_1254">
		<g id="Group_1253">
			<path id="Rectangle_684" class="st3" d="M-625.1,4384.8h104.5c6.4,0,11.5,5.2,11.5,11.5v68.6c0,6.4-5.2,11.5-11.5,11.5h-104.5
				c-6.4,0-11.5-5.2-11.5-11.5v-68.6C-636.6,4389.9-631.4,4384.8-625.1,4384.8z"/>
			<g id="Group_1251">
				<path id="Path_323" class="st4" d="M-549.4,4430.6c0,5.2-1.7,10.3-4.9,14.4l-18.1-14.8l9.6-20.8
					C-554.6,4413.3-549.4,4421.5-549.4,4430.6z"/>
				<path id="Path_324" class="st5" d="M-572.4,4430.1l-2,23.8c-7.6-0.5-14.5-4.7-18.5-11.3L-572.4,4430.1z"/>
				<path id="Path_325" class="st6" d="M-562.8,4409.4l-9.6,20.8l-20.5,12.6c-6.7-11.1-3.1-25.5,8-32.2
					C-578.2,4406.5-569.9,4406-562.8,4409.4L-562.8,4409.4z"/>
				<path id="Path_326" class="st7" d="M-554.3,4444.9c-4.4,5.7-11.3,9.1-18.5,9.1c-0.5,0-1.1,0-1.6-0.1l2-23.8L-554.3,4444.9z"/>
			</g>
		</g>
		<line id="Line_27" class="st8" x1="-646.2" y1="4404.6" x2="-646.2" y2="4399.9"/>
		<path id="Path_2215" class="st8" d="M-646.2,4393.8v-4.9c0-6.4,5.2-11.5,11.5-11.5c0,0,0,0,0,0h104.5c6.4,0,11.5,5.2,11.5,11.5
			c0,0,0,0,0,0v68.6c0,6.4-5.2,11.5-11.5,11.5c0,0,0,0,0,0h-104.5c-6.4,0-11.5-5.2-11.5-11.5c0,0,0,0,0,0v-47.4"/>
	</g>
	<g id="Group_1258">
		<g id="Group_1257">
			<path id="Rectangle_685" class="st3" d="M-825.4,4236h104.5c6.4,0,11.5,5.2,11.5,11.5v68.6c0,6.4-5.2,11.5-11.5,11.5h-104.5
				c-6.4,0-11.5-5.2-11.5-11.5v-68.6C-836.9,4241.2-831.7,4236-825.4,4236z"/>
			<g id="Group_1256">
				<g id="Group_1255">
					<path id="Rectangle_686" class="st1" d="M-750.9,4253.6h11.1c0.7,0,1.3,0.6,1.3,1.3v47c0,0.7-0.6,1.3-1.3,1.3h-11.1
						c-0.7,0-1.3-0.6-1.3-1.3v-47C-752.3,4254.2-751.7,4253.6-750.9,4253.6z"/>
					<path id="Rectangle_687" class="st1" d="M-769.2,4270h11.1c0.7,0,1.3,0.6,1.3,1.3v30.6c0,0.7-0.6,1.3-1.3,1.3h-11.1
						c-0.7,0-1.3-0.6-1.3-1.3v-30.6C-770.5,4270.6-769.9,4270-769.2,4270z"/>
					<path id="Rectangle_688" class="st1" d="M-788.2,4283h11.1c0.7,0,1.3,0.6,1.3,1.3v17.6c0,0.7-0.6,1.3-1.3,1.3h-11.1
						c-0.7,0-1.3-0.6-1.3-1.3v-17.6C-789.5,4283.6-788.9,4283-788.2,4283z"/>
					<path id="Rectangle_689" class="st1" d="M-806.4,4290.8h11.1c0.7,0,1.3,0.6,1.3,1.3v9.5c0,0.7-0.6,1.3-1.3,1.3h-11.1
						c-0.7,0-1.3-0.6-1.3-1.3v-9.5C-807.7,4291.4-807.1,4290.8-806.4,4290.8z"/>
				</g>
				<path id="Rectangle_690" class="st1" d="M-806.6,4307.4h67c0.7,0,1.3,0.6,1.3,1.3l0,0c0,0.7-0.6,1.3-1.3,1.3h-67
					c-0.7,0-1.3-0.6-1.3-1.3l0,0C-808,4308-807.3,4307.4-806.6,4307.4z"/>
			</g>
		</g>
		<line id="Line_28" class="st8" x1="-844.9" y1="4257.2" x2="-844.9" y2="4252.5"/>
		<path id="Path_2216" class="st8" d="M-844.9,4246.4v-4.9c0-6.4,5.2-11.5,11.5-11.5c0,0,0,0,0,0h104.5c6.4,0,11.5,5.2,11.5,11.5
			v68.6c0,6.4-5.2,11.5-11.5,11.5h-104.5c-6.4,0-11.5-5.2-11.5-11.5c0,0,0,0,0,0v-47.4"/>
	</g>
	<g id="Group_1260">
		<linearGradient id="Path_2217_1_" gradientUnits="userSpaceOnUse" x1="-696.0968" y1="4329.0664" x2="-675.854" y2="4329.0664">
			<stop  offset="0" style="stop-color:#FF9520"/>
			<stop  offset="0.3366" style="stop-color:#FF9821"/>
			<stop  offset="0.5734" style="stop-color:#FFA126"/>
			<stop  offset="0.7796" style="stop-color:#FFB12D"/>
			<stop  offset="0.9673" style="stop-color:#FFC637"/>
			<stop  offset="1" style="stop-color:#FFCB39"/>
		</linearGradient>
		<path id="Path_2217" class="st9" d="M-681.4,4337.3l5.3,7.6h-9.3l-5.3-7.6l-5.1-7.3c-0.3-0.5-0.3-1.1,0-1.5l10.7-15.2h9.3
			l-10.7,15.2c-0.3,0.5-0.3,1.1,0,1.5L-681.4,4337.3z"/>
		<g id="Group_1259">
			<linearGradient id="Path_2218_1_" gradientUnits="userSpaceOnUse" x1="-680.7449" y1="4329.0674" x2="-646.939" y2="4329.0674">
				<stop  offset="0" style="stop-color:#FF9520"/>
				<stop  offset="0.3366" style="stop-color:#FF9821"/>
				<stop  offset="0.5734" style="stop-color:#FFA126"/>
				<stop  offset="0.7796" style="stop-color:#FFB12D"/>
				<stop  offset="0.9673" style="stop-color:#FFC637"/>
				<stop  offset="1" style="stop-color:#FFCB39"/>
			</linearGradient>
			<path id="Path_2218" class="st10" d="M-646.9,4318.1v18.4c0,4.6-3.8,8.3-8.4,8.3c0,0,0,0,0,0h-14.5l-5.3-7.6l-5.4-7.6
				c-0.3-0.4-0.3-0.9,0-1.2l10.7-15.1h9.3l-10.7,15.1c-0.3,0.4-0.3,0.9,0,1.2l5,7.1c0.2,0.3,0.5,0.5,0.9,0.5h7.2
				c2,0,3.5-1.6,3.5-3.5v-15.6l3.8,2.6L-646.9,4318.1z"/>
		</g>
		<linearGradient id="Path_2219_1_" gradientUnits="userSpaceOnUse" x1="-654.57" y1="4315.6865" x2="-646.939" y2="4315.6865">
			<stop  offset="0" style="stop-color:#FF9520"/>
			<stop  offset="0.3366" style="stop-color:#FF9821"/>
			<stop  offset="0.5734" style="stop-color:#FFA126"/>
			<stop  offset="0.7796" style="stop-color:#FFB12D"/>
			<stop  offset="0.9673" style="stop-color:#FFC637"/>
			<stop  offset="1" style="stop-color:#FFCB39"/>
		</linearGradient>
		<path id="Path_2219" class="st11" d="M-646.9,4313.3v2.1l-3.8,2.7l-3.8-2.6v-2.2H-646.9z"/>
	</g>
	<path id="Path_2220" class="st8" d="M-696.9,4111.7c0.4-0.1,0.8-0.3,1.1-0.4c3-1,6-1.5,9.2-1.5c15.7,0,28.4,12.7,28.4,28.4l0,0
		c0,15.7-12.7,28.4-28.4,28.4h0c-15.7,0-28.4-12.7-28.4-28.4l0,0c0-9.2,4.5-17.9,12-23.2"/>
	<path id="Path_2221" class="st8" d="M-521.6,4297.2c0,0.4,0,0.8,0,1.2c-0.1,3.1-0.6,6.2-1.7,9.1c-5.3,14.8-21.6,22.5-36.4,17.1
		c0,0,0,0,0,0c-14.8-5.3-22.5-21.6-17.1-36.4h0c5.3-14.8,21.6-22.5,36.4-17.1c8.7,3.1,15.3,10.3,17.8,19.2"/>
	<path id="Path_2222" class="st8" d="M-589.6,4157.5c0-0.5,0.1-1.1,0.2-1.6c0.5-4.1,1.6-8.1,3.4-11.9c9-18.9,31.6-26.9,50.5-17.9
		c18.9,9,26.9,31.6,17.9,50.5c0,0,0,0,0,0c-9,18.9-31.6,26.9-50.5,17.9c0,0,0,0,0,0c-11.1-5.3-19-15.7-21.1-27.8"/>
	<path id="Path_2223" class="st12" d="M-732,4212.2v-4c0-3.9,3.2-7.1,7.1-7.1c0,0,0,0,0,0"/>
	<path id="Path_2224" class="st13" d="M-831.3,4252.8v-4c0-3.9,3.2-7.1,7.1-7.1c0,0,0,0,0,0"/>
	<path id="Path_2225" class="st13" d="M-630,4402.5v-4c0-3.9,3.2-7.1,7.1-7.1c0,0,0,0,0,0"/>
	<g id="Group_1249">
		<linearGradient id="Ellipse_151_1_" gradientUnits="userSpaceOnUse" x1="-558.522" y1="4292.3682" x2="-552.73" y2="4292.3682">
			<stop  offset="0" style="stop-color:#FF9520"/>
			<stop  offset="0.3366" style="stop-color:#FF9821"/>
			<stop  offset="0.5734" style="stop-color:#FFA126"/>
			<stop  offset="0.7796" style="stop-color:#FFB12D"/>
			<stop  offset="0.9673" style="stop-color:#FFC637"/>
			<stop  offset="1" style="stop-color:#FFCB39"/>
		</linearGradient>
		<circle id="Ellipse_151" class="st14" cx="-555.6" cy="4292.4" r="2.9"/>
		<linearGradient id="Ellipse_152_1_" gradientUnits="userSpaceOnUse" x1="-547.278" y1="4303.6118" x2="-541.486" y2="4303.6118">
			<stop  offset="0" style="stop-color:#FF9520"/>
			<stop  offset="0.3366" style="stop-color:#FF9821"/>
			<stop  offset="0.5734" style="stop-color:#FFA126"/>
			<stop  offset="0.7796" style="stop-color:#FFB12D"/>
			<stop  offset="0.9673" style="stop-color:#FFC637"/>
			<stop  offset="1" style="stop-color:#FFCB39"/>
		</linearGradient>
		<circle id="Ellipse_152" class="st15" cx="-544.4" cy="4303.6" r="2.9"/>
		
			<linearGradient id="Rectangle_466_1_" gradientUnits="userSpaceOnUse" x1="-558.155" y1="4297.9009" x2="-542.0159" y2="4297.9009">
			<stop  offset="0" style="stop-color:#FF9520"/>
			<stop  offset="0.3366" style="stop-color:#FF9821"/>
			<stop  offset="0.5734" style="stop-color:#FFA126"/>
			<stop  offset="0.7796" style="stop-color:#FFB12D"/>
			<stop  offset="0.9673" style="stop-color:#FFC637"/>
			<stop  offset="1" style="stop-color:#FFCB39"/>
		</linearGradient>
		<path id="Rectangle_466" class="st16" d="M-542.4,4290.2L-542.4,4290.2c0.5,0.5,0.5,1.4,0,1.9l-13.4,13.4c-0.5,0.5-1.4,0.5-1.9,0
			c0,0,0,0,0,0l0,0c-0.5-0.5-0.5-1.4,0-1.9c0,0,0,0,0,0l13.4-13.4C-543.8,4289.7-542.9,4289.7-542.4,4290.2z"/>
	</g>
	<linearGradient id="Path_347_1_" gradientUnits="userSpaceOnUse" x1="-566.7899" y1="4160.251" x2="-536.6104" y2="4160.251">
		<stop  offset="0" style="stop-color:#FF9520"/>
		<stop  offset="0.3366" style="stop-color:#FF9821"/>
		<stop  offset="0.5734" style="stop-color:#FFA126"/>
		<stop  offset="0.7796" style="stop-color:#FFB12D"/>
		<stop  offset="0.9673" style="stop-color:#FFC637"/>
		<stop  offset="1" style="stop-color:#FFCB39"/>
	</linearGradient>
	<path id="Path_347" class="st17" d="M-537.8,4146.6l-3.9,0v-1.4h-20v1.4h-3.9c-0.7,0-1.2,0.5-1.2,1.2v5.3c-0.1,2.3,2.9,4.3,5.1,4.9
		v0.2c0,4.1,2.4,7.8,6.2,9.4c0.6,0.3,0.9,0.8,0.9,1.4c0,0.6-0.4,1.2-1,1.4c-2.5,0.9-4.5,2.6-5.9,4.9h3.2c1.6-2,4-3.1,6.5-3
		c2.5-0.1,5,1,6.5,3h3.2c-1.3-2.3-3.4-4-5.9-4.9c-0.6-0.2-1-0.8-1-1.4c0-0.6,0.3-1.2,0.9-1.4c3.8-1.6,6.3-5.3,6.2-9.4v-0.1
		c2.2-0.6,5.2-2.6,5.1-4.9v-5.3C-536.6,4147.2-537.1,4146.6-537.8,4146.6C-537.8,4146.6-537.8,4146.6-537.8,4146.6L-537.8,4146.6z
		 M-561.7,4155.5c0,0-3-1.5-3-2.6v-3.5c0-0.4,0.3-0.6,0.6-0.7h1.8c0.3,0,0.6,0.3,0.6,0.6l0,0l0,0L-561.7,4155.5z M-544.2,4158.2
		c0,4.2-3.4,7.6-7.5,7.6c-4.2,0-7.6-3.4-7.5-7.6v-9.3c0-0.7,0.6-1.3,1.3-1.3c0,0,0,0,0,0h12.5c0.7,0,1.3,0.6,1.3,1.3L-544.2,4158.2
		L-544.2,4158.2z M-538.7,4152.9c0,1.1-2.1,2.1-3.1,2.6v-6.2c0-0.3,0.3-0.6,0.6-0.6c0,0,0,0,0,0h1.8c0.4,0,0.6,0.3,0.6,0.6l0,0
		V4152.9z"/>
	<linearGradient id="Path_2212_1_" gradientUnits="userSpaceOnUse" x1="-698.9183" y1="4138.2026" x2="-674.3242" y2="4138.2026">
		<stop  offset="0" style="stop-color:#FF9520"/>
		<stop  offset="0.3366" style="stop-color:#FF9821"/>
		<stop  offset="0.5734" style="stop-color:#FFA126"/>
		<stop  offset="0.7796" style="stop-color:#FFB12D"/>
		<stop  offset="0.9673" style="stop-color:#FFC637"/>
		<stop  offset="1" style="stop-color:#FFCB39"/>
	</linearGradient>
	<path id="Path_2212" class="st18" d="M-675.5,4148.4c-0.1,0-0.3,0-0.4-0.1l-4.3-3l-0.7-0.5c-0.6-0.5-0.8-1.3-0.4-2
		c0.2-0.3,0.3-0.5,0.5-0.8c0.6-1.2,0.9-2.5,0.9-3.8c0-4.6-3.8-8.4-8.4-8.4c-0.2,0-0.3,0-0.5,0c-4.2,0.3-7.6,3.6-7.8,7.8
		c-0.3,4.6,3.2,8.6,7.8,8.9c0.2,0,0.4,0,0.5,0c1.5,0,2.9-0.4,4.2-1.1l0.2-0.1c0.4-0.2,0.9-0.2,1.3,0.1l0.5,0.4
		c0.3,0.2,0.4,0.7,0.2,1c0,0,0,0,0,0c0,0.1-0.1,0.1-0.2,0.2l0,0c-1.9,1.4-4.2,2.1-6.5,2c-5.8-0.2-10.5-5-10.4-10.9
		c0.1-5.9,4.9-10.7,10.9-10.6c0,0,0,0,0,0c0.2,0,0.5,0,0.7,0c5.2,0.4,9.3,4.5,9.8,9.7c0.2,1.9-0.1,3.8-0.9,5.5
		c-0.2,0.4-0.1,0.9,0.3,1.2l3.3,2.3c0.5,0.4,0.7,1.2,0.3,1.7c0,0,0,0,0,0C-674.8,4148.2-675.1,4148.3-675.5,4148.4z"/>
</g>
</svg>
