<svg xmlns="http://www.w3.org/2000/svg" xmlns:xlink="http://www.w3.org/1999/xlink" width="845.545" height="530.231" viewBox="0 0 845.545 530.231">
  <defs>
    <linearGradient id="linear-gradient" x1="0.5" x2="0.5" y2="1" gradientUnits="objectBoundingBox">
      <stop offset="0" stop-color="#a2f6ff"/>
      <stop offset="1" stop-color="#a0cbfe"/>
    </linearGradient>
    <linearGradient id="linear-gradient-3" y1="0.5" x2="1" y2="0.5" gradientUnits="objectBoundingBox">
      <stop offset="0" stop-color="#34dfae"/>
      <stop offset="1" stop-color="#03ca8a"/>
    </linearGradient>
    <linearGradient id="linear-gradient-4" x1="1" y1="0.5" x2="0" y2="0.5" gradientUnits="objectBoundingBox">
      <stop offset="0" stop-color="#ffa333"/>
      <stop offset="1" stop-color="#ff8e55"/>
    </linearGradient>
    <linearGradient id="linear-gradient-8" x1="1" y1="0.5" x2="0" y2="0.5" gradientUnits="objectBoundingBox">
      <stop offset="0" stop-color="#addcff"/>
      <stop offset="1" stop-color="#8ac3ff"/>
    </linearGradient>
    <linearGradient id="linear-gradient-9" x1="0.783" y1="0.718" x2="0.067" y2="-0.039" gradientUnits="objectBoundingBox">
      <stop offset="0" stop-color="#ffe8e0"/>
      <stop offset="1" stop-color="#ffb5aa"/>
    </linearGradient>
    <linearGradient id="linear-gradient-10" x1="0.938" y1="0.84" x2="0.148" y2="0.227" xlink:href="#linear-gradient-9"/>
    <linearGradient id="linear-gradient-11" y1="0.5" x2="1" y2="0.5" gradientUnits="objectBoundingBox">
      <stop offset="0" stop-color="#432929"/>
      <stop offset="1" stop-color="#966565"/>
    </linearGradient>
    <linearGradient id="linear-gradient-12" x1="0.543" y1="0.792" x2="-0.21" y2="-0.632" xlink:href="#linear-gradient-9"/>
    <linearGradient id="linear-gradient-13" x1="0.918" y1="0.553" x2="0.078" y2="0.186" xlink:href="#linear-gradient-9"/>
    <linearGradient id="linear-gradient-14" x1="1" y1="0.5" x2="0" y2="0.5" xlink:href="#linear-gradient-9"/>
    <linearGradient id="linear-gradient-15" y1="0.5" x2="1" y2="0.5" gradientUnits="objectBoundingBox">
      <stop offset="0" stop-color="#34dfae"/>
      <stop offset="0.743" stop-color="#03ca8a"/>
    </linearGradient>
    <linearGradient id="linear-gradient-16" x1="0.31" y1="0.591" x2="0.989" y2="0.442" gradientUnits="objectBoundingBox">
      <stop offset="0" stop-color="#f67471"/>
      <stop offset="1" stop-color="#eb4d49"/>
    </linearGradient>
    <linearGradient id="linear-gradient-17" x1="0.316" y1="0.59" x2="0.977" y2="0.348" xlink:href="#linear-gradient-16"/>
    <linearGradient id="linear-gradient-18" x1="1" y1="0.5" x2="0" y2="0.5" gradientUnits="objectBoundingBox">
      <stop offset="0.216" stop-color="#432929"/>
      <stop offset="1" stop-color="#966565"/>
    </linearGradient>
    <linearGradient id="linear-gradient-19" x1="0.094" y1="0.855" x2="0.671" y2="0.102" xlink:href="#linear-gradient-9"/>
    <linearGradient id="linear-gradient-21" x1="0.139" y1="0.006" x2="0.756" y2="1.016" xlink:href="#linear-gradient-18"/>
    <linearGradient id="linear-gradient-22" x1="-0.14" y1="0.82" x2="1.061" y2="0.317" gradientUnits="objectBoundingBox">
      <stop offset="0" stop-color="#34dfae"/>
      <stop offset="0.829" stop-color="#03ca8a"/>
    </linearGradient>
    <linearGradient id="linear-gradient-23" x1="-0.362" y1="0.581" x2="0.612" y2="0.446" gradientUnits="objectBoundingBox">
      <stop offset="0" stop-color="#f0f5fb"/>
      <stop offset="0.189" stop-color="#edf2f8"/>
      <stop offset="0.325" stop-color="#e5e9ee"/>
      <stop offset="0.444" stop-color="#d7dadf"/>
      <stop offset="0.553" stop-color="#c3c5c8"/>
      <stop offset="0.655" stop-color="#a9abac"/>
      <stop offset="0.72" stop-color="#969696"/>
    </linearGradient>
    <linearGradient id="linear-gradient-24" x1="0.2" y1="0.584" x2="0.825" y2="0.376" xlink:href="#linear-gradient-3"/>
  </defs>
  <g id="Group_1164" data-name="Group 1164" transform="translate(-856.868 -251)">
    <g id="Group_1124" data-name="Group 1124" transform="translate(901 364)">
      <path id="Path_981" data-name="Path 981" d="M-2823.952,762.306a154.236,154.236,0,0,1-34.639,97.543,155.639,155.639,0,0,1-24.854,24.4q-3.969,3.113-8.154,5.958c0,.011-.006.011-.011.011q-4.334,2.974-8.871,5.634c-.433.254-.867.508-1.3.757q-.582.337-1.162.658c-.428.243-.854.48-1.288.717l-.005.005h-.006a.193.193,0,0,1-.046.024c-.728.4-1.468.8-2.207,1.19-.475.249-.948.5-1.428.746q-6.4,3.311-13.118,6.015a153.861,153.861,0,0,1-37.48,9.83q-2.238.3-4.5.526h-.006l-.728.07h-.006c-.9.092-1.8.167-2.71.236s-1.82.133-2.733.191q-3.858.243-7.732.289c-.629.005-1.266.011-1.9.011q-1.135,0-2.271-.017l-.907-.018c-.133,0-.266-.005-.393-.005-.341-.006-.681-.017-1.023-.029-1.41-.041-2.826-.1-4.236-.185-.636-.035-1.266-.075-1.9-.116-.7-.052-1.393-.1-2.092-.162l-1.619-.138c-.075-.012-.15-.017-.225-.023-.387-.04-.775-.075-1.161-.115l-.642-.069c-1.156-.122-2.306-.26-3.461-.41-.006.005-.006.005-.006,0-.676-.093-1.352-.179-2.029-.277-.069-.006-.138-.018-.213-.029-.786-.116-1.572-.231-2.358-.359H-3248.81q-10.17,1.395-20.439,1.794-4.082.159-8.167.159-10.306,0-20.358-.983c-1.151-.11-2.3-.237-3.433-.364-.237-.029-.468-.058-.7-.081l-1.549-.19c-.7-.087-1.392-.18-2.086-.271-.636-.087-1.271-.179-1.907-.272-.139-.017-.271-.034-.4-.058-.9-.133-1.8-.277-2.694-.416-.653-.1-1.306-.214-1.959-.324-.947-.162-1.9-.33-2.837-.5-.139-.023-.272-.052-.41-.075a.024.024,0,0,1-.018-.005c-1.041-.191-2.086-.393-3.121-.6-1.734-.352-3.455-.729-5.178-1.122-.514-.115-1.022-.237-1.531-.358-1.525-.359-3.051-.74-4.571-1.133-.538-.139-1.069-.283-1.607-.428s-1.063-.289-1.6-.439l-.19-.052q-1.344-.374-2.688-.774c-.809-.232-1.612-.474-2.415-.723-.526-.156-1.052-.318-1.572-.485-.353-.115-.705-.226-1.058-.341-.786-.248-1.566-.508-2.352-.768a206.963,206.963,0,0,1-45.28-21.465,208.052,208.052,0,0,1-20.322-14.63,208.783,208.783,0,0,1-63.654-88.647q-1.833-4.907-3.425-9.924a208.029,208.029,0,0,1-9.7-63.183c0-115.218,93.4-208.616,208.615-208.616a207.922,207.922,0,0,1,147.16,60.766q2.46,2.449,4.84,4.979,4.152,4.412,8.044,9.067a208.261,208.261,0,0,1,32.46,53.321q3.328,7.948,6.01,16.221,1-.853,2.016-1.686,1.069-.878,2.15-1.736,2.459-1.949,4.988-3.789a154.177,154.177,0,0,1,91.01-29.543A154.807,154.807,0,0,1-2823.952,762.306Z" transform="translate(3486.032 -499.89)" fill="url(#linear-gradient)"/>
      <circle id="Ellipse_555" data-name="Ellipse 555" cx="47.675" cy="47.675" r="47.675" transform="translate(392.984 2.059)" fill="url(#linear-gradient)"/>
    </g>
    <ellipse id="Ellipse_565" data-name="Ellipse 565" cx="61.509" cy="11.942" rx="61.509" ry="11.942" transform="translate(1324.82 696.686)" opacity="0.04"/>
    <g id="Group_1126" data-name="Group 1126" transform="translate(989.948 709.608)">
      <path id="Path_983" data-name="Path 983" d="M-2339.284,4522.273q-4.081.158-8.167.158-10.307,0-20.359-.982c-1.15-.11-2.294-.236-3.433-.364-.237-.028-.468-.058-.7-.081l-1.549-.191c-.7-.087-1.392-.18-2.086-.271-.636-.086-1.271-.179-1.907-.272-.139-.018-.271-.035-.4-.058-.9-.134-1.8-.278-2.693-.417q-.98-.156-1.959-.323c-.948-.162-1.9-.33-2.837-.5-.139-.022-.272-.052-.41-.075a.021.021,0,0,1-.018-.006c-1.04-.19-2.086-.393-3.121-.6-1.734-.352-3.456-.728-5.177-1.121-.515-.116-1.023-.237-1.531-.358q-2.288-.538-4.571-1.133c-.538-.139-1.069-.284-1.607-.428s-1.063-.289-1.6-.439l-.191-.051q-1.344-.375-2.688-.774c-.809-.231-1.612-.474-2.415-.722-.526-.157-1.052-.319-1.572-.487-.353-.114-.705-.225-1.058-.341-.786-.248-1.566-.508-2.351-.768a206.991,206.991,0,0,1-45.28-21.465l43.636-4.86-51.579-6.151a72.7,72.7,0,0,1,56.872-28.339,72.478,72.478,0,0,1,39.567,11.173q2.921,1.842,5.714,3.995a72.379,72.379,0,0,1,8.383,7.574l.321.347c.243.259.487.518.725.786q1.262,1.382,2.453,2.844c.289.345.57.691.842,1.052s.531.676.786,1.02.461.608.666.892c.137.185.274.368.4.554.218.294.441.619.636.9.3.434.61.876.9,1.317s.605.92.9,1.384.646,1.033.958,1.56.557.94.822,1.417c.069.156.168.292.25.443.239.415.463.835.688,1.257l.074.17q.419.79.817,1.588t.759,1.567a.676.676,0,0,1,.068.157c.272.529.523,1.084.77,1.65C-2337.69,4505.567-2336.949,4514.607-2339.284,4522.273Z" transform="translate(2466.91 -4450.845)" fill="url(#linear-gradient-3)"/>
    </g>
    <g id="Group_1152" data-name="Group 1152" transform="translate(1534.485 552.949)">
      <circle id="Ellipse_561" data-name="Ellipse 561" cx="44.372" cy="44.372" r="44.372" fill="url(#linear-gradient-4)"/>
      <path id="Path_1015" data-name="Path 1015" d="M-330.455,1574.406a.83.83,0,0,1-.635-.133l-6.755-4.729-1.048-.741a2.315,2.315,0,0,1-.593-3.179,14.355,14.355,0,0,0,.73-1.254,13.267,13.267,0,0,0,1.447-6.04,13.282,13.282,0,0,0-14.109-13.254,13.34,13.34,0,0,0-12.421,12.388,13.28,13.28,0,0,0,13.248,14.148,13.244,13.244,0,0,0,6.632-1.771l.355-.2a1.906,1.906,0,0,1,2.044.09l.854.6a1.105,1.105,0,0,1,.013,1.8h0a16.9,16.9,0,0,1-10.37,3.18,17.074,17.074,0,0,1-16.5-17.2,16.975,16.975,0,0,1,18.353-16.7,17.009,17.009,0,0,1,15.527,15.322,17.005,17.005,0,0,1-1.458,8.667,1.484,1.484,0,0,0,.49,1.841l5.248,3.676C-328.148,1571.8-328.317,1573.979-330.455,1574.406Z" transform="translate(393.034 -1514.39)" fill="#fff"/>
    </g>
    <g id="Group_1150" data-name="Group 1150" transform="translate(1483.721 325.647)">
      <ellipse id="Ellipse_562" data-name="Ellipse 562" cx="44.379" cy="44.379" rx="44.379" ry="44.379" fill="url(#linear-gradient-4)"/>
      <path id="Path_347" data-name="Path 347" d="M-88.184,1131.366l-5.084-.02v-1.861h-25.77v1.861h-4.986a1.567,1.567,0,0,0-1.558,1.567v6.855c-.078,2.938,3.759,5.543,6.545,6.365v.2a13.049,13.049,0,0,0,8.044,12.123,1.983,1.983,0,0,1,1.169,1.841,1.951,1.951,0,0,1-1.266,1.861,14.643,14.643,0,0,0-7.6,6.287h4.149a10.365,10.365,0,0,1,8.434-3.917,10.365,10.365,0,0,1,8.434,3.917H-93.6a14.686,14.686,0,0,0-7.616-6.287,1.934,1.934,0,0,1-1.247-1.861,1.966,1.966,0,0,1,1.149-1.841,13.049,13.049,0,0,0,8.045-12.123v-.177c2.824-.783,6.7-3.408,6.642-6.365v-6.874A1.55,1.55,0,0,0-88.184,1131.366Zm-30.853,11.458s-3.857-2-3.9-3.388v-4.525a.846.846,0,0,1,.838-.842h2.318a.742.742,0,0,1,.74.744Zm22.673,3.486a9.77,9.77,0,0,1-9.739,9.793,9.77,9.77,0,0,1-9.739-9.793v-12.045a1.659,1.659,0,0,1,1.656-1.665h16.167a1.659,1.659,0,0,1,1.656,1.665Zm7.051-6.875c-.019,1.41-2.727,2.7-3.954,3.388v-8.01a.742.742,0,0,1,.74-.744h2.376a.834.834,0,0,1,.838.842Z" transform="translate(150.027 -1104.013)" fill="#fff"/>
    </g>
    <g id="Group_1151" data-name="Group 1151" transform="translate(856.868 549.374)">
      <circle id="Ellipse_563" data-name="Ellipse 563" cx="44.104" cy="44.104" r="44.104" fill="url(#linear-gradient-4)"/>
      <g id="Group_1149" data-name="Group 1149" transform="translate(26.804 26.804)">
        <circle id="Ellipse_151" data-name="Ellipse 151" cx="5.822" cy="5.822" r="5.822" transform="translate(0.396 0.412)" fill="#fff"/>
        <circle id="Ellipse_152" data-name="Ellipse 152" cx="5.822" cy="5.822" r="5.822" transform="translate(23.001 23.017)" fill="#fff"/>
        <rect id="Rectangle_466" data-name="Rectangle 466" width="5.48" height="43.616" rx="2.74" transform="translate(30.841 0) rotate(45)" fill="#fff"/>
      </g>
    </g>
    <g id="Group_1153" data-name="Group 1153" transform="translate(1088.496 251)">
      <ellipse id="Ellipse_564" data-name="Ellipse 564" cx="43.907" cy="43.907" rx="43.907" ry="43.907" transform="translate(0)" fill="url(#linear-gradient-4)"/>
      <rect id="Rectangle_628" data-name="Rectangle 628" width="39.668" height="5.428" rx="2.714" transform="translate(24.073 41.193)" fill="#fff"/>
      <rect id="Rectangle_629" data-name="Rectangle 629" width="39.668" height="5.428" rx="2.714" transform="translate(41.193 63.741) rotate(-90)" fill="#fff"/>
    </g>
    <g id="Group_1154" data-name="Group 1154" transform="translate(862.037 383.271)">
      <rect id="Rectangle_380" data-name="Rectangle 380" width="218.376" height="61.96" rx="8" transform="translate(0 0)" fill="url(#linear-gradient-8)"/>
      <g id="Group_705" data-name="Group 705" transform="translate(24.155 10.961)">
        <ellipse id="Ellipse_141" data-name="Ellipse 141" cx="20.019" cy="20.019" rx="20.019" ry="20.019" fill="#fff"/>
        <g id="Group_704" data-name="Group 704" transform="translate(53.193 3.718)">
          <rect id="Rectangle_381" data-name="Rectangle 381" width="83.508" height="12.583" rx="0.836" fill="#fff"/>
          <rect id="Rectangle_382" data-name="Rectangle 382" width="116.873" height="12.583" rx="0.836" transform="translate(0 20.019)" fill="#fff"/>
        </g>
      </g>
    </g>
    <g id="Group_1162" data-name="Group 1162" transform="translate(1.179 -19.805)">
      <g id="Group_1133" data-name="Group 1133" transform="translate(1017.821 408.805)">
        <ellipse id="Ellipse_556" data-name="Ellipse 556" cx="61.509" cy="11.942" rx="61.509" ry="11.942" transform="translate(0 287.881)" opacity="0.04"/>
        <g id="Group_1129" data-name="Group 1129" transform="translate(13.532 62.814)">
          <path id="Path_984" data-name="Path 984" d="M-1192.086,2861c10.533,11.346,14.128,28.615,16.033,37.764,5.5,26.412,2.259,49.381-1.1,66.348-1.927,9.74-5.423,28.8-8.126,28.237-1.5-.314-1.953-6.565-2.855-15.764-2.758-28.119-4.307-43.915-8.675-57.513-3.314-10.316-3.837-5.631-14.056-28.063-8.168-17.932-14.248-31.529-11.531-37.937,2.013-4.747,8.063-3.687,13.288-2.772C-1206.671,2851.721-1199.386,2853.132-1192.086,2861Z" transform="translate(1261.465 -2753.52)" fill="#2b2b64"/>
          <path id="Path_985" data-name="Path 985" d="M-1557.986,2708.82c2.818,18.657-2.135,35.946-4.759,45.1-7.575,26.441-20.122,42.273-30.106,53.107-5.732,6.219-16.745,18.636-18.5,15.761-.978-1.6,1.447-7.1,4.838-15.4,10.364-25.386,16.187-39.648,18.944-54.633,2.092-11.369-.366-8.017,1.945-35.431,1.847-21.914,3.333-38.428,8.181-41.226,3.591-2.072,7.619,4.2,11.1,9.608C-1564.729,2688.235-1559.939,2695.89-1557.986,2708.82Z" transform="translate(1615.998 -2594.005)" fill="#2f2e6d"/>
          <g id="Group_1127" data-name="Group 1127" transform="translate(42.325)">
            <path id="Path_986" data-name="Path 986" d="M-1072.755,2154.386s-1.251,3.517-3,4.1a6,6,0,0,0-2.843,1.837l2.426,7.277,7.182.986,6.061-6.595-.695-.334s-1.924-5.4-.1-6.729S-1072.755,2154.386-1072.755,2154.386Z" transform="translate(1087.328 -2118.092)" fill="url(#linear-gradient-9)"/>
            <path id="Path_987" data-name="Path 987" d="M-1014.436,2124.512a17.63,17.63,0,0,1,.544-6.571c.093-.259-9.939-1.169-9.939-1.169S-1023.555,2122.509-1014.436,2124.512Z" transform="translate(1037.347 -2083.977)" fill="#e8908b"/>
            <circle id="Ellipse_557" data-name="Ellipse 557" cx="12.862" cy="12.862" r="12.862" transform="translate(8.061 12.723)" fill="url(#linear-gradient-10)"/>
            <path id="Path_988" data-name="Path 988" d="M-1144.752,1752.868c-6.469,7.2-12.1,7.9-12.667,12.473-.308,2.507,1.073,4.863.584,5.067-.663.277-2.247-4.479-4.677-4.482-1.8,0-3.857,2.6-3.313,4.287.515,1.6,3.283,2.1,3.508,2.144,1.219.21,1.618-.119,1.949.195,1.063,1.01-.619,6.737-4.677,8.38s-8.25-1.7-9.549-2.728c-.877-.7-5.361-4.262-4.677-7.99.624-3.406,4.919-3.446,5.651-7.016.633-3.082-2.286-4.43-2.339-7.8-.083-5.312,7.072-9.389,8.38-10.134,10.125-5.769,24.576-3.289,25.724,1.169C-1140.436,1748.064-1141.874,1749.665-1144.752,1752.868Z" transform="translate(1178.342 -1741.9)" fill="url(#linear-gradient-11)"/>
          </g>
          <path id="Path_989" data-name="Path 989" d="M-735.988,2478.555c.2,1.606-4.041-.921-15.855,5.633-4.373,2.426-15.552,2.4-23.05.745a53.521,53.521,0,0,1-11.945-4,27.774,27.774,0,0,1,3.272-18.531c.583.691,1.18,1.385,1.805,2.1,6.587,7.5,19.588,13.542,29.626,10.774C-742.9,2472.728-736.248,2476.441-735.988,2478.555Z" transform="translate(863.782 -2399.37)" fill="url(#linear-gradient-12)"/>
          <path id="Path_990" data-name="Path 990" d="M-886.2,2295.879q-.407.712-.772,1.448c-.247.5-.479,1-.694,1.51a27.741,27.741,0,0,0-1.805,15.572,31.82,31.82,0,0,1-4.49-2.62c-.664-.469-2.83-.925-3.6-2.292-5.144-9.119.92-17.869-1.864-29.584.844.972,1.631,1.888,2.369,2.757C-892.171,2288.426-889.4,2292.088-886.2,2295.879Z" transform="translate(966.417 -2232.847)" fill="#232359"/>
          <path id="Path_991" data-name="Path 991" d="M-1189.537,2424.9a1.116,1.116,0,0,1-.543,1.63l-6.166,2.4a.768.768,0,0,1-.948-.342.506.506,0,0,0-.912.061,34.259,34.259,0,0,1-1.51,3.369,6.121,6.121,0,0,0-.688,2.23,12.044,12.044,0,0,0-.07,1.646,6.43,6.43,0,0,0,.977,3.473c.046.066.094.132.145.194.027.035.056.07.084.1a1.035,1.035,0,0,1,.242.788,7.925,7.925,0,0,1-.235,1.174,8.009,8.009,0,0,1-1.4,2.786,8.054,8.054,0,0,1-2.725,2.206,11.452,11.452,0,0,1-3.554,1.079q-.685.1-1.452.146a14.78,14.78,0,0,1-2.023-.018,10.144,10.144,0,0,1-9.24-7.33s.5-1.849,1.078-4.447c.013-.058.027-.116.04-.176.077-.346.156-.705.235-1.074.219-1.025.441-2.127.648-3.254.116-.635.228-1.279.33-1.919.6-3.739.89-8.261,1.013-10.652.007-.133.013-.259.019-.377a2.127,2.127,0,0,0-1.051-1.94l-.825-.483a.839.839,0,0,1-.386-.943l.765-2.825s.037-.064.11-.176c.677-1.052,4.408-6.415,8.9-4.34l.47.209.385.172s-.083.127-.2.337c-.593,1.075-2.046,4.333,2.373,3.949a9.52,9.52,0,0,0,3.5-1.837s4.039-.305,8.621,7.5q.414.7.78,1.325c.7,1.188,1.277,2.159,1.752,2.951C-1190.328,2423.615-1189.862,2424.378-1189.537,2424.9Z" transform="translate(1258.269 -2349.195)" fill="#17163e"/>
          <path id="Path_992" data-name="Path 992" d="M-1356.591,2276.948c-1.6,8.6-14.731,12.38-16.033,12.738a31.713,31.713,0,0,1-10.811.984,29.826,29.826,0,0,1-16.972-6.694c-13.107-11.15-11.719-32.521-4.393-45.573,1.037-1.846,8.552-14.765,23.61-18.559l.116-.029a15.2,15.2,0,0,0,8.779,2.775,15.223,15.223,0,0,0,6.14-1.285,24.176,24.176,0,0,1,5.171,6.226c1.1,1.75,2.1,3.363,3.008,4.861h0a4.569,4.569,0,0,1,.675,2.3c.181,11.29-6.636,18.689-3.244,28.2a16,16,0,0,0,1.989,3.853c.091.236.189.479.294.727.142.333.3.674.462,1.021A12.231,12.231,0,0,1-1356.591,2276.948Z" transform="translate(1432.339 -2178.005)" fill="#0152aa"/>
          <path id="Path_993" data-name="Path 993" d="M-959.472,2247.77" transform="translate(1020.944 -2203.515)" fill="#17163e"/>
          <g id="Group_1128" data-name="Group 1128" transform="translate(35.143 48.556)">
            <path id="Path_994" data-name="Path 994" d="M-1257.256,2350.952a71.173,71.173,0,0,1-2.112-10.139c-2.967-21.529.525-33.765,7.7-40.408,8.37-7.747,14.547-.975,17.842,5.23,3.033,5.711,2.8,5.463-3.088,23.688a71.708,71.708,0,0,0-2.97,13.937A24.784,24.784,0,0,0-1257.256,2350.952Z" transform="translate(1260.427 -2296.934)" fill="#232359"/>
            <path id="Path_995" data-name="Path 995" d="M-1207.746,2858.53c-8.351-4.176-13.166-13.083-16.44-24.362a24.786,24.786,0,0,1,17.374-7.691c-1.357,12.2.437,25.05,8.077,32.2,3.838,3.593,2.739,8.838,2.43,9.525C-1196.728,2869.145-1200.7,2862.053-1207.746,2858.53Z" transform="translate(1227.356 -2780.15)" fill="url(#linear-gradient-13)"/>
          </g>
          <path id="Path_996" data-name="Path 996" d="M-1656.958,4266.122a26.907,26.907,0,0,1,7.139.907,4.745,4.745,0,0,1,3.191,1.7,5.742,5.742,0,0,1,.616,1.969,19.792,19.792,0,0,0,8.177,12.287c.779.531,1.718,1.147,1.848,2.1.175,1.142-.981,2.116-2.119,2.2a6.223,6.223,0,0,1-3.238-.989,127.6,127.6,0,0,1-20.023-13.176,2.079,2.079,0,0,1-.73-.9,1.857,1.857,0,0,1,.212-1.337C-1661.042,4269.022-1659.147,4266.316-1656.958,4266.122Z" transform="translate(1662.141 -4045.261)" fill="#017aff"/>
          <path id="Path_997" data-name="Path 997" d="M-851.74,4373.828a26.914,26.914,0,0,1,6.012-3.952,4.844,4.844,0,0,1,3.557-.775,5.744,5.744,0,0,1,1.751,1.1,19.737,19.737,0,0,0,14.2,4.036,3.46,3.46,0,0,1,2.769.393,2.194,2.194,0,0,1-.2,3.057,6.177,6.177,0,0,1-3.1,1.342,127.765,127.765,0,0,1-23.779,3.013,2.043,2.043,0,0,1-1.132-.183,1.894,1.894,0,0,1-.711-1.158C-852.944,4378.729-853.275,4375.393-851.74,4373.828Z" transform="translate(923.651 -4139.156)" fill="#017aff"/>
        </g>
        <ellipse id="Ellipse_558" data-name="Ellipse 558" cx="20.755" cy="75.168" rx="20.755" ry="75.168" transform="translate(138.625 239.503) rotate(-32.188)" opacity="0.04"/>
        <ellipse id="Ellipse_559" data-name="Ellipse 559" cx="20.755" cy="75.168" rx="20.755" ry="75.168" transform="translate(176.49 237.965) rotate(-32.188)" opacity="0.04"/>
        <g id="Group_1130" data-name="Group 1130" transform="translate(209.747)">
          <path id="Path_998" data-name="Path 998" d="M634.1,1123.9V1370.28a1.341,1.341,0,0,1-1.3,1.353h-.125a1.311,1.311,0,0,1-1.074-.641l-49.579-80.185a8.616,8.616,0,0,1-1.289-4.535V1034.056a.328.328,0,0,1,.159-.289.337.337,0,0,1,.466.1l.007.01.247.4h0l50.016,80.89C633.555,1118.4,634.1,1119.389,634.1,1123.9Z" transform="translate(-580.734 -1032.854)" fill="#63a2f6"/>
          <path id="Path_999" data-name="Path 999" d="M641.242,1114.938v246.206a1.525,1.525,0,0,1-1.525,1.525H632.8a1.341,1.341,0,0,0,1.3-1.353v-247.2a13.768,13.768,0,0,0-2.058-7.242l-.417-.674-50.016-80.89h0l-.247-.4-.006-.01h0a.337.337,0,0,0-.466-.1.329.329,0,0,0-.159.289h0a.378.378,0,0,1,.319-.374l.372-.059,4.832-.769a2.9,2.9,0,0,1,2.466,1.374l50.032,80.915A16.663,16.663,0,0,1,641.242,1114.938Z" transform="translate(-580.734 -1023.89)" fill="#0152aa"/>
        </g>
        <g id="Group_1131" data-name="Group 1131" transform="translate(169.774)">
          <path id="Path_1000" data-name="Path 1000" d="M178.444,1123.9V1370.28a1.341,1.341,0,0,1-1.3,1.353h-.125a1.311,1.311,0,0,1-1.074-.641l-49.579-80.185a8.616,8.616,0,0,1-1.289-4.535V1034.056a.328.328,0,0,1,.159-.289.337.337,0,0,1,.466.1l.007.01.247.4h0l50.016,80.89A16.632,16.632,0,0,1,178.444,1123.9Z" transform="translate(-124.964 -1032.854)" fill="#0152aa"/>
          <path id="Path_1001" data-name="Path 1001" d="M184.327,1114.938v246.206a1.525,1.525,0,0,1-1.525,1.525h-6.915a1.341,1.341,0,0,0,1.3-1.353v-247.2a13.77,13.77,0,0,0-2.058-7.242l-.417-.674-50.016-80.89h0l-.247-.4-.005-.01h0a.337.337,0,0,0-.466-.1.329.329,0,0,0-.159.289h0a.378.378,0,0,1,.319-.374l.372-.059,4.832-.769a2.9,2.9,0,0,1,2.465,1.374l50.032,80.915A16.663,16.663,0,0,1,184.327,1114.938Z" transform="translate(-123.819 -1023.89)" fill="#017afe"/>
        </g>
        <path id="Path_1002" data-name="Path 1002" d="M587.958,1035.573" transform="translate(-377.579 -1034.551)" fill="#0152aa"/>
        <path id="Path_1003" data-name="Path 1003" d="M587.883,1035.473l-.007-.01h0Z" transform="translate(-377.505 -1034.451)" fill="#0152aa"/>
        <path id="Path_1004" data-name="Path 1004" d="M228.828,1612.537,197.8,1562.5a32.941,32.941,0,0,1-4.945-17.359V1362.331a1.507,1.507,0,0,1,2.787-.794l35.449,57.17a20.466,20.466,0,0,1,3.072,10.785v181.524A2.886,2.886,0,0,1,228.828,1612.537Z" transform="translate(-17.044 -1331.345)" fill="#fff"/>
        <ellipse id="Ellipse_560" data-name="Ellipse 560" cx="2.848" cy="7.237" rx="2.848" ry="7.237" transform="translate(187.94 262.198) rotate(-4.468)" fill="#f9f7f8"/>
        <path id="Path_1005" data-name="Path 1005" d="M-209.985,1236.119m-42.878-14.781c.059-.123.115-.247.169-.372h-.405Z" transform="translate(389.899 -1203.725)" fill="#88c6ff"/>
        <path id="Path_1006" data-name="Path 1006" d="M240.512,1394.192h0" transform="translate(-60.526 -1361.797)" fill="none"/>
        <g id="Group_1132" data-name="Group 1132" transform="translate(126.013 18.778)">
          <path id="Path_1007" data-name="Path 1007" d="M-330.3,1238.54h-33.328a12.78,12.78,0,0,0-12.776,12.687,12.549,12.549,0,0,0,1.052,4.993v0a4.515,4.515,0,0,0,.337.633l1.439,2.278,3.863,6.114a.674.674,0,0,0,.994-.6v-.03a12.794,12.794,0,0,1,12.793-12.794c.148,0,32.455.312,34.19.328Z" transform="translate(376.404 -1238.54)" fill="#88c6ff"/>
          <path id="Path_1008" data-name="Path 1008" d="M72.763,1905.413s-34.11-.329-34.262-.329a12.794,12.794,0,0,0-12.793,12.793v.029a.673.673,0,0,1-1.042.568l10.35,16.38a.669.669,0,0,0,1.234-.365v-.03a12.794,12.794,0,0,1,12.793-12.793c.153,0,34.262.329,34.262.329Z" transform="translate(10.422 -1846.772)" fill="#88c6ff"/>
          <path id="Path_1009" data-name="Path 1009" d="M-36.157,1732.45s-34.11-.33-34.262-.33a12.794,12.794,0,0,0-12.793,12.793v.03a.673.673,0,0,1-1.042.568L-94.7,1728.986a.674.674,0,0,0,.942-.624v-.03a12.794,12.794,0,0,1,12.793-12.793c.153,0,34.262.33,34.262.33Z" transform="translate(119.342 -1673.809)" fill="#ff2b86"/>
          <path id="Path_1010" data-name="Path 1010" d="M-138.289,1571.542s-34.11-.33-34.262-.33a12.794,12.794,0,0,0-12.793,12.793v.03a.674.674,0,0,1-.942.624l-8.781-13.9a.673.673,0,0,0,1.048-.564v-.03a12.794,12.794,0,0,1,12.793-12.793c.148,0,32.509.313,34.194.329Z" transform="translate(210.932 -1529.483)" fill="#88c6ff"/>
          <path id="Path_1011" data-name="Path 1011" d="M-243.319,1405.36c-1.686-.015-34.046-.328-34.194-.328a12.794,12.794,0,0,0-12.793,12.794v.029a.673.673,0,0,1-1.048.565l-9.231-14.61a.474.474,0,0,0,.06.038.674.674,0,0,0,.994-.6v-.03a12.794,12.794,0,0,1,12.793-12.793c.148,0,32.455.312,34.19.328l1.665,2.634Z" transform="translate(307.218 -1377.139)" fill="#ff2b86"/>
        </g>
        <path id="Path_1012" data-name="Path 1012" d="M337.2,2629.035l-17.215-27.022a10.216,10.216,0,0,1-1.6-5.489v-1.143a.346.346,0,0,1,.637-.186l17.767,27.888a5.894,5.894,0,0,1,.923,3.167v2.635A.278.278,0,0,1,337.2,2629.035Z" transform="translate(-131.589 -2457.585)" fill="#f9f7f8"/>
        <path id="Path_1013" data-name="Path 1013" d="M-45.328,2720.012H-73.66c-7.065,0-11.915,5.728-11.915,12.793l-.055,23.828c0,1.484-1.208,1.814-2.176.389l-.568-.863-7.146-10.867a9.281,9.281,0,0,1-1.525-5.115l.049-23.953A12.794,12.794,0,0,1-84.2,2703.43H-55.87Z" transform="translate(247.497 -2556.497)" fill="#ffa347"/>
      </g>
      <g id="Group_1161" data-name="Group 1161" transform="translate(1265.08 352.02)">
        <path id="Path_657" data-name="Path 657" d="M893.269,5874.577s-22.937,10.976-26.66,9.464,5-4.929,9.371-9.784,1.813-16.687,1.813-16.687,6.558-3.747,6.949-3.145S897.775,5872.689,893.269,5874.577Z" transform="translate(-742.612 -5505.756)" fill="#7a879f"/>
        <path id="Path_660" data-name="Path 660" d="M974.736,5891.188c3.931-.455-2.438-17.164-2.438-17.164l-6.024.434a9.245,9.245,0,0,1-6.455,9.952c-7.6,2.739-16.782,1.875-15.347,3.173S941.029,5895.083,974.736,5891.188Z" transform="translate(-866.583 -5514.867)" fill="#7a879f"/>
        <rect id="Rectangle_569" data-name="Rectangle 569" width="2.329" height="19.797" rx="1.165" transform="translate(62.685 193.845) rotate(146.174)" fill="#444d6e"/>
        <g id="Group_999" data-name="Group 999" transform="translate(51.989 184.756)">
          <path id="Path_661" data-name="Path 661" d="M1030.913,5571.878c-3.339-2.989-3.814-4.145-8.4-6.655s-10.85-20.219-4.934-15.3,8.2,11.271,8.779,7.137,3.046,5.777,6.956,10.114S1030.913,5571.878,1030.913,5571.878Z" transform="translate(-1015.169 -5549.063)" fill="url(#linear-gradient-14)"/>
          <path id="Path_662" data-name="Path 662" d="M981.6,5563.614c-.224-7.161-10-9.1-12.992-2.593-4.787,10.416-14.177,29.581-17.636,27.673-4.727-2.608-20.165-23.632-22.108-21.041s-4.959,4.313-4.533,6.045,18.181,42.233,33.7,32.537C968.76,5599.527,982,5576.573,981.6,5563.614Z" transform="translate(-913.412 -5552.765)" fill="url(#linear-gradient-15)"/>
        </g>
        <path id="Path_663" data-name="Path 663" d="M928.2,5658.662c0,2.282-12.339,17.534-2.636,104.583a3.2,3.2,0,0,0,3.354,2.84l4.608-.256a3.192,3.192,0,0,0,3-2.843c1.518-14,8.536-78.037,10.324-82.4,2.008-4.9,3.155-49.326,2.582-48.171S928.2,5658.662,928.2,5658.662Z" transform="translate(-828.083 -5402.915)" fill="url(#linear-gradient-16)"/>
        <path id="Path_664" data-name="Path 664" d="M900.546,5769.555a3.778,3.778,0,0,0,5.307,1.836c3.368-1.854,7.763-4.389,7.32-4.742-.709-.567-6.236-49.868-10.358-57.82-3.125-6.029,2.447-32.53,5.325-45a3.778,3.778,0,0,0-4.852-4.441l-23.786,7.741a3.776,3.776,0,0,0-2.607,3.735c.326,8.559,1.254,33.765,1.1,39.04C877.833,5715.281,895.1,5756.657,900.546,5769.555Z" transform="translate(-767.58 -5415.335)" fill="url(#linear-gradient-17)"/>
        <path id="Path_665" data-name="Path 665" d="M917.637,5541.335s-1.435-10.023-.789-11.178,7.1-.576,9.395,5.121S920.578,5542.562,917.637,5541.335Z" transform="translate(-802.384 -5355.321)" fill="#ffb5aa"/>
        <path id="Path_666" data-name="Path 666" d="M843.258,5709.472s3.389-31.527,4.574-33.508,7.009,35.209,5.927,33.805-5.077-33.547-5.634-31.78S844.351,5711.555,843.258,5709.472Z" transform="translate(-690.217 -5423.067)" fill="url(#linear-gradient-18)"/>
        <path id="Path_667" data-name="Path 667" d="M927.6,5511.849s-3.825,4.734-7.124,4.807-9.825-1.586-10.9-6.2c0,0-.5-2.271-.574-2.632s-1.028.421-1.458-.444,1.028-15.457.024-18.124S942.874,5489.762,927.6,5511.849Z" transform="translate(-802.139 -5336.227)" fill="url(#linear-gradient-19)"/>
        <path id="Path_668" data-name="Path 668" d="M840.334,5667.381c.287.866,2.725,15.143,5.307,17.6s7.458.432,7.315-2.741-1.147-2.6-3.442-5.336-5.451-11.683-5.451-11.683Z" transform="translate(-687.716 -5418.124)" fill="url(#linear-gradient-14)"/>
        <path id="Path_669" data-name="Path 669" d="M831.73,5485.181c-.219.058-6.311,2.02-7.458,1.371a7.826,7.826,0,0,1-1.872-2.891.38.38,0,0,0-.725.192,6.54,6.54,0,0,1-.511,3.467c-.5.361-7.506-9.927-2.056-14.254s18.216-11.683,28.973,6.634,9.4,28.413,19.364,33.893,11.833,31.874,13.2,32.956,22.3,18.173-1,25.744c-22.515,7.315-39.343-16.124-40.461-17.726a.369.369,0,0,1-.067-.188c-.193-2.521-3.839-50.344-3.77-50.695a50.212,50.212,0,0,1,3.634-4.729c.646-.722,1.936-7.428.861-9.52s-4.3.361-5.092-.144S833,5484.845,831.73,5485.181Z" transform="translate(-712.843 -5326.698)" stroke="rgba(0,0,0,0)" stroke-width="1" fill="url(#linear-gradient-21)"/>
        <path id="Path_670" data-name="Path 670" d="M926.425,5613.25a5.465,5.465,0,0,1-3.983,7.05c-7.226,1.593-18.154,3.751-22.053,3.191-6.024-.865-12.478-2.163-18.933-2.6s3.873-67.5,12.048-73.555,11.4-3.894,13.554-5.192,8.606,1.947,9.036,4.11c.366,1.837,9.116,18.508,11.741,23.483a4.2,4.2,0,0,1,.377,2.907C926.852,5578.567,922.317,5600.454,926.425,5613.25Z" transform="translate(-784.06 -5360.967)" fill="url(#linear-gradient-22)"/>
        <path id="Path_671" data-name="Path 671" d="M837.917,5772.814l6.942,4.827,19.126-45.018-23.533.374-2.9,38.986A.929.929,0,0,0,837.917,5772.814Z" transform="translate(-697.246 -5449.354)" fill="url(#linear-gradient-23)"/>
        <path id="Path_672" data-name="Path 672" d="M884.962,5613.346a2.747,2.747,0,0,1-1.941,3.187c-1.618.463-3.521,1.165-3.995,2-.86,1.514-8.821-16.009-17.427-33.749s-14.415-39.591-7.745-37.643C860.437,5549.059,871.841,5548.663,884.962,5613.346Z" transform="translate(-725.476 -5363.36)" fill="url(#linear-gradient-24)"/>
        <path id="Path_673" data-name="Path 673" d="M821.591,5777.578l29.349-1.354a.839.839,0,0,0,.7-1l-5.539-41.994a.793.793,0,0,0-.744-.743l-28.17.449Z" transform="translate(-673.979 -5449.291)" fill="#eaeff8"/>
        <ellipse id="Ellipse_173" data-name="Ellipse 173" cx="0.676" cy="0.572" rx="0.676" ry="0.572" transform="translate(162.785 286.01) rotate(-90.911)" fill="#fff"/>
        <ellipse id="Ellipse_174" data-name="Ellipse 174" cx="0.676" cy="0.572" rx="0.676" ry="0.572" transform="translate(152.681 286.171) rotate(-90.911)" fill="#fff"/>
      </g>
    </g>
    <path id="Path_982" data-name="Path 982" d="M1845.106,4046.284a154.092,154.092,0,0,1-24.608,24.159q-3.93,3.081-8.073,5.9c0,.011-.006.011-.011.011q-4.291,2.944-8.783,5.579c-.429.252-.858.5-1.287.75q-.576.334-1.15.651c-.423.24-.846.475-1.276.71l-.005.006h-.006a.229.229,0,0,1-.046.023c-.721.4-1.454.79-2.185,1.178-.469.247-.939.492-1.414.738q-6.334,3.278-12.988,5.956a152.363,152.363,0,0,1-37.109,9.733q-2.215.291-4.457.519h-.006l-.721.071h-.006c-.892.09-1.785.165-2.683.232s-1.8.133-2.706.189q-3.82.24-7.655.287c-.624,0-1.253.011-1.883.011q-1.124,0-2.249-.018l-.9-.017c-.132,0-.263-.005-.388-.005-.338-.005-.675-.019-1.013-.028-1.4-.042-2.8-.1-4.194-.185-.63-.034-1.253-.074-1.882-.114-.692-.051-1.379-.1-2.071-.161-.532-.046-1.07-.093-1.6-.136-.074-.013-.149-.018-.224-.024-.383-.041-.767-.075-1.149-.114l-.636-.07c-1.144-.12-2.282-.256-3.427-.4-.006,0-.006,0-.006,0-.67-.092-1.339-.178-2.009-.275-.068-.006-.137-.018-.211-.028-.778-.115-1.557-.229-2.334-.355h-26.689l39.832-12.937-44.035,3.689a91.871,91.871,0,0,1,2.449-30.259l71.556-23.243-65.043,5.506a91.521,91.521,0,0,1,134.628-34.918l.483.344c.365.257.73.514,1.093.784q1.9,1.382,3.74,2.879c.442.351.877.707,1.3,1.082s.825.7,1.226,1.055.723.633,1.047.929c.216.192.43.382.639.579.342.307.7.65,1.011.944.483.458.974.924,1.442,1.393s.978.979,1.456,1.476,1.056,1.106,1.575,1.677.924,1.016,1.371,1.535c.124.176.281.316.42.481.4.451.782.911,1.165,1.373l.135.19q.716.866,1.408,1.749t1.33,1.736a.8.8,0,0,1,.124.176c.469.583.919,1.2,1.366,1.835A68.616,68.616,0,0,1,1845.106,4046.284Z" transform="translate(-316.595 -3322.065)" fill="url(#linear-gradient-3)"/>
    <g id="Group_1163" data-name="Group 1163" transform="translate(1484.037 647.271)">
      <rect id="Rectangle_380-2" data-name="Rectangle 380" width="218.376" height="61.96" rx="8" transform="translate(0 0)" fill="url(#linear-gradient-8)"/>
      <g id="Group_705-2" data-name="Group 705" transform="translate(24.155 10.961)">
        <ellipse id="Ellipse_141-2" data-name="Ellipse 141" cx="20.019" cy="20.019" rx="20.019" ry="20.019" fill="#fff"/>
        <g id="Group_704-2" data-name="Group 704" transform="translate(53.193 3.718)">
          <rect id="Rectangle_381-2" data-name="Rectangle 381" width="83.508" height="12.583" rx="0.836" fill="#fff"/>
          <rect id="Rectangle_382-2" data-name="Rectangle 382" width="116.873" height="12.583" rx="0.836" transform="translate(0 20.019)" fill="#fff"/>
        </g>
      </g>
    </g>
  </g>
</svg>
