<?xml version="1.0" encoding="utf-8"?>
<!-- Generator: Adobe Illustrator 23.0.3, SVG Export Plug-In . SVG Version: 6.00 Build 0)  -->
<svg version="1.1" id="Layer_1" xmlns="http://www.w3.org/2000/svg" xmlns:xlink="http://www.w3.org/1999/xlink" x="0px" y="0px"
	 viewBox="0 0 90.41 190.02" style="enable-background:new 0 0 90.41 190.02;" xml:space="preserve">
<style type="text/css">
	.st0{fill:#F89938;}
	.st1{fill:#FFFFFF;}
</style>
<title>hp</title>
<path class="st0" d="M69.3,95.09c0,14.52,0,29.04,0,43.56c0,2.22-0.13,4.49-2.2,5.75c-1.35,0.83-2.89,1.3-4.48,1.37
	c-11.58,0.12-23.16,0.18-34.73,0.03c-4.49-0.06-6.64-1.53-6.66-7.15c-0.07-16.57,0.05-33.14,0.04-49.7c0-4.21-0.27-8.42-0.28-12.63
	c0-8.57,0.14-17.13,0.09-25.67c0-3.51,2.87-6.43,7.02-6.43c8.76,0,17.53-0.06,26.29-0.07c2.62,0,5.25,0.12,7.87,0.09
	c4.24-0.05,7.22,2.99,7.13,7.5C69.12,66.17,69.3,80.63,69.3,95.09z M67.42,94.23L67.42,94.23c0-14.28,0-28.54,0-42.79
	c0-3.38-1.61-5.03-5.04-5.08c-3.43-0.04-6.91,0.04-10.36-0.05c-1.74-0.11-3.44,0.58-4.59,1.89c-1.5,1.61-2.86,1.61-4.4-0.04
	c-1.11-1.26-2.74-1.94-4.41-1.86c-3.45,0.08-6.91,0-10.37,0.03c-3.62,0.03-5.32,1.7-5.32,5.27c0,28.33,0.01,56.67,0.04,85
	c0,4.07,1.54,5.6,5.55,5.6c11.19,0,22.38-0.01,33.58-0.03c3.87,0,5.31-1.48,5.31-5.35C67.42,122.64,67.43,108.44,67.42,94.23
	L67.42,94.23z M22.45,48.68h-0.25v79.36h0.25V48.68z"/>
<path class="st1" d="M67.42,94.23c0,14.2,0,28.4,0,42.6c0,3.88-1.45,5.35-5.31,5.35c-11.19,0-22.38,0.01-33.58,0.03
	c-4.01,0-5.55-1.53-5.55-5.6c-0.02-28.33-0.04-56.67-0.04-85c0-3.58,1.7-5.24,5.32-5.27c3.45-0.04,6.91,0.05,10.37-0.03
	c1.68-0.08,3.3,0.6,4.41,1.86c1.53,1.61,2.9,1.65,4.4,0.04c1.16-1.31,2.87-2.01,4.62-1.89c3.45,0.09,6.91,0,10.36,0.05
	c3.45,0.05,5.04,1.69,5.04,5.08c0,14.28,0,28.54,0,42.79H67.42z"/>
<path class="st0" d="M22.44,48.68v79.36h-0.25V48.69L22.44,48.68z"/>
<ellipse class="st1" cx="45.28" cy="47.32" rx="0.87" ry="0.85"/>
</svg>
