<svg id="Layer_1" data-name="Layer 1" xmlns="http://www.w3.org/2000/svg" viewBox="0 0 90.41 190.02"><defs><style>.cls-1{fill:#f89938;}.cls-2{fill:#fff;}</style></defs><title>hp</title><path class="cls-1" d="M466.21,297.78q0,40.68,0,81.36c0,4.14-.24,8.39-4.1,10.74a17.36,17.36,0,0,1-8.36,2.55c-21.62.22-43.25.34-64.87.05-8.39-.11-12.4-2.86-12.44-13.35-.13-30.94.09-61.89.08-92.83,0-7.87-.51-15.73-.52-23.59,0-16,.26-32,.17-47.94,0-6.56,5.36-12,13.11-12,16.37,0,32.74-.11,49.1-.14,4.9,0,9.8.23,14.7.17,7.91-.09,13.49,5.58,13.32,14C465.88,243.77,466.21,270.78,466.21,297.78Zm-3.51-1.59h0q0-40,0-79.92c0-6.32-3-9.4-9.41-9.48s-12.91.08-19.35-.09a10.54,10.54,0,0,0-8.58,3.53c-2.8,3-5.35,3-8.21-.08a10.31,10.31,0,0,0-8.24-3.47c-6.45.15-12.91,0-19.36.06-6.77.06-9.94,3.17-9.94,9.85q0,79.38.08,158.76c0,7.6,2.87,10.45,10.36,10.45q31.35,0,62.71-.05c7.22,0,9.92-2.76,9.92-10Q462.72,336,462.7,296.19Zm-84-85.09-.47,0V359.33h.47Z" transform="translate(-376 -202.63)"/><path class="cls-2" d="M462.7,296.19q0,39.78,0,79.56c0,7.24-2.7,10-9.92,10q-31.35,0-62.71.05c-7.49,0-10.36-2.85-10.36-10.45q-.07-79.38-.08-158.76c0-6.68,3.17-9.79,9.94-9.85,6.45-.07,12.91.09,19.36-.06a10.31,10.31,0,0,1,8.24,3.47c2.86,3,5.41,3.08,8.21.08A10.54,10.54,0,0,1,434,206.7c6.44.17,12.9,0,19.35.09s9.41,3.16,9.41,9.48q0,40,0,79.92Z" transform="translate(-376 -202.63)"/><path class="cls-1" d="M378.69,211.1V359.33h-.47V211.12Z" transform="translate(-376 -202.63)"/><ellipse class="cls-2" cx="45.35" cy="5.93" rx="1.63" ry="1.58"/></svg>