<?xml version="1.0" encoding="utf-8"?>
<!-- Generator: Adobe Illustrator 23.0.3, SVG Export Plug-In . SVG Version: 6.00 Build 0)  -->
<svg version="1.1" id="Layer_1" xmlns="http://www.w3.org/2000/svg" xmlns:xlink="http://www.w3.org/1999/xlink" x="0px" y="0px"
	 viewBox="0 0 700 385" style="enable-background:new 0 0 700 385;" xml:space="preserve">
<style type="text/css">
	.st0{fill:#FFAB57;}
	.st1{fill:none;}
	.st2{fill:#F9F5ED;}
	.st3{fill:#FAEED4;}
	.st4{fill:url(#Path_2528_1_);}
	.st5{fill:#FFFFFF;}
	.st6{fill:#D0E1EB;}
	.st7{fill:url(#Ellipse_149_1_);}
	.st8{fill:url(#Path_2361_1_);}
	.st9{fill:url(#Path_2362_1_);}
	.st10{fill:url(#Path_2363_1_);}
	.st11{fill:url(#Path_2364_1_);}
	.st12{fill:url(#Path_2365_1_);}
	.st13{fill:url(#Path_2366_1_);}
	.st14{fill:url(#Path_2367_1_);}
	.st15{fill:url(#Path_2368_1_);}
	.st16{fill:url(#Path_2370_1_);}
	.st17{fill:url(#Path_2371_1_);}
	.st18{fill:url(#Path_2372_1_);}
	.st19{fill:url(#Path_2373_1_);}
	.st20{fill:url(#Path_2374_1_);}
	.st21{fill:url(#Path_2375_1_);}
	.st22{fill:url(#Path_2376_1_);}
	.st23{fill:url(#Path_2377_1_);}
	.st24{fill:url(#Path_2378_1_);}
	.st25{fill:url(#Path_2379_1_);}
	.st26{fill:url(#Path_2380_1_);}
	.st27{fill:url(#Path_2381_1_);}
	.st28{fill:url(#Path_2382_1_);}
	.st29{fill:url(#Path_2383_1_);}
	.st30{fill:url(#Path_2384_1_);}
	.st31{fill:url(#Path_2385_1_);}
	.st32{fill:url(#Path_2386_1_);}
	.st33{fill:url(#Path_2387_1_);}
	.st34{fill:url(#Ellipse_630_1_);}
	.st35{fill:url(#Path_2388_1_);}
</style>
<path class="st0" d="M646.1,273.5c-16.4-9.2-37-4.6-48,10.5c-27.4,37.6-2.6,83.7-2.6,83.7c112.7-56.8,51.6-93.7,51.6-93.7
	L646.1,273.5z"/>
<path class="st0" d="M88.1,42.3l-0.3,34.4c6.3,9.5,13,20.3,19.6,32.1l4-52.2L112,57c-8-6.5-16.3-11.6-24.5-14.9L88.1,42.3z"/>
<path class="st0" d="M86.7,75L87,41.7c-9.2-3.7-18.2-5.3-26.5-4.3c-0.4,0.1-0.9,0.1-1.3,0.2C61.2,40,72.7,54,86.7,75z"/>
<path class="st0" d="M159.8,120.2l0.5,0.6c-2-4.4-4.2-8.7-6.5-12.8l-19,59.9l-0.2-0.2c1,2.7,1.9,5.4,2.7,8.1L159.8,120.2z"/>
<path class="st0" d="M138.2,84.3l0.5,0.5c-7.6-10.1-16.4-19.4-26.2-27.4l-4.1,53.2c6.1,11,11.6,21.9,16.3,32.5L138.2,84.3z"/>
<path class="st0" d="M25.2,94.5c0.4,9,1.6,18,3.8,26.8l91.6,14.8c-4.3-9.1-8.8-17.8-13.2-25.6l-82-15.2L25.2,94.5z"/>
<path class="st0" d="M31.7,131.4l-0.2-0.7l92.8,13.7c-1-2.3-2-4.5-3-6.7l-91.9-14.9l-0.2-0.7C29.9,125.1,30.8,128.3,31.7,131.4z"/>
<path class="st0" d="M152.8,106.6l0.5,0.5c-4.2-7.5-8.9-14.8-14.1-21.7L125.6,145c3.1,7.1,5.9,14.1,8.4,21L152.8,106.6z"/>
<path class="st0" d="M145.1,207c2.8,16.3,3.3,31.5,1.6,45.6c5.9-10.8,28.3-55.7,23.4-99L145.1,207z"/>
<path class="st0" d="M47,164.8c4.6,6.9,9.6,13.5,15,19.8l-0.2-0.8l82,21.8c-1.6-9.1-3.8-18.1-6.5-26.9L47,164.8z"/>
<path class="st0" d="M86,75.5C70.8,52.8,58.6,38.3,58.4,38.1l0.2-0.4C46,39.8,36.7,47.8,31.2,59.8L86,75.5z"/>
<path class="st0" d="M138,177.8c0.3,0.8,0.5,1.7,0.8,2.5c2.4,8,4.4,16.1,5.9,24.2l24.7-53l0.5,0.6c-0.9-7.6-2.8-15.1-5.6-22.2
	c-1.1-2.8-2.3-5.6-3.5-8.3L138,177.8z"/>
<path class="st0" d="M106.5,108.9C100,97.3,93.3,86.6,87.1,77.2L31,61.1l-0.2-0.7c-4.1,9.1-6,20.5-5.7,33.4L106.5,108.9z"/>
<path class="st0" d="M144,207.1l-81.4-21.7c32.6,37.6,79.5,67.6,82.5,69.5C147.5,239.3,146.8,223.1,144,207.1z"/>
<path class="st0" d="M136.7,177.3L136.7,177.3c-3.3-10.7-7.3-21.2-11.8-31.4l-93-13.7c1.3,4.3,2.9,8.6,4.6,13.1
	c2.6,6.3,5.7,12.3,9.3,18L136.7,177.3z"/>
<path class="st0" d="M256.6,167.8l-22.2,26.3c-1.2,11.3-2.9,24-5.3,37.2l36.4-37.6l0.2,0.7c-2.1-10.1-5.2-19.3-9.3-27.1L256.6,167.8
	z"/>
<path class="st0" d="M234.6,192.1l21.5-25.4c-4.7-8.7-10.6-15.7-17.7-20.2c-0.4-0.2-0.7-0.5-1.1-0.7
	C237.3,148.8,237.2,167,234.6,192.1z"/>
<path class="st0" d="M262.1,273.5v0.8c1.2-4.7,2.3-9.3,3.2-14l-52.8,34.1v-0.3c-1,2.7-2,5.4-3.1,8L262.1,273.5z"/>
<path class="st0" d="M268.4,232.1l0.1,0.7c0.6-12.7-0.3-25.4-2.7-37.8l-37.1,38.4c-2.3,12.4-5,24.2-8.2,35.5L268.4,232.1z"/>
<path class="st0" d="M174.8,167.8c-5.5,7.2-10.2,14.9-14.2,23l61.1,69.8c2.5-9.8,4.6-19.3,6.2-28.1l-53.4-64L174.8,167.8z"/>
<path class="st0" d="M156.3,200.5l0.3-0.7l62.7,69.7c0.7-2.4,1.3-4.8,1.9-7.1L160,192.3l0.3-0.7
	C158.9,194.4,157.6,197.4,156.3,200.5z"/>
<path class="st0" d="M265.4,258.6l0.1,0.7c1.6-8.5,2.6-17.1,3-25.7L220,270.9c-2.1,7.5-4.4,14.6-6.9,21.5L265.4,258.6z"/>
<path class="st0" d="M195.4,331c-8.2,14.3-17.5,26.4-27.9,36.1c11.4-4.6,57.4-24.8,81.2-61.4L195.4,331z"/>
<path class="st0" d="M146.8,235.9c-0.9,8.2-1.3,16.5-1.1,24.8l0.4-0.7l49.2,69.1c4.5-8,8.6-16.3,12.1-24.9L146.8,235.9z"/>
<path class="st0" d="M233.7,192c2.8-27.2,2.6-46.1,2.6-46.4l0.5-0.2c-11.1-6.4-23.3-6.2-35.3-0.5L233.7,192z"/>
<path class="st0" d="M208.6,304c-0.3,0.8-0.7,1.6-1,2.4c-3.2,7.7-6.9,15.2-10.9,22.4l52.8-25v0.7c4.1-6.5,7.4-13.4,9.8-20.7
	c0.9-2.9,1.8-5.8,2.6-8.6L208.6,304z"/>
<path class="st0" d="M228.3,230.8c2.4-13.1,4.1-25.6,5.2-36.8l-32.9-48.2l0.3-0.7c-9,4.4-17.7,12-25.7,22.1L228.3,230.8z"/>
<path class="st0" d="M194.5,330.4l-48.8-68.6c1.2,49.7,18.1,102.8,19.2,106.1C176.6,357.4,186.4,344.5,194.5,330.4z"/>
<path class="st0" d="M207.9,302.9L207.9,302.9c4.3-10.4,7.9-21,11-31.7L156,201.3c-1.7,4.2-3.3,8.5-4.7,13c-2,6.5-3.5,13.1-4.3,19.9
	L207.9,302.9z"/>
<path class="st0" d="M49.2,192.6l10.3,32.8c8.9,7.1,18.7,15.3,28.6,24.4l-12.3-50.9l0.6,0.2c-9.7-3.7-19.1-5.9-27.9-6.7L49.2,192.6z
	"/>
<path class="st0" d="M57.9,224.3l-10-31.8c-9.9-0.7-18.9,0.6-26.6,4.1c-0.4,0.2-0.8,0.4-1.2,0.6C22.8,198.8,38.1,208.5,57.9,224.3z"
	/>
<path class="st0" d="M141.4,244.6l0.7,0.4c-3.3-3.6-6.7-7-10.1-10.2l0.5,62.8l-0.3-0.2c1.8,2.3,3.5,4.6,5.1,6.9L141.4,244.6z"/>
<path class="st0" d="M109.8,217.1l0.7,0.3c-10.4-7.3-21.6-13.3-33.4-18l12.5,51.9c9.3,8.6,17.8,17.2,25.6,25.9L109.8,217.1z"/>
<path class="st0" d="M5.4,261.8c3.1,8.5,7.1,16.6,11.9,24.3l91.7-14.2c-6.9-7.4-13.8-14.2-20.4-20.3L5.9,262.4L5.4,261.8z"/>
<path class="st0" d="M23.1,294.9l-0.4-0.6l92.5-15.7c-1.7-1.8-3.3-3.7-5-5.5l-92,14.3l-0.4-0.6C19.4,289.4,21.2,292.1,23.1,294.9z"
	/>
<path class="st0" d="M130.6,233.8l0.7,0.3c-6.3-5.9-13-11.3-20.1-16.3l5.5,60.9c5.2,5.8,10,11.6,14.5,17.4L130.6,233.8z"/>
<path class="st0" d="M154.3,331.8c7.7,14.6,12.9,28.9,15.6,42.8c2.2-12.1,9.7-61.7-8.4-101.4L154.3,331.8z"/>
<path class="st0" d="M47.9,321.9c6.5,5.2,13.3,9.9,20.4,14.2l-0.4-0.7l84.7-4.6c-4.4-8.1-9.2-16-14.5-23.5L47.9,321.9z"/>
<path class="st0" d="M57.4,224.9c-21.5-16.9-37.5-26.9-37.8-27.1l0.1-0.5c-11.4,6-17.7,16.4-19.3,29.6L57.4,224.9z"/>
<path class="st0" d="M138.5,306.1c0.5,0.7,1,1.4,1.5,2.1c4.7,6.8,9.1,13.9,13.1,21.2l7.2-58l0.6,0.4c-3.2-7-7.4-13.5-12.2-19.4
	c-1.9-2.3-3.9-4.6-5.9-6.8L138.5,306.1z"/>
<path class="st0" d="M87.2,250.3c-9.8-9-19.5-17.1-28.3-24.1l-58.3,2l-0.4-0.6c-1.1,9.9,0.6,21.4,4.9,33.5L87.2,250.3z"/>
<path class="st0" d="M153.3,332.1l-84.1,4.5c42.6,25.6,96.5,39.7,99.9,40.6C166.5,361.8,160.8,346.5,153.3,332.1z"/>
<path class="st0" d="M137.1,306L137.1,306c-6.5-9.2-13.5-17.9-20.9-26.3l-92.7,15.7c2.6,3.7,5.4,7.3,8.5,11
	c4.4,5.2,9.2,10,14.5,14.3L137.1,306z"/>
<g id="informasi" transform="translate(5901.867 -2750.571)">
	<line id="Line_29" class="st1" x1="-5637" y1="2996.4" x2="-5639.3" y2="2997"/>
	<line id="Line_30" class="st1" x1="-5651.7" y1="2999.9" x2="-5661.3" y2="3002.3"/>
	<g id="Group_1366">
		<ellipse id="Ellipse_600" class="st2" cx="-5508.9" cy="3127.8" rx="307" ry="8.2"/>
		<g id="Group_1356">
			<path id="Path_2529" class="st3" d="M-5673.1,2773.6h366.4c9.3,0,16.8,7.5,16.8,16.8v217.6c0,9.3-7.5,16.8-16.8,16.8l0,0h-366.4
				c-9.3,0-16.8-7.5-16.8-16.8v-217.6C-5689.9,2781.1-5682.4,2773.6-5673.1,2773.6z"/>
			
				<linearGradient id="Path_2528_1_" gradientUnits="userSpaceOnUse" x1="-11610.7676" y1="219.6209" x2="-11210.7676" y2="219.6209" gradientTransform="matrix(1 0 0 -1 5901.8672 3137.8711)">
				<stop  offset="0" style="stop-color:#FF9520"/>
				<stop  offset="0.3366" style="stop-color:#FF9821"/>
				<stop  offset="0.5734" style="stop-color:#FFA126"/>
				<stop  offset="0.7796" style="stop-color:#FFB12D"/>
				<stop  offset="0.9673" style="stop-color:#FFC637"/>
				<stop  offset="1" style="stop-color:#FFCB39"/>
			</linearGradient>
			<path id="Path_2528" class="st4" d="M-5692.1,2792.6h366.4c9.3,0,16.8,7.5,16.8,16.8v217.6c0,9.3-7.5,16.8-16.8,16.8l0,0h-366.4
				c-9.3,0-16.8-7.5-16.8-16.8v-217.6C-5708.9,2800.1-5701.4,2792.6-5692.1,2792.6z"/>
			<g id="Group_1355" transform="translate(-0.48)">
				<g id="Group_1353">
					<path id="Rectangle_447" class="st5" d="M-5658.5,2921.9h7.8c2.1,0,3.9,1.7,3.9,3.9v46c0,2.1-1.7,3.9-3.9,3.9h-7.8
						c-2.1,0-3.9-1.7-3.9-3.9v-46C-5662.4,2923.8-5660.7,2921.9-5658.5,2921.9z"/>
					<path id="Rectangle_448" class="st5" d="M-5630,2907.3h7.8c2.1,0,3.9,1.7,3.9,3.9v60.7c0,2.1-1.7,3.9-3.9,3.9h-7.8
						c-2.1,0-3.9-1.7-3.9-3.9v-60.7C-5633.9,2908.9-5632.1,2907.3-5630,2907.3z"/>
					<path id="Rectangle_449" class="st5" d="M-5601.4,2938.4h7.8c2.1,0,3.9,1.7,3.9,3.9v29.5c0,2.1-1.7,3.9-3.9,3.9h-7.8
						c-2.1,0-3.9-1.7-3.9-3.9v-29.5C-5605.3,2940.1-5603.5,2938.4-5601.4,2938.4z"/>
					<path id="Rectangle_450" class="st5" d="M-5575.4,2924.5h7.8c2.1,0,3.9,1.7,3.9,3.9v43.4c0,2.1-1.7,3.9-3.9,3.9h-7.8
						c-2.1,0-3.9-1.7-3.9-3.9v-43.4C-5579.3,2926.3-5577.6,2924.5-5575.4,2924.5z"/>
					<path id="Rectangle_451" class="st5" d="M-5546.8,2889h7.8c2.1,0,3.9,1.7,3.9,3.9v78.9c0,2.1-1.7,3.9-3.9,3.9h-7.8
						c-2.1,0-3.9-1.7-3.9-3.9v-78.9C-5550.7,2890.8-5549,2889-5546.8,2889z"/>
				</g>
				<g id="Group_1354">
					<path id="Rectangle_452" class="st5" d="M-5481.3,2897.9h120.6c2.9,0,5.3,2.4,5.3,5.3v58.2c0,2.9-2.4,5.3-5.3,5.3h-120.6
						c-2.9,0-5.3-2.4-5.3-5.3v-58.2C-5486.6,2900.3-5484.2,2897.9-5481.3,2897.9z"/>
					<path id="Path_310" class="st6" d="M-5466,2947.3l17.6-17.6c1-1,2.7-1,3.7,0l9.5,9.5c0.9,0.9,2.4,1,3.5,0.2l11.4-9.1
						c0.8-0.6,1.9-0.8,2.8-0.3l19.5,9.8c1.2,0.6,2.7,0.2,3.4-1l14.7-24.6c0.7-1.2,2.3-1.6,3.6-0.9c0,0,0.1,0,0.1,0.1l0,0
						c1.2,0.8,1.5,2.3,0.8,3.5l-17.7,29.1c-0.7,1.2-2.2,1.6-3.4,1l-19.5-9.8c-0.9-0.5-2-0.3-2.8,0.3l-12.8,10.5
						c-1,0.8-2.5,0.8-3.5-0.2l-9.6-9.6c-1-1-2.6-1-3.6-0.1l-14,12.9c-0.9,0.8-2.2,0.9-3.2,0.2l0,0c-1.2-0.8-1.5-2.4-0.7-3.6
						C-5466.3,2947.6-5466.2,2947.4-5466,2947.3z"/>
				</g>
			</g>
			<path id="Rectangle_726" class="st5" d="M-5661.1,2816.8h118.3c1,0,1.8,0.8,1.8,1.8v13.8c0,1-0.8,1.8-1.8,1.8h-118.3
				c-1,0-1.8-0.8-1.8-1.8v-13.8C-5662.9,2817.5-5662.1,2816.8-5661.1,2816.8z"/>
			<path id="Rectangle_727" class="st5" d="M-5661.1,2845.8h66.5c1,0,1.8,0.8,1.8,1.8v8.1c0,1-0.8,1.8-1.8,1.8h-66.5
				c-1,0-1.8-0.8-1.8-1.8v-8.1C-5662.9,2846.6-5662.1,2845.8-5661.1,2845.8z"/>
		</g>
		<g id="Group_1357" transform="translate(0 -1)">
			
				<linearGradient id="Ellipse_149_1_" gradientUnits="userSpaceOnUse" x1="-12085.5039" y1="4.8454" x2="-12085.5039" y2="5.8446" gradientTransform="matrix(84.464 0 0 84.464 1015281.25 2341.9907)">
				<stop  offset="0" style="stop-color:#FFA333"/>
				<stop  offset="1" style="stop-color:#FF8E55"/>
			</linearGradient>
			<circle id="Ellipse_149" class="st7" cx="-5508.7" cy="2793.4" r="42.2"/>
			<path id="Path_331" class="st5" d="M-5488.8,2810.1c-0.2,0-0.5,0-0.7-0.1l-6.9-4.9l-1.1-0.8c-1.1-0.7-1.3-2.2-0.6-3.3
				c0.3-0.4,0.5-0.8,0.8-1.3c1-1.9,1.5-4,1.5-6.2c0-7.5-6.1-13.6-13.7-13.6c-0.3,0-0.6,0-0.8,0c-6.8,0.5-12.3,5.9-12.8,12.7
				c-0.5,7.5,5.2,14,12.7,14.5l0,0c0.3,0,0.6,0,0.9,0c2.4,0,4.7-0.6,6.8-1.8l0.4-0.2c0.7-0.4,1.5-0.3,2.1,0.1l0.9,0.6
				c0.5,0.4,0.6,1.1,0.3,1.6c-0.1,0.1-0.2,0.2-0.3,0.3l0,0c-3.1,2.2-6.8,3.4-10.7,3.3c-9.5-0.3-17-8.2-17-17.7
				c0.1-9.6,8-17.3,17.7-17.2c0.4,0,0.8,0,1.2,0.1c8.4,0.7,15.1,7.3,16,15.7c0.3,3-0.2,6.1-1.5,8.9c-0.3,0.7-0.1,1.5,0.5,1.9
				l5.4,3.8C-5486.4,2807.5-5486.6,2809.8-5488.8,2810.1z"/>
		</g>
		<g id="Group_1365">
			<g id="Group_1361">
				<g id="Group_1358">
					
						<linearGradient id="Path_2361_1_" gradientUnits="userSpaceOnUse" x1="-12044.0371" y1="15.5703" x2="-12042.9346" y2="15.5703" gradientTransform="matrix(10.2461 0 0 25.8379 117772.7109 2713.0476)">
						<stop  offset="0" style="stop-color:#FFE8E0"/>
						<stop  offset="1" style="stop-color:#FFB5AA"/>
					</linearGradient>
					<path id="Path_2361" class="st8" d="M-5733.2,3107.3c-1.8,2.6-0.3,4.8-0.6,14.1c-0.1,2.5-0.3,4.5-0.4,5.8l9.8,1.1
						c0.1-5.3,0.4-25.8,0.4-25.8l0,0C-5724.2,3102.6-5730.7,3103.5-5733.2,3107.3z"/>
					
						<linearGradient id="Path_2362_1_" gradientUnits="userSpaceOnUse" x1="-12079.9814" y1="34.682" x2="-12078.9824" y2="34.682" gradientTransform="matrix(35.7148 0 0 11.2483 425699.8438 2733.303)">
						<stop  offset="0" style="stop-color:#002A5E"/>
						<stop  offset="1" style="stop-color:#2541A3"/>
					</linearGradient>
					<path id="Path_2362" class="st9" d="M-5732.4,3129h33.1c0.3,0,0.4-0.2,0.4-0.5c0-0.2-0.1-0.3-0.3-0.4l-27.3-10.2
						c-0.4-0.2-0.9-0.2-1.3-0.1l-6.1,0.9c-0.4,0.1-0.7,0.4-0.7,0.8l0.3,7.7C-5734.2,3128.3-5733.4,3129-5732.4,3129z"/>
				</g>
				<g id="Group_1359">
					
						<linearGradient id="Path_2363_1_" gradientUnits="userSpaceOnUse" x1="-12044.0684" y1="15.5688" x2="-12042.9648" y2="15.5688" gradientTransform="matrix(10.2461 0 0 25.8379 117815.6875 2711.4851)">
						<stop  offset="0" style="stop-color:#FFE8E0"/>
						<stop  offset="1" style="stop-color:#FFB5AA"/>
					</linearGradient>
					<path id="Path_2363" class="st10" d="M-5690.2,3105.6c-1.8,2.6-0.3,4.8-0.6,14.1c-0.1,2.5-0.3,4.5-0.4,5.8l9.8,1.1
						c0.1-5.3,0.4-25.8,0.4-25.8l0,0C-5681.3,3101-5687.7,3101.9-5690.2,3105.6z"/>
					
						<linearGradient id="Path_2364_1_" gradientUnits="userSpaceOnUse" x1="-12079.9814" y1="34.6737" x2="-12078.9824" y2="34.6737" gradientTransform="matrix(35.7148 0 0 11.2485 425742.8438 2731.8904)">
						<stop  offset="0" style="stop-color:#002A5E"/>
						<stop  offset="1" style="stop-color:#2541A3"/>
					</linearGradient>
					<path id="Path_2364" class="st11" d="M-5689.4,3127.5h33.1c0.3,0,0.4-0.2,0.4-0.5c0-0.2-0.1-0.3-0.3-0.4l-27.3-10.2
						c-0.4-0.2-0.9-0.2-1.3-0.1l-6.1,0.9c-0.4,0.1-0.7,0.4-0.7,0.8l0.3,7.7C-5691.2,3126.8-5690.4,3127.4-5689.4,3127.5z"/>
				</g>
				<g id="Group_1360">
					
						<linearGradient id="Path_2365_1_" gradientUnits="userSpaceOnUse" x1="-12081.8564" y1="2.7815" x2="-12081.5313" y2="3.5786" gradientTransform="matrix(46.3301 0 0 168.7881 554057.3125 2504.6655)">
						<stop  offset="0" style="stop-color:#002A5E"/>
						<stop  offset="1" style="stop-color:#2541A3"/>
					</linearGradient>
					<path id="Path_2365" class="st12" d="M-5673.7,3110.8l-5.6-168.4l-40.8,2.1l27.1,166.6L-5673.7,3110.8z"/>
					
						<linearGradient id="Path_2366_1_" gradientUnits="userSpaceOnUse" x1="-12059.7627" y1="20.3235" x2="-12058.7666" y2="20.3235" gradientTransform="matrix(11.8379 0 0 19.53 137068.5938 2573.9829)">
						<stop  offset="0" style="stop-color:#FFE8E0"/>
						<stop  offset="1" style="stop-color:#FFB5AA"/>
					</linearGradient>
					<path id="Path_2366" class="st13" d="M-5672,2961.1c-1.4,10.9-4.4,19.6-6.6,19.5c-1.9,0-3.2-6.3-4.9-14.8
						c-0.1-0.6-0.2-1.2-0.4-1.8c2.7,0.4,5.4,0.2,7.9-0.7C-5674.5,2962.8-5673.2,2962-5672,2961.1z"/>
					
						<linearGradient id="Path_2367_1_" gradientUnits="userSpaceOnUse" x1="-12080.917" y1="2.9217" x2="-12080.7754" y2="3.5777" gradientTransform="matrix(41.1724 0 0 159.0061 491681.2813 2518.6284)">
						<stop  offset="0" style="stop-color:#002A5E"/>
						<stop  offset="1" style="stop-color:#2541A3"/>
					</linearGradient>
					<path id="Path_2367" class="st14" d="M-5737.3,2953l1,159l19.9-0.7l20.2-155.6L-5737.3,2953z"/>
					
						<linearGradient id="Path_2368_1_" gradientUnits="userSpaceOnUse" x1="-12080.4619" y1="5.3271" x2="-12079.4316" y2="5.3271" gradientTransform="matrix(36.3193 0 0 84.7766 433035.5 2470.2803)">
						<stop  offset="0" style="stop-color:#79C2F0"/>
						<stop  offset="0.178" style="stop-color:#6EB0ED"/>
						<stop  offset="0.439" style="stop-color:#629DEA"/>
						<stop  offset="0.708" style="stop-color:#5B92E8"/>
						<stop  offset="1" style="stop-color:#598FE8"/>
					</linearGradient>
					<path id="Path_2368" class="st15" d="M-5671.2,2949.4c0,2-0.1,4-0.2,5.9c-0.1,2-0.3,3.9-0.6,5.8c-1.2,0.9-2.5,1.7-3.9,2.2
						c-2.5,0.9-5.3,1.2-7.9,0.7c-0.6-2.9-1-5.4-1.2-7.5c-1.2-9.2-0.5-12.5-2-19.2c-4.3-18.4-15.8-18.8-19.3-37.9
						c-0.7-3.8-2.8-15.3,1.8-18.8c5.8-4.4,21.4,4.3,26.1,17.1c1.2,3.3,1.3,5.7,1.6,9.6C-5675.2,2931.9-5671.1,2934-5671.2,2949.4z"
						/>
					<path id="Path_2369" class="st5" d="M-5688.1,2981.3l-9.8,2.3c-0.4-3.7-0.9-8-1.4-12.7c-5.3-50.3-4-57.5-9.8-73.1
						c-2.9-7.7-6.5-15.2-10.8-22.3c2.2-0.3,4.5-0.4,6.7-0.1c0.5,0,0.9,0.1,1.3,0.1c0.9,1.1,1.8,2.2,2.6,3.3
						c10.1,14.1,10.9,30.1,11.5,38.4C-5696,2938.6-5692.8,2960-5688.1,2981.3z"/>
					
						<linearGradient id="Path_2370_1_" gradientUnits="userSpaceOnUse" x1="-12080.4863" y1="4.3047" x2="-12079.4395" y2="4.3047" gradientTransform="matrix(36.3882 0 0 109.8279 433863.9375 2457.5789)">
						<stop  offset="0" style="stop-color:#79C2F0"/>
						<stop  offset="0.178" style="stop-color:#6EB0ED"/>
						<stop  offset="0.439" style="stop-color:#629DEA"/>
						<stop  offset="0.708" style="stop-color:#5B92E8"/>
						<stop  offset="1" style="stop-color:#598FE8"/>
					</linearGradient>
					<path id="Path_2370" class="st16" d="M-5677.5,2979.5c-1.1,1.9-2.6,3.5-4.3,4.9c-1.6,1.3-4,1-5.3-0.6c-0.4-0.5-0.7-1.1-0.8-1.8
						c-6-27.9-8.6-49.1-9.7-64.9c-0.6-8.3-1.5-24.3-11.5-38.4c-0.8-1.2-1.7-2.3-2.6-3.3c13.7,1.6,20.9,6.7,24.6,12.6
						c6.7,10.6-1.3,18.5,1.9,42.9C-5682,2956.4-5670.8,2968.3-5677.5,2979.5z"/>
					
						<linearGradient id="Path_2371_1_" gradientUnits="userSpaceOnUse" x1="-12082.3135" y1="4.1511" x2="-12081.2793" y2="4.1511" gradientTransform="matrix(44.6475 0 0 114.8979 533691.6875 2456.093)">
						<stop  offset="0" style="stop-color:#79C2F0"/>
						<stop  offset="0.178" style="stop-color:#6EB0ED"/>
						<stop  offset="0.439" style="stop-color:#629DEA"/>
						<stop  offset="0.708" style="stop-color:#5B92E8"/>
						<stop  offset="1" style="stop-color:#598FE8"/>
					</linearGradient>
					<path id="Path_2371" class="st17" d="M-5699.2,2970.8c0.6,5.4,1.1,10.2,1.6,14.3c0.4,2.5-1.3,4.8-3.8,5.2
						c-0.2,0-0.5,0.1-0.7,0.1c-2-0.1-4.2-0.3-6.8-0.7c-16.8-2.2-25.2-3.3-28.6-7.5c-6.4-7.9,1-16.7,1.1-40
						c0.1-27.9-10.3-38.4-3.4-52.2c1.4-2.6,3.1-5,5.2-7.1c1.8-1.8,3.9-3.3,6.2-4.5c2.7-1.4,5.6-2.4,8.7-2.8
						c4.3,7.1,7.9,14.5,10.8,22.3C-5703.3,2913.3-5704.6,2920.5-5699.2,2970.8z"/>
					
						<linearGradient id="Path_2372_1_" gradientUnits="userSpaceOnUse" x1="-12069.5801" y1="20.851" x2="-12068.5732" y2="20.851" gradientTransform="matrix(17.4277 0 0 19.0173 204593.2031 2582.1389)">
						<stop  offset="0" style="stop-color:#FFE8E0"/>
						<stop  offset="1" style="stop-color:#FFB5AA"/>
					</linearGradient>
					<path id="Path_2372" class="st18" d="M-5725.9,2987.5c-2.6,2.8-11.2-4.2-16.6-9.8c2-0.6,3.9-1.4,5.7-2.4c3-1.6,5.6-3.7,7.9-6.2
						C-5726.2,2976.8-5723.8,2985.3-5725.9,2987.5z"/>
					
						<linearGradient id="Path_2373_1_" gradientUnits="userSpaceOnUse" x1="-12081.0781" y1="4.8724" x2="-12080.0918" y2="4.8724" gradientTransform="matrix(38.8008 0 0 94.3728 462982.9375 2470.7588)">
						<stop  offset="0" style="stop-color:#79C2F0"/>
						<stop  offset="0.178" style="stop-color:#6EB0ED"/>
						<stop  offset="0.439" style="stop-color:#629DEA"/>
						<stop  offset="0.708" style="stop-color:#5B92E8"/>
						<stop  offset="1" style="stop-color:#598FE8"/>
					</linearGradient>
					<path id="Path_2373" class="st19" d="M-5740.8,2937.1c-0.6,5.8,2.5,7.6,8.3,22.4c0.4,1.1,0.9,2.4,1.5,3.7
						c0.7,1.8,1.4,3.8,2.2,5.9c-2.3,2.5-4.9,4.6-7.9,6.2c-1.8,1-3.8,1.8-5.7,2.4c-0.2-0.2-0.4-0.4-0.6-0.6c-0.8-0.9-2.2-2.4-3.9-4.4
						c-6.4-7.8-16.7-23.6-14.9-44.8c0.7-8.2,3.1-16.1,7.1-23.3c5.4-10,17.3-24.7,24.8-20.5c6.1,3.4,8.6,19,5,30
						C-5729.2,2926.8-5739.7,2926.8-5740.8,2937.1z"/>
					
						<linearGradient id="Path_2374_1_" gradientUnits="userSpaceOnUse" x1="-12060.0654" y1="15.2078" x2="-12060.0654" y2="15.7369" gradientTransform="matrix(12.478 0 0 26.4385 144771.1875 2468.8237)">
						<stop  offset="0" style="stop-color:#FFBAB0"/>
						<stop  offset="1" style="stop-color:#FFE6DD"/>
					</linearGradient>
					<path id="Path_2374" class="st20" d="M-5717.3,2858.8c-0.8,0.5-2,1.6-1.8,7.1c0.2,8.1-1.7,10.5-1.4,11.8c1.1,4.4,5.2,8.3,8.7,7
						c2-0.9,3.4-2.7,3.7-4.9c0.2-2.1-1.1-2.7-2-5.7c-1.2-4.3,0.8-6.1-0.2-9.7C-5711.5,2860.3-5715.4,2857.5-5717.3,2858.8z"/>
					
						<linearGradient id="Path_2375_1_" gradientUnits="userSpaceOnUse" x1="-12071.4766" y1="17.6867" x2="-12071.4766" y2="18.6867" gradientTransform="matrix(20.1987 0 0 21.9431 238114.4375 2464.7881)">
						<stop  offset="0" style="stop-color:#FFE6DD"/>
						<stop  offset="1" style="stop-color:#FFBAB0"/>
					</linearGradient>
					<path id="Path_2375" class="st21" d="M-5703.6,2863.8c0,6.1-4.5,11-10.1,11s-10.1-4.9-10.1-10.9s4.5-11,10.1-11
						S-5703.6,2857.8-5703.6,2863.8z"/>
					
						<linearGradient id="Path_2376_1_" gradientUnits="userSpaceOnUse" x1="-12076.1729" y1="17.158" x2="-12076.1729" y2="18.158" gradientTransform="matrix(27.1025 0 0 22.2974 321581.0625 2454.7336)">
						<stop  offset="0" style="stop-color:#432929"/>
						<stop  offset="1" style="stop-color:#966565"/>
					</linearGradient>
					<path id="Path_2376" class="st22" d="M-5704.9,2861.3c1,0,1.9-0.3,2.7-0.8c2.3-1.7,2.7-6,2-8.8c-1.9-7.2-12.1-8.4-12.5-8.5
						c-2.1-0.2-7.4-0.8-11.1,3c-6.1,6.3-1.8,19-0.1,19.1c1.5,0.2,0.8-9.3,5-10.2C-5715.1,2854.3-5711.7,2861.5-5704.9,2861.3z"/>
				</g>
			</g>
			<g id="Group_1364">
				<g id="Group_1362">
					
						<linearGradient id="Path_2377_1_" gradientUnits="userSpaceOnUse" x1="-12075.1943" y1="25.0142" x2="-12075.1943" y2="26.0142" gradientTransform="matrix(25.3027 0 0 15.4272 300265.6563 2684.0994)">
						<stop  offset="0" style="stop-color:#FFE8E0"/>
						<stop  offset="1" style="stop-color:#FFB5AA"/>
					</linearGradient>
					<path id="Path_2377" class="st23" d="M-5274.6,3069.9c2.9-0.6,4.3,1.5,12.6,4.6c2.2,0.8,4,1.4,5.3,1.7c-0.9,3-1.7,6-2.6,9
						l-22.7-9l0,0C-5281.9,3076.1-5278.7,3070.8-5274.6,3069.9z"/>
					
						<linearGradient id="Path_2378_1_" gradientUnits="userSpaceOnUse" x1="-12061.0391" y1="11.3563" x2="-12061.0391" y2="12.3571" gradientTransform="matrix(12.9146 0 0 34.5486 150501.3594 2680.7673)">
						<stop  offset="0" style="stop-color:#002A5E"/>
						<stop  offset="1" style="stop-color:#2541A3"/>
					</linearGradient>
					<path id="Path_2378" class="st24" d="M-5255.8,3078.5l-12,28.9c-0.1,0.2-0.4,0.3-0.6,0.2s-0.2-0.2-0.2-0.4l1-27.6
						c0-0.4,0.1-0.8,0.4-1.2l3-5c0.2-0.3,0.6-0.4,1-0.3l6.6,3C-5255.8,3076.6-5255.5,3077.6-5255.8,3078.5z"/>
				</g>
				<g id="Group_1363">
					
						<linearGradient id="Path_2379_1_" gradientUnits="userSpaceOnUse" x1="-12053.4043" y1="15.9398" x2="-12053.4043" y2="16.9398" gradientTransform="matrix(10.2085 0 0 24.3999 117676.6016 2714.8879)">
						<stop  offset="0" style="stop-color:#FFE8E0"/>
						<stop  offset="1" style="stop-color:#FFB5AA"/>
					</linearGradient>
					<path id="Path_2379" class="st25" d="M-5366.2,3108.8c1.5,2.6,0,4.5-0.2,13.4c-0.1,2.4,0,4.3,0.1,5.5l-9.3,0.5
						c0.2-5,1.1-24.4,1.1-24.4l0,0C-5374.4,3103.9-5368.3,3105.1-5366.2,3108.8z"/>
					
						<linearGradient id="Path_2380_1_" gradientUnits="userSpaceOnUse" x1="-12079.0234" y1="35.2221" x2="-12079.0234" y2="36.2218" gradientTransform="matrix(34.2305 0 0 10.9128 408088.2813 2734.2251)">
						<stop  offset="0" style="stop-color:#002A5E"/>
						<stop  offset="1" style="stop-color:#2541A3"/>
					</linearGradient>
					<path id="Path_2380" class="st26" d="M-5368.2,3129.3l-31.3-1.9c-0.2,0-0.4-0.2-0.4-0.5c0-0.2,0.1-0.3,0.3-0.4l26.4-8
						c0.4-0.1,0.8-0.1,1.3-0.1l5.7,1.2c0.4,0.1,0.6,0.4,0.6,0.8l-0.7,7.2C-5366.5,3128.8-5367.3,3129.4-5368.2,3129.3z"/>
				</g>
				
					<linearGradient id="Path_2381_1_" gradientUnits="userSpaceOnUse" x1="-12086.8789" y1="2.6745" x2="-12086.8789" y2="3.5966" gradientTransform="matrix(122.6709 0 0 165.6802 1477377 2512.1768)">
					<stop  offset="0" style="stop-color:#002A5E"/>
					<stop  offset="1" style="stop-color:#2541A3"/>
				</linearGradient>
				<path id="Path_2381" class="st27" d="M-5342.6,2957.3c5.2,3.6,9.6,8.3,12.7,13.8c0.9,1.5,3,5.3,7,22.5c1.7,7.3,2.1,9.8,2.7,12.4
					c1,4.3,5.3,16.4,28.4,44.5c4.5,5.5,13.5,11,21.9,19.1c-3.5,7.7-7,15.5-10.6,23.2c-6.9-1.1-15.6-6.7-25.8-14.2
					c-9.1-6.7-13.3-10.9-20.5-21.3c-3.7-5.4-19.2-21.8-25.2-49.6c-1.3-6.2-2.9-7.1-3.3-10.6c-1.3,3.7-2.3,7.6-2.9,11.5
					c-2.1,11.9-1.9,19.6-2.4,33.3c-0.4,9.7-0.4,4.5-1.9,29.6c-0.7,11.4-1.4,25.9-2.2,42.9l-26.3,0.2c-0.5-5.3-1-12.4-1.4-20.7
					c-0.2-3.8-0.8-20.2,0.3-42.9c1-20.8,1.6-33.5,4.6-50c3.3-17.8,8.3-35.3,15.2-52.1C-5366.7,2948.9-5353.9,2949.8-5342.6,2957.3z"
					/>
				
					<linearGradient id="Path_2382_1_" gradientUnits="userSpaceOnUse" x1="-12047.748" y1="37.6821" x2="-12046.748" y2="37.6821" gradientTransform="matrix(8.7334 0 0 10.335 99897.3203 2572.3525)">
					<stop  offset="0" style="stop-color:#FFE8E0"/>
					<stop  offset="1" style="stop-color:#FFB5AA"/>
				</linearGradient>
				<path id="Path_2382" class="st28" d="M-5312.4,2966.8c-1.5,0.7-5.2-2.6-8.1-5.6c1.7-0.8,3.3-1.8,4.8-2.9
					c0.8-0.6,1.6-1.1,2.3-1.7C-5311.8,2962.6-5311.2,2966.3-5312.4,2966.8z"/>
				
					<linearGradient id="Path_2383_1_" gradientUnits="userSpaceOnUse" x1="-12073.5488" y1="11.3537" x2="-12072.6396" y2="10.8078" gradientTransform="matrix(22.0137 0 0 37.2424 260409.0469 2459.6602)">
					<stop  offset="0" style="stop-color:#FFE8E0"/>
					<stop  offset="1" style="stop-color:#FFB5AA"/>
				</linearGradient>
				<path id="Path_2383" class="st29" d="M-5351.9,2886.3c-2,3.3-7.5,5-10.4,3c-1.1-0.9-1.9-2.2-2.2-3.6c-1.4-4.4,1.2-6.4-0.2-9.2
					c-1.2-2.6,1.7-10.3-0.2-13.3c-1.3-2.2-9.3-8-7.9-9.2c1.6-1.4,11.7-1.3,18.9-0.3c4.8,0.7,0.8,13.5,2.2,15
					c1.3,1.4,0.6,2.9,0.4,10.4C-5351.4,2884.3-5351.1,2884.8-5351.9,2886.3z"/>
				
					<linearGradient id="Path_2384_1_" gradientUnits="userSpaceOnUse" x1="-12081.21" y1="6.0374" x2="-12080.21" y2="6.0374" gradientTransform="matrix(40.4819 0 0 73.2393 483716.6563 2482.4495)">
					<stop  offset="0" style="stop-color:#79C2F0"/>
					<stop  offset="0.178" style="stop-color:#6EB0ED"/>
					<stop  offset="0.439" style="stop-color:#629DEA"/>
					<stop  offset="0.708" style="stop-color:#5B92E8"/>
					<stop  offset="1" style="stop-color:#598FE8"/>
				</linearGradient>
				<path id="Path_2384" class="st30" d="M-5313.4,2956.6c-0.7,0.6-1.5,1.2-2.3,1.7c-1.5,1.1-3.1,2-4.8,2.9c-0.7-0.7-1.3-1.4-1.8-2
					c-1-1.1-1.7-2-2-2.4c-11.4-16.1-7.6-22.2-15.5-38.8c-4-8.5-9.8-10.4-13.6-20.2c0-0.1,0-0.1-0.1-0.1c-1.4-3.8,0.5-7.9,4.3-9.3
					c1.6-0.6,3.3-0.6,4.9,0c5.7,2,11.2,5.3,14.9,10.7c3.6,5.2,2.9,10.1,4.6,17c3.8,15.7,8.2,29.2,10.8,38.4
					C-5313.8,2955.3-5313.6,2955.9-5313.4,2956.6z"/>
				
					<linearGradient id="Path_2385_1_" gradientUnits="userSpaceOnUse" x1="-12084.2529" y1="4.7063" x2="-12083.2529" y2="4.7063" gradientTransform="matrix(60.4717 0 0 98.4512 725371.875 2466.2244)">
					<stop  offset="0" style="stop-color:#79C2F0"/>
					<stop  offset="0.178" style="stop-color:#6EB0ED"/>
					<stop  offset="0.439" style="stop-color:#629DEA"/>
					<stop  offset="0.708" style="stop-color:#5B92E8"/>
					<stop  offset="1" style="stop-color:#598FE8"/>
				</linearGradient>
				<path id="Path_2385" class="st31" d="M-5352.7,2881.4c-8.8-2.7-18.6-0.6-24.8,6.3c-0.3,0.3-0.6,0.7-0.9,1
					c-8.8,10.7-2.8,21.9-3.3,53.1c-0.4,22.9-3.8,32.5,1.8,36c5.6,3.6,12.7-3.9,28.8-5.7c15.5-1.7,22.9,6.9,27,3
					c4.2-4-2.6-13.2-6.9-31.5c-7-29.4,1.9-42.5-8.7-54.3C-5343.3,2885.5-5347.8,2882.8-5352.7,2881.4z"/>
				
					<linearGradient id="Path_2386_1_" gradientUnits="userSpaceOnUse" x1="-12050.7275" y1="33.2805" x2="-12049.7275" y2="33.2805" gradientTransform="matrix(9.3892 0 0 11.7324 107723.1797 2511.3132)">
					<stop  offset="0" style="stop-color:#FFE8E0"/>
					<stop  offset="1" style="stop-color:#FFB5AA"/>
				</linearGradient>
				<path id="Path_2386" class="st32" d="M-5413.9,2902c-1.8,0.7-3.5,1.6-5,2.8c-1.1,0.8-2.1,1.8-3,2.8c-1.9-5.5-1.9-10.6-0.1-11.6
					C-5420.3,2895.1-5417.3,2898.3-5413.9,2902z"/>
				
					<linearGradient id="Path_2387_1_" gradientUnits="userSpaceOnUse" x1="-12083.0986" y1="10.5454" x2="-12082.0986" y2="10.5454" gradientTransform="matrix(50.9331 0 0 39.2119 610007.9375 2491.4709)">
					<stop  offset="0" style="stop-color:#79C2F0"/>
					<stop  offset="0.178" style="stop-color:#6EB0ED"/>
					<stop  offset="0.439" style="stop-color:#629DEA"/>
					<stop  offset="0.708" style="stop-color:#5B92E8"/>
					<stop  offset="1" style="stop-color:#598FE8"/>
				</linearGradient>
				<path id="Path_2387" class="st33" d="M-5386.9,2921.6c-3.2,1.7-6.7,2.7-10.3,2.9c-1.1,0-12,0.4-19.5-8.1c-0.5-0.6-1-1.2-1.5-1.9
					c-1.5-2.1-2.7-4.5-3.6-6.9c0.9-1,1.9-2,3-2.8c1.5-1.2,3.2-2.1,5-2.8c1.4,1.5,3,3.1,4.6,4.5c3.2,2.8,6.6,4.8,9.7,3.6
					c4.6-1.7,3.9-7.6,11.7-15.7c3.5-3.7,11.7-10.7,15-8.7C-5368,2888.8-5371.9,2913.5-5386.9,2921.6z"/>
				
					<linearGradient id="Ellipse_630_1_" gradientUnits="userSpaceOnUse" x1="-12075.499" y1="15.8002" x2="-12076.083" y2="14.84" gradientTransform="matrix(26.552 0 0 26.552 315277.5625 2461.6545)">
					<stop  offset="0" style="stop-color:#FFE8E0"/>
					<stop  offset="1" style="stop-color:#FFB5AA"/>
				</linearGradient>
				<circle id="Ellipse_630" class="st34" cx="-5361.2" cy="2864.5" r="13.3"/>
				
					<linearGradient id="Path_2388_1_" gradientUnits="userSpaceOnUse" x1="-12079.4287" y1="11.489" x2="-12079.4287" y2="12.489" gradientTransform="matrix(35.5469 0 0 34.1389 424029 2448.4282)">
					<stop  offset="0" style="stop-color:#432929"/>
					<stop  offset="1" style="stop-color:#966565"/>
				</linearGradient>
				<path id="Path_2388" class="st35" d="M-5347.7,2873.4c6.2-3,7.7-10.7,7.9-11.8c0.9-5,0-12.8-5.5-16.9
					c-9.4-6.8-17.6-3.9-23.4-0.2c-4.6,2.9-7.3,10.4-6.1,13.6c1,2.8,6.6,2,8.2,5.7c1,2.4-0.7,4.4,0.6,5.7c1.4,1.4,3.6-0.6,6.5,0.7
					c2.4,1.1,2.3,3,4.5,4C-5352.1,2875.5-5348.8,2873.9-5347.7,2873.4z"/>
			</g>
		</g>
	</g>
</g>
</svg>
