<?xml version="1.0" encoding="utf-8"?>
<!-- Generator: Adobe Illustrator 23.0.3, SVG Export Plug-In . SVG Version: 6.00 Build 0)  -->
<svg version="1.1" id="Layer_1" xmlns="http://www.w3.org/2000/svg" xmlns:xlink="http://www.w3.org/1999/xlink" x="0px" y="0px"
	 viewBox="0 0 762.7 350.2" style="enable-background:new 0 0 762.7 350.2;" xml:space="preserve">
<style type="text/css">
	.st0{opacity:0.75;fill:#FAEED4;enable-background:new    ;}
	.st1{fill:#F6B854;}
	.st2{fill:#FAEED4;}
	.st3{fill:#F9F5ED;}
	.st4{fill:#FAE6B4;}
	.st5{fill:#FBDC90;}
	.st6{fill:url(#Path_2230_1_);}
	.st7{opacity:0.75;fill:url(#Path_2232-2_1_);enable-background:new    ;}
	.st8{fill:url(#Path_2233-2_1_);}
	.st9{fill:url(#Rectangle_692-2_1_);}
	.st10{fill:url(#Rectangle_693-2_1_);}
	.st11{fill:url(#Rectangle_694-2_1_);}
	.st12{fill:url(#Rectangle_695-2_1_);}
	.st13{fill:url(#Path_2245_1_);}
	.st14{fill:url(#Path_2246_1_);}
	.st15{fill:url(#Path_2247_1_);}
	.st16{fill:url(#Path_2248_1_);}
	.st17{fill:url(#Path_2249_1_);}
	.st18{fill:url(#Path_2250_1_);}
	.st19{fill:url(#Path_2251_1_);}
	.st20{fill:url(#Path_2252_1_);}
	.st21{fill:url(#Ellipse_601_1_);}
	.st22{fill:url(#Path_2254_1_);}
	.st23{fill:url(#Path_2255_1_);}
	.st24{fill:#FFB5AA;}
	.st25{fill:#6A67A1;}
	.st26{fill:url(#Path_2234_1_);}
	.st27{fill:url(#Path_2235_1_);}
	.st28{fill:url(#Path_2236_1_);}
	.st29{fill:url(#Path_2237_1_);}
	.st30{fill:url(#Path_2238_1_);}
	.st31{fill:url(#Path_2239_1_);}
	.st32{fill:url(#Path_2240_1_);}
	.st33{fill:url(#Path_2241_1_);}
	.st34{fill:#F1FF5D;}
	.st35{fill:url(#Path_2243_1_);}
	.st36{fill:url(#Path_2244_1_);}
	.st37{fill:url(#Ellipse_603_1_);}
	.st38{fill:url(#Path_2261_1_);}
	.st39{fill:url(#Ellipse_149_1_);}
	.st40{fill:#FFFFFF;}
	.st41{fill:#E7A042;}
	.st42{fill:#095565;}
</style>
<g id="internet" transform="translate(-247.001 -4073)">
	<g id="Group_1281" transform="translate(3575.596 1965.672)">
		<g id="Group_1272" transform="translate(-3328.595 2150.328)">
			<g id="Group_1460" transform="translate(126.177 -22)">
				<path id="Path_2232" class="st0" d="M317,297h-92.4c-5.9,0-10.7-4.8-10.7-10.7c0-0.6,0-1.2,0.1-1.8l10-59.4
					c0.9-5.2,5.3-8.9,10.6-8.9h72.4c5.2,0,9.7,3.8,10.6,8.9l10,59.4c1,5.8-3,11.4-8.8,12.4C318.2,296.9,317.6,297,317,297z"/>
				<path id="Path_2233" class="st1" d="M83.7,0c-7.9,0-14.3,6.4-14.3,14.3c0,0,0,0,0,0v210.3c0,7.9,6.4,14.3,14.3,14.3c0,0,0,0,0,0
					h376c7.9,0,14.3-6.4,14.3-14.3c0,0,0,0,0,0V14.3C474,6.4,467.6,0,459.7,0c0,0,0,0,0,0H83.7z"/>
				<g id="Group_1270" transform="translate(319.903 21.826)">
					<path id="Rectangle_692" class="st2" d="M121,0h7c1.5,0,2.7,1.2,2.7,2.7v5.8c0,1.5-1.2,2.7-2.7,2.7h-7c-1.5,0-2.7-1.2-2.7-2.7
						V2.7C118.3,1.2,119.5,0,121,0z"/>
					<path id="Rectangle_693" class="st2" d="M97.4,0h7c1.5,0,2.7,1.2,2.7,2.7v5.8c0,1.5-1.2,2.7-2.7,2.7h-7c-1.5,0-2.7-1.2-2.7-2.7
						V2.7C94.7,1.2,95.9,0,97.4,0z"/>
					<path id="Rectangle_694" class="st2" d="M72.1,0h7c1.5,0,2.7,1.2,2.7,2.7v5.8c0,1.5-1.2,2.7-2.7,2.7h-7c-1.5,0-2.7-1.2-2.7-2.7
						V2.7C69.4,1.2,70.6,0,72.1,0z"/>
				</g>
				<path id="Rectangle_695" class="st2" d="M231.9,222.2h77.9c0.8,0,1.4,0.6,1.4,1.4v3.1c0,0.8-0.6,1.4-1.4,1.4h-77.9
					c-0.8,0-1.4-0.6-1.4-1.4v-3.1C230.5,222.8,231.1,222.2,231.9,222.2z"/>
			</g>
			<ellipse id="Ellipse_600" class="st3" cx="376.5" cy="299" rx="307" ry="8.2"/>
			<g id="Group_1269" transform="translate(23.807 33.706)">
				<g id="Group_1266" transform="translate(0 81.743)">
					<path id="Path_2227" class="st4" d="M132.2,143.8c0,0,49.4-95.4,16.5-75.7c0,0-13.7,18.1-4.9-24.7c0,0,3.3-18.2-19.2-14.4
						c0,0-25.8-25.8-43.9-29.1c0,0,9.9,29.6-5.5,47.2c-18.5,21.2,13,35.5,23.6,38.5c0,0-47.7-9.3-3.3,24.1S126.7,126.8,132.2,143.8z
						"/>
					<path id="Path_2228" class="st5" d="M144.8,181.7h-29.3c-2.3,0-4.2-1.7-4.5-3.9l-5.9-40.8c-0.3-2.5,1.4-4.8,3.9-5.1
						c0.2,0,0.4,0,0.6,0h41.1c2.5,0,4.5,2,4.5,4.6c0,0.2,0,0.4,0,0.6l-5.9,40.8C149,180,147,181.7,144.8,181.7z"/>
				</g>
				<g id="Group_1268" transform="translate(389.422)">
					<g id="Group_1267">
						<path id="Path_2229" class="st4" d="M171.6,223.5c0,0,13.7-44.1,40.1-65.4s36-39.3,7.9-33.9s17.4-17,19.9-18.4
							s13.7-14.1,1.2-39.7s-7.4-59.6-4.1-64.5s-17.4,1.9-38.1,21.8c-18.8,18-13.7,22.5-31.7,22.1c-4.9-0.1-9.4,3.6-10.6,9.3
							c-1.6,7.6-1.9,20.9,3.1,43.5c0.4,1.9-1.1,3.5-2.6,3c-8.8-3.2-30-8.8-21.2,14c11,28.6,17.8,41.2,25.4,68.8
							S171.6,223.5,171.6,223.5z"/>
						
							<linearGradient id="Path_2230_1_" gradientUnits="userSpaceOnUse" x1="-545.4084" y1="480.8246" x2="-545.0424" y2="481.6017" gradientTransform="matrix(101.7876 0 0 -122.0361 55625.3516 58864.0586)">
							<stop  offset="0" style="stop-color:#FFFFFF"/>
							<stop  offset="0.373" style="stop-color:#ECF2F6"/>
							<stop  offset="1" style="stop-color:#D0E1EB"/>
						</linearGradient>
						<path id="Path_2230" class="st6" d="M171.2,214.7c0,0-22.8-45.6-53.6-48s6-18.7,3.5-23.3s-37.4,0-48.6-25.2
							c-10.3-23.3,5-37.9,48.8-11.4c7.8,4.9,14.1,11.7,18.5,19.7C151.1,146.9,171.8,187.8,171.2,214.7z"/>
						<path id="Path_2231" class="st5" d="M148,209.7h45.9c2,0,3.5,1.6,3.5,3.5c0,0.2,0,0.4-0.1,0.6l-7.9,46.3
							c-0.3,1.7-1.8,3-3.5,2.9h-31.2c-1.8,0-3.3-1.3-3.5-3l-6.8-46.3c-0.3-1.9,1.1-3.7,3-4C147.6,209.8,147.8,209.7,148,209.7z"/>
					</g>
				</g>
			</g>
			<g id="Group_1271" transform="translate(105.177)">
				<linearGradient id="Path_2232-2_1_" gradientUnits="userSpaceOnUse" x1="213.9513" y1="256.585" x2="327.767" y2="256.585">
					<stop  offset="0" style="stop-color:#FF9520"/>
					<stop  offset="0.3366" style="stop-color:#FF9821"/>
					<stop  offset="0.5734" style="stop-color:#FFA126"/>
					<stop  offset="0.7796" style="stop-color:#FFB12D"/>
					<stop  offset="0.9673" style="stop-color:#FFC637"/>
					<stop  offset="1" style="stop-color:#FFCB39"/>
				</linearGradient>
				<path id="Path_2232-2" class="st7" d="M317,297h-92.4c-5.9,0-10.7-4.8-10.7-10.7c0-0.6,0-1.2,0.1-1.8l10-59.4
					c0.9-5.2,5.3-8.9,10.6-8.9h72.4c5.2,0,9.7,3.8,10.6,8.9l10,59.4c1,5.8-3,11.4-8.8,12.4C318.2,296.9,317.6,297,317,297z"/>
				<linearGradient id="Path_2233-2_1_" gradientUnits="userSpaceOnUse" x1="69.4223" y1="119.4081" x2="473.9794" y2="119.4081">
					<stop  offset="0" style="stop-color:#FF9520"/>
					<stop  offset="0.3366" style="stop-color:#FF9821"/>
					<stop  offset="0.5734" style="stop-color:#FFA126"/>
					<stop  offset="0.7796" style="stop-color:#FFB12D"/>
					<stop  offset="0.9673" style="stop-color:#FFC637"/>
					<stop  offset="1" style="stop-color:#FFCB39"/>
				</linearGradient>
				<path id="Path_2233-2" class="st8" d="M83.7,0c-7.9,0-14.3,6.4-14.3,14.3c0,0,0,0,0,0v210.3c0,7.9,6.4,14.3,14.3,14.3
					c0,0,0,0,0,0h376c7.9,0,14.3-6.4,14.3-14.3c0,0,0,0,0,0V14.3C474,6.4,467.6,0,459.7,0c0,0,0,0,0,0H83.7z"/>
				<g id="Group_1270-2" transform="translate(319.903 21.826)">
					<linearGradient id="Rectangle_692-2_1_" gradientUnits="userSpaceOnUse" x1="118.2533" y1="5.6435" x2="130.7283" y2="5.6435">
						<stop  offset="0" style="stop-color:#FF9520"/>
						<stop  offset="0.3366" style="stop-color:#FF9821"/>
						<stop  offset="0.5734" style="stop-color:#FFA126"/>
						<stop  offset="0.7796" style="stop-color:#FFB12D"/>
						<stop  offset="0.9673" style="stop-color:#FFC637"/>
						<stop  offset="1" style="stop-color:#FFCB39"/>
					</linearGradient>
					<path id="Rectangle_692-2" class="st9" d="M121,0h7c1.5,0,2.7,1.2,2.7,2.7v5.8c0,1.5-1.2,2.7-2.7,2.7h-7
						c-1.5,0-2.7-1.2-2.7-2.7V2.7C118.3,1.2,119.5,0,121,0z"/>
					<linearGradient id="Rectangle_693-2_1_" gradientUnits="userSpaceOnUse" x1="94.6823" y1="5.6435" x2="107.1573" y2="5.6435">
						<stop  offset="0" style="stop-color:#FF9520"/>
						<stop  offset="0.3366" style="stop-color:#FF9821"/>
						<stop  offset="0.5734" style="stop-color:#FFA126"/>
						<stop  offset="0.7796" style="stop-color:#FFB12D"/>
						<stop  offset="0.9673" style="stop-color:#FFC637"/>
						<stop  offset="1" style="stop-color:#FFCB39"/>
					</linearGradient>
					<path id="Rectangle_693-2" class="st10" d="M97.4,0h7c1.5,0,2.7,1.2,2.7,2.7v5.8c0,1.5-1.2,2.7-2.7,2.7h-7
						c-1.5,0-2.7-1.2-2.7-2.7V2.7C94.7,1.2,95.9,0,97.4,0z"/>
					<linearGradient id="Rectangle_694-2_1_" gradientUnits="userSpaceOnUse" x1="69.4223" y1="5.6435" x2="81.8973" y2="5.6435">
						<stop  offset="0" style="stop-color:#FF9520"/>
						<stop  offset="0.3366" style="stop-color:#FF9821"/>
						<stop  offset="0.5734" style="stop-color:#FFA126"/>
						<stop  offset="0.7796" style="stop-color:#FFB12D"/>
						<stop  offset="0.9673" style="stop-color:#FFC637"/>
						<stop  offset="1" style="stop-color:#FFCB39"/>
					</linearGradient>
					<path id="Rectangle_694-2" class="st11" d="M72.1,0h7c1.5,0,2.7,1.2,2.7,2.7v5.8c0,1.5-1.2,2.7-2.7,2.7h-7
						c-1.5,0-2.7-1.2-2.7-2.7V2.7C69.4,1.2,70.6,0,72.1,0z"/>
				</g>
				
					<linearGradient id="Rectangle_695-2_1_" gradientUnits="userSpaceOnUse" x1="230.4622" y1="225.1495" x2="311.2542" y2="225.1495">
					<stop  offset="0" style="stop-color:#FF9520"/>
					<stop  offset="0.3366" style="stop-color:#FF9821"/>
					<stop  offset="0.5734" style="stop-color:#FFA126"/>
					<stop  offset="0.7796" style="stop-color:#FFB12D"/>
					<stop  offset="0.9673" style="stop-color:#FFC637"/>
					<stop  offset="1" style="stop-color:#FFCB39"/>
				</linearGradient>
				<path id="Rectangle_695-2" class="st12" d="M231.9,222.2h77.9c0.8,0,1.4,0.6,1.4,1.4v3.1c0,0.8-0.6,1.4-1.4,1.4h-77.9
					c-0.8,0-1.4-0.6-1.4-1.4v-3.1C230.5,222.8,231.1,222.2,231.9,222.2z"/>
			</g>
		</g>
		<g id="Group_1447" transform="translate(13.526)">
			<g id="Group_1276" transform="translate(-2966.028 2197.398)">
				
					<linearGradient id="Path_2245_1_" gradientUnits="userSpaceOnUse" x1="-493.1468" y1="456.7725" x2="-492.0128" y2="456.8205" gradientTransform="matrix(11.595 0 0 -16.45 5930.2471 7726.5)">
					<stop  offset="0" style="stop-color:#FFE8E0"/>
					<stop  offset="1" style="stop-color:#FFB5AA"/>
				</linearGradient>
				<path id="Path_2245" class="st13" d="M213,214.8l4.6,5.9l7-3.6L214,204.2L213,214.8z"/>
				
					<linearGradient id="Path_2246_1_" gradientUnits="userSpaceOnUse" x1="-494.415" y1="456.351" x2="-493.466" y2="456.409" gradientTransform="matrix(15.823 0 0 -15.687 8087.9648 7378.958)">
					<stop  offset="0" style="stop-color:#002A5E"/>
					<stop  offset="1" style="stop-color:#2541A3"/>
				</linearGradient>
				<path id="Path_2246" class="st14" d="M223.5,215.3c1.7-0.4,3.4,0.6,3.9,2.2c0.1,0.5,0.1,1,0.1,1.6c-0.5,3.4-10.9,9.4-15,11.7
					c-0.6,0.3-1-0.2-0.7-0.9c1.7-3.8,4-7.4,6.7-10.6C221.3,216,222.7,215.4,223.5,215.3z"/>
				
					<linearGradient id="Path_2247_1_" gradientUnits="userSpaceOnUse" x1="-474.3123" y1="457.5388" x2="-473.0053" y2="457.5858" gradientTransform="matrix(10.061 0 0 -16.697 5079.5342 7862.1895)">
					<stop  offset="0" style="stop-color:#FFE8E0"/>
					<stop  offset="1" style="stop-color:#FFB5AA"/>
				</linearGradient>
				<path id="Path_2247" class="st15" d="M145.7,233.3l2.3,7.1l7.8-0.9l-5.5-15.8L145.7,233.3z"/>
				
					<linearGradient id="Path_2248_1_" gradientUnits="userSpaceOnUse" x1="-477.0914" y1="452.3003" x2="-476.3314" y2="452.3843" gradientTransform="matrix(19.7671 0 0 -10.5825 10028.7695 5000.8208)">
					<stop  offset="0" style="stop-color:#002A5E"/>
					<stop  offset="1" style="stop-color:#2541A3"/>
				</linearGradient>
				<path id="Path_2248" class="st16" d="M154.9,235.9c1.9,0.4,3.2,2,3.2,3.9c0,0.5-0.2,1.1-0.4,1.6c-1.5,3.2-13.8,4.6-18.7,5
					c-0.7,0.1-0.9-0.7-0.4-1.2c2.9-3,6.3-5.6,10-7.6C152.4,235.6,154,235.7,154.9,235.9z"/>
				
					<linearGradient id="Path_2249_1_" gradientUnits="userSpaceOnUse" x1="-506.4596" y1="468.6468" x2="-506.3456" y2="467.5008" gradientTransform="matrix(54.448 0 0 -155.1919 27722.0625 72801.6875)">
					<stop  offset="0" style="stop-color:#002A5E"/>
					<stop  offset="1" style="stop-color:#2541A3"/>
				</linearGradient>
				<path id="Path_2249" class="st17" d="M155.1,218.7c0.3,4.6,0.2,9.3-0.1,13.9l-11.6,2.9c-6.2-12.4-8.1-14.2-11.5-27.2
					c-6.4-24.5-12.7-55.2-10.3-73.6c2.9-22.9,6.9-33.3,14.4-41.9c3-3.5,12.4-14.1,22.3-12.2c9.1,1.8,15.7,13.9,16.9,24.3
					c3.4,28.5-24.8,37.2-23.7,66.9C152.1,187.3,153.7,191.9,155.1,218.7z"/>
				
					<linearGradient id="Path_2250_1_" gradientUnits="userSpaceOnUse" x1="-507.5036" y1="468.4468" x2="-507.5036" y2="467.4468" gradientTransform="matrix(76.4897 0 0 -140.2336 39001.0352 65769.25)">
					<stop  offset="0" style="stop-color:#002A5E"/>
					<stop  offset="1" style="stop-color:#2541A3"/>
				</linearGradient>
				<path id="Path_2250" class="st18" d="M181.7,99.2c1.4,11.1-1.5,27.9,1.4,40.2c7,29.7,11.1,33.8,19,44.5
					c14.8,20.1,18.4,27.7,18.4,27.7l-6.8,5.9c0,0-26.2-13.1-37.9-26.2c-17.1-19-22.1-39.1-26.9-58.6c-4.8-19.4-8-33.2-0.2-44
					c5.4-7.5,16.2-13.8,23.6-10.6C179.4,81.3,180.8,92.3,181.7,99.2z"/>
				
					<linearGradient id="Path_2251_1_" gradientUnits="userSpaceOnUse" x1="-508.5524" y1="466.8945" x2="-507.8564" y2="466.7315" gradientTransform="matrix(107.9304 0 0 -78.9731 55000.2695 36936.3555)">
					<stop  offset="0" style="stop-color:#79C2F0"/>
					<stop  offset="0.178" style="stop-color:#6EB0ED"/>
					<stop  offset="0.439" style="stop-color:#629DEA"/>
					<stop  offset="0.708" style="stop-color:#5B92E8"/>
					<stop  offset="1" style="stop-color:#598FE8"/>
				</linearGradient>
				<path id="Path_2251" class="st19" d="M187.7,95.2c-9.9,13.7-26,15.7-29.4,16.1c-14.1,1.5-31-4.4-32.2-11.7
					c-0.2-0.9,0.1-1,0.4-6.3c0.4-6.8,2.6-12.9,2.2-13.8c-1.4-3.1-12.7,1.4-24.4-1.6c-5.9-1.5-11.7-3.7-17-6.6
					c3.2-2.1,5.4-5.4,6.2-9.2c1.8,0.5,3.6,0.9,5.4,1.2c5.2,0.9,10.6-0.1,15.3-2.7c8.7-4.7,8.7-9.2,19-17.8c4.6-3.8,9.8-6.9,15.4-8.9
					c2.5-0.9,5.2-1.3,7.9-1.2l11.6,0.6c4.2,0.5,8.2,1.9,11.7,4.1C195.5,47.4,201.2,76.6,187.7,95.2z"/>
				
					<linearGradient id="Path_2252_1_" gradientUnits="userSpaceOnUse" x1="-501.9142" y1="464.6908" x2="-501.9142" y2="464.1288" gradientTransform="matrix(24.708 0 0 -43.3223 12560.4541 20162.7734)">
					<stop  offset="0" style="stop-color:#FFB8AD"/>
					<stop  offset="1" style="stop-color:#FFE5DD"/>
				</linearGradient>
				<path id="Path_2252" class="st20" d="M147,47.7c-0.6,3.6,0.2,5.5,3.5,6.9c4,1.8,6.5,1.3,10.7-2.2c7.1-6,13-15.5,9.2-20.4
					c-0.6-0.8,0.5-3.6,0-5.2c-0.9-2.9-8-3.5-7.8-7.6c0.1-2.3,0.3-5.8-1.3-6.7c-2.4-1.3-5.1,3.6-8,10.1c-1.9,4.3,5,6.3,0.7,12.9
					C150.7,40.5,147.7,43.4,147,47.7z"/>
				
					<linearGradient id="Ellipse_601_1_" gradientUnits="userSpaceOnUse" x1="-501.0423" y1="461.9233" x2="-501.0423" y2="461.3144" gradientTransform="matrix(22.348 0 0 -27.312 11355.5674 12630.7188)">
					<stop  offset="0" style="stop-color:#FFB8AD"/>
					<stop  offset="1" style="stop-color:#FFE5DC"/>
				</linearGradient>
				<ellipse id="Ellipse_601" class="st21" cx="158.3" cy="17.6" rx="11.2" ry="13.7"/>
				
					<linearGradient id="Path_2254_1_" gradientUnits="userSpaceOnUse" x1="-506.8318" y1="466.8555" x2="-505.5847" y2="466.2235" gradientTransform="matrix(50.5195 0 0 -72.4187 25740.0723 33863.4844)">
					<stop  offset="0" style="stop-color:#79C2F0"/>
					<stop  offset="0.713" style="stop-color:#598FE8"/>
				</linearGradient>
				<path id="Path_2254" class="st22" d="M195.7,70.4c-0.3,6.6-1,18.6-10.4,28.7c-5.1,5.3-11.5,9.2-18.5,11.1
					c-7,2.1-14.4,2.5-21.6,1.3c1.5-2.2,2.3-4.7,2.3-7.4c0-1.6-0.3-3.1-0.9-4.6c2.5-0.3,5-1.2,7.2-2.4c5.1-3,6.8-4,12.7-10.3
					c4.2-4.4,5.1-8.6,6.6-17.8c1.7-10.9-1.2-19.7,3.5-23.1c3.3-2.4,4.2-7.8,7.5-5.7C190.1,44,196.3,57.3,195.7,70.4z"/>
				
					<linearGradient id="Path_2255_1_" gradientUnits="userSpaceOnUse" x1="-504.7241" y1="465.4409" x2="-506.1321" y2="465.3699" gradientTransform="matrix(42.9612 0 0 -51.6763 21877.9063 24076.2324)">
					<stop  offset="0" style="stop-color:#432929"/>
					<stop  offset="1" style="stop-color:#966565"/>
				</linearGradient>
				<path id="Path_2255" class="st23" d="M185.9,40.3c-0.1,2.5-1.7,5.3-4.1,7.6c0,0,0,0,0,0c-3.5,2.9-8.4,4.6-12.9,3.3
					c-4.3-1.4-7.6-4.9-8.9-9.2c-0.4-1.3-0.6-3.1,2.2-17.6c0.8-4.4,1.5-7.4-0.1-8.8c-0.8-0.6-1.6-0.4-5.3-0.3
					c-4.3,0.1-6.4,0.1-8.1-0.4c-3.5-1.2-6.1-2.8-5.6-6.2c0.3-1.6,1.2-3.1,2.5-4.1c0,0,0,0,0.1-0.1c0.3-0.3,0.7-0.5,1.1-0.8
					c3.3-2.2,3.7-2.6,7.1-3.5c3.5-0.9,9.3,1.2,12.6,5.5c3.8,4.9,3.2,8.1,5.5,14.7C176,32.6,186.1,33.4,185.9,40.3z"/>
				<path id="Path_2256" class="st24" d="M93.5,62c-0.7,3.8-2.9,7.1-6.2,9.2c-3.4-1.9-6.6-4-9.6-6.3c-3.7-2.7-8.9-8.7-8.3-10.9
					C70,52,80.9,58.7,93.5,62z"/>
				<path id="Path_2257" class="st24" d="M147.6,104.1c0,2.6-0.8,5.2-2.3,7.4c-4.3-0.8-8.5-2.3-12.3-4.5c-4.4-2.6-9.5-6.9-8.7-8.7
					c1-2.4,12.2,2.7,22.5,1.3C147.3,101,147.6,102.6,147.6,104.1z"/>
				<path id="Path_2258" class="st25" d="M130.9,94"/>
			</g>
			<g id="Group_1446" transform="translate(-52)">
				<g id="Group_1275" transform="translate(-3211.121 2174.346)">
					
						<linearGradient id="Path_2234_1_" gradientUnits="userSpaceOnUse" x1="-190.2037" y1="483.8841" x2="-189.1087" y2="483.8841" gradientTransform="matrix(10.0488 0 0 -24.1919 2107.0396 11972.8545)">
						<stop  offset="0" style="stop-color:#FFE8E0"/>
						<stop  offset="1" style="stop-color:#FFB5AA"/>
					</linearGradient>
					<path id="Path_2234" class="st26" d="M165.8,259.1c-1.7,2.5-0.3,4.5-0.6,13.2c-0.1,2.3-0.3,4.2-0.4,5.5l9.6,1
						c0.1-4.9,0.4-24.2,0.4-24.2l0,0C174.6,254.8,168.3,255.7,165.8,259.1z"/>
					
						<linearGradient id="Path_2235_1_" gradientUnits="userSpaceOnUse" x1="-131.1326" y1="481.4096" x2="-130.6836" y2="481.4096" gradientTransform="matrix(24.543 0 0 -18.7854 5107.8433 9276.4131)">
						<stop  offset="0" style="stop-color:#FFE8E0"/>
						<stop  offset="1" style="stop-color:#FFB5AA"/>
					</linearGradient>
					<path id="Path_2235" class="st27" d="M85.6,223.6c-3,0.1-3.7,2.5-10.9,7.5c-1.9,1.3-3.5,2.3-4.6,3l5,8.3l19.6-14.2l0,0
						C94.3,228,89.8,223.4,85.6,223.6z"/>
					
						<linearGradient id="Path_2236_1_" gradientUnits="userSpaceOnUse" x1="-203.4934" y1="486.1002" x2="-202.4934" y2="486.1002" gradientTransform="matrix(20.2297 0 0 -32.5923 4186.0444 16088.377)">
						<stop  offset="0" style="stop-color:#002A5E"/>
						<stop  offset="1" style="stop-color:#2541A3"/>
					</linearGradient>
					<path id="Path_2236" class="st28" d="M69.8,236l19.1,25.4c0.1,0.2,0.4,0.2,0.6,0.1c0.1-0.1,0.2-0.3,0.1-0.5l-8.3-26.6
						c-0.1-0.4-0.4-0.8-0.7-1.1l-4.2-4.2c-0.3-0.3-0.7-0.3-1,0l-5.4,4.4C69.3,234.2,69.2,235.2,69.8,236z"/>
					
						<linearGradient id="Path_2237_1_" gradientUnits="userSpaceOnUse" x1="-207.7857" y1="491.5732" x2="-207.7857" y2="490.6541" gradientTransform="matrix(38.5496 0 0 -170.0862 8179.4287 83735.8906)">
						<stop  offset="0" style="stop-color:#002A5E"/>
						<stop  offset="1" style="stop-color:#2541A3"/>
					</linearGradient>
					<path id="Path_2237" class="st29" d="M186.1,261.7c-0.2,1.5-1.4,2.6-2.9,2.6l-16.7,0.2c-1.6,0-2.9-1.2-3-2.8
						c-1.1-23.9-0.5-48.7-2.5-73.5c-1-12.3-9.2-27.2-10.9-39.2c0,0,5.6,3,5.6,3l6.8-57.6c0,0,0.1,0,0.1,0c1.6,0.8,2.9,2.4,5,3.2
						c5.7,2.2,9.4,12.4,9.7,16.8c3.2,38.3,7.2,26.6,10.3,72C189.4,211.6,188.9,236.8,186.1,261.7z"/>
					
						<linearGradient id="Path_2238_1_" gradientUnits="userSpaceOnUse" x1="-210.5471" y1="491.5233" x2="-210.5471" y2="490.7693" gradientTransform="matrix(80.6155 0 0 -151.1902 17097.0195 74421.375)">
						<stop  offset="0" style="stop-color:#002A5E"/>
						<stop  offset="1" style="stop-color:#2541A3"/>
					</linearGradient>
					<path id="Path_2238" class="st30" d="M164,95.7c0,0-1.1,54.5-2,58.4c-1.9,11.8-7.9,29.9-19,48.7
						c-13.4,22.7-47.8,43.7-47.8,43.7s-10.8-7.5-11.9-23.9c-0.1-1.1,0.4-2.1,1.4-2.7c2.9-1.9,5.7-3.9,8.5-6
						c6.6-5.2,32.6-25.8,36.2-55.4c1.9-15.4-3.5-32.6,2.3-43.6c3.3-6.3,13.3-8.2,23-15.9C159.7,95.2,162.1,94.9,164,95.7z"/>
					
						<linearGradient id="Path_2239_1_" gradientUnits="userSpaceOnUse" x1="-207.753" y1="472.7359" x2="-206.753" y2="472.7359" gradientTransform="matrix(35.0237 0 0 -10.5337 7440.6343 5253.061)">
						<stop  offset="0" style="stop-color:#002A5E"/>
						<stop  offset="1" style="stop-color:#2541A3"/>
					</linearGradient>
					<path id="Path_2239" class="st31" d="M166.5,278.7H199c0.2,0,0.4-0.2,0.4-0.4c0-0.2-0.1-0.3-0.3-0.4l-26.8-9.6
						c-0.4-0.1-0.9-0.2-1.3-0.1l-6,0.9c-0.4,0.1-0.7,0.4-0.7,0.8l0.3,7.2C164.7,278,165.5,278.7,166.5,278.7z"/>
					<g id="Group_1274" transform="translate(54.468)">
						<g id="Group_1273" transform="translate(26.594 58.061)">
							
								<linearGradient id="Path_2240_1_" gradientUnits="userSpaceOnUse" x1="-277.0783" y1="422.0497" x2="-276.2963" y2="422.4377" gradientTransform="matrix(11.5657 0 0 -17.3403 3273.1333 7333.6743)">
								<stop  offset="0" style="stop-color:#FFE8E0"/>
								<stop  offset="1" style="stop-color:#FFB5AA"/>
							</linearGradient>
							<path id="Path_2240" class="st32" d="M70.6,3.7c-1.1,1.1,1.3,2.9,1.3,8c0,2.6-3,3.6-2.4,4.6c0.7,1.2,4,1.4,6.1-0.2
								c1.9-1.4,6,0.1,5.4-0.4c-2.9-2.4,0.6-14.6,0-15.3C79.1-1.4,71.5,2.9,70.6,3.7z"/>
						</g>
						
							<linearGradient id="Path_2241_1_" gradientUnits="userSpaceOnUse" x1="-263.8458" y1="489.8135" x2="-264.8458" y2="489.8135" gradientTransform="matrix(63.7539 0 0 -77.9453 16956.1133 38270.5938)">
							<stop  offset="0" style="stop-color:#969FE7"/>
							<stop  offset="0.833" style="stop-color:#626FDB"/>
						</linearGradient>
						<path id="Path_2241" class="st33" d="M123.8,87.5c-2.2,8.9-0.6,19.2,0.7,27c1,6.3,1.9,9.2,0.2,11.4c-2.7,3.3-8.5,2-12,1.3
							c-5-1-6.6-3.6-11.6-4c-0.5,0-0.9-0.1-1.4,0c-2,0-4,0.6-8.3,2.1c-15.8,5.2-16.5,6.3-17.7,5.5c-5.2-3.3,6.8-21.9,3.3-47.3
							c-1.4-10.1-3.7-10.2-5.7-20.3c4.4-2.4,8.1-5.9,10.9-10.1c0.8,4.1,2.6,8,5.4,11.1c0.9,1,1.8,1.8,2.9,2.6
							c3.4,2.5,7.6,3.9,11.8,3.9c2.4,0,4.7-0.4,7-1.1c4.8-1.5,9-4.3,12.3-8.1c1.3-1.5,2.4-3.2,3.3-5c2.7,3.6,6.1,6.6,10.1,8.8
							c-1.7,4.4-3.4,6.6-4.7,9.6C127,81.9,125.2,81.7,123.8,87.5z"/>
						<path id="Path_2242" class="st34" d="M100.6,41.4"/>
						
							<linearGradient id="Path_2243_1_" gradientUnits="userSpaceOnUse" x1="-253.8551" y1="489.787" x2="-253.8551" y2="488.787" gradientTransform="matrix(14.9009 0 0 -65.0996 3914.9492 31884.9395)">
							<stop  offset="0" style="stop-color:#FFE8E0"/>
							<stop  offset="0" style="stop-color:#FFE7DF"/>
							<stop  offset="0.235" style="stop-color:#FFD2C9"/>
							<stop  offset="1" style="stop-color:#FFB5AA"/>
						</linearGradient>
						<path id="Path_2243" class="st35" d="M138.8,47.4c-1.1,8.7-2.5,14-3.9,17.7c-4-2.2-7.4-5.1-10.1-8.8c2.2-4.3,3.2-9.2,4.5-15.2
							c0.7-3.5,0.8-4.8,2.4-24.2c1-12,1.5-16.8,2.4-16.9s1.9,4.7,2.3,6.4C138.9,18.8,141.1,29.1,138.8,47.4z"/>
						
							<linearGradient id="Path_2244_1_" gradientUnits="userSpaceOnUse" x1="-251.7021" y1="488.6246" x2="-251.7021" y2="487.6246" gradientTransform="matrix(12.876 0 0 -47.7344 3316.7705 23339.4824)">
							<stop  offset="0" style="stop-color:#FFE8E0"/>
							<stop  offset="1" style="stop-color:#FFB5AA"/>
						</linearGradient>
						<path id="Path_2244" class="st36" d="M80.7,44c0.3,3,0.7,6,1.4,8.9c-2.8,4.2-6.5,7.6-10.9,10.1c-0.2-1.2-0.5-2.6-0.7-4.1
							c-3.6-24.6,3.1-37.4,6.9-41.1c0.7-0.6,3.2-3.1,4.3-2.4c1.3,0.8-0.1,5.2-0.9,10.3C80.1,31.8,80,37.9,80.7,44z"/>
					</g>
				</g>
				
					<linearGradient id="Ellipse_603_1_" gradientUnits="userSpaceOnUse" x1="-3431.7534" y1="2656.7244" x2="-3431.0825" y2="2656.8914" gradientTransform="matrix(3.2156 -25.7245 -22.7327 -2.8416 68377.1563 -78486.5469)">
					<stop  offset="0" style="stop-color:#FFE8E0"/>
					<stop  offset="1" style="stop-color:#FFB8AD"/>
				</linearGradient>
				<path id="Ellipse_603" class="st37" d="M-3065.1,2228c0.9-7.1,6.7-12.2,13-11.4s10.6,7.2,9.8,14.3c-0.9,7.1-6.7,12.2-13,11.4
					C-3061.6,2241.5-3066,2235.1-3065.1,2228z"/>
				
					<linearGradient id="Path_2261_1_" gradientUnits="userSpaceOnUse" x1="-3418.2209" y1="2658.884" x2="-3418.7209" y2="2658.0122" gradientTransform="matrix(35.0732 0 0 -24.906 116845.6172 68435.4922)">
					<stop  offset="0" style="stop-color:#432929"/>
					<stop  offset="1" style="stop-color:#966565"/>
				</linearGradient>
				<path id="Path_2261" class="st38" d="M-3045.1,2222.8c-12.4-2-13.8-0.9-14.4-0.2c-0.6,0.8-2.2,3.2-1.7,5.7l0,0
					c0.2,1.4,0.8,2.8,0.1,3.5c-0.5,0.5-1.2,0.1-1.9,0.5c-1.3,0.9-0.6,3.5-0.8,3.6c-0.3,0.1-2.7-4.9-1.8-11c0.3-3.4,1.7-6.6,4-9.2
					c4.2-4.5,10.1-4.7,12.6-4.7c9.1-0.3,18.6,4.8,18.3,8.2c-0.2,2.4-5.1,3.8-5.6,3.9C-3038.9,2223.9-3040.8,2223.5-3045.1,2222.8z"
					/>
			</g>
		</g>
	</g>
	<g id="Group_1371" transform="translate(-1509 1022)">
		
			<linearGradient id="Ellipse_149_1_" gradientUnits="userSpaceOnUse" x1="1624.3187" y1="3608.5576" x2="1624.3187" y2="3607.5576" gradientTransform="matrix(85.16 0 0 -85.16 -136194.9844 310355.7813)">
			<stop  offset="0" style="stop-color:#FFA333"/>
			<stop  offset="1" style="stop-color:#FF8E55"/>
		</linearGradient>
		<circle id="Ellipse_149" class="st39" cx="2132" cy="3093.6" r="42.6"/>
		<g id="Group_1370" transform="translate(2037 3075)">
			<circle id="Ellipse_602" class="st40" cx="95.3" cy="31.6" r="6"/>
			<path id="Path_2259" class="st40" d="M110.4,19.8l-4.8,4.8c-2.7-2.7-6.3-4.2-10.1-4.2c-4,0-7.8,1.7-10.5,4.6l-4.8-4.8
				c4-4.2,9.5-6.6,15.3-6.6C101.1,13.7,106.4,15.9,110.4,19.8z"/>
			<path id="Path_2260" class="st40" d="M121.3,10.4l-4.8,4.8C110.8,10,103.3,7,95.5,7c-7.9,0-15.5,3-21.3,8.5l-4.8-4.8
				C76.4,3.8,85.7,0,95.5,0C105.1,0,114.4,3.7,121.3,10.4L121.3,10.4z"/>
		</g>
	</g>
</g>
<g>
	<path class="st1" d="M11.8,122.5c6.4,10,15.4,18.8,18.8,30.3c4.3,14.7-1.4,30.2-6.1,44.8c-5.1,16-9.1,32.8-6.6,49.4
		c3.3,21.9,17.9,41,36.1,53.7c18.2,12.7,39.7,19.7,61.3,24.8c-19.9-19.5-32.3-47.3-30.6-75.1c1.7-27.8,16.8-56.1,7.3-82.3
		c-5.6-15.4-18.7-26.6-29.4-39C36.5,99.4,22.8,59.3,25,19.8c-0.2,2.8-13,16.3-14.9,20.9C6.6,49.1,3,57.9,1.3,67
		C-2.2,85.9,1.3,106.2,11.8,122.5z"/>
	<g>
		<path class="st41" d="M18,47.3c-5.8,23,1.1,46.9,10.6,67.9c9.9,21.9,23.1,42.2,30.3,65.3c3.7,11.9,5,24,5,36.4
			c0,12.4-0.9,24.8,0.8,37.1c2.5,18.9,10.7,36.9,22.8,51.7c12,14.7,28,26.3,46,32.5c2.2,0.8,4.4,1.4,6.6,2c1.2,0.3,1.6-1.6,0.3-2
			c-18.4-5-35-15.7-47.8-29.7c-12.7-14-21.8-31.5-25.2-50.1c-2.1-11.5-1.7-23.1-1.5-34.7c0.2-12.2,0-24.4-2.9-36.3
			c-5.5-22.9-17.9-43.3-28.3-64.2c-10.2-20.6-19.1-43.7-16.2-67.1c0.4-2.9,0.9-5.7,1.6-8.5C20.3,46.4,18.3,46.1,18,47.3L18,47.3z"/>
	</g>
</g>
<g>
	<path class="st1" d="M692.1,132.4c20-21.2,45.5-36.4,70.6-51.2C749.2,154,705.9,220.9,644.9,263c3.8-2.6,4.5-25.5,4.9-31
		c0.9-12.4,2.7-24.5,6.3-36.5C663,172,675.3,150.2,692.1,132.4z"/>
	<g>
		<path class="st42" d="M756.7,91.6c-10.4,15.3-20.6,30.7-30.6,46.3c-10,15.6-19.8,31.2-29.7,46.9s-19.5,31.4-29.1,47.2
			c-9.6,15.8-19.1,31.7-28.4,47.6c-9.4,15.9-18.7,31.9-27.9,48c-1.2,2-2.3,4-3.4,6c-0.6,1,0.9,1.8,1.5,0.9
			c9.3-16,18.6-31.9,28.1-47.8c9.4-15.9,19-31.7,28.6-47.5c9.6-15.8,19.3-31.5,29-47.3c9.7-15.7,19.6-31.4,29.5-47
			c9.9-15.6,19.7-31.3,29.6-46.9c1.2-2,2.5-3.9,3.7-5.9C757.8,91.5,757,91.1,756.7,91.6L756.7,91.6z"/>
	</g>
	<g>
		<path class="st42" d="M747.9,90.1c3.7,2.5,7.5,4.9,11.4,7.1c0.1-0.4,0.2-0.7,0.3-1.1c-3.7-2.1-7.2-4.2-10.8-6.5
			C748.5,89.7,748.2,89.9,747.9,90.1z"/>
		<path class="st42" d="M732.8,108.6c6.5,4.1,13,8.1,19.5,12.2c0.1-0.3,0.2-0.6,0.3-0.9c-8.7-5.4-17.3-10.8-26-16.2
			c-0.2,0.2-0.5,0.3-0.7,0.5C728.1,105.7,730.4,107.1,732.8,108.6z"/>
		<path class="st42" d="M732.9,135.2c3.7,2.2,7.5,4.4,11.2,6.6c0.1-0.3,0.3-0.6,0.4-0.9c-12.4-7.3-24.9-14.5-37.5-21.5
			c-0.2-0.1-0.5-0.3-0.7-0.4c-0.2,0.2-0.5,0.4-0.7,0.6C714.8,124.7,723.9,129.9,732.9,135.2z"/>
		<path class="st42" d="M712.1,134.2c-4.5-2.7-9.1-5.5-13.6-8.2c-0.2,0.2-0.4,0.4-0.6,0.6c13.4,8,26.6,16.2,39.8,24.5
			c0.5,0.3,1.1,0.7,1.6,1c0.1-0.3,0.3-0.6,0.4-0.9C730.6,145.5,721.4,139.8,712.1,134.2z"/>
		<path class="st42" d="M648.9,245.3c-0.1,0.6-0.1,1.2-0.2,1.8c2.6,1.5,5.3,3,7.9,4.5c0.7,0.4,1.3,0.8,2,1.2c0.5-0.4,1-0.8,1.4-1.1
			C656.4,249.5,652.7,247.4,648.9,245.3z"/>
		<path class="st42" d="M721.1,164c3.1,1.8,6.1,3.6,9.2,5.3c0.1-0.2,0.3-0.5,0.4-0.7c-13.3-7.7-26.7-15.2-40.1-22.6
			c-2.3-1.3-4.6-2.5-6.9-3.8c-0.1,0.1-0.2,0.3-0.3,0.4C695.9,149.7,708.5,156.8,721.1,164z"/>
		<path class="st42" d="M730.8,121.1c-5.2-3.1-10.3-6.2-15.5-9.3c-0.4,0.3-0.8,0.6-1.2,0.9c11.1,6.6,22.3,13.3,33.3,20
			c0.1,0.1,0.2,0.1,0.3,0.2c0.2-0.4,0.3-0.8,0.5-1.2C742.4,128.1,736.6,124.6,730.8,121.1z"/>
		<path class="st42" d="M758.3,100.9c-4.7-2.8-9.4-5.7-14.1-8.6c-0.2,0.2-0.5,0.3-0.7,0.5c4.8,3.1,9.7,6.1,14.6,9
			C758.2,101.5,758.2,101.2,758.3,100.9z"/>
		<path class="st42" d="M652.1,229.5c-0.7-0.4-1.3-0.7-2-1.1c0,0.4-0.1,0.8-0.1,1.1c5.9,3.3,11.8,6.6,17.7,10
			c1.4,0.8,2.7,1.6,4.1,2.3c0.3-0.3,0.6-0.5,0.8-0.8C665.8,237.2,659,233.3,652.1,229.5z"/>
		<path class="st42" d="M724,179.8c0.1-0.2,0.2-0.4,0.4-0.6c-2-1.1-3.9-2.3-5.9-3.4c-14-8-28.1-15.8-42.4-23.3
			c-0.1,0.1-0.2,0.3-0.3,0.4c3.5,1.9,7,3.7,10.5,5.6C699,165.5,711.5,172.6,724,179.8z"/>
		<path class="st42" d="M654.7,200.4c7.3,4.2,14.6,8.5,21.9,12.9c5,3,10,6.1,14.9,9.2c0.3-0.3,0.6-0.6,0.9-1
			c-10.9-6.8-21.8-13.4-32.9-19.8c-1.5-0.8-2.9-1.7-4.4-2.5C654.9,199.5,654.8,199.9,654.7,200.4z"/>
		<path class="st42" d="M664.8,172.6c-0.2,0.4-0.3,0.7-0.5,1.1c4.7,2.7,9.5,5.4,14.2,8.1c10.5,6.1,21,12.3,31.4,18.5
			c0.3-0.3,0.5-0.7,0.8-1c-0.1,0-0.1-0.1-0.2-0.1C695.3,190.2,680.1,181.3,664.8,172.6z"/>
		<path class="st42" d="M678.7,235.4c0.2-0.2,0.4-0.4,0.6-0.5c-9.3-5.5-18.7-10.9-28-16.2c0,0.2-0.1,0.4-0.1,0.6
			c5,2.9,9.9,5.7,14.9,8.6C670.2,230.4,674.5,232.9,678.7,235.4z"/>
		<path class="st42" d="M666.4,218.2c-4.6-2.7-9.2-5.4-13.8-8c0,0.1,0,0.2-0.1,0.4c10,5.8,19.9,11.7,29.8,17.7
			c0.8,0.5,1.6,0.9,2.3,1.4c0.1-0.1,0.3-0.3,0.4-0.4C678.8,225.5,672.6,221.8,666.4,218.2z"/>
		<path class="st42" d="M716.9,190.6c0.2-0.3,0.4-0.6,0.7-0.9c-15.8-9.2-31.6-18.3-47.6-27.1c-0.2,0.3-0.4,0.6-0.5,1
			c8.7,4.8,17.3,9.7,25.9,14.6C702.6,182.2,709.8,186.4,716.9,190.6z"/>
		<path class="st42" d="M701.5,210.9c0.2-0.2,0.3-0.4,0.5-0.6c-1.2-0.7-2.4-1.4-3.6-2c-13.1-7.3-26.3-14.6-39.4-21.7
			c-0.1,0.2-0.1,0.4-0.2,0.6c3.4,1.9,6.8,3.7,10.3,5.6C679.9,198.7,690.8,204.8,701.5,210.9z"/>
	</g>
</g>
</svg>
