<?xml version="1.0" encoding="utf-8"?>
<!-- Generator: Adobe Illustrator 23.0.3, SVG Export Plug-In . SVG Version: 6.00 Build 0)  -->
<svg version="1.1" id="Layer_1" xmlns="http://www.w3.org/2000/svg" xmlns:xlink="http://www.w3.org/1999/xlink" x="0px" y="0px"
	 viewBox="0 0 744.7 392.3" style="enable-background:new 0 0 744.7 392.3;" xml:space="preserve">
<style type="text/css">
	.st0{fill:#FF9520;}
	.st1{fill:#3F3D56;}
	.st2{fill:#2F2E41;}
	.st3{fill:#F9F5ED;}
	.st4{fill:#FAEED4;}
	.st5{fill:url(#Path_2531_1_);}
	.st6{fill:#FFFFFF;}
	.st7{fill:url(#Path_2453-2_1_);}
	.st8{fill:#FDD36D;}
	.st9{fill:url(#Path_2456_1_);}
	.st10{fill:url(#Path_2457_1_);}
	.st11{fill:url(#Path_2458_1_);}
	.st12{fill:url(#Path_2459_1_);}
	.st13{fill:url(#Path_2460_1_);}
	.st14{fill:url(#Path_2461_1_);}
	.st15{fill:url(#Path_2462_1_);}
	.st16{fill:url(#Path_2463_1_);}
	.st17{fill:url(#Path_2464_1_);}
	.st18{fill:url(#Path_2465_1_);}
	.st19{fill:url(#Path_2466_1_);}
	.st20{fill:url(#Path_2467_1_);}
	.st21{fill:url(#Path_2468_1_);}
	.st22{fill:url(#Ellipse_638_1_);}
	.st23{fill:url(#Path_2469_1_);}
	.st24{fill:url(#Path_2470_1_);}
	.st25{fill:url(#Path_2471_1_);}
	.st26{fill:url(#Path_2472_1_);}
	.st27{fill:url(#Path_2473_1_);}
	.st28{fill:url(#Path_2474_1_);}
	.st29{fill:url(#Path_2475_1_);}
	.st30{fill:url(#Path_2476_1_);}
	.st31{fill:#FFB5AA;}
	.st32{fill:url(#Ellipse_639_1_);}
	.st33{fill:url(#Path_2478_1_);}
	.st34{fill:url(#Path_2479_1_);}
	.st35{fill:#F1FF5D;}
	.st36{fill:url(#Path_2481_1_);}
	.st37{fill:url(#Path_2482_1_);}
	.st38{fill:url(#Ellipse_149_1_);}
</style>
<g>
	<path class="st0" d="M108.8,334.7c0,41-24.4,55.3-54.4,55.3c-0.7,0-1.4,0-2.1,0c-1.4,0-2.8-0.1-4.1-0.2C21.1,387.9,0,372.8,0,334.7
		c0-39.4,50.4-89.2,54.2-92.9l0,0c0.1-0.1,0.2-0.2,0.2-0.2S108.8,293.8,108.8,334.7z"/>
	<path class="st1" d="M52.4,383.8l19.9-27.8l-20,30.9l-0.1,3.2c-1.4,0-2.8-0.1-4.1-0.2l2.1-41l0-0.3l0-0.1l0.2-3.9l-20-30.9l20.1,28
		l0,0.8l1.6-31l-17.1-32l17.3,26.5l1.7-64.2l0-0.2v0.2l-0.3,50.6l17-20.1l-17.1,24.4l-0.5,27.7L69.3,298l-16,30.7l-0.3,15.4l23.1-37
		L53,349.5L52.4,383.8z"/>
</g>
<g>
	<path class="st0" d="M598.4,354.2c0,28.2-16.8,38.1-37.5,38.1c-0.5,0-1,0-1.4,0c-1,0-1.9-0.1-2.8-0.1
		c-18.7-1.3-33.2-11.7-33.2-37.9c0-27.2,34.7-61.4,37.3-64l0,0c0.1-0.1,0.2-0.1,0.2-0.1S598.4,326,598.4,354.2z"/>
	<path class="st1" d="M559.6,388l13.7-19.1l-13.7,21.3l0,2.2c-1,0-1.9-0.1-2.8-0.1l1.5-28.2l0-0.2l0,0l0.1-2.7l-13.8-21.3l13.8,19.3
		l0,0.6l1.1-21.3l-11.8-22l11.9,18.3l1.2-44.2l0-0.2v0.1l-0.2,34.9l11.7-13.8l-11.8,16.8l-0.3,19.1l11-18.3l-11,21.1l-0.2,10.6
		l15.9-25.5l-16,29.2L559.6,388z"/>
</g>
<g>
	
		<rect x="679.4" y="331.3" transform="matrix(0.9559 -0.2938 0.2938 0.9559 -71.6443 217.5397)" class="st2" width="17.9" height="32"/>
	<path class="st0" d="M744.7,334.7c0,41-24.4,55.3-54.4,55.3c-0.7,0-1.4,0-2.1,0c-1.4,0-2.8-0.1-4.1-0.2
		c-27.1-1.9-48.2-17-48.2-55.1c0-39.4,50.4-89.2,54.2-92.9l0,0c0.1-0.1,0.2-0.2,0.2-0.2S744.7,293.8,744.7,334.7z"/>
	<path class="st1" d="M688.3,383.8l19.9-27.8l-20,30.9l-0.1,3.2c-1.4,0-2.8-0.1-4.1-0.2l2.1-41l0-0.3l0-0.1l0.2-3.9l-20-30.9
		l20.1,28l0,0.8l1.6-31l-17.1-32l17.3,26.5l1.7-64.2l0-0.2v0.2l-0.3,50.6l17-20.1l-17.1,24.4l-0.5,27.7l15.9-26.6l-16,30.7
		l-0.3,15.4l23.1-37l-23.2,42.4L688.3,383.8z"/>
</g>
<g id="kasbon" transform="translate(-1748 -6320)">
	<g id="Group_1414">
		<ellipse id="Ellipse_600" class="st3" cx="2131.2" cy="6694.5" rx="307" ry="8.2"/>
		<g id="Group_1413">
			<g id="Group_1404">
				<g id="Group_1459" transform="translate(11 -9)">
					<g id="Group_1402">
						<path id="Path_2453" class="st4" d="M2250.7,6517.7l-0.4,146.3l-98.6-0.3c-3.4,0-6.2,2.8-6.2,6.2l0,2.9
							c0,8.9-7.2,16-16.1,16.1h-0.1c-0.6,0-1.1,0-1.6-0.1c-0.4-0.1-0.8-0.1-1.2-0.2c-3.1-0.6-6-2.1-8.3-4.3
							c-0.8-0.8-1.6-1.7-2.2-2.7c-0.9-1.3-1.5-2.7-2-4.2c-0.2-0.5-0.3-1-0.4-1.6c-0.2-1-0.3-2.1-0.3-3.2l0.4-142.5h0.4l0-14
							c0-1.2-0.1-2.3-0.4-3.4c-0.6-3-2.1-5.8-4.3-8c-3-3-7.1-4.8-11.4-4.8l135.6,0.4C2243,6500.4,2250.7,6508.2,2250.7,6517.7
							C2250.7,6517.7,2250.7,6517.7,2250.7,6517.7z"/>
						<path id="Path_2454" class="st4" d="M2283.2,6670.1l0,4.5c0,8.2-6.6,14.7-14.8,14.7c0,0,0,0,0,0l-139-0.4
							c8.9,0,16-7.2,16.1-16.1l0-3.1c0-3.3,2.7-5.9,6-5.9c0,0,0,0,0,0l125.8,0.3C2280.5,6664.1,2283.2,6666.8,2283.2,6670.1
							L2283.2,6670.1z"/>
						<path id="Path_2455" class="st4" d="M2114.1,6512.8l0,17.5l-25.9-0.1c-3.3,0-5.9-2.7-5.9-6l0-7.4c0-9.1,7.5-17.1,16.6-16.8
							c4.1,0.1,8,1.8,10.9,4.8C2111.9,6507,2113.4,6509.8,2114.1,6512.8z"/>
						<path id="Rectangle_746" class="st4" d="M2169.6,6534.4l51.3,0.1c0.7,0,1.3,0.6,1.3,1.3l-0.1,22.9c0,0.7-0.6,1.3-1.3,1.3
							l-51.3-0.1c-0.7,0-1.3-0.6-1.3-1.3l0.1-22.9C2168.3,6535,2168.8,6534.4,2169.6,6534.4z"/>
						<path id="Rectangle_747" class="st4" d="M2144.8,6534.7l18.5,0.1c0.7,0,1.3,0.6,1.3,1.3l-0.1,22.9c0,0.7-0.6,1.3-1.3,1.3
							l-18.5-0.1c-0.7,0-1.3-0.6-1.3-1.3l0.1-22.9C2143.5,6535.3,2144.1,6534.7,2144.8,6534.7z"/>
						<path id="Rectangle_748" class="st4" d="M2144.2,6569.3l77.2,0.2c0.4,0,0.8,0.3,0.8,0.8l0,9.4c0,0.4-0.3,0.8-0.8,0.8
							l-77.2-0.2c-0.4,0-0.8-0.3-0.8-0.8l0-9.4C2143.4,6569.7,2143.8,6569.3,2144.2,6569.3z"/>
						<path id="Rectangle_749" class="st4" d="M2144.1,6589.3l77.2,0.2c0.4,0,0.8,0.3,0.8,0.8l0,9.4c0,0.4-0.3,0.8-0.8,0.8
							l-77.2-0.2c-0.4,0-0.8-0.3-0.8-0.8l0-9.4C2143.4,6589.7,2143.7,6589.3,2144.1,6589.3z"/>
						<path id="Rectangle_750" class="st4" d="M2144.6,6609.4l76.2,0.2c0.7,0,1.3,0.6,1.3,1.3l0,15.6c0,0.7-0.6,1.3-1.3,1.3
							l-76.2-0.2c-0.7,0-1.3-0.6-1.3-1.3l0-15.6C2143.3,6609.9,2143.9,6609.4,2144.6,6609.4z"/>
					</g>
				</g>
				<path id="Path_2532" class="st4" d="M2018,6346.9h118.7c11.7,0,21.2,9.5,21.2,21.2v285.1c0,11.7-9.5,21.2-21.2,21.2l0,0H2018
					c-11.7,0-21.2-9.5-21.2-21.2c0,0,0,0,0,0v-285.1C1996.8,6356.4,2006.3,6346.9,2018,6346.9z"/>
				
					<linearGradient id="Path_2531_1_" gradientUnits="userSpaceOnUse" x1="1979.8324" y1="6525.6367" x2="2140.9724" y2="6525.6367">
					<stop  offset="0" style="stop-color:#FF9520"/>
					<stop  offset="0.3366" style="stop-color:#FF9821"/>
					<stop  offset="0.5734" style="stop-color:#FFA126"/>
					<stop  offset="0.7796" style="stop-color:#FFB12D"/>
					<stop  offset="0.9673" style="stop-color:#FFC637"/>
					<stop  offset="1" style="stop-color:#FFCB39"/>
				</linearGradient>
				<path id="Path_2531" class="st5" d="M2001,6361.9h118.7c11.7,0,21.2,9.5,21.2,21.2v285.1c0,11.7-9.5,21.2-21.2,21.2l0,0H2001
					c-11.7,0-21.2-9.5-21.2-21.2c0,0,0,0,0,0v-285.1C1979.8,6371.4,1989.3,6361.9,2001,6361.9z"/>
				<path id="Path_2452" class="st6" d="M2118.6,6369.5h-18.4v2.2c0,5.8-4.7,10.5-10.5,10.5h-58.8c-5.8,0-10.5-4.7-10.5-10.5l0,0
					v-2.2H2003c-7.1,0-12.8,5.7-12.8,12.8v284.8c0,7.1,5.7,12.8,12.8,12.8h115.6c7.1,0,12.8-5.7,12.8-12.8v-284.8
					C2131.4,6375.2,2125.7,6369.5,2118.6,6369.5z"/>
				<g id="Group_1403">
					<g id="Group_1402-2">
						
							<linearGradient id="Path_2453-2_1_" gradientUnits="userSpaceOnUse" x1="2094.4526" y1="6594.293" x2="2247.2007" y2="6594.293">
							<stop  offset="0" style="stop-color:#FF9520"/>
							<stop  offset="0.3366" style="stop-color:#FF9821"/>
							<stop  offset="0.5734" style="stop-color:#FFA126"/>
							<stop  offset="0.7796" style="stop-color:#FFB12D"/>
							<stop  offset="0.9673" style="stop-color:#FFC637"/>
							<stop  offset="1" style="stop-color:#FFCB39"/>
						</linearGradient>
						<path id="Path_2453-2" class="st7" d="M2247.2,6517.5l-0.4,146.3l-98.6-0.3c-3.4,0-6.2,2.8-6.2,6.2l0,2.9
							c0,8.9-7.2,16-16.1,16.1h-0.1c-0.6,0-1.1,0-1.6-0.1c-0.4-0.1-0.8-0.1-1.2-0.2c-3.1-0.6-6-2.1-8.3-4.3
							c-0.8-0.8-1.6-1.7-2.2-2.7c-0.9-1.3-1.5-2.7-2-4.2c-0.2-0.5-0.3-1-0.4-1.6c-0.2-1-0.3-2.1-0.3-3.2l0.4-142.5h0.4l0-14
							c0-1.2-0.1-2.3-0.4-3.4c-0.6-3-2.1-5.8-4.3-8c-3-3-7.1-4.8-11.4-4.8l135.6,0.4C2239.5,6500.3,2247.2,6508,2247.2,6517.5
							C2247.2,6517.5,2247.2,6517.5,2247.2,6517.5z"/>
						<path id="Path_2454-2" class="st8" d="M2279.7,6669.9l0,4.5c0,8.1-6.6,14.7-14.8,14.7c0,0,0,0,0,0l-139-0.4
							c8.9,0,16-7.2,16.1-16.1l0-3.1c0-3.3,2.7-5.9,6-5.9c0,0,0,0,0,0l125.8,0.3C2277,6664,2279.7,6666.6,2279.7,6669.9
							L2279.7,6669.9z"/>
						<path id="Path_2455-2" class="st8" d="M2110.6,6512.6l0,17.5l-25.9-0.1c-3.3,0-5.9-2.7-5.9-6l0-7.4c0-9.1,7.5-17.1,16.6-16.8
							c4.1,0.1,8,1.8,10.9,4.8C2108.5,6506.8,2110,6509.6,2110.6,6512.6z"/>
						<path id="Rectangle_746-2" class="st6" d="M2166.1,6547.2l51.3,0.1c0.7,0,1.3,0.6,1.3,1.3l-0.1,22.9c0,0.7-0.6,1.3-1.3,1.3
							l-51.3-0.1c-0.7,0-1.3-0.6-1.3-1.3l0.1-22.9C2164.8,6547.8,2165.4,6547.2,2166.1,6547.2z"/>
						<path id="Rectangle_747-2" class="st6" d="M2141.4,6547.5l18.5,0.1c0.7,0,1.3,0.6,1.3,1.3l-0.1,22.9c0,0.7-0.6,1.3-1.3,1.3
							l-18.5-0.1c-0.7,0-1.3-0.6-1.3-1.3l0.1-22.9C2140,6548.1,2140.6,6547.5,2141.4,6547.5z"/>
						<path id="Rectangle_748-2" class="st6" d="M2140.7,6582.1l77.2,0.2c0.4,0,0.8,0.3,0.8,0.8l0,9.4c0,0.4-0.3,0.8-0.8,0.8
							l-77.2-0.2c-0.4,0-0.8-0.3-0.8-0.8l0-9.4C2140,6582.5,2140.3,6582.1,2140.7,6582.1z"/>
						<path id="Rectangle_749-2" class="st6" d="M2140.7,6602.1l77.2,0.2c0.4,0,0.8,0.3,0.8,0.8l0,9.4c0,0.4-0.3,0.8-0.8,0.8
							l-77.2-0.2c-0.4,0-0.8-0.3-0.8-0.8l0-9.4C2139.9,6602.5,2140.2,6602.1,2140.7,6602.1z"/>
						<path id="Rectangle_750-2" class="st6" d="M2141.1,6622.2l76.2,0.2c0.7,0,1.3,0.6,1.3,1.3l0,15.6c0,0.7-0.6,1.3-1.3,1.3
							l-76.2-0.2c-0.7,0-1.3-0.6-1.3-1.3l0-15.6C2139.8,6622.7,2140.4,6622.2,2141.1,6622.2z"/>
					</g>
				</g>
			</g>
			<g id="Group_1412">
				<g id="Group_1408">
					<g id="Group_1406">
						<g id="Group_1405">
							
								<linearGradient id="Path_2456_1_" gradientUnits="userSpaceOnUse" x1="1623.4973" y1="6893.5112" x2="1623.4973" y2="6892.5112" gradientTransform="matrix(72.2988 0 0 -77.1509 -115108.6797 538341.625)">
								<stop  offset="0" style="stop-color:#002A5E"/>
								<stop  offset="0.145" style="stop-color:#072E6C"/>
								<stop  offset="0.49" style="stop-color:#17388A"/>
								<stop  offset="0.788" style="stop-color:#213E9C"/>
								<stop  offset="1" style="stop-color:#2541A3"/>
							</linearGradient>
							<path id="Path_2456" class="st9" d="M2232.1,6524.9l34.6,47.7l37.7,5.8l-37.9-77.2L2232.1,6524.9z"/>
							
								<linearGradient id="Path_2457_1_" gradientUnits="userSpaceOnUse" x1="1622.9949" y1="6891.9307" x2="1622.9949" y2="6890.9307" gradientTransform="matrix(87.96 0 0 -47.1809 -140449.6406 331613.7813)">
								<stop  offset="0" style="stop-color:#002A5E"/>
								<stop  offset="0.145" style="stop-color:#072E6C"/>
								<stop  offset="0.49" style="stop-color:#17388A"/>
								<stop  offset="0.788" style="stop-color:#213E9C"/>
								<stop  offset="1" style="stop-color:#2541A3"/>
							</linearGradient>
							<path id="Path_2457" class="st10" d="M2264.9,6451.9l58.6-5.7l29.3,24.4l-82.9,22.8L2264.9,6451.9z"/>
						</g>
						
							<linearGradient id="Path_2458_1_" gradientUnits="userSpaceOnUse" x1="1621.4269" y1="6894.5068" x2="1621.4269" y2="6893.5068" gradientTransform="matrix(271.5566 0 0 -128.593 -438065.5625 893005.75)">
							<stop  offset="0" style="stop-color:#7DB8FF"/>
							<stop  offset="1" style="stop-color:#4481F2"/>
						</linearGradient>
						<path id="Path_2458" class="st11" d="M2379.5,6547.3c0,0-79.9,10.6-156.9-24c-56.7-25.5-96.1-68.5-112.9-89.4
							c-2.8-3.5-2.3-8.7,1.3-11.5c1.3-1.1,3-1.7,4.7-1.8c26.8-1.3,85-0.3,141.8,25.2C2334.5,6480.5,2379.5,6547.3,2379.5,6547.3z"/>
						
							<linearGradient id="Path_2459_1_" gradientUnits="userSpaceOnUse" x1="1622.7194" y1="6893.2305" x2="1622.7194" y2="6892.2305" gradientTransform="matrix(99.8193 0 0 -69.3284 -159596.1719 484405.9375)">
							<stop  offset="0" style="stop-color:#FF9520"/>
							<stop  offset="0.3366" style="stop-color:#FF9821"/>
							<stop  offset="0.5734" style="stop-color:#FFA126"/>
							<stop  offset="0.7796" style="stop-color:#FFB12D"/>
							<stop  offset="0.9673" style="stop-color:#FFC637"/>
							<stop  offset="1" style="stop-color:#FFCB39"/>
						</linearGradient>
						<path id="Path_2459" class="st12" d="M2332.7,6538.8c0,0-0.2,22.2,18.8,30.3c11.1,4.8,22.9,8.1,34.9,9.7
							c0,0-14.1-6.2-18.1-13.8c0,0,22.1,18,64.2,8.3c0,0-14.3-6.9-17.9-12.8s-7.7-21.3-14.6-28.2c-6.8-6.9-15.8-12.6-20.5-14.1
							l8-1.6c0,0-24.1-11.7-37.5-5.2S2332.7,6538.8,2332.7,6538.8z"/>
						
							<linearGradient id="Path_2460_1_" gradientUnits="userSpaceOnUse" x1="1624.126" y1="6893.415" x2="1624.126" y2="6892.415" gradientTransform="matrix(59.1255 0 0 -74.2761 -93693.9766 518507.9063)">
							<stop  offset="0" style="stop-color:#002A5E"/>
							<stop  offset="0.145" style="stop-color:#072E6C"/>
							<stop  offset="0.49" style="stop-color:#17388A"/>
							<stop  offset="0.788" style="stop-color:#213E9C"/>
							<stop  offset="1" style="stop-color:#2541A3"/>
						</linearGradient>
						<path id="Path_2460" class="st13" d="M2318,6554.3L2318,6554.3l15.3,11.8l29.6-65.7l-18.9-3.6l0,0l-15.8-5l-24.4,54.1
							L2318,6554.3z"/>
						<circle id="Ellipse_637" class="st6" cx="2177.5" cy="6456.4" r="16.9"/>
					</g>
					
						<linearGradient id="Path_2461_1_" gradientUnits="userSpaceOnUse" x1="1638.0837" y1="6928.1499" x2="1638.0837" y2="6927.1216" gradientTransform="matrix(11.7188 0 0 -11.5459 -16933.2012 85954.0547)">
						<stop  offset="0" style="stop-color:#FFE8E0"/>
						<stop  offset="1" style="stop-color:#FFB5AA"/>
					</linearGradient>
					<path id="Path_2461" class="st14" d="M2257.2,6533.2c5.1,2.9,9.8,4.9,11.3,3.3c1.5-1.5-1-5.6-5-11c-0.5,0.8-1,1.6-1.6,2.4
						C2260.6,6529.9,2259,6531.7,2257.2,6533.2z"/>
					
						<linearGradient id="Path_2462_1_" gradientUnits="userSpaceOnUse" x1="1623.1321" y1="6894.4521" x2="1623.1321" y2="6893.4521" gradientTransform="matrix(83.0464 0 0 -124.0583 -132545.6875 861723.5625)">
						<stop  offset="0" style="stop-color:#002A5E"/>
						<stop  offset="0.145" style="stop-color:#072E6C"/>
						<stop  offset="0.49" style="stop-color:#17388A"/>
						<stop  offset="0.788" style="stop-color:#213E9C"/>
						<stop  offset="1" style="stop-color:#2541A3"/>
					</linearGradient>
					<path id="Path_2462" class="st15" d="M2245.4,6525.8c2.6,1.7,6,4,9.4,6c0.8,0.5,1.6,1,2.4,1.4c1.8-1.6,3.3-3.3,4.7-5.2
						c0.6-0.8,1.1-1.6,1.6-2.4c-0.6-0.8-1.2-1.6-1.8-2.4c-9.9-13.1-25.9-32.6-19.6-45.8c7.4-15.8,40-10.9,47.6-29.5
						c2.9-7,0.8-14.8-1.8-20.7c-8.9-10-20.6-20.3-30.7-17.6c-8.4,2.3-7.1,13.8-18.5,25.9c-23,24.5-29,26.3-30.5,41.5
						C2206.7,6492.6,2217.1,6506.9,2245.4,6525.8z"/>
					
						<linearGradient id="Path_2463_1_" gradientUnits="userSpaceOnUse" x1="1642.8291" y1="6883.7607" x2="1642.8291" y2="6882.7607" gradientTransform="matrix(9.2085 0 0 -15.6875 -12925.9268 114315.7656)">
						<stop  offset="0" style="stop-color:#FFB5AA"/>
						<stop  offset="1" style="stop-color:#FFE6DD"/>
					</linearGradient>
					<path id="Path_2463" class="st16" d="M2199.2,6342.5c0.7-0.6,1.4-1.1,2.1-1.5c1.7-1.1,3.5-1.9,5.4-2.6
						c-6.3-9.1-7.9-12-8.8-11.6C2197.1,6327.2,2197.2,6333.8,2199.2,6342.5z"/>
					
						<linearGradient id="Path_2464_1_" gradientUnits="userSpaceOnUse" x1="1623.3962" y1="6892.5034" x2="1623.0072" y2="6891.5034" gradientTransform="matrix(80.9004 0 0 -53.7756 -129077.6484 376983.1563)">
						<stop  offset="0" style="stop-color:#8891E3"/>
						<stop  offset="1" style="stop-color:#6572DC"/>
					</linearGradient>
					<path id="Path_2464" class="st17" d="M2199.2,6342.5c0.3,1.5,0.7,3,1.1,4.5c1.4,5,3.3,9.8,5.6,14.4
						c12.6,24,34.8,27.9,48.2,30.3c9.5,1.7,22.6-1.5,25.4-9.9c2.2-6.7-2.9-19-9.7-24.3c-3.4-2.6-5-0.9-11.6,0.2
						c-20.2,3.5-28.5,0.6-36.4-3.7c-6.1-3.3-10.7-9.2-13.5-13.1c-0.5-0.6-0.9-1.2-1.2-1.8c-0.2-0.3-0.4-0.5-0.5-0.8
						c-1.9,0.6-3.7,1.5-5.4,2.6C2200.6,6341.4,2199.9,6341.9,2199.2,6342.5z"/>
					
						<linearGradient id="Path_2465_1_" gradientUnits="userSpaceOnUse" x1="1623.8584" y1="6893.9448" x2="1623.8584" y2="6892.9448" gradientTransform="matrix(64.0972 0 0 -93.4319 -101812.7656 650462.875)">
						<stop  offset="0" style="stop-color:#626FDB"/>
						<stop  offset="1" style="stop-color:#8B94E4"/>
					</linearGradient>
					<path id="Path_2465" class="st18" d="M2292,6435.7c-11.5,8.6-32,8.5-40-0.9c-8.8-10.3,4.1-23.4-4.2-48.5
						c-4.1-12.4-9.8-17.1-7.2-24.6c2.9-8.1,13.2-12.9,21.9-13.1c12.8-0.3,21.6,9.5,25,13.3C2305.2,6381.5,2311.6,6421.1,2292,6435.7
						z"/>
					
						<linearGradient id="Path_2466_1_" gradientUnits="userSpaceOnUse" x1="1631.3378" y1="6880.6523" x2="1631.3378" y2="6879.6523" gradientTransform="matrix(19.1333 0 0 -12.51 -29013.502 92503.4219)">
						<stop  offset="0" style="stop-color:#FFE8E0"/>
						<stop  offset="1" style="stop-color:#FFB5AA"/>
					</linearGradient>
					<path id="Path_2466" class="st19" d="M2189.8,6431.9c0,1.6,7.9,5.2,19.1,7c-0.5-2.1-0.8-4.2-0.8-6.4c0-2.1,0.3-4.1,0.8-6.1
						C2196.1,6428.5,2189.8,6430.4,2189.8,6431.9z"/>
					
						<linearGradient id="Path_2467_1_" gradientUnits="userSpaceOnUse" x1="1623.715" y1="6893.2896" x2="1622.8219" y2="6892.5259" gradientTransform="matrix(78.0835 0 0 -77.45 -124504.8594 540265.375)">
						<stop  offset="0" style="stop-color:#626FDB"/>
						<stop  offset="1" style="stop-color:#8B94E4"/>
					</linearGradient>
					<path id="Path_2467" class="st20" d="M2208.9,6438.9c1.6,0.3,3.2,0.5,4.9,0.6c13,1.3,29.3-0.2,43.2-9.2
						c20.8-13.3,35.2-42.4,26.6-57.8c-3.5-6.3-11.4-11.5-17.5-9.8c-8.8,2.5-9.5,15-16.2,34.6c-5.9,17.2-14,24.2-36.4,28.2
						c-1,0.2-2,0.3-3,0.5l-1.6,0.3c-0.5,2-0.8,4.1-0.8,6.1C2208.1,6434.7,2208.4,6436.8,2208.9,6438.9z"/>
					<g id="Group_1407">
						
							<linearGradient id="Path_2468_1_" gradientUnits="userSpaceOnUse" x1="1631.9332" y1="6886.7588" x2="1631.9332" y2="6885.7588" gradientTransform="matrix(18.1211 0 0 -20.7764 -27323.1719 149423.9375)">
							<stop  offset="0" style="stop-color:#FFE8E0"/>
							<stop  offset="1" style="stop-color:#FFB5AA"/>
						</linearGradient>
						<path id="Path_2468" class="st21" d="M2240.3,6347.7c-1,1.4,4.1,4.3,3.9,9.4c-0.1,2.8-1.7,4.2-0.9,5.2c1,1.2,4.6,0.6,6.4-1.6
							c1.7-2,6.9-4,6.8-4.9c-0.5-3.6,2.5-12.9,1.7-13.4C2255.8,6340.8,2241,6346.6,2240.3,6347.7z"/>
						
							<linearGradient id="Ellipse_638_1_" gradientUnits="userSpaceOnUse" x1="1623.5881" y1="6883.8892" x2="1623.5881" y2="6882.8892" gradientTransform="matrix(16.4301 -11.3932 -12.8934 -18.5936 64317.6172 152826.25)">
							<stop  offset="0" style="stop-color:#FFE8E0"/>
							<stop  offset="1" style="stop-color:#FFB5AA"/>
						</linearGradient>
						<path id="Ellipse_638" class="st22" d="M2236.7,6331.9c4.5-3.1,11.1-1.5,14.7,3.6c3.6,5.1,2.8,11.8-1.8,15
							c-4.5,3.1-11.1,1.5-14.7-3.6C2231.3,6341.7,2232.1,6335,2236.7,6331.9z"/>
						
							<linearGradient id="Path_2469_1_" gradientUnits="userSpaceOnUse" x1="1624.8259" y1="6891.896" x2="1624.8259" y2="6890.896" gradientTransform="matrix(49.1533 0 0 -46.7832 -77610.0781 328749.375)">
							<stop  offset="0" style="stop-color:#432929"/>
							<stop  offset="1" style="stop-color:#966565"/>
						</linearGradient>
						<path id="Path_2469" class="st23" d="M2245.6,6339.9c-4.1,1.1-6.1,1.7-7.8,1.5c-3.6-0.3-6.4-1.2-6.8-4.6
							c-0.2-1.5,0.5-3.8,2.9-6.5c2.6-2.9,2.9-3.3,5.9-5c3.1-1.7,9.1-1,13.3,2.3c4.8,3.8,3.5,7.6,7.2,13.3
							c6.9,10.5,18.2,8.3,19.6,14.9c1.3,5.9-5.9,15.7-14.3,15.3c-4.4-0.3-8.4-2.8-10.6-6.7c-0.7-1.2-1.3-2.8-2.1-17.3
							c-0.2-4.4-0.3-7.4-2.2-8.3C2249.8,6338.5,2249.2,6338.9,2245.6,6339.9z"/>
					</g>
					
						<linearGradient id="Path_2470_1_" gradientUnits="userSpaceOnUse" x1="2048.3687" y1="6889.5889" x2="2051.0505" y2="6889.5889" gradientTransform="matrix(17.7671 0 0 -32.4812 -26733.2695 230327.5156)">
						<stop  offset="0" style="stop-color:#002A5E"/>
						<stop  offset="1" style="stop-color:#2541A3"/>
					</linearGradient>
					<path id="Path_2470" class="st24" d="M2274.1,6536.6l-16.7,24.9c-0.2,0.4-0.9,0-0.9-0.4l4.6-26.6c0.1-0.4,0.3-0.8,0.5-1.1
						l3.9-4c0.3-0.3,0.8-0.3,1.1,0l6.7,4.8C2274.3,6534.7,2274.5,6535.8,2274.1,6536.6z"/>
				</g>
				<g id="Group_1411">
					
						<linearGradient id="Path_2471_1_" gradientUnits="userSpaceOnUse" x1="1654.6208" y1="6888.6914" x2="1655.7168" y2="6888.6914" gradientTransform="matrix(11.7119 0 0 -28.2002 -17238.2285 200937.7188)">
						<stop  offset="0" style="stop-color:#FFE8E0"/>
						<stop  offset="1" style="stop-color:#FFB5AA"/>
					</linearGradient>
					<path id="Path_2471" class="st25" d="M1942.3,6666.3c-2,2.9-0.3,5.2-0.7,15.4c-0.1,2.7-0.3,4.9-0.5,6.4l11.2,1.2l0.5-28.2l0,0
						C1952.5,6661.3,1945.2,6662.3,1942.3,6666.3z"/>
					
						<linearGradient id="Path_2472_1_" gradientUnits="userSpaceOnUse" x1="1791.0446" y1="6886.7314" x2="1791.4926" y2="6886.7314" gradientTransform="matrix(28.6118 0 0 -21.896 -44729.5625 157427.6719)">
						<stop  offset="0" style="stop-color:#FFE8E0"/>
						<stop  offset="1" style="stop-color:#FFB5AA"/>
					</linearGradient>
					<path id="Path_2472" class="st26" d="M1848.7,6624.9c-3.5,0.1-4.3,2.9-12.8,8.7c-2.2,1.6-4.1,2.7-5.4,3.5l5.8,9.7l22.8-16.6
						l0,0C1858.9,6630,1853.7,6624.7,1848.7,6624.9z"/>
					
						<linearGradient id="Path_2473_1_" gradientUnits="userSpaceOnUse" x1="1628.8239" y1="6890.4473" x2="1629.8239" y2="6890.4473" gradientTransform="matrix(23.5889 0 0 -38 -36592.1992 268487.1875)">
						<stop  offset="0" style="stop-color:#002A5E"/>
						<stop  offset="1" style="stop-color:#2541A3"/>
					</linearGradient>
					<path id="Path_2473" class="st27" d="M1830.3,6639.4l22.3,29.6c0.2,0.2,0.5,0.3,0.7,0.1c0.2-0.1,0.2-0.3,0.2-0.5l-9.7-31
						c-0.2-0.5-0.4-0.9-0.8-1.3l-4.9-4.8c-0.3-0.3-0.8-0.3-1.2-0.1l-6.3,5.2C1829.8,6637.3,1829.7,6638.5,1830.3,6639.4z"/>
					
						<linearGradient id="Path_2474_1_" gradientUnits="userSpaceOnUse" x1="1625.2158" y1="6894.8457" x2="1625.2158" y2="6893.9268" gradientTransform="matrix(44.9326 0 0 -198.2559 -71078.7656 1373454.875)">
						<stop  offset="0" style="stop-color:#002A5E"/>
						<stop  offset="1" style="stop-color:#2541A3"/>
					</linearGradient>
					<path id="Path_2474" class="st28" d="M1965.9,6669.4c-0.2,1.7-1.6,3.1-3.4,3.1l-19.4,0.2c-1.9,0-3.4-1.4-3.5-3.3
						c-1.3-27.9-0.6-56.7-2.9-85.6c-1.1-14.3-10.8-31.7-12.8-45.7c0,0,6.5,3.5,6.5,3.5l7.9-67.1c0,0,0.1,0,0.1,0
						c1.9,0.9,3.3,2.8,5.9,3.8c6.7,2.6,10.9,14.5,11.3,19.6c3.8,44.6,8.4,31,12.1,84C1969.8,6611,1969.1,6640.3,1965.9,6669.4z"/>
					
						<linearGradient id="Path_2475_1_" gradientUnits="userSpaceOnUse" x1="1622.8466" y1="6894.8276" x2="1622.8466" y2="6894.0737" gradientTransform="matrix(93.9727 0 0 -176.2292 -150610.0469 1221560.375)">
						<stop  offset="0" style="stop-color:#002A5E"/>
						<stop  offset="1" style="stop-color:#2541A3"/>
					</linearGradient>
					<path id="Path_2475" class="st29" d="M1940.1,6475.9c0,0-1.3,63.5-2.3,68.1c-2.2,13.7-9.2,34.8-22.1,56.8
						c-15.6,26.4-55.7,50.9-55.7,50.9s-12.5-8.7-13.8-27.8c-0.1-1.3,0.5-2.5,1.6-3.2c3.4-2.2,6.7-4.5,9.9-7c7.7-6.1,38-30,42.2-64.6
						c2.2-18-4-38,2.7-50.8c3.8-7.3,15.5-9.5,26.8-18.5C1935.1,6475.2,1937.9,6474.9,1940.1,6475.9z"/>
					
						<linearGradient id="Path_2476_1_" gradientUnits="userSpaceOnUse" x1="1625.1729" y1="6879.8638" x2="1626.1729" y2="6879.8638" gradientTransform="matrix(40.8232 0 0 -12.2793 -64404.25 91162.8906)">
						<stop  offset="0" style="stop-color:#002A5E"/>
						<stop  offset="1" style="stop-color:#2541A3"/>
					</linearGradient>
					<path id="Path_2476" class="st30" d="M1943,6689.1h37.9c0.3,0,0.5-0.2,0.5-0.5c0-0.2-0.1-0.4-0.3-0.5l-31.2-11.1
						c-0.5-0.2-1-0.2-1.5-0.2l-7,1c-0.5,0.1-0.8,0.5-0.8,0.9l0.3,8.4C1941,6688.3,1941.9,6689.1,1943,6689.1z"/>
					<g id="Group_1410">
						<g id="Group_1409">
							<path id="Path_2477" class="st31" d="M1925.8,6436.3c-1.3,1.2,1.5,3.4,1.5,9.4c0,3-3.5,4.2-2.9,5.4c0.8,1.4,4.6,1.6,7.1-0.2
								c2.2-1.7,7,0.1,6.3-0.5c-3.4-2.7,0.7-17.1,0-17.8C1935.7,6430.4,1926.8,6435.4,1925.8,6436.3z"/>
							
								<linearGradient id="Ellipse_639_1_" gradientUnits="userSpaceOnUse" x1="1911.7772" y1="6666.1699" x2="1911.0363" y2="6666.7139" gradientTransform="matrix(4.6778 -23.7375 -20.9746 -4.1333 138777.0781 73210.6563)">
								<stop  offset="0" style="stop-color:#432929"/>
								<stop  offset="1" style="stop-color:#966565"/>
							</linearGradient>
							<path id="Ellipse_639" class="st32" d="M1921.2,6428.6c1.3-6.6,7-10.9,12.8-9.8c5.8,1.1,9.4,7.4,8.1,13.9
								c-1.3,6.6-7,10.9-12.8,9.8S1919.9,6435.2,1921.2,6428.6z"/>
							
								<linearGradient id="Path_2478_1_" gradientUnits="userSpaceOnUse" x1="1633.4137" y1="6886.4126" x2="1633.4137" y2="6885.4126" gradientTransform="matrix(16.0151 0 0 -20.0261 -24228.2637 144332.8281)">
								<stop  offset="0" style="stop-color:#FFE8E0"/>
								<stop  offset="1" style="stop-color:#FFB5AA"/>
							</linearGradient>
							<path id="Path_2478" class="st33" d="M1933.2,6425.2c-0.8-0.6-1.8-0.7-2.7-0.3c-2.7,1.2-4.9,3.4-6.2,6.1
								c-0.4,0.9-2.6,5.8,0.2,9.7c2.5,3.6,8,5.2,11.6,2.8c4.2-2.8,3.2-9.2,2-12.2C1937.1,6428.9,1935.4,6426.7,1933.2,6425.2z"/>
						</g>
						
							<linearGradient id="Path_2479_1_" gradientUnits="userSpaceOnUse" x1="1623.4207" y1="6893.8867" x2="1623.4207" y2="6892.8867" gradientTransform="matrix(74.3159 0 0 -90.8552 -118713.4219 632771.6875)">
							<stop  offset="0" style="stop-color:#5B93E9"/>
							<stop  offset="1" style="stop-color:#78C0F0"/>
						</linearGradient>
						<path id="Path_2479" class="st34" d="M1956.7,6466.3c-2.6,10.4-0.7,22.4,0.8,31.4c1.2,7.3,2.3,10.7,0.2,13.3
							c-3.1,3.8-9.9,2.3-14,1.5c-5.8-1.2-7.7-4.2-13.6-4.7c-0.5,0-1.1-0.1-1.6-0.1c-2.3,0.1-4.7,0.8-9.7,2.4
							c-18.4,6.1-19.2,7.3-20.6,6.4c-6.1-3.9,7.9-25.6,3.8-55.2c-1.6-11.8-4.4-11.9-6.7-23.6c5.1-2.8,9.5-6.9,12.7-11.7
							c0.9,4.8,3.1,9.3,6.3,12.9c1,1.1,2.1,2.1,3.4,3c4,3,8.8,4.5,13.8,4.5c2.8,0,5.5-0.4,8.1-1.3c5.6-1.8,10.5-5,14.4-9.4
							c1.5-1.8,2.8-3.7,3.9-5.8c3.1,4.2,7.1,7.7,11.7,10.2c-2,5.2-4,7.7-5.5,11.2C1960.5,6459.8,1958.4,6459.5,1956.7,6466.3z"/>
						<path id="Path_2480" class="st35" d="M1929.7,6412.6"/>
						
							<linearGradient id="Path_2481_1_" gradientUnits="userSpaceOnUse" x1="1631.7063" y1="6892.5708" x2="1633.4293" y2="6893.3706" gradientTransform="matrix(17.3682 0 0 -75.8818 -26385.4805 529453.4375)">
							<stop  offset="0" style="stop-color:#FFE8E0"/>
							<stop  offset="1" style="stop-color:#FFB5AA"/>
						</linearGradient>
						<path id="Path_2481" class="st36" d="M1974.2,6419.6c-1.3,10.1-2.9,16.3-4.5,20.6c-4.6-2.5-8.6-6-11.7-10.2
							c2.6-5.1,3.8-10.8,5.2-17.7c0.9-4.1,0.9-5.6,2.8-28.2c1.2-14,1.7-19.6,2.8-19.7c1.1-0.1,2.2,5.5,2.6,7.5
							C1974.4,6386.2,1976.9,6398.2,1974.2,6419.6z"/>
						
							<linearGradient id="Path_2482_1_" gradientUnits="userSpaceOnUse" x1="1633.5562" y1="6891.5952" x2="1635.1831" y2="6892.4858" gradientTransform="matrix(15.0073 0 0 -55.6382 -22625.0977 389871.0625)">
							<stop  offset="0" style="stop-color:#FFE8E0"/>
							<stop  offset="1" style="stop-color:#FFB5AA"/>
						</linearGradient>
						<path id="Path_2482" class="st37" d="M1906.6,6415.6c0.3,3.5,0.9,7,1.6,10.4c-3.2,4.9-7.6,8.9-12.7,11.7
							c-0.3-1.4-0.6-3-0.8-4.8c-4.2-28.6,3.6-43.6,8.1-47.9c0.8-0.7,3.8-3.6,5.1-2.8c1.6,0.9-0.1,6-1,12
							C1905.8,6401.4,1905.8,6408.5,1906.6,6415.6z"/>
					</g>
				</g>
			</g>
		</g>
	</g>
	<g id="Group_1418" transform="translate(7708.526 2479.307)">
		<g id="Group_1388">
			
				<linearGradient id="Ellipse_149_1_" gradientUnits="userSpaceOnUse" x1="-6085.4351" y1="4414.4199" x2="-6085.4351" y2="4413.4199" gradientTransform="matrix(84.464 0 0 -84.464 508423.0313 376700.25)">
				<stop  offset="0" style="stop-color:#FFA333"/>
				<stop  offset="1" style="stop-color:#FF8E55"/>
			</linearGradient>
			<circle id="Ellipse_149" class="st38" cx="-5577.1" cy="3882.9" r="42.2"/>
		</g>
		<g id="Group_1417">
			<path id="Path_2483" class="st6" d="M-5565.8,3861.9h-30.1c0.9,0,1.8,0.4,2.4,1.1c0.5,0.5,0.8,1.1,1,1.8c0.1,0.3,0.1,0.5,0.1,0.8
				v3.1h-0.1v31.8c0,0.2,0,0.5,0.1,0.7c0,0.1,0.1,0.2,0.1,0.4c0.1,0.3,0.3,0.7,0.4,0.9c0.1,0.2,0.3,0.4,0.5,0.6
				c0.5,0.5,1.2,0.8,1.9,0.9c0.1,0,0.2,0,0.3,0c0.1,0,0.2,0,0.4,0h0c2,0,3.6-1.6,3.6-3.6v-0.6c0-0.1,0-0.2,0-0.3
				c0.1-0.5,0.5-1,1.1-1.1c0.1,0,0.2,0,0.3,0h22v-32.7C-5562,3863.6-5563.7,3861.9-5565.8,3861.9z"/>
			<path id="Path_2484" class="st6" d="M-5554.6,3899.7v1c0,1.8-1.5,3.3-3.3,3.3c0,0,0,0,0,0h-31c2,0,3.6-1.6,3.6-3.6v-0.7
				c0-0.7,0.6-1.3,1.3-1.3c0,0,0,0,0,0h28.1C-5555.2,3898.4-5554.6,3899-5554.6,3899.7C-5554.6,3899.7-5554.6,3899.7-5554.6,3899.7z
				"/>
			<path id="Path_2485" class="st6" d="M-5592.5,3864.7v3.9h-5.8c-0.7,0-1.3-0.6-1.3-1.3v0v-1.7c0-2.1,1.6-3.7,3.7-3.8c0,0,0,0,0,0
				c0.9,0,1.8,0.4,2.4,1.1C-5593,3863.4-5592.6,3864-5592.5,3864.7z"/>
		</g>
	</g>
</g>
</svg>
