<?xml version="1.0" encoding="utf-8"?>
<!-- Generator: Adobe Illustrator 23.0.3, SVG Export Plug-In . SVG Version: 6.00 Build 0)  -->
<svg version="1.1" id="Layer_1" xmlns="http://www.w3.org/2000/svg" xmlns:xlink="http://www.w3.org/1999/xlink" x="0px" y="0px"
	 viewBox="0 0 358.24 305.31" style="enable-background:new 0 0 358.24 305.31;" xml:space="preserve">
<style type="text/css">
	.st0{display:none;opacity:0.33;}
	.st1{display:inline;fill:#A7A9AC;stroke:#FFFFFF;stroke-miterlimit:10;}
	.st2{display:inline;fill:#9F9E9F;stroke:#FFFFFF;stroke-miterlimit:10;}
	.st3{display:inline;fill:#FEFEFE;stroke:#FFFFFF;stroke-miterlimit:10;}
	.st4{display:inline;fill:#CDCDCD;stroke:#FFFFFF;stroke-miterlimit:10;}
	.st5{display:inline;fill:#FCFCFC;stroke:#FFFFFF;stroke-miterlimit:10;}
	.st6{display:inline;fill:#BABABA;stroke:#FFFFFF;stroke-miterlimit:10;}
	.st7{display:inline;fill:#AFAFAF;stroke:#FFFFFF;stroke-miterlimit:10;}
	.st8{display:inline;fill:#C2C1C1;stroke:#FFFFFF;stroke-miterlimit:10;}
	.st9{display:inline;fill:#D6D6D6;stroke:#FFFFFF;stroke-miterlimit:10;}
	.st10{display:inline;fill:#B7B8B8;stroke:#FFFFFF;stroke-miterlimit:10;}
	.st11{fill:#D1D3D4;}
	.st12{fill:#E6E7E8;}
</style>
<g class="st0">
	<path class="st1" d="M326.97,296.79c6.19,0.88,12.13,3.44,18.36-1.58c3.68-2.96,6.88,2.91,11.77,3.88
		c-5.2,4.23-8.82,8.58-14.87,3.27c-1.54-1.35-4.91-0.26-7.45-0.26c-87.34-0.06-174.68-0.11-262.02-0.16
		c0.11-2.01-0.35-4.2,1.51-5.66l0.67-0.25c-0.24,1.51,0.31,2.09,1.69,1.68c15.15-0.06,30.31-0.13,45.46-0.19
		c1.36,0.06,2.71,0.11,4.07,0.17c15.76-0.06,31.53-0.13,47.29-0.19c0.74,0.01,1.48,0.01,2.22,0.02c32.87-0.01,65.74-0.01,98.61-0.02
		c0.75-0.03,1.5-0.06,2.25-0.1c16.69,0.6,33.38,1.86,50.04-0.67L326.97,296.79z"/>
	<path class="st1" d="M74.27,296.27c-1.86,1.46-1.4,3.65-1.51,5.66c-3.94-2.58-1.76-6.73-1.77-9.96
		c-0.16-90.24-0.22-180.48,0.04-270.71c0.02-6.81-7-14.58,1.6-20.66c9.86,6.72-1.24,15.89,2.33,23.35
		c-0.02,0.81-0.05,1.61-0.07,2.42c0.04,17.75,0.08,35.5,0.12,53.24c-0.03,0.79-0.07,1.58-0.1,2.37c0.01,17.1,0.02,34.2,0.03,51.3
		c0,1.42-0.01,2.85-0.01,4.27c0,17.11,0.01,34.22,0.01,51.34c0.02,0.76,0.04,1.52,0.06,2.28c-0.73,17.77-0.82,35.54,0.04,53.31
		c-0.03,0.78-0.06,1.55-0.09,2.33C74.72,263.3,74.5,279.79,74.27,296.27z"/>
	<path class="st2" d="M74.89,26.38c0.02-0.81,0.05-1.61,0.07-2.42c80.54,0.05,161.08,0.28,241.61-0.12
		c9.28-0.05,11.41,2.55,11.36,12.41c-0.39,83.1-0.21,166.2-0.25,249.29c0,3.75-0.47,7.5-0.72,11.24c0,0-0.39-0.06-0.39-0.06
		c-0.32-16.57-0.64-33.15-0.97-49.72c-0.04-0.93-0.08-1.85-0.13-2.78c0-17.6-0.01-35.2-0.01-52.8c0.03-0.91,0.06-1.82,0.08-2.73
		c0-17-0.01-34-0.01-51c0-1.52,0-3.03,0-4.55c0.06-17.04,0.13-34.09,0.19-51.13c-0.03-0.86-0.07-1.72-0.1-2.57
		c0.07-15.09-0.13-30.18,0.32-45.25c0.19-6.42-1.82-8.29-7.59-8.11c-13.92,0.44-27.86,0.25-41.79,0.31
		c-0.76-0.02-1.53-0.04-2.29-0.06c-15.76,0.06-31.51,0.11-47.27,0.17c-1.36,0-2.72,0-4.08,0c-15.75-0.05-31.5-0.1-47.24-0.15
		c-0.75,0-1.51,0-2.26,0c-16.35,0.02-32.7,0.04-49.06,0.06c-0.77-0.02-1.54-0.04-2.3-0.06C106.35,26.36,90.62,26.37,74.89,26.38z"/>
	<path class="st3" d="M274.29,297.5c-32.87,0.01-65.74,0.01-98.61,0.02c0.22-0.37,0.25-0.75,0.07-1.16
		c-0.07-13.62,0.1-27.25-0.32-40.86c-0.2-6.43,1.36-9.2,7.82-8.94c13.19,0.54,26.41,0.31,39.61,0.4c1.21,15.8-1.43,31.88,1.43,47.57
		c0.94-0.03,1.87-0.06,2.81-0.09c0-15.82,0-31.65,0-47.47c8.5-0.09,17.02-0.57,25.5-0.16c7.36,0.36,15-2.23,22.07,1.96
		c-0.16,15.88-0.31,31.75-0.47,47.63C274.01,296.78,274.04,297.15,274.29,297.5z"/>
	<path class="st3" d="M325.61,247.01c0.32,16.57,0.64,33.15,0.97,49.72c-16.65,2.53-33.35,1.27-50.04,0.67c0,0,0.08-0.79,0.08-0.79
		c-0.11-15.95-0.22-31.9-0.32-47.85c1.56-2.2,3.81-2.08,6-2.06C296.73,246.79,311.17,246.9,325.61,247.01z"/>
	<path class="st3" d="M173.46,297.5c-15.76,0.06-31.53,0.13-47.29,0.19c-0.67-1.2-1.35-2.4-2.02-3.6c0.04-13,0.28-26.01,0.01-39.01
		c-0.12-5.95,1.28-8.73,7.37-8.51c11.68,0.42,23.38,0.34,35.07,0.03c5.35-0.14,7.23,1.92,7.09,7.71
		c-0.34,14.02-0.23,28.05-0.31,42.08C173.19,296.78,173.22,297.15,173.46,297.5z"/>
	<path class="st3" d="M74.27,296.27c0.23-16.49,0.45-32.97,0.68-49.46c13.3-0.04,26.61,0.18,39.9-0.25c5.96-0.19,7.64,2.21,7.5,8.35
		c-0.3,13.02-0.02,26.06,0.02,39.1c-0.09,1.17-0.19,2.33-0.28,3.5c-15.15,0.06-30.31,0.13-45.46,0.19
		c-0.56-0.56-1.13-1.12-1.69-1.68L74.27,296.27z"/>
	<path class="st4" d="M122.09,297.52c0.09-1.17,0.19-2.33,0.28-3.5c0.59,0.06,1.17,0.08,1.76,0.07c0.67,1.2,1.35,2.4,2.02,3.6
		C124.81,297.63,123.45,297.57,122.09,297.52z"/>
	<path class="st4" d="M74.94,296.02c0.56,0.56,1.13,1.12,1.69,1.68C75.25,298.11,74.7,297.54,74.94,296.02z"/>
	<path class="st4" d="M173.46,297.5c-0.23-0.35-0.26-0.72-0.09-1.12c0.8-0.01,1.59-0.01,2.38-0.02c0.17,0.4,0.14,0.78-0.08,1.15
		C174.94,297.51,174.2,297.51,173.46,297.5z"/>
	<path class="st4" d="M276.62,296.62c0,0-0.08,0.79-0.08,0.79c-0.75,0.03-1.5,0.06-2.25,0.1c-0.25-0.35-0.28-0.72-0.08-1.11
		C275.02,296.47,275.82,296.54,276.62,296.62z"/>
	<path class="st5" d="M75.04,244.49c-0.86-17.77-0.78-35.54-0.04-53.31c15.66-0.01,31.32-0.03,46.98-0.04
		c0.09,14.71-0.09,29.42,0.39,44.11c0.23,7.04-1.7,9.69-8.48,9.42C100.96,244.15,87.99,244.5,75.04,244.49z"/>
	<path class="st5" d="M74.89,26.38c15.73-0.01,31.45-0.01,47.18-0.02c0.11,17.14,0.23,34.28,0.34,51.42c-2.52,3-5.86,1.83-8.86,1.85
		c-12.85,0.1-25.7,0.01-38.54-0.01C74.97,61.87,74.93,44.12,74.89,26.38z"/>
	<path class="st3" d="M74.94,133.29c-0.01-17.1-0.02-34.2-0.03-51.3c15.72-0.02,31.45-0.03,47.17-0.05
		c0.01,17.1,0.02,34.2,0.03,51.3C106.4,133.25,90.67,133.27,74.94,133.29z"/>
	<path class="st3" d="M74.94,188.9c0-17.11-0.01-34.22-0.01-51.34c15.76-0.02,31.52-0.05,47.28-0.07
		c-0.03,17.16-0.06,34.32-0.08,51.48C106.4,188.95,90.67,188.93,74.94,188.9z"/>
	<path class="st6" d="M75.04,244.49c12.95,0.01,25.91-0.34,38.85,0.18c6.79,0.28,8.72-2.38,8.48-9.42
		c-0.48-14.69-0.3-29.41-0.39-44.11c0.95,0.08,1.9,0.15,2.84,0.23c-0.19,14.64-0.17,29.3-0.67,43.93c-0.25,7.33,2.64,9.52,8.99,9.32
		c11.01-0.35,22.05-0.43,33.05,0.03c5.94,0.25,8-2.37,7.64-8.27c0,0,0.73,0.01,0.73,0.01l0.73-0.01c0.72,2.99-0.98,8.04,3.84,7.89
		c14.7-0.46,29.5,2.4,44.09-1.57c1.18,0,2.36-0.01,3.54-0.01c14.58,4,29.38,1.12,44.08,1.58c4.82,0.15,3.12-4.9,3.84-7.89
		c0.54,0.01,1.08,0.01,1.63,0.01c-0.21,6.02,2.41,8.35,7.99,8.21c13.73-0.34,27.46-0.27,41.19-0.37c0.04,0.93,0.09,1.85,0.13,2.78
		c-14.44-0.1-28.87-0.22-43.31-0.31c-2.19-0.01-4.45-0.14-6,2.06c-0.54,0-1.08,0-1.62,0.01c-7.07-4.19-14.71-1.61-22.07-1.96
		c-8.48-0.41-17,0.07-25.5,0.16c-1.41,0-2.83-0.01-4.24-0.01c-13.21-0.09-26.42,0.14-39.61-0.4c-6.46-0.26-8.02,2.51-7.82,8.94
		c0.42,13.61,0.24,27.24,0.32,40.86c-0.79,0.01-1.59,0.01-2.38,0.02c0.07-14.02-0.04-28.06,0.3-42.08c0.14-5.79-1.74-7.85-7.09-7.71
		c-11.68,0.31-23.39,0.39-35.07-0.03c-6.09-0.22-7.49,2.56-7.37,8.51c0.26,13,0.02,26-0.01,39.01c-0.59,0.01-1.18-0.01-1.76-0.07
		c-0.04-13.03-0.32-26.07-0.02-39.1c0.14-6.15-1.55-8.55-7.5-8.35c-13.29,0.43-26.6,0.21-39.9,0.25
		C74.98,246.04,75.01,245.26,75.04,244.49z"/>
	<path class="st7" d="M122.09,81.94c-15.72,0.02-31.45,0.03-47.17,0.05c0.03-0.79,0.07-1.58,0.1-2.37
		c12.85,0.02,25.7,0.11,38.54,0.01c3-0.02,6.34,1.15,8.86-1.85c0.57-0.02,1.14-0.04,1.71-0.04c16.54,3.24,33.07,3.19,49.61,0.02
		c0,0,0.8-0.01,0.8-0.01l0.81,0.01c1.6,2.22,3.91,1.9,6.08,1.9c13.88-0.06,27.76-0.16,41.65-0.25c0,0.83,0.01,1.66,0.01,2.49
		c-15.81,0.01-31.62,0.02-47.42,0.03c-0.73,0-1.47,0-2.2,0.01c-16.36,0.02-32.72,0.04-49.08,0.06
		C123.61,81.97,122.85,81.95,122.09,81.94z"/>
	<path class="st4" d="M122.21,137.49c-15.76,0.02-31.52,0.05-47.28,0.07c0-1.42,0.01-2.85,0.01-4.27
		c15.73-0.02,31.45-0.04,47.18-0.05c0.67,1.42,1.35,2.83,2.02,4.25C123.5,137.49,122.86,137.49,122.21,137.49z"/>
	<path class="st8" d="M124.82,191.38c-0.95-0.08-1.89-0.16-2.84-0.23c-15.66,0.01-31.32,0.03-46.98,0.04
		c-0.02-0.76-0.04-1.52-0.06-2.28c15.73,0.02,31.46,0.05,47.19,0.07c0.82-0.05,1.64-0.1,2.45-0.14c15.9,0.03,31.81,0.06,47.71,0.09
		c-2.71,3.44-6.42,2.13-9.73,2.19C149.99,191.31,137.4,191.3,124.82,191.38z"/>
	<path class="st5" d="M173.74,77.76c-16.54,3.17-33.07,3.22-49.61-0.02c0.08-17.11,0.17-34.21,0.25-51.32
		c16.35-0.02,32.7-0.04,49.06-0.06C173.54,43.49,173.64,60.62,173.74,77.76z"/>
	<path class="st5" d="M276.59,26.4c13.93-0.06,27.87,0.12,41.79-0.31c5.76-0.18,7.78,1.69,7.59,8.11
		c-0.45,15.07-0.25,30.17-0.32,45.25c-7.83,0.08-15.68,0.58-23.49,0.12c-8.6-0.51-17.43,2.25-25.81-1.83
		C276.43,60.62,276.51,43.51,276.59,26.4z"/>
	<path class="st5" d="M325.48,244.23c-13.73,0.1-27.47,0.03-41.19,0.37c-5.57,0.14-8.2-2.19-7.99-8.21
		c0.06-4.42-0.15-8.86,0.22-13.24c0.89-10.67-2.27-21.6,1.75-32.05c15.74,0.11,31.47,0.23,47.21,0.34
		C325.47,209.03,325.48,226.63,325.48,244.23z"/>
	<path class="st3" d="M325.74,82.02c-0.06,17.04-0.13,34.09-0.19,51.13c-15.79,0.14-31.59,0.27-47.38,0.4
		c-3.65-17.07-0.96-34.35-1.47-51.52C293.04,82.03,309.39,82.03,325.74,82.02z"/>
	<path class="st3" d="M223.07,79.41c-13.88,0.09-27.76,0.19-41.65,0.25c-2.17,0.01-4.48,0.33-6.08-1.9
		c0.12-17.14,0.23-34.27,0.35-51.41c15.75,0.05,31.5,0.1,47.24,0.15C222.99,44.14,223.03,61.78,223.07,79.41z"/>
	<path class="st3" d="M227.03,26.51c15.76-0.06,31.51-0.11,47.27-0.17c0.11,17.14,0.22,34.28,0.34,51.43
		c-1.91,2.52-4.58,1.89-7.03,1.88c-13.57-0.01-27.14-0.09-40.71-0.15C226.93,61.84,226.98,44.17,227.03,26.51z"/>
	<path class="st3" d="M325.55,137.7c0,17,0.01,34,0.01,51c-15.77,0.13-31.55,0.27-47.32,0.4c-2.7-2.77-1.7-6.38-1.72-9.67
		c-0.12-13.97-0.09-27.94-0.11-41.91c0.61,0.04,1.2-0.03,1.79-0.19C293.97,137.47,309.76,137.58,325.55,137.7z"/>
	<path class="st9" d="M227.03,26.51c-0.05,17.66-0.09,35.33-0.14,52.99c0,0.76,0,1.52,0.01,2.28c0,17.19,0,34.37,0,51.56
		c0,1.39,0,2.78,0,4.17c0.04,17.12,0.09,34.24,0.13,51.35c-1.34,0.02-2.68,0.05-4.01,0.07c0.02-17.15,0.04-34.29,0.06-51.44
		c2.12-1.37,0.16-2.75,0.01-4.13c0-17.16,0-34.31,0-51.47c0-0.83-0.01-1.66-0.01-2.49c-0.04-17.64-0.09-35.27-0.13-52.9
		C224.3,26.51,225.66,26.51,227.03,26.51z"/>
	<path class="st7" d="M226.89,81.78c0-0.76,0-1.52-0.01-2.28c13.57,0.06,27.14,0.14,40.71,0.15c2.45,0,5.13,0.64,7.03-1.88
		c0.57-0.02,1.14-0.03,1.71-0.03c8.38,4.09,17.2,1.33,25.81,1.83c7.8,0.46,15.66-0.04,23.49-0.12c0.03,0.86,0.07,1.71,0.1,2.57
		c-16.35,0.01-32.69,0.01-49.04,0.01c-0.79-0.04-1.58-0.08-2.37-0.12C258.51,81.88,242.7,81.83,226.89,81.78z"/>
	<path class="st4" d="M325.55,137.7c-15.79-0.12-31.58-0.24-47.36-0.36c-0.01-1.26-0.01-2.53-0.02-3.79
		c15.79-0.13,31.59-0.27,47.38-0.4C325.55,134.67,325.55,136.19,325.55,137.7z"/>
	<path class="st6" d="M124.38,26.42c-0.08,17.11-0.17,34.21-0.25,51.32c-0.57,0-1.14,0.01-1.71,0.04
		c-0.11-17.14-0.23-34.28-0.34-51.42C122.84,26.38,123.61,26.4,124.38,26.42z"/>
	<path class="st10" d="M175.7,26.36c-0.12,17.14-0.23,34.27-0.35,51.41c0,0-0.81-0.01-0.81-0.01s-0.81,0.01-0.8,0.01
		c-0.1-17.13-0.2-34.27-0.3-51.4C174.19,26.36,174.94,26.36,175.7,26.36z"/>
	<path class="st10" d="M276.34,77.74c-0.57,0-1.14,0.01-1.71,0.03c-0.11-17.14-0.22-34.28-0.34-51.43c0.76,0.02,1.53,0.04,2.29,0.06
		C276.51,43.51,276.43,60.62,276.34,77.74z"/>
	<path class="st8" d="M278.23,189.11c15.77-0.13,31.55-0.27,47.32-0.4c-0.03,0.91-0.06,1.82-0.09,2.73
		c-15.74-0.11-31.47-0.23-47.21-0.34C278.26,190.43,278.25,189.77,278.23,189.11z"/>
	<path class="st9" d="M222.87,246.96c1.41,0,2.82,0,4.24,0.01c0,15.83,0,31.65,0,47.47c-0.94,0.03-1.87,0.06-2.81,0.09
		C221.44,278.84,224.08,262.76,222.87,246.96z"/>
	<path class="st10" d="M274.68,248.77c0.54-0.01,1.08-0.01,1.62-0.01c0.11,15.95,0.21,31.9,0.32,47.85c-0.8-0.07-1.6-0.15-2.41-0.22
		C274.37,280.52,274.52,264.64,274.68,248.77z"/>
	<path class="st6" d="M124.14,137.49c-0.67-1.42-1.34-2.83-2.02-4.25c-0.01-17.1-0.02-34.2-0.03-51.3c0.76,0.02,1.52,0.04,2.28,0.05
		c-0.04,6.47-0.46,12.97-0.04,19.4c0.69,10.7-2.24,21.63,1.65,32.13c0,1.26-0.01,2.52-0.01,3.78c-0.6,0.13-1.2,0.19-1.81,0.2
		L124.14,137.49z"/>
	<path class="st6" d="M124.59,188.83c-0.82,0.05-1.64,0.1-2.45,0.14c0.03-17.16,0.06-34.32,0.08-51.48c0.64,0,1.29,0,1.93,0
		c0,0,0.01,0.01,0.01,0.01C124.3,154.61,124.44,171.72,124.59,188.83z"/>
	<path class="st5" d="M124.82,191.38c12.58-0.07,25.16-0.06,37.74-0.27c3.31-0.05,7.02,1.25,9.72-2.19c-0.01,0,0.41,0.04,0.41,0.04
		c0.19,0.64,0.36,1.28,0.51,1.93c0.21,15.16,0.41,30.33,0.62,45.49c0.36,5.9-1.7,8.52-7.64,8.27c-11-0.46-22.04-0.39-33.05-0.03
		c-6.35,0.2-9.24-1.98-8.99-9.32C124.66,220.67,124.63,206.02,124.82,191.38z"/>
	<path class="st5" d="M223.22,242.7c-14.58,3.98-29.39,1.12-44.09,1.57c-4.82,0.15-3.12-4.9-3.84-7.89
		c0.2-15.06,0.41-30.12,0.61-45.18c5.31-0.01,10.65-0.36,15.94,0.03c10.47,0.76,21.11-2.21,31.41,1.78
		C223.24,209.57,223.23,226.14,223.22,242.7z"/>
	<path class="st5" d="M274.68,236.38c-0.72,2.99,0.98,8.05-3.84,7.89c-14.69-0.47-29.5,2.42-44.08-1.58
		c0.02-16.54,0.03-33.08,0.05-49.62c15.71-4.07,31.62-1.16,47.43-1.6C274.39,206.44,274.53,221.41,274.68,236.38z"/>
	<path class="st10" d="M274.68,236.38c-0.14-14.97-0.29-29.94-0.43-44.92c0.04-0.89,0.08-1.77,0.12-2.65
		c0.02-17.11,0.04-34.21,0.06-51.32c0.65,0,1.3,0,1.94,0.01l0.03,0.04c0.02,13.97-0.01,27.94,0.11,41.91
		c0.03,3.29-0.97,6.89,1.72,9.67c0.01,0.66,0.02,1.32,0.03,1.98c-4.02,10.46-0.85,21.39-1.75,32.06c-0.37,4.39-0.16,8.83-0.22,13.24
		C275.76,236.39,275.22,236.39,274.68,236.38z"/>
	<path class="st9" d="M226.81,193.07c-0.02,16.54-0.03,33.08-0.05,49.62c-1.18,0-2.36,0.01-3.54,0.01
		c0.01-16.56,0.02-33.13,0.03-49.69C224.44,193.03,225.62,193.05,226.81,193.07z"/>
	<path class="st10" d="M175.9,191.2c-0.2,15.06-0.4,30.12-0.61,45.18c0,0-0.73,0.01-0.73,0.01s-0.73,0-0.73-0.01
		c-0.21-15.16-0.41-30.33-0.61-45.49C174.11,191,175.01,191.1,175.9,191.2z"/>
	<path class="st3" d="M125.98,133.52c-3.89-10.5-0.96-21.43-1.65-32.13c-0.42-6.43,0-12.93,0.04-19.4
		c16.36-0.02,32.72-0.04,49.09-0.06c0.02,17.14,0.04,34.28,0.06,51.42C157.67,133.41,141.82,133.47,125.98,133.52z"/>
	<path class="st3" d="M223.08,81.9c0,17.16,0,34.31,0,51.47c-15.84,0-31.68-0.01-47.52-0.01c0.03-17.14,0.06-34.29,0.1-51.43
		C191.47,81.92,207.28,81.91,223.08,81.9z"/>
	<path class="st10" d="M175.66,81.93c-0.03,17.14-0.06,34.29-0.1,51.43c-0.68,0-1.37,0-2.05-0.01c-0.02-17.14-0.04-34.28-0.06-51.42
		C174.19,81.93,174.93,81.93,175.66,81.93z"/>
	<path class="st3" d="M172.7,188.96c0,0-0.42-0.04-0.41-0.04c-15.9-0.03-31.8-0.06-47.7-0.09c-0.14-17.11-0.28-34.22-0.42-51.33
		c0.61-0.01,1.21-0.08,1.81-0.2c15.84,0.07,31.68,0.14,47.52,0.2c-0.01,17.14-0.01,34.27-0.02,51.41L172.7,188.96z"/>
	<path class="st10" d="M278.17,133.56c0.01,1.26,0.01,2.53,0.02,3.79c-0.59,0.16-1.19,0.22-1.79,0.19c0,0-0.03-0.04-0.03-0.04
		c-0.68-1.42-1.36-2.85-2.04-4.27c0-17.1,0-34.2,0-51.3c0.79,0.04,1.58,0.08,2.37,0.12C277.21,99.21,274.52,116.49,278.17,133.56z"
		/>
	<path class="st3" d="M274.32,81.92c0,17.1,0,34.2,0,51.3c-15.81,0.04-31.62,0.08-47.43,0.11c0-17.19,0-34.37,0-51.56
		C242.7,81.83,258.51,81.88,274.32,81.92z"/>
	<path class="st3" d="M223.07,137.5c-0.02,17.15-0.04,34.29-0.06,51.44c-15.77,0-31.54,0.01-47.3,0.01
		c-0.04-17.15-0.07-34.3-0.11-51.45C191.43,137.5,207.25,137.5,223.07,137.5z"/>
	<path class="st3" d="M274.42,137.49c-0.02,17.11-0.04,34.21-0.06,51.32c-15.78,0.02-31.56,0.03-47.34,0.05
		c-0.04-17.12-0.09-34.24-0.13-51.35C242.74,137.5,258.58,137.5,274.42,137.49z"/>
	<path class="st4" d="M223.07,137.5c-15.82,0-31.65,0-47.47,0c-0.71,0-1.41,0-2.11,0.01c-15.84-0.07-31.68-0.14-47.52-0.2
		c0-1.26,0.01-2.52,0.01-3.78c15.85-0.05,31.69-0.11,47.54-0.16c0.68,0,1.37,0,2.05,0.01c15.84,0,31.68,0.01,47.52,0.01
		C223.23,134.75,225.19,136.13,223.07,137.5z"/>
	<path class="st8" d="M227.02,188.86c15.78-0.02,31.56-0.03,47.34-0.05c-0.04,0.88-0.08,1.76-0.12,2.65
		c-15.82,0.44-31.73-2.47-47.43,1.6c-1.19-0.02-2.37-0.04-3.56-0.06c-10.3-3.99-20.95-1.02-31.41-1.78
		c-5.29-0.39-10.63-0.04-15.94-0.03c-0.89-0.1-1.78-0.2-2.68-0.3c-0.16-0.65-0.33-1.29-0.52-1.93c0,0,0.77-0.05,0.77-0.05
		c0.75,0.01,1.49,0.02,2.24,0.03c15.77,0,31.54-0.01,47.3-0.01C224.35,188.91,225.69,188.89,227.02,188.86z"/>
	<path class="st4" d="M274.42,137.49c-15.84,0.01-31.69,0.01-47.53,0.02c0-1.39,0-2.78,0-4.17c15.81-0.04,31.62-0.08,47.43-0.11
		c0.68,1.42,1.36,2.85,2.04,4.27C275.72,137.5,275.07,137.49,274.42,137.49z"/>
	<path class="st10" d="M175.71,188.95c-0.75-0.01-1.49-0.02-2.24-0.03c0.01-17.14,0.01-34.27,0.02-51.41c0.7,0,1.41,0,2.11-0.01
		C175.64,154.65,175.67,171.8,175.71,188.95z"/>
</g>
<ellipse class="st11" cx="74.96" cy="97.1" rx="45.32" ry="40.5"/>
<ellipse class="st11" cx="147.07" cy="230.24" rx="71.14" ry="59.71"/>
<ellipse class="st12" cx="134" cy="142.74" rx="71.14" ry="59.71"/>
<ellipse transform="matrix(0.064 -0.998 0.998 0.064 32.8411 381.5646)" class="st12" cx="219.82" cy="173.28" rx="85.82" ry="83.68"/>
<ellipse class="st12" cx="26.61" cy="181.31" rx="26.61" ry="24.5"/>
<ellipse transform="matrix(0.064 -0.998 0.998 0.064 120.0666 324.1745)" class="st12" cx="232.84" cy="98.08" rx="48.66" ry="50.29"/>
<ellipse class="st11" cx="289.54" cy="103.67" rx="26.61" ry="24.5"/>
</svg>
