<?xml version="1.0" encoding="utf-8"?>
<!-- Generator: Adobe Illustrator 23.0.3, SVG Export Plug-In . SVG Version: 6.00 Build 0)  -->
<svg version="1.1" id="Layer_1" xmlns="http://www.w3.org/2000/svg" xmlns:xlink="http://www.w3.org/1999/xlink" x="0px" y="0px"
	 viewBox="0 0 417.73 305.31" style="enable-background:new 0 0 417.73 305.31;" xml:space="preserve">
<style type="text/css">
	.st0{display:none;opacity:0.33;}
	.st1{display:inline;fill:#A7A9AC;stroke:#FFFFFF;stroke-miterlimit:10;}
	.st2{display:inline;fill:#9F9E9F;stroke:#FFFFFF;stroke-miterlimit:10;}
	.st3{display:inline;fill:#FEFEFE;stroke:#FFFFFF;stroke-miterlimit:10;}
	.st4{display:inline;fill:#CDCDCD;stroke:#FFFFFF;stroke-miterlimit:10;}
	.st5{display:inline;fill:#FCFCFC;stroke:#FFFFFF;stroke-miterlimit:10;}
	.st6{display:inline;fill:#BABABA;stroke:#FFFFFF;stroke-miterlimit:10;}
	.st7{display:inline;fill:#AFAFAF;stroke:#FFFFFF;stroke-miterlimit:10;}
	.st8{display:inline;fill:#C2C1C1;stroke:#FFFFFF;stroke-miterlimit:10;}
	.st9{display:inline;fill:#D6D6D6;stroke:#FFFFFF;stroke-miterlimit:10;}
	.st10{display:inline;fill:#B7B8B8;stroke:#FFFFFF;stroke-miterlimit:10;}
	.st11{fill:#F7941D;}
	.st12{fill:#F26522;}
	.st13{fill:none;}
</style>
<g class="st0">
	<path class="st1" d="M386.46,296.79c6.19,0.88,12.13,3.44,18.36-1.58c3.68-2.96,6.88,2.91,11.77,3.88
		c-5.2,4.23-8.82,8.58-14.87,3.27c-1.54-1.35-4.91-0.26-7.45-0.26c-87.34-0.06-174.68-0.11-262.02-0.16
		c0.11-2.01-0.35-4.2,1.51-5.66l0.67-0.25c-0.24,1.51,0.31,2.09,1.69,1.68c15.15-0.06,30.31-0.13,45.46-0.19
		c1.36,0.06,2.71,0.11,4.07,0.17c15.76-0.06,31.53-0.13,47.29-0.19c0.74,0.01,1.48,0.01,2.22,0.02c32.87-0.01,65.74-0.01,98.61-0.02
		c0.75-0.03,1.5-0.06,2.25-0.1c16.69,0.6,33.38,1.86,50.04-0.67L386.46,296.79z"/>
	<path class="st1" d="M133.76,296.27c-1.86,1.46-1.4,3.65-1.51,5.66c-3.94-2.58-1.76-6.73-1.77-9.96
		c-0.16-90.24-0.22-180.48,0.04-270.71c0.02-6.81-7-14.58,1.6-20.66c9.86,6.72-1.24,15.89,2.33,23.35
		c-0.02,0.81-0.05,1.61-0.07,2.42c0.04,17.75,0.08,35.5,0.12,53.24c-0.03,0.79-0.07,1.58-0.1,2.37c0.01,17.1,0.02,34.2,0.03,51.3
		c0,1.42-0.01,2.85-0.01,4.27c0,17.11,0.01,34.22,0.01,51.34c0.02,0.76,0.04,1.52,0.06,2.28c-0.73,17.77-0.82,35.54,0.04,53.31
		c-0.03,0.78-0.06,1.55-0.09,2.33C134.22,263.3,133.99,279.79,133.76,296.27z"/>
	<path class="st2" d="M134.39,26.38c0.02-0.81,0.05-1.61,0.07-2.42C215,24,295.54,24.23,376.07,23.84
		c9.28-0.05,11.41,2.55,11.36,12.41c-0.39,83.1-0.21,166.2-0.25,249.29c0,3.75-0.47,7.5-0.72,11.24c0,0-0.39-0.06-0.39-0.06
		c-0.32-16.57-0.64-33.15-0.97-49.72c-0.04-0.93-0.08-1.85-0.13-2.78c0-17.6-0.01-35.2-0.01-52.8c0.03-0.91,0.06-1.82,0.08-2.73
		c0-17-0.01-34-0.01-51c0-1.52,0-3.03,0-4.55c0.06-17.04,0.13-34.09,0.19-51.13c-0.03-0.86-0.07-1.72-0.1-2.57
		c0.07-15.09-0.13-30.18,0.32-45.25c0.19-6.42-1.82-8.29-7.59-8.11c-13.92,0.44-27.86,0.25-41.79,0.31
		c-0.76-0.02-1.53-0.04-2.29-0.06c-15.76,0.06-31.51,0.11-47.27,0.17c-1.36,0-2.72,0-4.08,0c-15.75-0.05-31.5-0.1-47.24-0.15
		c-0.75,0-1.51,0-2.26,0c-16.35,0.02-32.7,0.04-49.06,0.06c-0.77-0.02-1.54-0.04-2.3-0.06C165.84,26.36,150.11,26.37,134.39,26.38z"
		/>
	<path class="st3" d="M333.78,297.5c-32.87,0.01-65.74,0.01-98.61,0.02c0.22-0.37,0.25-0.75,0.07-1.16
		c-0.07-13.62,0.1-27.25-0.32-40.86c-0.2-6.43,1.36-9.2,7.82-8.94c13.19,0.54,26.41,0.31,39.61,0.4c1.21,15.8-1.43,31.88,1.43,47.57
		c0.94-0.03,1.87-0.06,2.81-0.09c0-15.82,0-31.65,0-47.47c8.5-0.09,17.02-0.57,25.5-0.16c7.36,0.36,15-2.23,22.07,1.96
		c-0.16,15.88-0.31,31.75-0.47,47.63C333.51,296.78,333.53,297.15,333.78,297.5z"/>
	<path class="st3" d="M385.1,247.01c0.32,16.57,0.64,33.15,0.97,49.72c-16.65,2.53-33.35,1.27-50.04,0.67c0,0,0.08-0.79,0.08-0.79
		c-0.11-15.95-0.22-31.9-0.32-47.85c1.56-2.2,3.81-2.08,6-2.06C356.23,246.79,370.66,246.9,385.1,247.01z"/>
	<path class="st3" d="M232.95,297.5c-15.76,0.06-31.53,0.13-47.29,0.19c-0.67-1.2-1.35-2.4-2.02-3.6c0.04-13,0.28-26.01,0.01-39.01
		c-0.12-5.95,1.28-8.73,7.37-8.51c11.68,0.42,23.38,0.34,35.07,0.03c5.35-0.14,7.23,1.92,7.09,7.71
		c-0.34,14.02-0.23,28.05-0.31,42.08C232.69,296.78,232.72,297.15,232.95,297.5z"/>
	<path class="st3" d="M133.76,296.27c0.23-16.49,0.45-32.97,0.68-49.46c13.3-0.04,26.61,0.18,39.9-0.25
		c5.96-0.19,7.64,2.21,7.5,8.35c-0.3,13.02-0.02,26.06,0.02,39.1c-0.09,1.17-0.19,2.33-0.28,3.5c-15.15,0.06-30.31,0.13-45.46,0.19
		c-0.56-0.56-1.13-1.12-1.69-1.68L133.76,296.27z"/>
	<path class="st4" d="M181.59,297.52c0.09-1.17,0.19-2.33,0.28-3.5c0.59,0.06,1.17,0.08,1.76,0.07c0.67,1.2,1.35,2.4,2.02,3.6
		C184.3,297.63,182.94,297.57,181.59,297.52z"/>
	<path class="st4" d="M134.44,296.02c0.56,0.56,1.13,1.12,1.69,1.68C134.74,298.11,134.19,297.54,134.44,296.02z"/>
	<path class="st4" d="M232.95,297.5c-0.23-0.35-0.26-0.72-0.09-1.12c0.8-0.01,1.59-0.01,2.38-0.02c0.17,0.4,0.14,0.78-0.08,1.15
		C234.43,297.51,233.69,297.51,232.95,297.5z"/>
	<path class="st4" d="M336.11,296.62c0,0-0.08,0.79-0.08,0.79c-0.75,0.03-1.5,0.06-2.25,0.1c-0.25-0.35-0.28-0.72-0.08-1.11
		C334.51,296.47,335.31,296.54,336.11,296.62z"/>
	<path class="st5" d="M134.54,244.49c-0.86-17.77-0.78-35.54-0.04-53.31c15.66-0.01,31.32-0.03,46.98-0.04
		c0.09,14.71-0.09,29.42,0.39,44.11c0.23,7.04-1.7,9.69-8.48,9.42C160.45,244.15,147.49,244.5,134.54,244.49z"/>
	<path class="st5" d="M134.39,26.38c15.73-0.01,31.45-0.01,47.18-0.02c0.11,17.14,0.23,34.28,0.34,51.42
		c-2.52,3-5.86,1.83-8.86,1.85c-12.85,0.1-25.7,0.01-38.54-0.01C134.47,61.87,134.43,44.12,134.39,26.38z"/>
	<path class="st3" d="M134.44,133.29c-0.01-17.1-0.02-34.2-0.03-51.3c15.72-0.02,31.45-0.03,47.17-0.05
		c0.01,17.1,0.02,34.2,0.03,51.3C165.89,133.25,150.16,133.27,134.44,133.29z"/>
	<path class="st3" d="M134.44,188.9c0-17.11-0.01-34.22-0.01-51.34c15.76-0.02,31.52-0.05,47.28-0.07
		c-0.03,17.16-0.06,34.32-0.08,51.48C165.89,188.95,150.16,188.93,134.44,188.9z"/>
	<path class="st6" d="M134.54,244.49c12.95,0.01,25.91-0.34,38.85,0.18c6.79,0.28,8.72-2.38,8.48-9.42
		c-0.48-14.69-0.3-29.41-0.39-44.11c0.95,0.08,1.9,0.15,2.84,0.23c-0.19,14.64-0.17,29.3-0.67,43.93c-0.25,7.33,2.64,9.52,8.99,9.32
		c11.01-0.35,22.05-0.43,33.05,0.03c5.94,0.25,8-2.37,7.64-8.27c0,0,0.73,0.01,0.73,0.01l0.73-0.01c0.72,2.99-0.98,8.04,3.84,7.89
		c14.7-0.46,29.5,2.4,44.09-1.57c1.18,0,2.36-0.01,3.54-0.01c14.58,4,29.38,1.12,44.08,1.58c4.82,0.15,3.12-4.9,3.84-7.89
		c0.54,0.01,1.08,0.01,1.63,0.01c-0.21,6.02,2.41,8.35,7.99,8.21c13.73-0.34,27.46-0.27,41.19-0.37c0.04,0.93,0.09,1.85,0.13,2.78
		c-14.44-0.1-28.87-0.22-43.31-0.31c-2.19-0.01-4.45-0.14-6,2.06c-0.54,0-1.08,0-1.62,0.01c-7.07-4.19-14.71-1.61-22.07-1.96
		c-8.48-0.41-17,0.07-25.5,0.16c-1.41,0-2.83-0.01-4.24-0.01c-13.21-0.09-26.42,0.14-39.61-0.4c-6.46-0.26-8.02,2.51-7.82,8.94
		c0.42,13.61,0.24,27.24,0.32,40.86c-0.79,0.01-1.59,0.01-2.38,0.02c0.07-14.02-0.04-28.06,0.3-42.08c0.14-5.79-1.74-7.85-7.09-7.71
		c-11.68,0.31-23.39,0.39-35.07-0.03c-6.09-0.22-7.49,2.56-7.37,8.51c0.26,13,0.02,26-0.01,39.01c-0.59,0.01-1.18-0.01-1.76-0.07
		c-0.04-13.03-0.32-26.07-0.02-39.1c0.14-6.15-1.55-8.55-7.5-8.35c-13.29,0.43-26.6,0.21-39.9,0.25
		C134.47,246.04,134.5,245.26,134.54,244.49z"/>
	<path class="st7" d="M181.58,81.94c-15.72,0.02-31.45,0.03-47.17,0.05c0.03-0.79,0.07-1.58,0.1-2.37
		c12.85,0.02,25.7,0.11,38.54,0.01c3-0.02,6.34,1.15,8.86-1.85c0.57-0.02,1.14-0.04,1.71-0.04c16.54,3.24,33.07,3.19,49.61,0.02
		c0,0,0.8-0.01,0.8-0.01l0.81,0.01c1.6,2.22,3.91,1.9,6.08,1.9c13.88-0.06,27.76-0.16,41.65-0.25c0,0.83,0.01,1.66,0.01,2.49
		c-15.81,0.01-31.62,0.02-47.42,0.03c-0.73,0-1.47,0-2.2,0.01c-16.36,0.02-32.72,0.04-49.08,0.06
		C183.1,81.97,182.34,81.95,181.58,81.94z"/>
	<path class="st4" d="M181.71,137.49c-15.76,0.02-31.52,0.05-47.28,0.07c0-1.42,0.01-2.85,0.01-4.27
		c15.73-0.02,31.45-0.04,47.18-0.05c0.67,1.42,1.35,2.83,2.02,4.25C182.99,137.49,182.35,137.49,181.71,137.49z"/>
	<path class="st8" d="M184.32,191.38c-0.95-0.08-1.89-0.16-2.84-0.23c-15.66,0.01-31.32,0.03-46.98,0.04
		c-0.02-0.76-0.04-1.52-0.06-2.28c15.73,0.02,31.46,0.05,47.19,0.07c0.82-0.05,1.64-0.1,2.45-0.14c15.9,0.03,31.81,0.06,47.71,0.09
		c-2.71,3.44-6.42,2.13-9.73,2.19C209.48,191.31,196.9,191.3,184.32,191.38z"/>
	<path class="st5" d="M233.23,77.76c-16.54,3.17-33.07,3.22-49.61-0.02c0.08-17.11,0.17-34.21,0.25-51.32
		c16.35-0.02,32.7-0.04,49.06-0.06C233.03,43.49,233.13,60.62,233.23,77.76z"/>
	<path class="st5" d="M336.08,26.4c13.93-0.06,27.87,0.12,41.79-0.31c5.76-0.18,7.78,1.69,7.59,8.11
		c-0.45,15.07-0.25,30.17-0.32,45.25c-7.83,0.08-15.68,0.58-23.49,0.12c-8.6-0.51-17.43,2.25-25.81-1.83
		C335.92,60.62,336,43.51,336.08,26.4z"/>
	<path class="st5" d="M384.97,244.23c-13.73,0.1-27.47,0.03-41.19,0.37c-5.57,0.14-8.2-2.19-7.99-8.21
		c0.06-4.42-0.15-8.86,0.22-13.24c0.89-10.67-2.27-21.6,1.75-32.05c15.74,0.11,31.47,0.23,47.21,0.34
		C384.97,209.03,384.97,226.63,384.97,244.23z"/>
	<path class="st3" d="M385.23,82.02c-0.06,17.04-0.13,34.09-0.19,51.13c-15.79,0.14-31.59,0.27-47.38,0.4
		c-3.65-17.07-0.96-34.35-1.47-51.52C352.54,82.03,368.88,82.03,385.23,82.02z"/>
	<path class="st3" d="M282.57,79.41c-13.88,0.09-27.76,0.19-41.65,0.25c-2.17,0.01-4.48,0.33-6.08-1.9
		c0.12-17.14,0.23-34.27,0.35-51.41c15.75,0.05,31.5,0.1,47.24,0.15C282.48,44.14,282.52,61.78,282.57,79.41z"/>
	<path class="st3" d="M286.52,26.51c15.76-0.06,31.51-0.11,47.27-0.17c0.11,17.14,0.22,34.28,0.34,51.43
		c-1.91,2.52-4.58,1.89-7.03,1.88c-13.57-0.01-27.14-0.09-40.71-0.15C286.42,61.84,286.47,44.17,286.52,26.51z"/>
	<path class="st3" d="M385.04,137.7c0,17,0.01,34,0.01,51c-15.77,0.13-31.55,0.27-47.32,0.4c-2.7-2.77-1.7-6.38-1.72-9.67
		c-0.12-13.97-0.09-27.94-0.11-41.91c0.61,0.04,1.2-0.03,1.79-0.19C353.47,137.47,369.25,137.58,385.04,137.7z"/>
	<path class="st9" d="M286.52,26.51c-0.05,17.66-0.09,35.33-0.14,52.99c0,0.76,0,1.52,0.01,2.28c0,17.19,0,34.37,0,51.56
		c0,1.39,0,2.78,0,4.17c0.04,17.12,0.09,34.24,0.13,51.35c-1.34,0.02-2.68,0.05-4.01,0.07c0.02-17.15,0.04-34.29,0.06-51.44
		c2.12-1.37,0.16-2.75,0.01-4.13c0-17.16,0-34.31,0-51.47c0-0.83-0.01-1.66-0.01-2.49c-0.04-17.64-0.09-35.27-0.13-52.9
		C283.8,26.51,285.16,26.51,286.52,26.51z"/>
	<path class="st7" d="M286.38,81.78c0-0.76,0-1.52-0.01-2.28c13.57,0.06,27.14,0.14,40.71,0.15c2.45,0,5.13,0.64,7.03-1.88
		c0.57-0.02,1.14-0.03,1.71-0.03c8.38,4.09,17.2,1.33,25.81,1.83c7.8,0.46,15.66-0.04,23.49-0.12c0.03,0.86,0.07,1.71,0.1,2.57
		c-16.35,0.01-32.69,0.01-49.04,0.01c-0.79-0.04-1.58-0.08-2.37-0.12C318,81.88,302.19,81.83,286.38,81.78z"/>
	<path class="st4" d="M385.04,137.7c-15.79-0.12-31.58-0.24-47.36-0.36c-0.01-1.26-0.01-2.53-0.02-3.79
		c15.79-0.13,31.59-0.27,47.38-0.4C385.04,134.67,385.04,136.19,385.04,137.7z"/>
	<path class="st6" d="M183.87,26.42c-0.08,17.11-0.17,34.21-0.25,51.32c-0.57,0-1.14,0.01-1.71,0.04
		c-0.11-17.14-0.23-34.28-0.34-51.42C182.34,26.38,183.1,26.4,183.87,26.42z"/>
	<path class="st10" d="M235.19,26.36c-0.12,17.14-0.23,34.27-0.35,51.41c0,0-0.81-0.01-0.81-0.01s-0.81,0.01-0.8,0.01
		c-0.1-17.13-0.2-34.27-0.3-51.4C233.68,26.36,234.44,26.36,235.19,26.36z"/>
	<path class="st10" d="M335.84,77.74c-0.57,0-1.14,0.01-1.71,0.03c-0.11-17.14-0.22-34.28-0.34-51.43c0.76,0.02,1.53,0.04,2.29,0.06
		C336,43.51,335.92,60.62,335.84,77.74z"/>
	<path class="st8" d="M337.73,189.11c15.77-0.13,31.55-0.27,47.32-0.4c-0.03,0.91-0.06,1.82-0.09,2.73
		c-15.74-0.11-31.47-0.23-47.21-0.34C337.75,190.43,337.74,189.77,337.73,189.11z"/>
	<path class="st9" d="M282.36,246.96c1.41,0,2.82,0,4.24,0.01c0,15.83,0,31.65,0,47.47c-0.94,0.03-1.87,0.06-2.81,0.09
		C280.93,278.84,283.57,262.76,282.36,246.96z"/>
	<path class="st10" d="M334.17,248.77c0.54-0.01,1.08-0.01,1.62-0.01c0.11,15.95,0.21,31.9,0.32,47.85c-0.8-0.07-1.6-0.15-2.41-0.22
		C333.86,280.52,334.02,264.64,334.17,248.77z"/>
	<path class="st6" d="M183.64,137.49c-0.67-1.42-1.34-2.83-2.02-4.25c-0.01-17.1-0.02-34.2-0.03-51.3c0.76,0.02,1.52,0.04,2.28,0.05
		c-0.04,6.47-0.46,12.97-0.04,19.4c0.69,10.7-2.24,21.63,1.65,32.13c0,1.26-0.01,2.52-0.01,3.78c-0.6,0.13-1.2,0.19-1.81,0.2
		L183.64,137.49z"/>
	<path class="st6" d="M184.08,188.83c-0.82,0.05-1.64,0.1-2.45,0.14c0.03-17.16,0.06-34.32,0.08-51.48c0.64,0,1.29,0,1.93,0
		c0,0,0.01,0.01,0.01,0.01C183.79,154.61,183.94,171.72,184.08,188.83z"/>
	<path class="st5" d="M184.32,191.38c12.58-0.07,25.16-0.06,37.74-0.27c3.31-0.05,7.02,1.25,9.72-2.19c-0.01,0,0.41,0.04,0.41,0.04
		c0.19,0.64,0.36,1.28,0.51,1.93c0.21,15.16,0.41,30.33,0.62,45.49c0.36,5.9-1.7,8.52-7.64,8.27c-11-0.46-22.04-0.39-33.05-0.03
		c-6.35,0.2-9.24-1.98-8.99-9.32C184.15,220.67,184.12,206.02,184.32,191.38z"/>
	<path class="st5" d="M282.72,242.7c-14.58,3.98-29.39,1.12-44.09,1.57c-4.82,0.15-3.12-4.9-3.84-7.89
		c0.2-15.06,0.41-30.12,0.61-45.18c5.31-0.01,10.65-0.36,15.94,0.03c10.47,0.76,21.11-2.21,31.41,1.78
		C282.74,209.57,282.73,226.14,282.72,242.7z"/>
	<path class="st5" d="M334.17,236.38c-0.72,2.99,0.98,8.05-3.84,7.89c-14.69-0.47-29.5,2.42-44.08-1.58
		c0.02-16.54,0.03-33.08,0.05-49.62c15.71-4.07,31.62-1.16,47.43-1.6C333.88,206.44,334.02,221.41,334.17,236.38z"/>
	<path class="st10" d="M334.17,236.38c-0.14-14.97-0.29-29.94-0.43-44.92c0.04-0.89,0.08-1.77,0.12-2.65
		c0.02-17.11,0.04-34.21,0.06-51.32c0.65,0,1.3,0,1.94,0.01l0.03,0.04c0.02,13.97-0.01,27.94,0.11,41.91
		c0.03,3.29-0.97,6.89,1.72,9.67c0.01,0.66,0.02,1.32,0.03,1.98c-4.02,10.46-0.85,21.39-1.75,32.06c-0.37,4.39-0.16,8.83-0.22,13.24
		C335.25,236.39,334.71,236.39,334.17,236.38z"/>
	<path class="st9" d="M286.3,193.07c-0.02,16.54-0.03,33.08-0.05,49.62c-1.18,0-2.36,0.01-3.54,0.01
		c0.01-16.56,0.02-33.13,0.03-49.69C283.93,193.03,285.11,193.05,286.3,193.07z"/>
	<path class="st10" d="M235.39,191.2c-0.2,15.06-0.4,30.12-0.61,45.18c0,0-0.73,0.01-0.73,0.01s-0.73,0-0.73-0.01
		c-0.21-15.16-0.41-30.33-0.61-45.49C233.61,191,234.5,191.1,235.39,191.2z"/>
	<path class="st3" d="M185.47,133.52c-3.89-10.5-0.96-21.43-1.65-32.13c-0.42-6.43,0-12.93,0.04-19.4
		c16.36-0.02,32.72-0.04,49.09-0.06c0.02,17.14,0.04,34.28,0.06,51.42C217.16,133.41,201.32,133.47,185.47,133.52z"/>
	<path class="st3" d="M282.58,81.9c0,17.16,0,34.31,0,51.47c-15.84,0-31.68-0.01-47.52-0.01c0.03-17.14,0.06-34.29,0.1-51.43
		C250.96,81.92,266.77,81.91,282.58,81.9z"/>
	<path class="st10" d="M235.15,81.93c-0.03,17.14-0.06,34.29-0.1,51.43c-0.68,0-1.37,0-2.05-0.01c-0.02-17.14-0.04-34.28-0.06-51.42
		C233.68,81.93,234.42,81.93,235.15,81.93z"/>
	<path class="st3" d="M232.19,188.96c0,0-0.42-0.04-0.41-0.04c-15.9-0.03-31.8-0.06-47.7-0.09c-0.14-17.11-0.28-34.22-0.42-51.33
		c0.61-0.01,1.21-0.08,1.81-0.2c15.84,0.07,31.68,0.14,47.52,0.2c-0.01,17.14-0.01,34.27-0.02,51.41L232.19,188.96z"/>
	<path class="st10" d="M337.66,133.56c0.01,1.26,0.01,2.53,0.02,3.79c-0.59,0.16-1.19,0.22-1.79,0.19c0,0-0.03-0.04-0.03-0.04
		c-0.68-1.42-1.36-2.85-2.04-4.27c0-17.1,0-34.2,0-51.3c0.79,0.04,1.58,0.08,2.37,0.12C336.7,99.21,334.01,116.49,337.66,133.56z"/>
	<path class="st3" d="M333.81,81.92c0,17.1,0,34.2,0,51.3c-15.81,0.04-31.62,0.08-47.43,0.11c0-17.19,0-34.37,0-51.56
		C302.19,81.83,318,81.88,333.81,81.92z"/>
	<path class="st3" d="M282.57,137.5c-0.02,17.15-0.04,34.29-0.06,51.44c-15.77,0-31.54,0.01-47.3,0.01
		c-0.04-17.15-0.07-34.3-0.11-51.45C250.92,137.5,266.74,137.5,282.57,137.5z"/>
	<path class="st3" d="M333.92,137.49c-0.02,17.11-0.04,34.21-0.06,51.32c-15.78,0.02-31.56,0.03-47.34,0.05
		c-0.04-17.12-0.09-34.24-0.13-51.35C302.23,137.5,318.07,137.5,333.92,137.49z"/>
	<path class="st4" d="M282.57,137.5c-15.82,0-31.65,0-47.47,0c-0.71,0-1.41,0-2.11,0.01c-15.84-0.07-31.68-0.14-47.52-0.2
		c0-1.26,0.01-2.52,0.01-3.78c15.85-0.05,31.69-0.11,47.54-0.16c0.68,0,1.37,0,2.05,0.01c15.84,0,31.68,0.01,47.52,0.01
		C282.72,134.75,284.68,136.13,282.57,137.5z"/>
	<path class="st8" d="M286.52,188.86c15.78-0.02,31.56-0.03,47.34-0.05c-0.04,0.88-0.08,1.76-0.12,2.65
		c-15.82,0.44-31.73-2.47-47.43,1.6c-1.19-0.02-2.37-0.04-3.56-0.06c-10.3-3.99-20.95-1.02-31.41-1.78
		c-5.29-0.39-10.63-0.04-15.94-0.03c-0.89-0.1-1.78-0.2-2.68-0.3c-0.16-0.65-0.33-1.29-0.52-1.93c0,0,0.77-0.05,0.77-0.05
		c0.75,0.01,1.49,0.02,2.24,0.03c15.77,0,31.54-0.01,47.3-0.01C283.84,188.91,285.18,188.89,286.52,188.86z"/>
	<path class="st4" d="M333.92,137.49c-15.84,0.01-31.69,0.01-47.53,0.02c0-1.39,0-2.78,0-4.17c15.81-0.04,31.62-0.08,47.43-0.11
		c0.68,1.42,1.36,2.85,2.04,4.27C335.21,137.5,334.56,137.49,333.92,137.49z"/>
	<path class="st10" d="M235.2,188.95c-0.75-0.01-1.49-0.02-2.24-0.03c0.01-17.14,0.01-34.27,0.02-51.41c0.7,0,1.41,0,2.11-0.01
		C235.13,154.65,235.16,171.8,235.2,188.95z"/>
</g>
<g>
	<g>
		<polygon class="st11" points="239.9,167.68 190.76,87.98 198.42,76.53 247.56,156.23 		"/>
		<polygon class="st12" points="239.85,167.62 191.7,89.53 194.92,84.71 243.07,162.8 		"/>
	</g>
	<g>
		<polygon class="st11" points="375.43,58.15 260.99,163.02 248,155.7 362.44,50.84 		"/>
		<polygon class="st12" points="375.34,58.27 263.21,161.01 257.75,157.93 369.87,55.19 		"/>
	</g>
	<g>
		<polygon class="st11" points="200.03,87.83 19.16,251.72 6.56,243.66 187.43,79.76 		"/>
		<polygon class="st12" points="199.87,88 22.66,248.57 17.36,245.18 194.57,84.61 		"/>
	</g>
	<g id="XMLID_1_">
		<g>
			<g>
				
					<rect x="354.38" y="27.9" transform="matrix(0.7336 -0.6796 0.6796 0.7336 68.3283 269.2018)" class="st13" width="46.31" height="39.08"/>
				<g>
					<polygon class="st11" points="373.83,77.52 366.64,57.54 347.27,48.85 394.53,31.71 					"/>
				</g>
			</g>
		</g>
	</g>
	
		<ellipse transform="matrix(0.9972 -0.0751 0.0751 0.9972 -11.6144 19.1606)" class="st11" cx="249.12" cy="164.11" rx="13.32" ry="11.26"/>
	
		<ellipse transform="matrix(0.9972 -0.0751 0.0751 0.9972 -5.6398 14.856)" class="st11" cx="194.84" cy="82.47" rx="13.32" ry="11.26"/>
	
		<ellipse transform="matrix(0.0218 -0.9998 0.9998 0.0218 -233.6531 254.6869)" class="st11" cx="13.32" cy="246.74" rx="11.26" ry="13.32"/>
</g>
</svg>
