<svg xmlns="http://www.w3.org/2000/svg" xmlns:xlink="http://www.w3.org/1999/xlink" width="323.857" height="591.171" viewBox="0 0 323.857 591.171">
  <defs>
    <filter id="Path_953" x="0" y="0" width="323.857" height="591.171" filterUnits="userSpaceOnUse">
      <feOffset dy="10" input="SourceAlpha"/>
      <feGaussianBlur stdDeviation="10" result="blur"/>
      <feFlood flood-opacity="0.161"/>
      <feComposite operator="in" in2="blur"/>
      <feComposite in="SourceGraphic"/>
    </filter>
    <filter id="Rectangle_608" x="104.217" y="510.036" width="119.126" height="47.57" filterUnits="userSpaceOnUse">
      <feOffset dy="7" input="SourceAlpha"/>
      <feGaussianBlur stdDeviation="7" result="blur-2"/>
      <feFlood flood-opacity="0.039"/>
      <feComposite operator="in" in2="blur-2"/>
      <feComposite in="SourceGraphic"/>
    </filter>
  </defs>
  <g id="Group_1193" data-name="Group 1193" transform="translate(-8555.113 -3146.266)">
    <g id="Group_1192" data-name="Group 1192" transform="translate(8198 2859)">
      <g id="Group_1105" data-name="Group 1105" transform="translate(384 306)">
        <path id="Path_952" data-name="Path 952" d="M-7149.813,1673.4q0-72.545-.013-145.089c0-1.29.589-2.835-1.366-3.488-.561-.188-.329-1.018-.329-1.567q-.011-17.287-.01-34.575c0-.942-.078-1.847,1.188-2.136.772-.176.511-.917.518-1.434.029-2.05.022-4.1.008-6.151-.007-.94.286-1.967-1.159-2.318-.732-.178-.549-1.053-.549-1.677q0-17.394-.008-34.787c0-.883-.03-1.729,1.124-1.958.681-.136.588-.714.588-1.188q.014-7.635,0-15.272c0-.342-.024-.936-.179-.989-2.389-.794-1.463-2.766-1.493-4.279-.091-4.807-.039-9.615-.029-14.423,0-1.022-.282-2.114,1.234-2.541.873-.246.455-1.231.458-1.877.04-8.98-.119-17.963.111-26.938.173-6.776.913-13.532,3.826-19.818,5.549-11.978,14.95-19.135,27.96-21.654a82.375,82.375,0,0,1,15.732-1.28q86.306.022,172.614.033c6.778,0,13.571.381,20.008,2.714,14.869,5.388,23.087,16.106,25.338,31.507a117.341,117.341,0,0,1,.851,17.115q-.021,34.682,0,69.363c0,.986-.372,2.114,1.164,2.524.73.195.542,1.06.542,1.682q.006,28.848,0,57.7c0,.552.2,1.363-.377,1.552-1.856.6-1.319,2.067-1.32,3.291q-.029,150.18-.051,300.36c0,7.71-.554,15.388-3.773,22.591-5.466,12.234-14.968,19.445-28.141,22a79,79,0,0,1-15.091,1.266q-87.913-.025-175.826-.084c-7.935-.014-15.793-1.124-22.936-5.007-11.527-6.266-17.856-16.046-19.744-28.808a119.472,119.472,0,0,1-.876-17.538Q-7149.8,1741.812-7149.813,1673.4Z" transform="translate(7151.645 -1327.963)" fill="#fff"/>
        <g transform="matrix(1, 0, 0, 1, -26.89, -18.73)" filter="url(#Path_953)">
          <path id="Path_953-2" data-name="Path 953" d="M-7144.979,1596.03q0-108.706.007-217.414c0-7.912.067-15.858,2.952-23.388,5.4-14.083,15.949-21.7,30.857-23.737a139.656,139.656,0,0,1,18.994-.819q81.379.009,162.757.015c7.913,0,15.848.109,23.408,2.879,13,4.76,20.688,14.092,23.545,27.378a72.874,72.874,0,0,1,1.323,15.365q.007,89.723.009,179.446,0,128.857,0,257.715c0,6.569-.133,13.135-1.667,19.564-3.723,15.6-16.212,26.305-32.363,28.019a149.031,149.031,0,0,1-15.785.79q-82.876-.019-165.754-.019c-7.914,0-15.849-.11-23.409-2.879-13-4.76-20.689-14.093-23.546-27.379a72.937,72.937,0,0,1-1.323-15.365q0-110.086,0-220.171Z" transform="translate(7174.98 -1310.67)" fill="#fff"/>
        </g>
        <path id="Path_954" data-name="Path 954" d="M-6880.771,1599.263v217.423c0,7.493-.04,15.019-2.636,22.169-4.807,13.243-14.625,20.434-28.492,22.491a119.994,119.994,0,0,1-17.707.85q-82.025-.019-164.048-.013c-7.488,0-15.016-.043-22.174-2.574-13.472-4.764-20.759-14.529-22.815-28.358a114.471,114.471,0,0,1-.849-16.9q.015-216.15.008-432.3c0-7.633-.008-15.3,2.636-22.594,4.8-13.244,14.625-20.435,28.491-22.491a120.158,120.158,0,0,1,17.708-.85q82.022.019,164.047.014c7.489,0,15.015.043,22.174,2.574,13.473,4.764,20.76,14.529,22.815,28.358a114.478,114.478,0,0,1,.85,16.9Q-6880.781,1491.612-6880.771,1599.263Z" transform="translate(7145.169 -1332.305)" fill="#fff"/>
        <path id="Path_955" data-name="Path 955" d="M-7113.816,1612.573q0-108.386,0-216.773a80.115,80.115,0,0,1,1.22-16.219,21.787,21.787,0,0,1,18.58-17.2c9.37-1.3,18.793-.743,28.2-.829,1.737-.016,2.695.941,3.037,2.671.372,1.872.291,3.781.776,5.652,1.778,6.855,6.683,9.483,13.089,10.3a28.907,28.907,0,0,0,3.636.094q48.827.007,97.652.011a24.714,24.714,0,0,0,8.412-1.19c5.5-1.946,8.138-6.04,8.695-11.495.6-5.876.641-6.09,6.645-6.059,7.2.037,14.4-.113,21.6.4,13.429.949,21.861,9.362,22.79,22.648.494,7.062.392,14.121.392,21.183q.018,211.683.012,423.365a82.091,82.091,0,0,1-1.218,16.644,21.7,21.7,0,0,1-18.564,17.2,91.867,91.867,0,0,1-12.351.866q-85.23-.009-170.461-.005a66.421,66.421,0,0,1-13.6-1.146c-9.905-2.062-16.406-9.1-17.724-18.985a109.68,109.68,0,0,1-.828-14.569Q-7113.805,1720.854-7113.816,1612.573Z" transform="translate(7131.493 -1345.835)" fill="#5948e6"/>
        <g id="Group_1106" data-name="Group 1106" transform="translate(118.36 16.969)">
          <path id="Path_956" data-name="Path 956" d="M-6882.091,1373c-4.21,0-8.421.009-12.632,0-2.287-.008-3.524-.894-3.562-2.495-.035-1.622,1.212-2.584,3.466-2.587q12.739-.019,25.48,0c2.286,0,3.524.893,3.559,2.494.037,1.674-1.238,2.584-3.679,2.59C-6873.669,1373.008-6877.879,1373-6882.091,1373Z" transform="translate(6898.285 -1366.215)" fill="#9c9c9c"/>
          <path id="Path_957" data-name="Path 957" d="M-6806.856,1364.288a4.352,4.352,0,0,1,4.189,4.435,4.384,4.384,0,0,1-4.371,4.044,4.352,4.352,0,0,1-4.189-4.434A4.384,4.384,0,0,1-6806.856,1364.288Z" transform="translate(6851.898 -1364.287)" fill="#9d9d9d"/>
        </g>
        <g transform="matrix(1, 0, 0, 1, -26.89, -18.73)" filter="url(#Rectangle_608)">
          <rect id="Rectangle_608-2" data-name="Rectangle 608" width="77.126" height="5.57" rx="2.785" transform="translate(125.22 524.04)" fill="#e2e2e2"/>
        </g>
      </g>
      <g id="Group_1104" data-name="Group 1104" transform="translate(476.497 545.531)">
        <g id="Group_968" data-name="Group 968" transform="translate(0)">
          <path id="Path_611" data-name="Path 611" d="M3334.327,4680.229l9.236,13.1h-16.1l-9.235-13.1-8.857-12.562a2.309,2.309,0,0,1,0-2.662l18.467-26.2h16.1l-18.467,26.2a2.311,2.311,0,0,0,0,2.662Z" transform="translate(-3308.948 -4638.808)" fill="#fff"/>
          <path id="Path_612" data-name="Path 612" d="M3424.8,4643.39v35.576a14.414,14.414,0,0,1-14.462,14.365h-25.132l-9.234-13.1-9.264-13.138a1.851,1.851,0,0,1,0-2.131l18.436-26.152h16.1l-18.437,26.152a1.851,1.851,0,0,0,0,2.131l8.711,12.355a1.849,1.849,0,0,0,1.51.783h12.447a6.115,6.115,0,0,0,6.135-6.093v-30.672l6.541,4.55,4.1-2.85Z" transform="translate(-3339.839 -4638.808)" fill="#fff"/>
        </g>
        <path id="Path_613" data-name="Path 613" d="M3477.475,4638.808v2.723l-2.552,1.775-4.1,2.851-6.54-4.551v-2.8Z" transform="translate(-3392.511 -4638.808)" fill="#fff"/>
      </g>
    </g>
  </g>
</svg>
