<?xml version="1.0" encoding="utf-8"?>
<!-- Generator: Adobe Illustrator 23.0.3, SVG Export Plug-In . SVG Version: 6.00 Build 0)  -->
<svg version="1.1" id="Layer_1" xmlns="http://www.w3.org/2000/svg" xmlns:xlink="http://www.w3.org/1999/xlink" x="0px" y="0px"
	 viewBox="0 0 350.01 204.48" style="enable-background:new 0 0 350.01 204.48;" xml:space="preserve">
<style type="text/css">
	.st0{fill:#F68E62;}
	.st1{fill:#E25D26;}
	.st2{fill:#F36F34;}
	.st3{fill:#3C3A41;}
	.st4{fill:#36343A;}
	.st5{fill:#F09970;}
	.st6{fill:#F89E77;}
	.st7{fill:#F9B295;}
	.st8{fill:#F89F76;}
	.st9{fill:#F4C0AC;}
	.st10{fill:#F7B191;}
	.st11{fill:#F0B9A3;}
	.st12{fill:#EE7E4A;}
	.st13{fill:#E05B26;}
	.st14{fill:#EA6E32;}
	.st15{fill:#F47E45;}
	.st16{fill:#CD6B3D;}
	.st17{fill:#F58146;}
	.st18{fill:#EC6423;}
	.st19{fill:#F36B2B;}
	.st20{fill:#F16823;}
	.st21{fill:#C35228;}
	.st22{fill:#D05027;}
	.st23{fill:#CF6939;}
	.st24{fill:#575359;}
	.st25{fill:#141319;}
	.st26{fill:#040404;}
	.st27{fill:#F5824D;}
	.st28{fill:#D4815B;}
	.st29{fill:#C54B27;}
	.st30{fill:#D57D53;}
	.st31{fill:#E5E5E5;}
	.st32{fill:#424242;}
	.st33{fill:#434344;}
	.st34{fill:#D9D9D8;}
	.st35{fill:#B5B5B5;}
	.st36{fill:#CFD0D0;}
	.st37{fill:#CECECD;}
	.st38{fill:#CD712E;}
	.st39{fill:#BAC1C7;}
	.st40{fill:#BABABA;}
	.st41{fill:#C46F2E;}
	.st42{fill:#F3C39A;}
	.st43{fill:#C3C2C2;}
	.st44{fill:#BB7540;}
	.st45{fill:#090909;}
	.st46{fill:#C2C1C1;}
	.st47{fill:#BFBEBE;}
	.st48{fill:#C1C0C0;}
	.st49{fill:#BCBCBB;}
	.st50{fill:#C0BFBF;}
	.st51{fill:#9F9F9F;}
	.st52{fill:#B7B7B8;}
</style>
<g>
	<path class="st0" d="M0,42.11c3.33-2.68,6.66-5.35,9.99-8.03c2.94-1.47,5.7-3.22,8.95-4.16c3.92-1.13,7.53-2.26,11.25,0.67
		c1.7,1.34,4.11,1.28,6.26,1.11c4.49-0.35,8.88,1.05,13.35,0.66c3.59-1.32,6.95-2.99,9.11-6.37c3.12-2.07,5.58-5.87,10.24-3.95
		c0.21,2.83-3.34,1.74-3.79,3.25c12.26-5.59,24.52-11.94,38.18-14.98c6.78-1.51,13.58-2.99,20.31-4.75c2.42-0.64,4.6-0.61,6.34,1.5
		c0.1,0.9-0.41,1.42-1.13,1.81c-12.87,2.33-24.8,7.5-36.87,12.23c-9.01,0.73-16.71,5.24-24.64,8.87
		c-6.92,3.17-13.5,7.15-19.92,11.28c-5.48,3.54-11.21,5.68-17.79,5.33c-8.62,0.66-17.12-1.24-25.72-1.03
		c-1.51,0.04-2.94-0.4-4.11-1.45C0,43.44,0,42.78,0,42.11z"/>
	<path class="st1" d="M348.91,123.12c0.37,0.33,0.73,0.66,1.1,0.99c0,2.33,0,4.67,0,7c-0.56,0.61-1.12,1.21-1.68,1.82
		c-20.01,13.2-40.37,25.87-60.62,38.7c-9.43,5.98-18.71,12.18-28.26,17.97c-3.22,1.95-6.52,3.41-10.4,2.3
		c-1.34-0.54-2.91-0.8-3.32-2.56c0.76-1.73,1.07-3.76,3.03-4.73c1.26-0.23,2.39,0.17,3.51,0.67c1.61,1.21,3.01,1.44,3.86-0.84
		c1.19-3.2,3.91-4.86,6.57-6.57c22.63-14.56,45.6-28.6,68.26-43.11c5.72-3.66,11.62-7.12,16.64-11.81
		C348.05,122.76,348.49,122.82,348.91,123.12z"/>
	<path class="st2" d="M0,44.11c10.33,0.34,20.66,0.67,31,1.01c5.2,1.15,9.99,0.38,14.68-2.33c6.02-3.47,12.16-6.77,18.73-9.16
		c2.01-0.73,4.03-1.61,6.27-0.91c1.43,1.8-0.23,2.67-1.12,3.78c-2.51,1.46-4.24,3.91-6.78,5.34c-6.19,1.55-12.19,3.56-17.39,7.44
		c-1.48,0.46-2.45,1.26-2.5,2.99c-0.04,1.38-0.69,2.42-2.25,2.61c-11.35,0.03-22.63-1.63-33.98-1.35C3.83,53.59,1.34,52.98,0,50.12
		C0,48.11,0,46.11,0,44.11z"/>
	<path class="st3" d="M306.97,168.02c-2.32,1.4-4.64,2.8-6.96,4.19c-0.82,0.92-1.25,2.19-2.46,2.77c-1.04,0.68-2.03,1.42-3.07,2.1
		c-1.38,0.9-2.75,1.84-4.21,2.62c-1.1,0.58-2.11,1.3-3.12,2.01c-1.27,0.77-2.49,1.62-3.73,2.46c-2.07,1.34-4.05,2.8-6.15,4.08
		c-7.26,4.51-14.38,9.22-21.53,13.89c-4.41,2.4-8.88,3.49-13.53,0.63c-0.39-0.37-0.6-0.82-0.64-1.35c1.05-5.1,0.32-7.07-4.73-10.18
		c-8.21-5.06-16.43-10.11-24.3-15.68c-13.69-9.67-28.25-18.08-41.4-28.53c-4.32-3.43-10.04-4.87-13.93-8.67
		c-7.35-7.18-16.26-12.13-24.87-17.17c-11.03-6.46-20.89-14.68-32.26-20.53c-2.86-1.47-5.86-2.5-8.97-2.91
		c-4.38-0.58-7.04-2.66-7.83-7.03c-0.85-0.79-0.29-3.21-2.64-2.26c-1.31,1.51,0.67,3.84-1.31,5.17c-2.25,0.21-4.44-0.77-4.76-2.72
		c-0.75-4.55-4.51-6.73-6.75-10.07c-1.94-2.89-5.8-5.65-2.2-9.88c2.28-0.64,3.72,1.03,5.38,2.03c8.87,5.32,16.68,12.17,25.42,17.65
		c11.26,7.05,22.48,14.18,33.46,21.62c7.96,5.39,16.25,10.24,24.12,15.76c9.12,6.39,18.82,11.94,27.97,18.27
		c7.94,5.49,16.36,10.22,24.14,15.95c11.1,8.18,23.31,14.71,34.63,22.57c1.88,1.31,4.17,2.18,5.27,4.43c0.99,0.6,1.99,1.2,2.98,1.8
		c2.52,1.67,6.75-1.24,8.4,3.33c0.37,1.01,2.44-0.29,3.45-1.07c11.42-8.94,24.37-15.53,36.19-23.89c7.01-4.96,14.41-9.61,22.09-13.6
		c4.92-2.55,8.9-6.46,13.77-9.03c1.4-0.74,3.34-2.76,4.22,0.67c-7.8,6.68-16.95,11.37-25.35,17.15
		C310.16,165.72,308.58,166.88,306.97,168.02z"/>
	<path class="st4" d="M337.14,147.45c-1.76-2.59-2.93-0.01-3.98,0.66c-15.52,9.87-31.02,19.77-46.41,29.84
		c-8.73,5.71-18.04,10.51-26.24,17.06c-2.11,1.69-5.16,4.1-5.24-1.66c-0.02-1.62-1.27-1.14-2.15-1.24
		c-1.42-0.17-3.05,0.47-4.12-1.07c4.16,0.31,7.73-1.06,11.23-3.3c27.88-17.84,55.83-35.59,83.79-53.32c1.27-0.8,2.31-2.61,4.29-1.51
		C346.26,139.05,342.34,143.74,337.14,147.45z"/>
	<path class="st5" d="M154.98,7.11c17,9.82,34.03,19.59,50.99,29.47c46.03,26.8,92.04,53.65,138.06,80.48
		c1.7,0.99,3.7,1.68,4.17,3.97c-3.77,0.58-6.79-2.77-10.6-2.02c-6.7-2.25-12.3-6.56-18.29-10.07
		c-41.04-24.05-82.08-48.1-123.11-72.16c-12.04-7.06-23.84-14.58-36.35-20.83c-0.17-2.15-1.25-3.34-3.38-4.1
		c-1.77-0.63-3.8-1.55-3.87-4.05C153.15,6.71,153.88,6.27,154.98,7.11z"/>
	<path class="st6" d="M50.95,33.21c-8.03-0.12-16.35,1.8-23.78-2.82c-2.46-1.53-4.37-0.1-6.43,0.43c-3.62,0.93-7.17,2.16-10.75,3.26
		c2.14-2.67,5.12-4.24,7.92-6.04c7.55-0.7,14.64-2.81,21.13-6.81c0.3-0.11,0.61-0.16,0.92-0.15c9.58-4.18,19.47-3.61,29.44-1.96
		c0.45,0.33,0.76,0.76,0.94,1.28c0,0.94-0.52,1.46-1.36,1.73c-4.16-0.08-6.72,3.14-10.01,4.84C56.87,29.78,53.36,30.79,50.95,33.21z
		"/>
	<path class="st7" d="M69.96,20.08C64,18.73,57.98,19.82,51.99,19.6c-4.11-0.15-8.06,0.66-12.03,1.49
		c3.95-2.09,7.76-4.49,11.87-6.19c6.62-2.74,13.08-5.66,19.04-9.68c2.07-1.39,4.39-2.4,7.02-2.18c1.11-0.48,3.09-0.7,2.98,0.31
		c-0.57,5,3.04,3.04,5.2,3.4c2.5,0.42,5.43-0.83,7.3,1.94c-0.2,3.1-3.07,2.98-4.94,3.99c-1.57,0.85-3.33,1.35-4.94,2.15
		C78.83,16.18,75.31,20.48,69.96,20.08z"/>
	<path class="st8" d="M82.99,14.04c2.87-2.6,7.05-2.53,10.01-4.93c3.22-2.72,6.7-4.49,11.07-3.16c-1.06,4.12-5.7,2.36-7.54,4.43
		c13.47-5.56,28.04-7.76,42.76-9.24c1.98-0.2,4-0.11,5.84,0.9c3.85,0.6,6.78,2.98,9.85,5.08c-0.81,0.03-1.55,0.19-1.97,0.99
		c-1.53,1.23-3.13,0.49-4.68,0.11c-5.02-1.24-10.06-0.9-15.1-0.25c-1.18,0.14-2.3,0.06-3.2-0.84c-6.7-1.65-12.76,1.63-19.08,2.67
		c-15.41,2.53-29.27,9.75-43.66,15.34c-1.9,0.74-2.81,3.53-5.74,2.55c1.94-2.79,5.34-3.34,7.45-5.55c0.32-0.34,0.64-0.67,0.96-1.01
		C74.07,18.36,78.98,17.03,82.99,14.04z"/>
	<path class="st9" d="M104,6.07c-3.67,1.01-7.33,2.02-11,3.03c-3.36-2.11-7.08-0.37-10.56-1.03c-1.8-0.34-7.01,1.58-2.62-3.69
		c1.3-1.56-1.24-0.87-1.93-1.34c4.96-2.13,10.35-2.6,15.54-2.75c15.49-0.44,30.99-0.25,46.49-0.27c1.46,0,3.04-0.24,4.24,0.99
		c-5.34,0.88-10.78,1.55-16.12,1.77c-7.07,0.29-13.88,1.31-20.59,3.35C106.31,6.47,105.14,6.41,104,6.07z"/>
	<path class="st10" d="M104,6.07c7.39-2.63,14.66-5.08,22.89-4.15c5.65,0.64,11.51-0.54,17.28-0.91c0.32,0.34,0.64,0.68,0.96,1.03
		c-17.88,0.56-35.06,4.89-52.75,10.15C95.89,8.38,100.99,9.25,104,6.07z"/>
	<path class="st11" d="M39.04,21.24c-6.04,5.38-12.95,8.07-21.13,6.81C24.95,25.77,32,23.51,39.04,21.24z"/>
	<path class="st12" d="M337.82,118.16c4.05-1.18,7.07,1.35,10.37,2.88c0.62,0.56,0.98,1.21,0.71,2.08
		c-0.31,0.02-0.62,0.04-0.93,0.06c-4.13-0.05-8.18-0.77-12.22-1.51C335.6,120,336.92,119.2,337.82,118.16z"/>
	<path class="st13" d="M130.02,7.12c0.98-0.03,1.97-0.06,2.95-0.08c2.9-0.84,5.86-0.33,8.8-0.36c1.38-0.02,3.32-0.84,4.07,0.69
		c0.74,1.5-1.1,2.49-1.88,3.67c-6.64,4.46-14.12,7.24-21.25,10.75c-9.09,4.47-18.51,8.2-27.5,12.91
		c-8.96,4.69-18.69,7.78-27.65,12.52c-0.73,0.31-1.39,0.14-2-0.32c-0.65-0.47-1.38-0.74-2.15-1c-3.68-1.26-3.24-2.94-0.43-4.8
		c1.64-2.11,3.06-4.49,6.02-4.99c19.62-10.14,39.63-19.44,59.99-27.97C129.34,7.79,129.68,7.46,130.02,7.12z"/>
	<path class="st14" d="M129.01,8.12c-2.14,3.06-5.67,3.99-8.78,5.25c-15.88,6.42-31.08,14.29-46.5,21.66
		c-1.59,0.76-3.05,1.09-4.71,1.06c0.66-1,1.33-2,1.99-3c-0.29-2.21,1.76-2.5,2.93-3.45c5.39-4.37,11.41-7.58,18.08-9.53
		C103.98,14.99,115.78,9.35,129.01,8.12z"/>
	<path class="st15" d="M92.01,20.12C85,24.44,77.37,27.75,71,33.1c-8.87,1.69-16.51,6.25-24.17,10.63
		c-5.21,2.98-10.34,3.35-15.83,1.4c9.77,1.28,16.46-5.48,23.86-9.75C64.92,29.58,75.4,24.91,86.1,20.6
		C88.03,19.82,90.04,20.22,92.01,20.12z"/>
	<path class="st16" d="M50.95,33.21c1.73-3.29,5.32-4.18,8.02-6.23C57.63,30.76,53.93,31.52,50.95,33.21z"/>
	<path class="st17" d="M246.03,189.25c-7.74-4.88-15.41-9.88-23.24-14.62c-11.34-6.87-21.86-14.97-33.32-21.69
		c-8.75-5.13-16.83-11.39-25.29-17.02c-4.69-3.12-9.61-5.9-14.31-9.01c-10.12-6.69-20.11-13.57-30.26-20.22
		c-5.8-3.8-11.86-7.2-17.71-10.94c-5.22-3.34-10.6-6.53-15.39-10.43c-6.46-5.28-13.57-9.49-20.58-13.9
		c-0.46,0.11-0.92,0.1-1.38-0.03c-4.25-2.37-7.97-5.57-12.38-7.69c-0.74-0.51-1.23-1.25-1.79-1.93c-0.82-1-1.92-1.64-3-2.3
		c-1.76-1.82-5.04-2.1-5.4-5.34c-0.04-0.98,0.13-2.03-0.14-2.94c-1.34-4.41,1.06-2.96,3.15-2.07c2.89-0.08,4.91,1.8,7.03,3.3
		c4.99,3.53,10.21,6.71,15.38,9.97c33.5,22.06,67.14,43.9,100.77,65.77c25.54,16.61,50.93,33.45,76.49,50.01
		c2.27,1.47,6.52,2.35,4.26,6.89C247.35,186.04,248.74,189.06,246.03,189.25z"/>
	<path class="st18" d="M248.92,185.06c0.33-2.15-0.85-3.27-2.55-4.36c-14.67-9.42-29.31-18.89-43.91-28.42
		c-14.73-9.61-29.38-19.35-44.11-28.97c-20.83-13.61-41.78-27.04-62.51-40.81c-9.65-6.41-19.79-12.1-28.89-19.35
		c3.29-4.3,5.96-0.45,8.31,1.04c2.12,1.35,3.82,2.99,6.54,2.2c2-0.28,3.52,0.8,5.05,1.8c28.77,18.97,57.83,37.51,86.71,56.32
		c19.11,12.45,38.26,24.85,57.47,37.16c4.48,2.87,8.9,5.84,13.39,8.7c3.17,2.02,6.32,3.5,10.09,3.59c3.33,4.24,3.36,5.54,0.09,9.18
		c-0.87,0.97-1.55,2.1-2.56,2.94C250.99,185.76,249.96,185.41,248.92,185.06z"/>
	<path class="st19" d="M252.03,186.1c0.16-1.11,0.01-3.01,0.53-3.22c5.43-2.2,3.12-5.49,1.44-8.74c-0.09-2.74,2.41-3.11,3.98-4.31
		c4.52-3.45,10.19-5.18,14.11-9.52c5.91-5.49,13.18-8.97,19.91-13.22c13.09-8.27,26.22-16.47,39.51-24.43
		c1.31-0.79,2.53-2.37,4.43-1.26c4.22-0.8,8.23-0.25,12.04,1.77c-3.52,6.11-10.16,8.34-15.51,12.02
		c-15.56,10.7-32.2,19.73-47.79,30.44c-7.37,5.06-15.18,9.46-22.79,14.17c-2.29,1.42-4.41,2.97-4.93,5.91
		c-0.25,1.4-1.14,2.6-2.45,2.93C252.61,189.11,253.31,186.54,252.03,186.1z"/>
	<path class="st3" d="M52.08,62.98c5.11,1.44,8.98,4.9,13.04,8.04c-2.55,3.7-6.57,6.82-4.77,12.24c0.26,0.77,0.06,1.76,0.53,2.41
		c3.27,4.55,0.34,7.62-2.36,10.9c-2.62,3.19-5.75,2.61-9.1,1.78c-3.87-0.96-7.79-1.73-11.58-3.03c-3.4-1.16-6.85-1.26-10.26,0.09
		c-3.55,0.21-4.92-2.78-6.97-4.76c-1.56-2.46-3.51-4.66-5.08-7.12c-0.67-1.12-1.39-2.2-2.15-3.26c-1.16-1.59-2.02-3.32-2.3-5.3
		c-0.67-1.29-1.33-2.59-2-3.88c-0.49-1.33-0.97-2.66-1.46-3.99c0.47-1.98,2.01-1.88,3.52-1.77c10.67,0.74,21.38,0.83,32.01,2.27
		c2.23,0.3,4.28-0.05,5.53-2.33C49.39,63.97,50.22,62.66,52.08,62.98z"/>
	<path class="st20" d="M82.01,67.08c-2.56,1.58-4.58,1.66-6.72-1.11c-1.95-2.52-4.69-4.44-8.33-2.82
		c-7.83-3.88-14.69-9.29-21.97-14.03c1.76-4.8,6.91-4.33,10.38-6.45c2.07-1.27,4.92-1.8,7.62-1.58c-1.07,1.96-3.16,4.39,1.65,3.72
		c1.22-0.17,1.26,0.57,1.31,1.39c-4.61,5.43-4.58,5.38,2.06,9.67c4.2,2.71,8.11,5.84,12.5,8.27C81.45,64.89,82.54,65.58,82.01,67.08
		z"/>
	<path class="st21" d="M41.99,54.13c2.08,1.61,4.17,3.23,6.25,4.84c-2.16,2.22-4.94,1.74-7.52,1.5C31.29,59.61,21.85,59,12.4,58.61
		c-2.37-0.1-4.67-0.35-6.21-2.51c-0.18-1.3-0.36-2.61-0.55-3.91C17.82,51.76,29.92,52.61,41.99,54.13z"/>
	<path class="st22" d="M6.19,56.11c6.06,2.28,12.48,0.68,18.74,1.73c7.62,1.28,15.52,0.84,23.31,1.14c1.36,0.15,2.33,0.82,2.82,2.12
		c-3.04,7.64-3.02,7.45-11.26,6.56c-8.41-0.91-16.9-1-25.34-1.6c-3-0.21-6.5,0.57-8.4-2.96C5.4,60.76,6.16,58.44,6.19,56.11z"/>
	<path class="st23" d="M6.06,63.1c1.44,0.72,2.54,1.93,4.4,2.03c10.52,0.57,21.07,0.92,31.52,2.12c5.44,0.63,7-2.73,9.07-6.15
		c0.34,0.63,0.68,1.25,1.02,1.88c-2.81,6.44-7.78,6.27-13.83,5.47C28.71,67.19,19.03,67,9.41,66.41c-0.58-0.04-1.19,0.45-1.79,0.69
		C6.74,65.91,6.06,64.64,6.06,63.1z"/>
	<path class="st4" d="M26.99,95.13c3.13-3.57,6.92-2.12,10.54-1.26c4.99,1.19,9.94,2.56,14.89,3.92c5.17,1.42,5.47-3.92,8.19-5.88
		c2.31-1.68,0.38-3.04-0.68-4.5c-2.11-2.93-0.92-6.49-1.31-9.7c-0.45-3.78,4.39-4.3,6.49-6.69c0.34-0.02,0.62,0.12,0.81,0.4
		c-2.25,4.56,1.76,6.86,3.74,9.71c2.03,2.93,5.87,4.45,5.71,9.07c-0.06,1.96,2.64,2.58,4.63,2.9c2.57,0.35,1.22-2.77,2.86-3.24
		c0.44-0.19,0.82-0.09,1.15,0.25c1.11,4.01,3.59,5.69,7.85,6.64c12.63,2.81,22.16,11.52,32.66,18.37c7.51,4.9,15,9.96,22.99,13.95
		c3.53,1.77,5.13,5.11,8.2,6.83c13.78,7.71,25.86,17.9,39.2,26.26c10.9,6.83,21.38,14.32,32.1,21.45c4,2.66,8.23,4.97,12.2,7.67
		c4.77,3.24,5.58,6.57,2.71,9.86c-2.63,0.69-4.33-1.16-6.29-2.29c-1.87-1.6-3.94-2.9-6.03-4.18c-2.27-1.81-4.92-3.03-7.3-4.68
		c-2.74-2.33-5.81-4.17-8.86-6.04c-2.84-1.49-5.76-2.87-8.2-5.02c-3.79-3.72-8.62-5.99-12.8-9.17c-5.18-3.95-11.01-6.96-16.16-10.96
		c-15.8-10.64-31.66-21.18-47.6-31.59c-3.6-2.35-7.08-4.9-10.56-7.43c-4.45-3.23-9.21-5.19-14.83-4.33
		c-3.47-0.05-6.84-1.01-10.29-1.19c-2.9-0.72-5.85-0.78-8.81-0.78c-2.46,0.13-4.77-0.79-7.18-1c-2.38-0.13-4.62-1.2-7.05-0.97
		c-1.33-0.01-2.66-0.08-3.98-0.28c-2.56-0.64-5.18-0.75-7.8-0.86c-2.04-0.22-4.01-0.97-6.09-0.88c-1.27-0.02-2.54-0.07-3.79-0.28
		c-2.16-0.47-4.22-1.28-6.32-1.95c-3.19-1.04-5.7-3.17-8.25-5.22c-2.42-1.7-4.74-3.53-6.84-5.62C26.65,95.95,26.7,95.53,26.99,95.13
		z"/>
	<path class="st24" d="M82.93,90.2c-0.51,1.43,0.14,4.03-2.92,2.91c-1.38-1.73-2.44-3.46,0.01-5.19
		C81.8,87.66,82.6,88.64,82.93,90.2z"/>
	<path class="st25" d="M82.93,90.2c-0.97-0.76-1.94-1.52-2.91-2.28c-0.07-0.77-0.45-1.75-0.12-2.26c0.41-0.63,1.14,0.07,1.59,0.48
		c1.19,1.1,2.52,2.12,2.53,3.97C83.66,90.14,83.3,90.17,82.93,90.2z"/>
	<path class="st26" d="M335.94,121.41c-21,13.07-41.99,26.14-62.99,39.21c-6.32,5.11-13.67,8.62-20.4,13.09
		c-2.01,1.33-3.76,0.06-5.47-1.05c-19.88-12.86-39.7-25.8-59.59-38.64c-35.93-23.21-71.73-46.61-107.71-69.74
		c-1.95-1.56-4.19-2.69-6.28-4.03c-2.94-1.89-2.34-3.25,0.29-4.5c6-2.86,11.82-6.12,17.9-8.79c12.03-5.28,23.68-11.33,35.53-16.98
		c9.3-4.43,18.77-8.51,27.88-13.34c1.67-0.88,3.42-1.18,5.24-1.33c2.86,0.04,4.91,1.93,7.17,3.26
		c55.75,32.66,111.48,65.35,167.21,98.03c1,0.58,2.06,1.05,3.1,1.57C338.43,119.96,336.88,120.51,335.94,121.41z"/>
	<path class="st27" d="M160.34,15.31c-16.58,8.03-33.16,16.08-49.75,24.08c-12.7,6.12-25.42,12.18-38.73,18.56
		c3.02,2.19,5.62,4.08,8.23,5.97c0.5,0.46,0.46,0.87-0.11,1.24c-6.44-4.25-12.85-8.54-19.33-12.72c-2.08-1.34-1.34-2.27,0.2-3.22
		c1.68-1.03,3.39-2,5.09-3c0.31,0.35,0.61,0.7,0.92,1.05c24.54-10.55,48.44-22.49,72.77-33.49c1.32-0.6,2.75-1.24,3.44-2.71
		c-0.42-1.74,1.66-2.27,1.95-4.01c-4.12,0-8.09,0-12.05,0c6.8-2.04,13.45-1.07,20.03,1.07c1.46,1,2.8,2.38,4.42,2.91
		C159.73,11.76,160.36,13.2,160.34,15.31z"/>
	<path class="st28" d="M82.99,14.04c-3.5,3.92-8.43,5.21-13.04,7.09c0.01-0.35,0.01-0.7,0.02-1.04
		C74.3,18.06,78.65,16.05,82.99,14.04z"/>
	<path class="st29" d="M143.08,11.05c1.29,0.19,2.03,0.83,0.6,1.7c-2.12,1.28-4.41,2.28-6.66,3.33
		C114.96,26.34,92.9,36.6,70.82,46.81c-1.18,0.55-2.44,2.15-3.95,0.46c1.9-3.22,5.4-4.12,8.47-5.24
		c9.02-3.27,17.39-7.92,26.09-11.86c9-4.07,17.92-8.28,26.96-12.25C133.34,15.74,137.78,12.46,143.08,11.05z"/>
	<path class="st30" d="M79.98,65.14c0.04-0.41,0.07-0.82,0.11-1.24c16.67,10.69,33.38,21.31,50.01,32.07
		c38.59,24.98,77.16,49.99,115.64,75.14c3.56,2.33,6.15,2.65,9.75,0.16c5.6-3.87,11.62-7.14,17.47-10.66
		c-2.9,5.32-9.21,5.94-13.34,9.6c-1.7,1.5-3.74,2.62-5.62,3.92c-2.7,1.66-5,0.66-7.37-0.89c-19.86-12.94-39.75-25.84-59.65-38.73
		c-34.23-22.18-68.46-44.36-102.7-66.52c-0.67-0.43-1.51-0.62-2.27-0.92C81.33,66.44,80.66,65.79,79.98,65.14z"/>
	<path class="st31" d="M307.8,108.51c-17.81,10.67-35.31,21.17-52.82,31.66c-6.28,3.77-12.67,7.37-18.79,11.37
		c-2.95,1.93-5.01,1.74-7.95-0.19c-41.18-27.03-82.46-53.92-123.72-80.84c-4.45-2.91-8.91-5.81-13.82-9.02
		c12.09-6.15,23.77-12.1,35.45-18.03c11.87-6.02,23.77-11.96,35.61-18.05c2.25-1.15,4.01-1.48,6.39-0.06
		c45.9,27.3,91.85,54.5,137.79,81.73C306.48,107.4,306.95,107.85,307.8,108.51z"/>
	<path class="st32" d="M297.86,126.05c-1.29-0.97-3.45-0.92-3.14-2.89c0.44-2.84,2.98-4.05,5.29-4.55c1.6-0.34,3.21,1.37,2.86,3.26
		C302.38,124.52,299.47,124.57,297.86,126.05z"/>
	<path class="st33" d="M282,133.1c0.46,0.12,1.32,0.32,1.32,0.36c-0.51,3.11-3.69,3.1-5.56,4.65c-1.42,1.18-3.03,0.36-3.94-0.82
		c-1.77-2.28,0.09-3.95,1.78-4.66c2-0.84,4.45-1.54,6.43,0.5c-1.09,0.97-2.7,0.71-4.25,1.83C279.45,134.16,280.91,134.06,282,133.1z
		"/>
	<path class="st34" d="M222.98,65.14c13.25,8.02,26.5,16.04,40.55,24.54c-10.06,5.97-19.26,11.51-28.53,16.91
		c-10.15,5.91-20.42,11.62-30.53,17.61c-2.06,1.22-3.49,0.55-5.02-0.43c-12.83-8.19-25.64-16.43-38.45-24.66
		c2.8-2.71,6.4-4.17,9.75-5.91C188.3,84.09,205.28,73.95,222.98,65.14z"/>
	<path class="st35" d="M144,87.16c-0.33-0.04-0.7-0.01-0.98-0.15c-2.82-1.38-6.99-2.56-7.28-5.36c-0.32-3.08,4.24-3.37,6.7-4.7
		c14.72-7.99,29.73-15.46,44.21-23.85c6.55-3.79,11.85-3.85,17.4,1c0.37,2.5-1.77,2.94-3.26,3.77
		c-15.05,8.44-30.35,16.41-45.61,24.44C151.62,84.19,148.6,87.59,144,87.16z"/>
	<path class="st34" d="M144,87.16c19.6-10.51,39.2-21.02,58.78-31.56c0.54-0.29,0.85-0.98,1.27-1.49c3.99,2.34,7.97,4.67,11.96,7.01
		c-3.5,2.13-7.65,3-10.86,5.68c-15.39,7.42-30.05,16.2-45.18,24.12c-2.19,1.15-4.31,2.57-6.98,2.21
		C148.61,93.22,147.21,88.83,144,87.16z"/>
	<path class="st36" d="M152.99,93.12c16.11-8.62,32.23-17.23,48.3-25.92c1.22-0.66,2.34-1.15,3.7-1.1c0.84,2.29-1.69,3.43-1.93,6.06
		c5.61-2.47,11.24-4.07,14.94-9.09c1.65,0.69,3.31,1.37,4.96,2.06c-3.69,4.91-9.68,6.27-14.63,9.11
		c-14.22,8.14-28.83,15.62-43.23,23.46c-1.35,0.73-2.53,1.56-4.12,1.41C158.11,97.42,154.87,96.17,152.99,93.12z"/>
	<path class="st37" d="M218.01,63.08c0.24,2.74-1.31,4.25-3.59,5.3c-3.26,1.51-6.52,3.02-9.73,4.62c-1.02,0.51-2.01,1.59-3.05,0.51
		c-1.09-1.13-0.58-2.33,0.42-3.46c1.08-1.22,1.96-2.62,2.93-3.95c2.85-3.46,6.58-5,11.01-5C216.68,61.76,217.35,62.42,218.01,63.08z
		"/>
	<path class="st38" d="M144.94,57.11c-0.95,1.82-2.39,3.16-4.24,1.57c-1.44-1.24-0.03-2.73,0.86-3.86
		c2.56-3.25,10.77-5.72,14.55-4.33c0.42,0.15,0.57,1.05,0.84,1.6C153.24,54.46,148.62,54.68,144.94,57.11z"/>
	<path class="st39" d="M226.05,123.17c-2.48,4.74-7.65,5.9-11.61,8.66c-0.85,0.6-2.1,0.34-2.63-0.62c-0.81-1.48,0.66-2.26,1.53-2.58
		c4.32-1.62,8.04-4.57,12.61-5.57L226.05,123.17z"/>
	<path class="st40" d="M290.48,111.1c-1.95,1.05-3.5,2-5.14,2.72c-1.53,0.68-3.2,0.42-3.82-1.2c-0.65-1.72,1.41-1.32,2.15-2
		C285.99,108.45,288.22,107.32,290.48,111.1z"/>
	<path class="st41" d="M156.92,54.18c0,0.6,0,1.21,0,1.81c-1.65,1.82-4.16,1.8-6.14,2.91c-0.54,0.36-1.09,0.72-1.63,1.08
		c-3.47-0.96-3.48-2.95-0.91-4.69C150.78,53.59,153.72,52.1,156.92,54.18z"/>
	<path class="st42" d="M156.92,54.18c-3.03-0.31-5.91-0.04-8.43,1.91c-2.26,1.75-1.32,2.9,0.66,3.89c-2.76,1.02-2.98-1.66-4.21-2.87
		c2.72-4.74,7.66-4.2,12.02-5.02C156.94,52.79,156.93,53.48,156.92,54.18z"/>
	<path class="st39" d="M225.94,123.07c0.85-4.64,4.56-3.12,7.43-3.41c-2.06,1.97-3.54,5.13-7.33,3.52
		C226.05,123.17,225.94,123.07,225.94,123.07z"/>
	<path class="st43" d="M292.08,109.51c-0.73-0.6-1.92-1.17-2.35-2.1c-0.28-0.59,0.91-1.26,1.79-1.17c1.23,0.12,2.29,0.62,2.18,2.11
		C293.64,109.07,293.07,109.45,292.08,109.51z"/>
	<path class="st42" d="M150.78,58.9c1.14-2.88,3.73-2.72,6.14-2.91c0.01,0.43,0.02,0.87,0.04,1.3c-1.05,1.28-2.7,1.68-3.91,2.72
		C152.29,59.64,151.53,59.27,150.78,58.9z"/>
	<path class="st44" d="M153.05,60.01c0.2-2.48,2.08-2.57,3.91-2.72C157.56,60.94,154.99,60.03,153.05,60.01z"/>
	<path class="st45" d="M282,133.1c-0.48,1.12-1.41,1.76-2.44,2.3c-1.24,0.64-2.22,2.14-3.9,1.34c-0.3-0.14-0.59-0.91-0.48-1.24
		c0.65-1.8,2.22-2.24,3.91-2.37c0.97-0.07,1.96-0.01,2.94-0.01C282.02,133.13,282,133.1,282,133.1z"/>
	<path class="st46" d="M214.55,112.86c-0.44,0.4-0.76,0.79-1.16,1.04c-2.9,1.8-5.82,3.59-8.74,5.36c-1.06,0.64-2.34,1.07-3.01-0.27
		c-1.16-2.32,1.28-1.16,1.93-1.61c2.82-1.96,5.84-3.64,8.79-5.41C213.45,111.32,214.14,111.64,214.55,112.86z"/>
	<path class="st36" d="M181.98,93.07c3.21-2.21,6.36-4.52,10.46-5.2c-1.58,3.51-4.67,4.81-8.36,5.25
		C183.36,93.68,182.66,93.75,181.98,93.07z"/>
	<path class="st47" d="M191.48,112.4c1.9-1.13,3.23-3.81,6.73-2.64C195.97,111.8,194.19,113.17,191.48,112.4z"/>
	<path class="st48" d="M181.98,93.07c0.7,0.02,1.4,0.03,2.1,0.05c-1.51,2.46-3.6,3.76-7.41,3.86
		C178.4,94.44,180.47,94.13,181.98,93.07z"/>
	<path class="st49" d="M236.88,77.18c-2,1.7-3.67,0.42-5.29,0.11c-0.42-0.08-0.1-0.8,0.36-1.1
		C233.71,75.04,235.27,75.21,236.88,77.18z"/>
	<path class="st49" d="M251.78,89.17c2.33-1.35,3.83-1.33,6.16,0.27C255.68,90.32,254.17,90.28,251.78,89.17z"/>
	<path class="st50" d="M188.68,102.85c0.19-2.23,1.24-3.14,3.13-3.08c0.21,0.01,0.61,0.49,0.57,0.67
		C191.93,102.39,190.34,102.46,188.68,102.85z"/>
	<path class="st46" d="M152.91,87.29c5.1-4.86,5.1-4.86,11.58-5.69C160.67,85.16,156.77,86.22,152.91,87.29z"/>
	<path class="st51" d="M201.92,59.6c2.51-1.93,3.86-1.79,4.9,0.63C205.11,61.11,203.91,60.14,201.92,59.6z"/>
	<path class="st52" d="M162.37,93.2c2.98-3.21,6.73-4.9,11.02-5.55C170.01,90.08,166.93,93.09,162.37,93.2z"/>
</g>
</svg>
