<?xml version="1.0" encoding="utf-8"?>
<!-- Generator: Adobe Illustrator 23.0.3, SVG Export Plug-In . SVG Version: 6.00 Build 0)  -->
<svg version="1.1" id="Layer_1" xmlns="http://www.w3.org/2000/svg" xmlns:xlink="http://www.w3.org/1999/xlink" x="0px" y="0px"
	 viewBox="0 0 32.15 16.07" style="enable-background:new 0 0 32.15 16.07;" xml:space="preserve">
<style type="text/css">
	.st0{fill:#FFFFFF;}
	.st1{fill:#1524AF;}
</style>
<polygon class="st0" points="32.15,0 16.07,16.07 0,0 "/>
<polygon class="st1" points="1497.61,-752.93 1481.53,-736.85 1465.46,-752.93 "/>
<polygon class="st1" points="1466.09,-752.93 1450.01,-736.85 1433.94,-752.93 "/>
<polygon class="st1" points="1434.57,-752.93 1418.49,-736.85 1402.42,-752.93 "/>
<polygon class="st1" points="1403.04,-752.93 1386.97,-736.85 1370.89,-752.93 "/>
<polygon class="st1" points="1371.52,-752.93 1355.45,-736.85 1339.37,-752.93 "/>
<polygon class="st1" points="1340,-752.93 1323.92,-736.85 1307.85,-752.93 "/>
<polygon class="st1" points="1308.48,-752.93 1292.4,-736.85 1276.33,-752.93 "/>
<polygon class="st1" points="1276.96,-752.93 1260.88,-736.85 1244.81,-752.93 "/>
<polygon class="st1" points="1245.43,-752.93 1229.36,-736.85 1213.28,-752.93 "/>
<polygon class="st1" points="1213.91,-752.93 1197.84,-736.85 1181.76,-752.93 "/>
<polygon class="st1" points="1182.39,-752.93 1166.31,-736.85 1150.24,-752.93 "/>
<polygon class="st1" points="1150.87,-752.93 1134.79,-736.85 1118.72,-752.93 "/>
<polygon class="st1" points="1119.34,-752.93 1103.27,-736.85 1087.2,-752.93 "/>
<polygon class="st1" points="1087.82,-752.93 1071.75,-736.85 1055.67,-752.93 "/>
<polygon class="st1" points="1056.3,-752.93 1040.23,-736.85 1024.15,-752.93 "/>
<polygon class="st1" points="1024.78,-752.93 1008.7,-736.85 992.63,-752.93 "/>
<polygon class="st1" points="993.26,-752.93 977.18,-736.85 961.11,-752.93 "/>
<polygon class="st1" points="961.73,-752.93 945.66,-736.85 929.59,-752.93 "/>
<polygon class="st1" points="930.21,-752.93 914.14,-736.85 898.06,-752.93 "/>
<polygon class="st1" points="898.69,-752.93 882.62,-736.85 866.54,-752.93 "/>
<polygon class="st1" points="867.17,-752.93 851.09,-736.85 835.02,-752.93 "/>
<polygon class="st1" points="835.65,-752.93 819.57,-736.85 803.5,-752.93 "/>
<polygon class="st1" points="804.12,-752.93 788.05,-736.85 771.98,-752.93 "/>
<polygon class="st1" points="772.6,-752.93 756.53,-736.85 740.45,-752.93 "/>
<polygon class="st1" points="741.08,-752.93 725.01,-736.85 708.93,-752.93 "/>
<polygon class="st1" points="709.56,-752.93 693.48,-736.85 677.41,-752.93 "/>
<polygon class="st1" points="678.04,-752.93 661.96,-736.85 645.89,-752.93 "/>
<polygon class="st1" points="646.51,-752.93 630.44,-736.85 614.37,-752.93 "/>
<polygon class="st1" points="614.99,-752.93 598.92,-736.85 582.84,-752.93 "/>
<polygon class="st1" points="583.47,-752.93 567.4,-736.85 551.32,-752.93 "/>
<polygon class="st1" points="551.95,-752.93 535.87,-736.85 519.8,-752.93 "/>
<polygon class="st1" points="520.43,-752.93 504.35,-736.85 488.28,-752.93 "/>
<polygon class="st1" points="488.9,-752.93 472.83,-736.85 456.76,-752.93 "/>
<polygon class="st1" points="457.38,-752.93 441.31,-736.85 425.23,-752.93 "/>
<polygon class="st1" points="425.86,-752.93 409.79,-736.85 393.71,-752.93 "/>
<polygon class="st1" points="394.34,-752.93 378.26,-736.85 362.19,-752.93 "/>
<polygon class="st1" points="362.82,-752.93 346.74,-736.85 330.67,-752.93 "/>
<polygon class="st1" points="331.29,-752.93 315.22,-736.85 299.15,-752.93 "/>
<polygon class="st1" points="299.77,-752.93 283.7,-736.85 267.62,-752.93 "/>
<polygon class="st1" points="268.25,-752.93 252.18,-736.85 236.1,-752.93 "/>
<polygon class="st1" points="236.73,-752.93 220.65,-736.85 204.58,-752.93 "/>
<polygon class="st1" points="205.21,-752.93 189.13,-736.85 173.06,-752.93 "/>
<polygon class="st1" points="173.68,-752.93 157.61,-736.85 141.54,-752.93 "/>
<polygon class="st1" points="142.16,-752.93 126.09,-736.85 110.01,-752.93 "/>
<polygon class="st1" points="110.64,-752.93 94.57,-736.85 78.49,-752.93 "/>
<polygon class="st1" points="79.12,-752.93 63.04,-736.85 46.97,-752.93 "/>
<polygon class="st1" points="47.6,-752.93 31.52,-736.85 15.45,-752.93 "/>
<polygon class="st1" points="16.07,-752.93 0,-736.85 -16.07,-752.93 "/>
<polygon class="st1" points="-15.45,-752.93 -31.52,-736.85 -47.6,-752.93 "/>
</svg>
