<svg xmlns="http://www.w3.org/2000/svg" width="180.776" height="440.454" viewBox="0 0 180.776 440.454">
  <g id="Group_1052" data-name="Group 1052" transform="translate(-1738.803 -639.108)">
    <path id="Path_705" data-name="Path 705" d="M3771.307,3358.58v440.346c-10.588.383-20.995-.342-30.222-.806-11.756-.594-76.562-5.2-117.866-59.437-7.192-9.439-34.07-44.749-29.214-88.652,4.393-39.712,51.016-44.906,65.966-89.645,19.634-58.742-35.341-83.951-7.537-144.073,9.036-19.543,18.416-28.791,22.163-32.237,6.618-6.084,27.714-23.5,84.622-25.185C3763.016,3358.781,3767.056,3358.66,3771.307,3358.58Z" transform="translate(-1851.729 -2719.472)" fill="#f8f9fd"/>
    <path id="Path_706" data-name="Path 706" d="M3584.377,3475.621c11.94,7.742,12.908,22.834,13.374,30.091.372,5.8,1.754,27.362-14.042,38.115-12.351,8.407-23.223,6.758-29.017-1.7-4.857-7.094-4.663-12.842-5.086-33.067-.359-17.12-3.034-18.737,2.006-26.018C3557.2,3473.6,3571.857,3467.5,3584.377,3475.621Z" transform="translate(-1809.774 -2692.005)" fill="#f8f9fd"/>
  </g>
</svg>
