<svg xmlns="http://www.w3.org/2000/svg" width="469.162" height="1080" viewBox="0 0 469.162 1080">
  <g id="Group_1046" data-name="Group 1046" transform="translate(0.422 156.176)">
    <path id="Path_680" data-name="Path 680" d="M4084.521,4115.375c-30.084,44.785-59.182,41.4-105.641,103.747-62.135,83.393-41.392,131.487-91.234,177.852-33.445,31.1-76.157,39.967-117.645,41.5V3358.74c95.748-1.927,234.522,3.977,338.529,106.982,31.236,30.926,83.865,83.047,86.434,155.62,3.312,93.521-91.859,103.969-105.641,222.315C4075.469,3962.67,4137.869,4035.983,4084.521,4115.375Z" transform="translate(-3770.423 -3514.649)" fill="#f8f9fd"/>
    <path id="Path_684" data-name="Path 684" d="M3943.345,3706.508c-28.409,15.667-41.59,40.212-51.1,57.91-12.888,24-25.974,48.365-17.032,69.832,11.938,28.662,58.369,40.716,91.975,32.362,69.3-17.229,108.1-127.233,78.347-161.806C4026.068,3682.183,3974.885,3689.117,3943.345,3706.508Z" transform="translate(-3683.112 -3031.534)" fill="#f8f9fd"/>
    <path id="Path_685" data-name="Path 685" d="M44.816,10.106C26.9,19.986,18.591,35.462,12.6,46.622,4.47,61.755-3.782,77.12,1.857,90.657c7.527,18.073,36.805,25.673,58,20.405,43.7-10.863,68.168-80.228,49.4-102.028C96.979-5.232,64.7-.859,44.816,10.106Z" transform="matrix(0.891, -0.454, 0.454, 0.891, 314.544, 303.12)" fill="#f8f9fd"/>
  </g>
</svg>
