<?xml version="1.0" encoding="utf-8"?>
<!-- Generator: Adobe Illustrator 23.0.3, SVG Export Plug-In . SVG Version: 6.00 Build 0)  -->
<svg version="1.1" id="Layer_1" xmlns="http://www.w3.org/2000/svg" xmlns:xlink="http://www.w3.org/1999/xlink" x="0px" y="0px"
	 viewBox="0 0 840.1 485.9" style="enable-background:new 0 0 840.1 485.9;" xml:space="preserve">
<style type="text/css">
	.st0{fill:#FFAB57;}
	.st1{fill:#FAEED4;}
	.st2{fill:url(#Rectangle_752_1_);}
	.st3{fill:#FFFFFF;}
	.st4{fill:url(#Path_2486_1_);}
	.st5{fill:url(#Path_2487_1_);}
	.st6{fill:url(#Path_657_1_);}
	.st7{fill:url(#Path_2500_1_);}
	.st8{fill:url(#Path_2501_1_);}
	.st9{fill:url(#Path_657-2_1_);}
	.st10{fill:url(#Path_2502_1_);}
	.st11{fill:url(#Path_2503_1_);}
	.st12{fill:url(#Path_2504_1_);}
	.st13{fill:url(#Path_2505_1_);}
	.st14{fill:url(#Path_2506_1_);}
	.st15{fill:url(#Path_2507_1_);}
	.st16{fill:url(#Path_2508_1_);}
	.st17{fill:url(#Ellipse_643_1_);}
	.st18{fill:url(#Path_2509_1_);}
	.st19{fill:url(#Path_2488_1_);}
	.st20{fill:url(#Path_2489_1_);}
	.st21{fill:url(#Path_2490_1_);}
	.st22{fill:url(#Path_2491_1_);}
	.st23{fill:url(#Path_2492_1_);}
	.st24{fill:url(#Path_2493_1_);}
	.st25{fill:url(#Path_2494_1_);}
	.st26{fill:url(#Path_2495_1_);}
	.st27{fill:url(#Path_2496_1_);}
	.st28{fill:url(#Path_657-3_1_);}
	.st29{fill:url(#Path_657-4_1_);}
	.st30{fill:url(#Ellipse_640_1_);}
	.st31{fill:url(#Path_2497_1_);}
	.st32{fill:url(#Path_2498_1_);}
	.st33{fill:url(#Path_2499_1_);}
	.st34{fill:url(#Ellipse_149_1_);}
</style>
<ellipse class="st0" cx="403.5" cy="471" rx="392.9" ry="14.9"/>
<path class="st1" d="M284.1,243.1c0,107-63.6,144.3-142.1,144.3S0,350.1,0,243.1S142.1,0,142.1,0S284.1,136.1,284.1,243.1z"/>
<polygon class="st0" points="136.9,371.1 138.3,281.5 198.9,170.8 138.6,267.5 139.2,227.2 180.9,147.1 139.4,216.6 139.4,216.6 
	140.6,144.2 185.2,80.4 140.8,132.8 141.5,0 136.9,175.8 137.2,168.5 91.8,99 136.5,182.4 132.3,263.3 132.2,261.2 79.8,188 
	132,268.7 131.5,278.8 131.4,279 131.4,279.8 120.7,485 135,485 136.8,379 188.8,298.5 "/>
<path class="st1" d="M840.1,276.3c0,87.6-52.1,118.1-116.3,118.1s-116.3-30.6-116.3-118.1s116.3-199,116.3-199
	S840.1,188.7,840.1,276.3z"/>
<polygon class="st0" points="719.6,381.1 720.8,307.8 770.4,217.1 721,296.3 721.5,263.3 755.7,197.7 721.7,254.6 721.7,254.6 
	722.6,195.3 759.2,143.1 722.8,186 723.4,77.3 719.6,221.2 719.9,215.3 682.7,158.4 719.3,226.7 715.8,292.9 715.7,291.1 
	672.9,231.2 715.6,297.3 715.2,305.6 715.1,305.7 715.1,306.4 706.3,474.3 718.1,474.3 719.5,387.6 762.1,321.6 "/>
<g id="transaksi" transform="translate(-3000.068 -6492)">
	<g id="Group_1442" transform="translate(39.097 21.487)">
		<g id="Group_1430" transform="translate(3090.561 6602.88)">
			<path id="Rectangle_762" class="st1" d="M127.3,76h387.5c8.3,0,15,6.7,15,15v201.2c0,8.3-6.7,15-15,15H127.3c-8.3,0-15-6.7-15-15
				V91C112.3,82.7,119,76,127.3,76z"/>
			<linearGradient id="Rectangle_752_1_" gradientUnits="userSpaceOnUse" x1="89.2887" y1="212.5756" x2="506.8197" y2="212.5756">
				<stop  offset="0" style="stop-color:#FF9520"/>
				<stop  offset="0.3366" style="stop-color:#FF9821"/>
				<stop  offset="0.5734" style="stop-color:#FFA126"/>
				<stop  offset="0.7796" style="stop-color:#FFB12D"/>
				<stop  offset="0.9673" style="stop-color:#FFC637"/>
				<stop  offset="1" style="stop-color:#FFCB39"/>
			</linearGradient>
			<path id="Rectangle_752" class="st2" d="M104.3,97h387.5c8.3,0,15,6.7,15,15v201.2c0,8.3-6.7,15-15,15H104.3c-8.3,0-15-6.7-15-15
				V112C89.3,103.7,96,97,104.3,97z"/>
			<rect id="Rectangle_753" x="89.3" y="139.6" class="st3" width="417.5" height="51.7"/>
			<g id="Group_1429" transform="translate(31.73 145.351)">
				<g id="Group_1428">
					<circle id="Ellipse_641" class="st3" cx="118.9" cy="126.6" r="29.6"/>
					<circle id="Ellipse_642" class="st3" cx="163.3" cy="126.6" r="29.6"/>
				</g>
				<path id="Rectangle_754" class="st3" d="M318.1,109.9h113.8c7.9,0,14.4,6.4,14.4,14.4v4.7c0,7.9-6.4,14.4-14.4,14.4H318.1
					c-7.9,0-14.4-6.4-14.4-14.4v-4.7C303.7,116.3,310.1,109.9,318.1,109.9z"/>
			</g>
		</g>
		<g id="Group_1439" transform="translate(3433.077 6470.513)">
			<g id="Group_1424" transform="translate(1.813 90.081)">
				
					<linearGradient id="Path_2486_1_" gradientUnits="userSpaceOnUse" x1="163.2125" y1="563.5119" x2="162.2345" y2="563.5119" gradientTransform="matrix(12.2739 0 0 -11.5042 7189.5518 6728.8672)">
					<stop  offset="0" style="stop-color:#FFE8E0"/>
					<stop  offset="1" style="stop-color:#FFB5AA"/>
				</linearGradient>
				<path id="Path_2486" class="st4" d="M174.4,251.9c2.4-0.2,4.8-4.8,6.6-11.5c-4.1,0.6-8.2,0.7-12.3,0.4
					C170.6,247.9,172,252,174.4,251.9z"/>
				
					<linearGradient id="Path_2487_1_" gradientUnits="userSpaceOnUse" x1="-586.0017" y1="579.5284" x2="-586.0017" y2="578.5284" gradientTransform="matrix(95.8472 0 0 -144.0291 56303.8164 83565.8906)">
					<stop  offset="0" style="stop-color:#002A5E"/>
					<stop  offset="1" style="stop-color:#2541A3"/>
				</linearGradient>
				<path id="Path_2487" class="st5" d="M142.5,179.8c15.1,21.3,21.1,42,24.8,55.7c0.5,1.9,1,3.7,1.4,5.3c4.1,0.3,8.2,0.2,12.3-0.4
					c0.4-1.4,0.7-2.9,1.1-4.4c1.8-8.5,2.8-17.2,3-25.8c0.9-41-18.5-68.5-33.8-89.4C133.6,96.5,126,96.8,124,97
					c-15.2,1.8-33.6,28.2-34.7,34.4C101.2,139.9,129.2,161,142.5,179.8z"/>
				
					<linearGradient id="Path_657_1_" gradientUnits="userSpaceOnUse" x1="-583.3806" y1="573.5004" x2="-583.3806" y2="572.5004" gradientTransform="matrix(42.9517 0 0 -26.3052 25240.0938 15330.2139)">
					<stop  offset="0" style="stop-color:#002A5E"/>
					<stop  offset="1" style="stop-color:#2541A3"/>
				</linearGradient>
				<path id="Path_657" class="st6" d="M163.6,267.6c0,0,35.2,4.7,39.9,2.1s-8.5-3.6-16.1-7.4s-7.8-16.7-7.8-16.7s-10.3-2-10.6-1.2
					S156.7,267,163.6,267.6z"/>
			</g>
			<g id="Group_1431" transform="translate(14.473 105.749)">
				
					<linearGradient id="Path_2500_1_" gradientUnits="userSpaceOnUse" x1="-125.7" y1="550.9252" x2="-126.734" y2="550.9252" gradientTransform="matrix(19.6948 0 0 -14.0762 11746.7754 7967.1348)">
					<stop  offset="0" style="stop-color:#FFE8E0"/>
					<stop  offset="1" style="stop-color:#FFB5AA"/>
				</linearGradient>
				<path id="Path_2500" class="st7" d="M109.1,219c2.2,1.2,9.7-1.3,19.1-6.2c-3.1-1-6-2.4-8.8-4.1c-1.7-1-3.2-2.2-4.7-3.5
					C110.1,212.2,107.1,217.9,109.1,219z"/>
				
					<linearGradient id="Path_2501_1_" gradientUnits="userSpaceOnUse" x1="-598.4881" y1="563.5322" x2="-598.4881" y2="562.5322" gradientTransform="matrix(88.6182 0 0 -115.8049 53170.9688 65356.7617)">
					<stop  offset="0" style="stop-color:#002A5E"/>
					<stop  offset="1" style="stop-color:#2541A3"/>
				</linearGradient>
				<path id="Path_2501" class="st8" d="M118.2,199.9c-1.2,1.8-2.4,3.6-3.5,5.3c1.5,1.3,3,2.4,4.7,3.5c2.8,1.7,5.7,3.1,8.8,4.1
					c1.5-0.8,3.1-1.6,4.6-2.5c21.5-12.3,49-35.3,45.2-56.6c-3-17.4-26.4-30.7-48.5-43.3c-9-5.1-18.4-9.6-28-13.4
					c-6.2,6.7-14,17.3-11.2,28.2c5.9,22.5,51.8,26.5,50.7,44.3c-0.4,6.4-6.3,6.5-19.5,25.7C120.4,196.7,119.3,198.3,118.2,199.9z"/>
				
					<linearGradient id="Path_657-2_1_" gradientUnits="userSpaceOnUse" x1="-594.5275" y1="559.8719" x2="-594.5275" y2="558.8719" gradientTransform="matrix(32.5742 0 0 -36.3608 19471.8438 20568.25)">
					<stop  offset="0" style="stop-color:#002A5E"/>
					<stop  offset="0.473" style="stop-color:#11357F"/>
					<stop  offset="1" style="stop-color:#2541A3"/>
				</linearGradient>
				<path id="Path_657-2" class="st9" d="M89.9,228.2c0,0,24.5,19.2,30.2,19s-4-6.7-7.2-13.2s6.4-17.5,6.4-17.5s-6.7-6.1-7.5-5.6
					S85,224.7,89.9,228.2z"/>
			</g>
			
				<linearGradient id="Path_2502_1_" gradientUnits="userSpaceOnUse" x1="-577.2966" y1="655.7401" x2="-577.6107" y2="654.7781" gradientTransform="matrix(23.0347 0 0 -13.0488 13496.2119 8780.5908)">
				<stop  offset="0" style="stop-color:#FFE8E0"/>
				<stop  offset="1" style="stop-color:#FFB5AA"/>
			</linearGradient>
			<path id="Path_2502" class="st10" d="M206.1,229.5c-0.7,2.2-10.2,3.9-23,2.4c0.2-0.2,0.4-0.4,0.5-0.6c2-2.3,3.7-4.9,4.9-7.6
				c0.6-1.4,1.1-2.8,1.5-4.2C200.1,225.8,206.7,227.5,206.1,229.5z"/>
			
				<linearGradient id="Path_2503_1_" gradientUnits="userSpaceOnUse" x1="-583.6953" y1="668.4161" x2="-584.0782" y2="668.0981" gradientTransform="matrix(82.5601 0 0 -90.1345 48351.1563 60424.0547)">
				<stop  offset="0" style="stop-color:#79C2F0"/>
				<stop  offset="1" style="stop-color:#598FE8"/>
			</linearGradient>
			<path id="Path_2503" class="st11" d="M190.1,219.4c-0.4,1.4-0.9,2.8-1.5,4.2c-1.2,2.8-2.9,5.3-4.9,7.6c-0.2,0.2-0.4,0.4-0.5,0.6
				c-1.7-0.2-3.5-0.5-5.4-0.8c-13-2.3-28.2-7.7-41.1-18.5c-22.3-18.8-35.9-52.7-25.7-65c4.9-6,15.9-7.4,22.9-3.9
				c8,4,7.2,12.4,14.2,27.7c9.4,20.7,23.7,33.4,29.4,38.4c2.8,2.5,5.7,4.8,8.8,7C187.6,217.8,188.8,218.6,190.1,219.4z"/>
			
				<linearGradient id="Path_2504_1_" gradientUnits="userSpaceOnUse" x1="-583.751" y1="668.2403" x2="-583.184" y2="669.1863" gradientTransform="matrix(72.7329 0 0 -114.2979 42566.2031 76625.0703)">
				<stop  offset="0" style="stop-color:#79C2F0"/>
				<stop  offset="1" style="stop-color:#598FE8"/>
			</linearGradient>
			<path id="Path_2504" class="st12" d="M126,132.5c-14,5-21.1,17.9-24.5,24.3c-15,28-17.7,74.2,0.6,84.9c9.8,5.7,28.3,2.8,36.5-7.7
				c4.4-5.6,6.4-14.1,13.7-16c4.4-1.2,6.6,1.2,8.6-0.5c4.3-3.7-4.8-15.7-5.1-33c-0.3-18,9.4-23.3,5.1-36.4c-2.1-6.2-6.3-11.5-12-15
				C139.4,127.7,129.6,131.2,126,132.5z"/>
			
				<linearGradient id="Path_2505_1_" gradientUnits="userSpaceOnUse" x1="-580.4825" y1="667.7393" x2="-580.4825" y2="666.7393" gradientTransform="matrix(34.9639 0 0 -60.303 20494.252 40456.2227)">
				<stop  offset="0" style="stop-color:#FFFFFF"/>
				<stop  offset="1" style="stop-color:#D0E1EB"/>
			</linearGradient>
			<path id="Path_2505" class="st13" d="M215.8,189.6c-1.1,1.9-7.3,21-7.3,21l-27.7,39.3l7-23.7L215.8,189.6z"/>
			
				<linearGradient id="Path_2506_1_" gradientUnits="userSpaceOnUse" x1="-573.8575" y1="663.7789" x2="-573.5966" y2="664.6739" gradientTransform="matrix(16.228 0 0 -31.6963 9456.2871 21189.4668)">
				<stop  offset="0" style="stop-color:#FFE8E0"/>
				<stop  offset="1" style="stop-color:#FFB5AA"/>
			</linearGradient>
			<path id="Path_2506" class="st14" d="M143.9,116.6c-1.3,1.9-2.3,3.9-3.1,6c-0.5,1.5-1.4,3.8-2.6,6.8c-1,2.6-1.5,5,0.6,10.2
				c1.4,3.3,5.2,8.2,8.1,8.7c1.9,0.3,4.8-1.5,6-3.2c1.8-2.5-0.7-7.1-1.9-12.6c-1.8-8,3-9.6,1.6-12.1
				C152,119.3,150.1,116.7,143.9,116.6z"/>
			
				<linearGradient id="Path_2507_1_" gradientUnits="userSpaceOnUse" x1="-576.6337" y1="658.575" x2="-576.9647" y2="657.807" gradientTransform="matrix(21.5483 0 0 -16.0779 12607.1797 10823.96)">
				<stop  offset="0" style="stop-color:#FFE8E0"/>
				<stop  offset="1" style="stop-color:#FFB5AA"/>
			</linearGradient>
			<path id="Path_2507" class="st15" d="M187.7,245.3c-1.1,1.9-10,1.5-21.4-2.3c2-2.3,3.7-4.9,4.9-7.6c0.7-1.6,1.3-3.3,1.7-5
				C182,240.1,188.7,243.4,187.7,245.3z"/>
			
				<linearGradient id="Path_2508_1_" gradientUnits="userSpaceOnUse" x1="-582.8595" y1="668.0767" x2="-583.6725" y2="668.9966" gradientTransform="matrix(66.4917 0 0 -101.8943 38920.8711 68313.75)">
				<stop  offset="0" style="stop-color:#79C2F0"/>
				<stop  offset="1" style="stop-color:#598FE8"/>
			</linearGradient>
			<path id="Path_2508" class="st16" d="M172.9,230.4c-0.4,1.7-1,3.4-1.7,5c-1.3,2.8-2.9,5.3-4.9,7.6c-1.6-0.5-3.3-1.1-4.9-1.8
				c-12.5-5-27-13.9-37.5-27.9c-17.5-23.3-23.2-59.4-10.5-69.1c6.1-4.7,17.1-3.7,23.2,1.4c6.9,5.7,4.2,13.7,7.6,30.2
				c4.6,22.3,15.7,37.8,20.1,44c1.9,2.7,3.8,5.1,5.7,7.3C170.9,228.2,171.9,229.3,172.9,230.4z"/>
			
				<linearGradient id="Ellipse_643_1_" gradientUnits="userSpaceOnUse" x1="-590.1578" y1="661.6771" x2="-590.1578" y2="660.6771" gradientTransform="matrix(9.7437 -30.2936 -26.0173 -8.3683 23102.4688 -12226.0186)">
				<stop  offset="0" style="stop-color:#FFE8E0"/>
				<stop  offset="1" style="stop-color:#FFB5AA"/>
			</linearGradient>
			<path id="Ellipse_643" class="st17" d="M137.1,114.9c2.7-8.4,10.7-13.3,17.9-11c7.2,2.3,10.8,11,8.1,19.3s-10.7,13.3-17.9,11
				S134.4,123.2,137.1,114.9z"/>
			
				<linearGradient id="Path_2509_1_" gradientUnits="userSpaceOnUse" x1="-578.7332" y1="663.684" x2="-578.7332" y2="662.684" gradientTransform="matrix(30.4669 5.382 3.7209 -21.0637 15316.7871 17194.043)">
				<stop  offset="0" style="stop-color:#432929"/>
				<stop  offset="1" style="stop-color:#966565"/>
			</linearGradient>
			<path id="Path_2509" class="st18" d="M151.7,114.4c-0.2,0.6-1.7,0.3-2,1c-0.5,1.2,3.7,5.3,8.8,5.8c1.2,0.1,4.8,0.5,6.9-1.7
				c3.4-3.5,1.3-12.3-4.1-16.7c-5.8-4.8-13.2-2.8-13.7-2.7c-7.5,2.1-10.2,9.5-11.1,11.8c-1,2.9-1.4,6-0.8,6.3
				c0.8,0.3,3.2-3.9,3.8-3.6c0.5,0.2-0.8,2.5,0,3.4c0.8,0.8,3.2,0.4,4.7-0.9c2.2-1.8,1.6-4.3,3.3-4.9
				C149.3,111.5,151.9,113.5,151.7,114.4z"/>
		</g>
		<g id="Group_1427" transform="translate(2975.974 6534.178)">
			
				<linearGradient id="Path_2488_1_" gradientUnits="userSpaceOnUse" x1="-122.0166" y1="602.2253" x2="-122.2896" y2="602.7684" gradientTransform="matrix(28.6133 0 0 -45.3899 3689.2532 27486.3477)">
				<stop  offset="0" style="stop-color:#FFE8E0"/>
				<stop  offset="1" style="stop-color:#FFB5AA"/>
			</linearGradient>
			<path id="Path_2488" class="st19" d="M198.3,157.5c-1.4,1.1-3,2.1-4.7,2.8c-2.5,0.9-4.7,0.7-7.7-0.5c-3.8-1.5-4.7-3.5-4-7.3
				c0.8-4.5,4.3-7.6,8.1-12.8c5-6.9-3.1-8.9-0.8-13.5c3.3-6.8,6.5-11.9,9.2-10.6c1.6,0.8,1.6,3.9,1.5,6.2c0,0.3,0,0.5,0,0.8
				c-0.2,4.3,8,4.8,9.1,7.9c0.6,1.7-0.7,4.7,0,5.5C213.3,141.3,206.5,151.2,198.3,157.5z"/>
			
				<linearGradient id="Path_2489_1_" gradientUnits="userSpaceOnUse" x1="-117.0948" y1="592.4412" x2="-118.0948" y2="592.4412" gradientTransform="matrix(17.5566 0 0 -13.519 2261.7729 8350.6455)">
				<stop  offset="0" style="stop-color:#FFE8E0"/>
				<stop  offset="1" style="stop-color:#FFB5AA"/>
			</linearGradient>
			<path id="Path_2489" class="st20" d="M205.7,347.4c-1.5,1.6-8.4,0.5-17.3-2.6c2.3-1.7,4.5-3.6,6.3-5.8c1.2-1.4,2.2-2.8,3.1-4.4
				C203.2,340.8,207.1,346,205.7,347.4z"/>
			
				<linearGradient id="Path_2490_1_" gradientUnits="userSpaceOnUse" x1="-126.6314" y1="605.1953" x2="-125.6314" y2="605.1953" gradientTransform="matrix(66.1714 0 0 -121.5522 8512.5527 73846.9375)">
				<stop  offset="0" style="stop-color:#002A5E"/>
				<stop  offset="1" style="stop-color:#2541A3"/>
			</linearGradient>
			<path id="Path_2490" class="st21" d="M193.7,330c1.4,1.6,2.9,3.1,4.2,4.6c-0.9,1.5-1.9,3-3.1,4.4c-1.8,2.2-4,4.2-6.3,5.8
				c-1.4-0.5-2.9-1.1-4.4-1.7c-20.7-8.3-48.8-26.1-50.7-48.2c-1.5-18,14.7-35.9,30.1-52.9c6.2-6.8,12.9-13.1,20.1-18.8
				c6.7,5.5,15.7,14.7,15.9,26.2c0.4,23.7-36.8,36.6-31.7,54.3c1.8,6.3,6.8,5.3,22.2,22.1C191.1,327.2,192.4,328.6,193.7,330z"/>
			<g id="Group_1425" transform="translate(0 43.555)">
				
					<linearGradient id="Path_2491_1_" gradientUnits="userSpaceOnUse" x1="-126.9498" y1="558.6008" x2="-127.7458" y2="558.3259" gradientTransform="matrix(108.9556 0 0 -41.2368 14033.9902 23149.6465)">
					<stop  offset="0" style="stop-color:#969FE7"/>
					<stop  offset="1" style="stop-color:#626FDB"/>
				</linearGradient>
				<path id="Path_2491" class="st22" d="M206.8,126.7L206.8,126.7c-12.1,8.3-35.6,10.9-37.9,11.1c-14.8,1.3-29.6-0.7-43.5-5.9h0
					c-7.3-2.8-14.2-6.6-20.5-11.2c1.8-1.8,3.3-4,4.4-6.3c0.5-1.2,1-2.4,1.3-3.7c3.8,1.3,7.7,2.4,11.6,3.3
					c11.2,2.5,34.7,7.7,53.4-3.7C186,103.9,188,96.7,195.6,97c9.3,0.4,19.4,11.6,18.1,20.3C213.2,121,210.6,124.1,206.8,126.7z"/>
				
					<linearGradient id="Path_2492_1_" gradientUnits="userSpaceOnUse" x1="-37.2907" y1="510.7325" x2="-38.2507" y2="511.2174" gradientTransform="matrix(21.2642 0 0 -17.8372 2643.551 9964.2969)">
					<stop  offset="0" style="stop-color:#FFE8E0"/>
					<stop  offset="1" style="stop-color:#FFB5AA"/>
				</linearGradient>
				<path id="Path_2492" class="st23" d="M104.9,120.7c-0.1-0.1-0.3-0.2-0.4-0.3c-0.6-0.4-1.1-0.9-1.7-1.3
					c-7.6-6.1-14.7-13.9-13.4-15.8c1.1-1.7,7.2,2.2,17.5,6.1c1.2,0.4,2.4,0.9,3.6,1.3c-0.3,1.3-0.7,2.5-1.3,3.7
					C108.2,116.7,106.7,118.8,104.9,120.7z"/>
			</g>
			
				<linearGradient id="Path_2493_1_" gradientUnits="userSpaceOnUse" x1="-108.9568" y1="590.9858" x2="-109.9568" y2="590.9858" gradientTransform="matrix(10.3252 0 0 -12.2742 1315.7383 7620.6191)">
				<stop  offset="0" style="stop-color:#FFE8E0"/>
				<stop  offset="1" style="stop-color:#FFB5AA"/>
			</linearGradient>
			<path id="Path_2493" class="st24" d="M188.8,372.9c-2.1,0.3-5.1-3.8-8.4-10.1c3.5-0.2,6.9-1,10.2-2.1
				C190.9,368.1,190.8,372.5,188.8,372.9z"/>
			
				<linearGradient id="Path_2494_1_" gradientUnits="userSpaceOnUse" x1="-126.1007" y1="605.6136" x2="-125.3897" y2="605.4866" gradientTransform="matrix(56.6509 0 0 -155.417 7308.6182 94396.7266)">
				<stop  offset="0" style="stop-color:#002A5E"/>
				<stop  offset="1" style="stop-color:#2541A3"/>
			</linearGradient>
			<path id="Path_2494" class="st25" d="M196.9,294.1c-7.1,24.5-6.8,46.4-6.4,60.9c0.1,2,0.1,3.9,0.2,5.6c-3.3,1.2-6.7,1.9-10.2,2.1
				c-0.7-1.3-1.3-2.7-2-4.2c-3.6-8.2-6.7-16.6-9-25.2c-11.1-40.9-2-72.4,5.3-96.5c8.5-28,14.8-29.2,16.6-29.4
				c13-1.4,27.1,31.4,29.6,37.4C210.2,259.8,202.1,276.5,196.9,294.1z"/>
			
				<linearGradient id="Path_2495_1_" gradientUnits="userSpaceOnUse" x1="-105.2247" y1="604.0821" x2="-104.2247" y2="604.0821" gradientTransform="matrix(8.3301 0 0 -71.6062 969.9855 43412.4258)">
				<stop  offset="0" style="stop-color:#FFFFFF"/>
				<stop  offset="1" style="stop-color:#D0E1EB"/>
			</linearGradient>
			<path id="Path_2495" class="st26" d="M94.8,120.6c0.2,2.3,6.5,22,6.5,22l0.5,49.6l-8.3-24.1L94.8,120.6z"/>
			
				<linearGradient id="Path_2496_1_" gradientUnits="userSpaceOnUse" x1="-126.7098" y1="605.0318" x2="-125.7098" y2="605.0318" gradientTransform="matrix(67.897 0 0 -110.2559 8764.0996 66902.4063)">
				<stop  offset="0" style="stop-color:#969FE7"/>
				<stop  offset="0.833" style="stop-color:#626FDB"/>
			</linearGradient>
			<path id="Path_2496" class="st27" d="M211.5,142.9c-6.7-3.9-17-5.2-24.7-2.3c-10.5,4-12.7,14.4-14.6,24
				c-3.6,18.9,4.3,21.2,2.4,37.5c-2.7,22.5-19.6,33.5-11.5,41.6c4.6,4.6,14.3,5.3,16.6,5.4c9.8,0.6,12.9-3.4,26.4-3.9
				c9.4-0.4,11.1,1.5,14.9,0c5.9-2.3,7.8-9.1,7.8-26.1c0-12.4-1-22-6.1-50.2C219.7,152.6,218.4,146.9,211.5,142.9z"/>
			
				<linearGradient id="Path_657-3_1_" gradientUnits="userSpaceOnUse" x1="-123.8276" y1="600.8718" x2="-122.8276" y2="600.8718" gradientTransform="matrix(34.6543 0 0 -32.7729 4459.3882 20072.8516)">
				<stop  offset="0" style="stop-color:#002A5E"/>
				<stop  offset="1" style="stop-color:#2541A3"/>
			</linearGradient>
			<path id="Path_657-3" class="st28" d="M201.7,386.3c0,0-27.9,12.1-32.4,10.4s6.1-5.4,11.4-10.8s2.2-18.3,2.2-18.3s8-4.1,8.4-3.5
				S207.2,384.3,201.7,386.3z"/>
			
				<linearGradient id="Path_657-4_1_" gradientUnits="userSpaceOnUse" x1="-121.7657" y1="602.2133" x2="-121.7657" y2="601.2133" gradientTransform="matrix(27.3877 0 0 -38.2036 3545.2507 23346.5117)">
				<stop  offset="0" style="stop-color:#002A5E"/>
				<stop  offset="1" style="stop-color:#2541A3"/>
			</linearGradient>
			<path id="Path_657-4" class="st29" d="M223.8,353.1c0,0-15.8,24-20.6,24.9s1.8-7.6,2.9-14.7s-9.4-16.4-9.4-16.4s4.1-7.4,4.9-7.1
				S227.1,348.6,223.8,353.1z"/>
			
				<linearGradient id="Ellipse_640_1_" gradientUnits="userSpaceOnUse" x1="-121.8558" y1="600.7962" x2="-122.7988" y2="600.9622" gradientTransform="matrix(29.692 0 0 -32.83 3823.8457 19845.127)">
				<stop  offset="0" style="stop-color:#FFE8E0"/>
				<stop  offset="1" style="stop-color:#FFB5AA"/>
			</linearGradient>
			<ellipse id="Ellipse_640" class="st30" cx="191.2" cy="118.2" rx="14.8" ry="16.4"/>
			<g id="Group_1426" transform="translate(0.954 43.541)">
				
					<linearGradient id="Path_2497_1_" gradientUnits="userSpaceOnUse" x1="-128.6903" y1="559.4443" x2="-127.7753" y2="560.1053" gradientTransform="matrix(104.9829 0 0 -57.4976 13620.5303 32317.2246)">
					<stop  offset="0" style="stop-color:#969FE7"/>
					<stop  offset="1" style="stop-color:#626FDB"/>
				</linearGradient>
				<path id="Path_2497" class="st31" d="M206.7,124.4c-9.4,11.1-29,20.4-31,21.4c-4.2,2-34,15.3-66.5,4.6c-0.8-0.3-1.7-0.6-2.5-0.9
					c0.4-1.8,0.7-3.6,0.7-5.5c0-1.7-0.1-3.3-0.4-4.9c5.6,0.3,11.3,0.1,16.9-0.6c0.8-0.1,1.6-0.2,2.5-0.3
					c12.1-1.4,33.8-4.9,46.8-20.7c7.8-9.4,10.5-17.9,17.9-20.1c8.9-2.7,18.9,5.6,20.5,14.2C212.2,115.9,210.1,120.3,206.7,124.4z"/>
				
					<linearGradient id="Path_2498_1_" gradientUnits="userSpaceOnUse" x1="-0.6449" y1="467.2494" x2="-1.5509" y2="467.8564" gradientTransform="matrix(17.9863 0 0 -11.3516 2235.5342 6343.5361)">
					<stop  offset="0" style="stop-color:#FFE8E0"/>
					<stop  offset="1" style="stop-color:#FFB5AA"/>
				</linearGradient>
				<path id="Path_2498" class="st32" d="M106.6,149.4c-1.2-0.4-2.4-0.9-3.5-1.4c-7.7-3.2-14.3-7.1-13.8-9.1
					c0.4-1.7,5.8-0.7,14.5-0.1c1,0.1,2,0.1,3.1,0.2c0.3,1.6,0.4,3.3,0.4,4.9C107.2,145.8,107,147.7,106.6,149.4z"/>
			</g>
			
				<linearGradient id="Path_2499_1_" gradientUnits="userSpaceOnUse" x1="-124.9388" y1="603.707" x2="-126.3528" y2="603.63" gradientTransform="matrix(57.0708 0 0 -62.1133 7369.6846 37623.8164)">
				<stop  offset="0" style="stop-color:#432929"/>
				<stop  offset="1" style="stop-color:#966565"/>
			</linearGradient>
			<path id="Path_2499" class="st33" d="M227.9,145.4c-0.1,3-2.2,6.4-5.5,9.1c0,0,0,0-0.1,0.1c-4.7,3.4-11.2,5.5-17.2,3.9
				c-5.5-1.5-9.9-5.7-11.8-11.1c-0.5-1.6-0.8-3.7,2.9-21.2c1.1-5.3,2-8.9-0.2-10.5c-1-0.8-2.1-0.5-7.1-0.4
				c-5.7,0.1-8.6,0.2-10.8-0.5c-4.6-1.5-8.1-3.3-7.5-7.5c0.2-1.4,1.1-3.1,3.3-4.9c0,0,0.1,0,0.1-0.1c0.4-0.3,0.9-0.6,1.4-0.9
				c4.3-2.7,4.9-3.1,9.4-4.2c4.7-1.1,12.3,1.5,16.8,6.7c5.1,5.9,4.3,9.7,7.3,17.7C214.7,136.1,228.1,137.1,227.9,145.4z"/>
		</g>
		<g id="Group_1441" transform="translate(3258.444 6497.017)">
			
				<linearGradient id="Ellipse_149_1_" gradientUnits="userSpaceOnUse" x1="-409.1698" y1="642.0613" x2="-409.1698" y2="641.0613" gradientTransform="matrix(81.13 0 0 -81.13 33325.7969 52187.3867)">
				<stop  offset="0" style="stop-color:#FF9520"/>
				<stop  offset="0.3366" style="stop-color:#FF9821"/>
				<stop  offset="0.5734" style="stop-color:#FFA126"/>
				<stop  offset="0.7796" style="stop-color:#FFB12D"/>
				<stop  offset="0.9673" style="stop-color:#FFC637"/>
				<stop  offset="1" style="stop-color:#FFCB39"/>
			</linearGradient>
			<circle id="Ellipse_149" class="st34" cx="129.9" cy="137.5" r="40.6"/>
			<path id="Path_347" class="st3" d="M146.4,120.8l-4.8,0v-1.7h-24.1v1.7h-4.7c-0.8,0-1.5,0.7-1.5,1.5v6.4c-0.1,2.7,3.5,5.2,6.1,6
				v0.2c0,5,2.9,9.4,7.5,11.3c0.7,0.3,1.1,1,1.1,1.7c0,0.8-0.5,1.5-1.2,1.7c-3,1.1-5.5,3.2-7.1,5.9h3.9c1.9-2.4,4.8-3.8,7.9-3.7
				c3.1-0.1,6,1.3,7.9,3.7h3.8c-1.6-2.7-4.1-4.8-7.1-5.9c-0.7-0.3-1.2-1-1.2-1.7c0-0.7,0.4-1.4,1.1-1.7c4.6-1.9,7.6-6.4,7.5-11.3
				v-0.2c2.6-0.7,6.3-3.2,6.2-6v-6.4C147.8,121.5,147.2,120.8,146.4,120.8L146.4,120.8L146.4,120.8z M117.5,131.5
				c0,0-3.6-1.9-3.6-3.2v-4.2c0-0.4,0.4-0.8,0.8-0.8h2.2c0.4,0,0.7,0.3,0.7,0.7c0,0,0,0,0,0L117.5,131.5z M138.7,134.8
				c0,5-4.1,9.2-9.1,9.2c-5,0-9.1-4.1-9.1-9.2v-11.3c0-0.9,0.7-1.6,1.5-1.6h15.1c0.9,0,1.6,0.7,1.5,1.6c0,0,0,0,0,0L138.7,134.8
				L138.7,134.8z M145.3,128.4c0,1.3-2.6,2.5-3.7,3.2V124c0-0.4,0.3-0.7,0.7-0.7h2.2c0.4,0,0.8,0.3,0.8,0.8l0,0V128.4L145.3,128.4z"
				/>
		</g>
	</g>
</g>
</svg>
