<?xml version="1.0" encoding="utf-8"?>
<!-- Generator: Adobe Illustrator 23.0.3, SVG Export Plug-In . SVG Version: 6.00 Build 0)  -->
<svg version="1.1" id="Layer_1" xmlns="http://www.w3.org/2000/svg" xmlns:xlink="http://www.w3.org/1999/xlink" x="0px" y="0px"
	 viewBox="0 0 716.2 454.9" style="enable-background:new 0 0 716.2 454.9;" xml:space="preserve">
<style type="text/css">
	.st0{fill:#FFCB80;}
	.st1{fill:#F7DA7C;}
	.st2{fill:#F6B854;}
	.st3{fill:#FFFFFF;}
	.st4{fill:#F9F5ED;}
	.st5{fill:#FFD194;}
	.st6{fill:url(#Path_626-2_1_);}
	.st7{fill:url(#Path_628_1_);}
	.st8{fill:url(#Path_630_1_);}
	.st9{fill:url(#Path_632_1_);}
	.st10{fill:url(#Path_635_1_);}
	.st11{fill:url(#Path_637_1_);}
	.st12{fill:#FAEED4;}
	.st13{fill:url(#Rectangle_566_1_);}
	.st14{fill:url(#Rectangle_567_1_);}
	.st15{fill:url(#Rectangle_568_1_);}
	.st16{fill:url(#Ellipse_149_1_);}
	.st17{fill:url(#Path_2330_1_);}
	.st18{fill:url(#Path_2331_1_);}
	.st19{fill:url(#Path_2332_1_);}
	.st20{fill:url(#Path_2333_1_);}
	.st21{fill:url(#Path_2334_1_);}
	.st22{fill:url(#Path_2335_1_);}
	.st23{fill:url(#Path_2336_1_);}
	.st24{fill:url(#Ellipse_618_1_);}
	.st25{fill:url(#Path_2337_1_);}
	.st26{fill:url(#Path_2339_1_);}
	.st27{fill:url(#Path_2340_1_);}
	.st28{fill:url(#Path_2322_1_);}
	.st29{fill:url(#Path_2323_1_);}
	.st30{fill:url(#Path_2324_1_);}
	.st31{fill:url(#Path_2325_1_);}
	.st32{fill:url(#Path_2326_1_);}
	.st33{fill:url(#Path_2327_1_);}
	.st34{fill:url(#Path_2328_1_);}
	.st35{fill:url(#Path_2329_1_);}
	.st36{fill:url(#Path_2338_1_);}
	.st37{fill:url(#Path_2341_1_);}
	.st38{fill:url(#Path_2342_1_);}
	.st39{fill:url(#Ellipse_619_1_);}
	.st40{fill:url(#Path_2343_1_);}
</style>
<g>
	<path class="st0" d="M693.7,394.6c-4.2,5.2-9.4,9.6-15.4,12.5c-7.3,3.4-14.2,2.2-21.7,3.7c-16.5,3.2-24,26.2-40.7,28.2
		c-6.9,0.8-13.6-2.3-20.2-4.4c-7.6-2.5-15.6-3.7-23.6-3.7c4.5-12.7,8.9-25.5,13.4-38.2c2.4-6.8,5.2-14.1,11.4-17.6
		c13.1-7.5,31,6.7,44-0.9c7.3-4.3,10-13.7,18.2-17c8.5-3.5,19-2.7,27.9-2.6c8.1,0.1,16.2-1.2,24.2-2.5c-2.6,10.8-5.3,21.6-10.2,31.5
		C698.8,387.4,696.4,391.2,693.7,394.6z"/>
	<g>
		<path class="st1" d="M702.1,359.3c-9,7.2-18.5,14-28.1,20.3c-9.7,6.3-19.5,12.5-29.5,18.3c-10,5.8-20.1,11.4-30.5,16.6
			c-10.4,5.2-20.9,9.9-31.7,14.4c-10.7,4.4-21.5,8.4-32.6,12c-1.4,0.4-2.7,0.9-4.1,1.3c-1.1,0.3-1.6-1.4-0.5-1.7
			c11-3.6,21.8-7.4,32.5-11.6c10.8-4.2,21.4-8.8,31.9-13.8c10.4-4.9,20.7-10.1,30.8-15.7c10.1-5.6,19.9-11.6,29.5-18
			c9.5-6.5,18.9-13.2,28.1-20.2c1.1-0.9,2.3-1.7,3.5-2.6C702,358.1,702.6,358.9,702.1,359.3z"/>
		<path class="st1" d="M684.6,382.5c-0.3-0.7,0-1.4,0.6-1.9c1-0.8,2.3-1.2,3.4-1.8c1.1-0.6,2.1-1.1,3.1-1.7c2.2-1.2,4.3-2.4,6.6-3.5
			c1.1-0.5,2,0.9,1,1.6c-2.1,1.4-4.2,2.7-6.3,4.1c-1,0.7-2.1,1.3-3.1,2c-1.1,0.7-2.1,1.6-3.4,2.1
			C685.7,383.6,684.9,383.1,684.6,382.5z"/>
		<path class="st1" d="M684.5,389.1c-0.2-0.4-0.1-0.8,0.3-1c0.6-0.4,1.1-0.8,1.8-1.1c0.3-0.2,0.6-0.3,0.9-0.5
			c0.2-0.1,0.3-0.2,0.5-0.2c0.1-0.1,0.2-0.1,0.3-0.1c0.1,0,0.2,0,0.2,0.1c0,0,0.1,0,0.1,0c0.1,0,0.2,0.1,0.1,0.2
			c0,0-0.1,0.1-0.1,0.1c0,0.1,0,0.1,0,0.2c0,0.1-0.1,0.2-0.2,0.3c-0.1,0.1-0.3,0.3-0.4,0.4c-0.3,0.2-0.5,0.5-0.8,0.7
			c-0.6,0.5-1.1,1-1.8,1.5C685.2,389.6,684.6,389.4,684.5,389.1z"/>
		<path class="st1" d="M662.8,397c-0.2-0.5,0.2-1.2,0.7-1.3c1.5-0.4,3-0.8,4.5-1.4c1.4-0.6,2.8-1.3,4.1-2.1c1-0.6,1.9,0.9,0.9,1.5
			c-1.4,0.9-2.8,1.7-4.3,2.4c-1.5,0.7-3.1,1.3-4.7,1.6C663.5,397.8,663,397.6,662.8,397z"/>
		<path class="st1" d="M674.6,399.7c-0.1-0.5,0.2-0.9,0.6-1.1c2-0.8,4-1.5,6-2.3c0.4-0.2,0.9,0.2,1.1,0.6c0.1,0.5-0.1,0.9-0.6,1.1
			c-2,0.8-4,1.6-6,2.4C675.3,400.4,674.7,400.1,674.6,399.7z"/>
		<path class="st1" d="M665.5,376.6c-3.6,1.8-7.3,3.4-10.7,5.4c-1.5,0.8-2.5-1.6-0.9-2.1c3.8-1.2,7.5-2.9,11.2-4.4
			C665.7,375.2,666.2,376.3,665.5,376.6z"/>
		<path class="st1" d="M676.4,365.7c0.9-0.9,1.9-1.6,3.1-2.1c1.1-0.5,2.4-0.6,3.5-0.7c0.3,0,0.6,0.3,0.6,0.6c0,0.4-0.3,0.6-0.6,0.6
			c-1,0.2-2,0.5-2.9,1c-1,0.5-1.8,1.1-2.5,1.8C676.9,367.7,675.7,366.6,676.4,365.7z"/>
		<path class="st1" d="M668.4,362.7c0.3,0.5,0.1,1-0.3,1.3c-1.8,1.2-3.5,2.4-5.4,3.5c-0.5,0.3-1.2,0.1-1.4-0.3
			c-0.3-0.5-0.1-1.1,0.3-1.4c1.8-1.2,3.7-2.2,5.5-3.3C667.6,362.2,668.2,362.3,668.4,362.7z"/>
		<path class="st1" d="M639.9,384.4c-4.8,2.4-9.6,5-14.4,7.4c-0.9,0.4-1.9,0.2-2.3-0.7c-0.4-1,0.1-1.8,1-2.2
			c4.9-2.2,10-4.1,14.9-6.3C640.2,382.1,641,383.9,639.9,384.4z"/>
		<path class="st1" d="M620.6,385.3c0.1,0.5-0.1,1-0.6,1.2c-1.8,0.8-3.6,1.5-5.5,2.3c-0.5,0.2-1.1-0.2-1.2-0.7
			c-0.1-0.6,0.2-1,0.7-1.2c1.8-0.7,3.7-1.5,5.5-2.2C619.8,384.5,620.4,384.9,620.6,385.3z"/>
		<path class="st1" d="M608.7,382.6c0.2,0.4,0.1,0.9-0.3,1.1c-1.1,0.6-2.2,1.2-3.3,1.7c-0.4,0.2-0.9,0.1-1.1-0.3
			c-0.2-0.4-0.1-0.9,0.3-1.1c1.1-0.6,2.2-1.1,3.3-1.7C608,382.2,608.5,382.2,608.7,382.6z"/>
		<path class="st1" d="M607.1,401.4c-3.6,1.6-7.2,3.3-11,4.7c-0.7,0.2-1.5-0.2-1.6-0.9c-0.2-0.7,0.2-1.4,0.9-1.6
			c3.6-1.4,7.3-2.5,11-3.7C607.4,399.6,608,401,607.1,401.4z"/>
		<path class="st1" d="M593.6,396.7c0.2,0.4,0.1,0.9-0.3,1.1c-0.7,0.4-1.5,0.8-2.2,1.1c-0.2,0.1-0.4,0.2-0.6,0.1
			c-0.2-0.1-0.4-0.2-0.5-0.4c-0.1-0.2-0.2-0.4-0.1-0.6c0.1-0.2,0.2-0.4,0.4-0.5c0.7-0.4,1.5-0.7,2.2-1.1c0.2-0.1,0.4-0.2,0.6-0.1
			C593.3,396.4,593.5,396.5,593.6,396.7z"/>
		<path class="st1" d="M582.8,415.9c0,0.1,0.1,0.1,0.1,0.2c0.1,0.1,0.1,0.3,0.1,0.4c0,0.1,0,0.1,0,0.2c0,0.1-0.1,0.3-0.2,0.4
			c-0.2,0.2-0.4,0.4-0.5,0.6c-0.1,0.1-0.2,0.1-0.3,0.2c-0.1,0.1-0.2,0.1-0.3,0.1c-0.1,0-0.2,0-0.3-0.1c-0.1,0-0.2-0.1-0.3-0.2
			c0-0.1-0.1-0.1-0.1-0.2c-0.1-0.1-0.1-0.3-0.1-0.4c0-0.1,0-0.1,0-0.2c0-0.1,0.1-0.3,0.2-0.4c0.2-0.2,0.4-0.4,0.5-0.6
			c0.1-0.1,0.2-0.1,0.3-0.2c0.1-0.1,0.2-0.1,0.3-0.1c0.1,0,0.2,0,0.3,0.1C582.6,415.8,582.7,415.9,582.8,415.9z"/>
		<path class="st1" d="M621.2,399.8c0.1,0.3,0,0.7-0.3,0.9c-1.3,0.7-2.6,1.4-3.9,2.1c-0.5,0.3-1.1,0.1-1.3-0.4
			c-0.1-0.2-0.1-0.5,0-0.7c0.1-0.3,0.3-0.4,0.6-0.5c1.3-0.6,2.7-1.1,4.1-1.7C620.7,399.3,621,399.5,621.2,399.8z"/>
		<path class="st1" d="M624,418.1c-0.3-0.6-0.2-1.5,0.4-1.8c0.9-0.5,1.9-0.8,2.9-1.2c0.9-0.4,1.8-0.8,2.7-1.3
			c1.9-0.9,3.7-1.8,5.5-2.7c0.9-0.4,1.7,0.8,0.8,1.3c-1.8,1-3.6,2-5.4,3c-0.9,0.5-1.8,1-2.6,1.6c-0.9,0.5-1.7,1.1-2.6,1.6
			C625.2,418.9,624.4,418.7,624,418.1z"/>
		<path class="st1" d="M623.4,426.5c-0.1-0.4,0.1-1,0.6-1.1c0.9-0.2,1.8-0.4,2.7-0.6c0.2-0.1,0.5,0,0.7,0.1c0.2,0.1,0.4,0.3,0.4,0.5
			c0.1,0.4-0.1,1-0.6,1.1c-0.9,0.2-1.8,0.4-2.7,0.6c-0.2,0.1-0.5,0-0.7-0.1C623.6,426.9,623.4,426.7,623.4,426.5z"/>
		<path class="st1" d="M604.8,429.6c-0.1-0.4,0.1-0.9,0.6-1c1.9-0.4,3.7-1.3,5.1-2.7c0.3-0.3,0.7-0.3,1,0c0.3,0.3,0.3,0.8,0,1
			c-1.6,1.6-3.5,2.7-5.7,3.2C605.4,430.3,604.9,430,604.8,429.6z"/>
		<path class="st1" d="M612.8,433c0-0.7,1.1-0.7,1.1,0C613.9,433.7,612.8,433.7,612.8,433z"/>
		<path class="st1" d="M644.8,405.1c-0.2-0.6,0.2-1.2,0.7-1.3c2.6-0.9,5.2-1.7,7.7-2.6c0.5-0.2,1,0.2,1.2,0.6c0.2,0.5-0.2,1-0.6,1.2
			c-2.6,1-5.1,1.9-7.7,2.9C645.6,406,644.9,405.6,644.8,405.1z"/>
		<path class="st1" d="M661.8,404.6c-0.1-0.1-0.1-0.1-0.2-0.2c0-0.1-0.1-0.2-0.1-0.3c0-0.1,0-0.1,0-0.2c0-0.1,0.1-0.2,0.2-0.3
			c0,0,0.1-0.1,0.1-0.1c0.1-0.1,0.2-0.1,0.4-0.1c0.2,0,0.4,0,0.6,0c0.1,0,0.2,0,0.3,0.1c0.1,0,0.2,0.1,0.2,0.1
			c0.1,0.1,0.1,0.1,0.2,0.2c0,0.1,0.1,0.2,0.1,0.3c0,0.1,0,0.1,0,0.2c0,0.1-0.1,0.2-0.2,0.3c0,0-0.1,0.1-0.1,0.1
			c-0.1,0.1-0.2,0.1-0.4,0.1c-0.2,0-0.4,0-0.6,0c-0.1,0-0.2,0-0.3-0.1C662,404.7,661.9,404.7,661.8,404.6z"/>
	</g>
</g>
<g>
	<path class="st2" d="M115.6,375.6c2.3-14.9,2.8-31.7-6.6-43.5c-1.8-2.2-4-4.2-6.7-4.8c-4.4-0.9-8.7,2.4-10.5,6.5
		c-1.8,4.1-1.6,8.7-1.1,13.1c1,10.3,2.9,20.6,5.7,30.5c0.8,3,1.7,6.2,0.4,9c-1.8,3.8-7.4,4.7-11.1,2.6c-3.7-2.1-5.9-6.1-7.2-10.1
		c-4.6-14.1-1.4-29.5,1-44.1c2.4-14.7,3.6-30.8-4.3-43.4c-3-4.7-9-8.9-13.7-6.1c-2,1.2-3.2,3.5-4.1,5.7c-10,24.4-0.4,51.7,3.6,77.8
		c0.3,1.9,0.5,4-0.6,5.5c-1.6,2.3-5.2,2.1-7.8,0.9c-6-2.8-9.6-9.3-10.9-15.8c-1.3-6.5-0.6-13.2-0.2-19.8
		c1.6-24.7-1.3-51.9-18.9-69.3c-4.3-4.2-10.6-7.8-16-5.3c-5.4,2.6-6.6,9.7-6.5,15.7c0.4,15.8,5.3,31.1,11.5,45.7
		c11.2,26.4,26.6,50.9,45.6,72.3c7.4,8.4,15.5,16.4,21.4,25.9c4,6.4,7.6,14,14.5,17c5.8,2.6,13.2,1,17.5-3.6
		c6.8-7.4,3-18.3,2.2-27.1C111.6,399,113.8,387.4,115.6,375.6z"/>
	<g>
		<path class="st3" d="M16,275.4c1.1-0.4,1.7,1.3,0.6,1.7C15.5,277.5,14.9,275.8,16,275.4z"/>
		<path class="st3" d="M41.7,329.9c-0.1,0-0.2,0-0.2-0.1c-0.2-0.1-0.4-0.2-0.5-0.4c-0.2-0.1-0.3-0.3-0.3-0.5l-0.1-0.4
			c0-0.3,0-0.5,0.2-0.8c0.1-0.1,0.1-0.2,0.2-0.3c0.2-0.2,0.4-0.4,0.7-0.5l0.1,0C41.8,327.8,41.8,328.8,41.7,329.9z"/>
		<path class="st3" d="M41,345.3c0,0.5-0.1,0.9-0.1,1.4C40.7,346.3,40.6,345.7,41,345.3z"/>
		<path class="st3" d="M90.9,433.1c-1.4,0.5-2.2-1.7-0.8-2.2C91.6,430.4,92.3,432.6,90.9,433.1z"/>
		<path class="st3" d="M71.6,385.4c-1.4,0.5-2.2-1.7-0.8-2.2C72.2,382.7,73,384.9,71.6,385.4z"/>
		<path class="st3" d="M56.6,297.9c-0.6,0.2-1.1,0-1.4-0.3c0.2-0.8,0.5-1.6,0.7-2.4C57.5,294.9,58.2,297.3,56.6,297.9z"/>
		<path class="st3" d="M53.4,393.4c1.5-0.5,2.4,1.7,1,2.4c-0.6-0.6-1.1-1.3-1.7-1.9C53,393.7,53.2,393.5,53.4,393.4z"/>
		<path class="st3" d="M77.4,297.4c-1.8,0.7-2.9-2.2-1-2.9c0.2-0.1,0.3-0.1,0.4-0.1c0.4,0.8,0.8,1.7,1.2,2.6
			C77.8,297.2,77.6,297.3,77.4,297.4z"/>
		<path class="st3" d="M68.8,315.7c0.2-0.1,0.4-0.1,0.6-0.1c0.2,0,0.4,0,0.6,0.1c0.2,0.1,0.3,0.2,0.5,0.4c0.1,0.1,0.3,0.3,0.3,0.5
			c0,0.1,0.1,0.3,0.1,0.4c0,0.3,0,0.5-0.1,0.8c-0.1,0.1-0.1,0.2-0.2,0.3c-0.2,0.2-0.4,0.4-0.6,0.4c-0.3,0.1-0.5,0.2-0.8,0.2
			c-0.2,0.1-0.4,0.1-0.6,0.1c-0.2,0-0.4,0-0.6-0.1c-0.2-0.1-0.3-0.2-0.4-0.3c-0.1-0.1-0.3-0.3-0.3-0.5c0-0.1-0.1-0.3-0.1-0.4
			c0-0.3,0-0.5,0.1-0.7c0.1-0.1,0.1-0.2,0.2-0.3c0.2-0.2,0.4-0.4,0.6-0.4C68.3,315.9,68.5,315.8,68.8,315.7z"/>
		<path class="st3" d="M34.1,293.4c-0.2,0-0.3,0.1-0.5,0.1c-0.9,0.4-1.6-0.2-1.8-0.9c-0.3-0.7-0.1-1.6,0.9-1.9
			c0.2-0.1,0.3-0.1,0.5-0.2C34.9,289.8,35.9,292.9,34.1,293.4z"/>
		<path class="st3" d="M89.7,410.7c-1.2,0.4-1.8-1.4-0.7-1.8C90.3,408.4,90.9,410.3,89.7,410.7z"/>
		<path class="st3" d="M93.7,346.1c-1.8,0.6-2.7-2.1-1-2.7C94.5,342.7,95.5,345.4,93.7,346.1z"/>
		<path class="st3" d="M16.7,325.1c1.6-0.5,2.4,1.9,0.9,2.4C16,328,15.2,325.6,16.7,325.1z"/>
		<path class="st3" d="M66.6,409.4c-0.4-0.5-0.9-1-1.3-1.4C66.3,407.6,66.9,408.6,66.6,409.4z"/>
		<path class="st3" d="M6.8,298.2c0.3,0,0.5,0,0.8,0.1c0.1,0.1,0.2,0.1,0.3,0.2c0.2,0.2,0.4,0.4,0.5,0.7c0.1,0.3,0.2,0.5,0.2,0.8
			c0.1,0.2,0.1,0.4,0.1,0.6c0,0.2,0,0.4-0.1,0.6c-0.1,0.2-0.2,0.3-0.4,0.5c-0.1,0.2-0.3,0.3-0.5,0.3c-0.1,0-0.3,0.1-0.4,0.1
			c-0.3,0-0.5,0-0.8-0.1c-0.1-0.1-0.2-0.1-0.3-0.2c-0.2-0.2-0.4-0.4-0.5-0.7c-0.1-0.2-0.2-0.5-0.3-0.7c-0.1-0.2-0.1-0.4-0.1-0.6
			c0-0.2,0-0.4,0.1-0.6c0.1-0.2,0.2-0.3,0.4-0.5c0.1-0.2,0.3-0.3,0.5-0.3C6.6,298.2,6.7,298.2,6.8,298.2z"/>
		<path class="st3" d="M35.4,370.7c-0.3-0.4-0.6-0.9-0.9-1.3C35.2,369.5,35.5,370.2,35.4,370.7z"/>
		<path class="st3" d="M15.3,311.5c-1.6,0.5-2.4-1.9-0.9-2.4C16,308.6,16.9,311,15.3,311.5z"/>
		<path class="st3" d="M113.1,384.2c-1.4,0.5-2.2-1.7-0.8-2.2C113.7,381.5,114.5,383.7,113.1,384.2z"/>
		<path class="st3" d="M93.5,331.3c-0.1,0-0.1,0-0.2,0c0.2-0.3,0.5-0.6,0.7-0.8C94.1,330.8,93.9,331.1,93.5,331.3z"/>
		<path class="st3" d="M71.1,343.8c-1.5,0.5-2.3-1.8-0.8-2.3C71.8,340.9,72.6,343.2,71.1,343.8z"/>
		<path class="st3" d="M116.3,370.9c-0.1,0.1-0.2,0.1-0.3,0.2c-1,0.4-1.6-1.3-0.6-1.6c0.4-0.2,0.8,0.1,1,0.4
			C116.4,370.2,116.3,370.6,116.3,370.9z"/>
		<path class="st3" d="M99.6,386.4c-1.4,0.5-2.2-1.7-0.8-2.2C100.2,383.7,101,385.9,99.6,386.4z"/>
		<path class="st3" d="M92.3,391.9c-1.2,0.4-2.1-0.7-2-1.7c1,0,1.9-0.2,2.8-0.5C93.5,390.5,93.4,391.6,92.3,391.9z"/>
	</g>
</g>
<g>
	<path class="st2" d="M714.5,255.8c-2.1,10.7-6.1,20.9-12.7,29.5c-7.9,10.4-18.6,13.9-28.3,21.6c-21.2,17.1-14.6,55.6-37,71.1
		c-9.3,6.4-21.1,7-32.2,8.9c-12.8,2.2-25.2,6.5-36.6,12.5c-3.2-21.6-6.5-43.2-9.7-64.7c-1.7-11.4-3.2-24,3-33.8
		c13.1-20.5,49.5-13.8,62.3-34.5c7.3-11.7,4-27.1,13.1-38c9.5-11.3,25.2-18.2,37.9-24.7c11.7-6,22.2-13.9,32.7-21.8
		c4.4,17.4,8.8,34.9,9.2,52.8C716.4,241.6,715.9,248.8,714.5,255.8z"/>
	<g>
		<path class="st1" d="M700,198.8c-7.4,17.1-15.9,33.9-24.9,50.3c-9.1,16.4-18.5,32.5-28.4,48.4c-9.9,15.9-20.2,31.5-31.1,46.7
			c-10.9,15.2-22.5,30-34.5,44.4c-12,14.4-24.5,28.3-37.5,41.7c-1.6,1.7-3.3,3.3-4.9,5c-1.3,1.3-3.3-0.7-2-2.1
			c13-13.4,25.6-27.1,37.8-41.2c12.3-14.2,24-28.8,35.3-43.8c11.2-14.9,22.1-30.1,32.2-45.7c10.2-15.6,19.8-31.6,28.6-48.1
			c8.8-16.5,17.1-33.1,25-50c1-2.1,2-4.2,3-6.3C698.9,197.3,700.3,197.9,700,198.8z"/>
		<path class="st1" d="M692.5,245.2c-1-0.8-1.1-2-0.6-3.1c0.8-1.9,2.3-3.5,3.5-5.2c1.1-1.6,2.2-3.2,3.2-4.8c2.2-3.3,4.4-6.7,6.8-9.9
			c1.1-1.5,3.5-0.2,2.6,1.5c-1.9,3.6-3.9,7.1-6,10.6c-1,1.7-2,3.4-3,5.2c-1,1.9-1.9,3.9-3.3,5.5C694.9,246,693.3,245.9,692.5,245.2z
			"/>
		<path class="st1" d="M697.2,254.8c-0.6-0.4-0.7-1.1-0.4-1.7c0.5-1,1-2,1.7-3c0.3-0.5,0.6-0.9,0.9-1.4c0.2-0.2,0.3-0.5,0.5-0.7
			c0.1-0.2,0.2-0.3,0.4-0.4c0.1-0.1,0.2-0.1,0.4-0.1c0.1-0.1,0.1-0.1,0.2-0.2c0.1-0.1,0.3,0,0.3,0.1c0,0.1,0,0.1,0,0.2
			c0.1,0.1,0.1,0.2,0.1,0.3c0.1,0.2,0,0.3,0,0.5c-0.1,0.3-0.2,0.6-0.3,0.8c-0.2,0.5-0.4,1.1-0.5,1.6c-0.4,1.2-0.9,2.3-1.4,3.4
			C698.6,254.9,697.7,255.1,697.2,254.8z"/>
		<path class="st1" d="M672.1,282.4c-0.6-0.7-0.7-1.8,0-2.5c1.9-1.7,3.7-3.5,5.4-5.4c1.6-1.9,3.1-4,4.3-6.1c1-1.6,3.4-0.2,2.5,1.5
			c-1.2,2.3-2.7,4.5-4.3,6.6c-1.7,2.1-3.4,4.2-5.5,5.9C673.8,283.1,672.8,283.1,672.1,282.4z"/>
		<path class="st1" d="M691,277.4c-0.6-0.6-0.5-1.4,0-2.1c2.2-2.7,4.6-5.2,6.9-7.8c0.5-0.6,1.5-0.5,2,0c0.6,0.6,0.5,1.4,0,2
			c-2.3,2.6-4.5,5.3-6.8,7.9C692.6,278,691.6,277.9,691,277.4z"/>
		<path class="st1" d="M660.7,251.2c-3.8,5.2-7.8,10.3-11.3,15.8c-1.4,2.3-4.8-0.3-2.9-2.3c4.5-4.6,8.5-9.8,12.7-14.7
			C659.8,249.2,661.3,250.3,660.7,251.2z"/>
		<path class="st1" d="M668.1,227.5c0.6-2,1.5-3.8,2.8-5.4c1.2-1.5,2.9-2.7,4.6-3.6c0.5-0.2,1.1-0.1,1.3,0.4c0.3,0.5,0,1-0.4,1.3
			c-1.4,1-2.4,2.2-3.4,3.6c-1,1.4-1.8,3-2.3,4.5C670.2,229.9,667.6,229.2,668.1,227.5z"/>
		<path class="st1" d="M654.4,229.2c0.7,0.5,0.9,1.3,0.5,2.1c-1.7,3-3.2,6.1-5,9.1c-0.5,0.8-1.5,1.1-2.3,0.6c-0.8-0.5-1-1.5-0.6-2.3
			c1.6-3,3.5-5.9,5.3-8.9C652.7,229,653.7,228.7,654.4,229.2z"/>
		<path class="st1" d="M629.9,281.7c-5.1,7.1-10,14.4-15.1,21.4c-0.9,1.3-2.5,1.7-3.8,0.7c-1.3-1-1.2-2.7-0.2-3.9
			c5.4-6.8,11.1-13.4,16.6-20.3C628.5,278.3,631,280.2,629.9,281.7z"/>
		<path class="st1" d="M602.9,297.7c0.6,0.7,0.5,1.5,0,2.2c-2,2.5-4.1,4.9-6.1,7.4c-0.5,0.6-1.7,0.6-2.2,0c-0.6-0.7-0.5-1.5,0-2.2
			c2.1-2.4,4.1-4.9,6.2-7.3C601.3,297,602.4,297.1,602.9,297.7z"/>
		<path class="st1" d="M583.9,302.7c0.5,0.4,0.8,1.2,0.4,1.7c-1.1,1.6-2.2,3.3-3.4,4.9c-0.4,0.6-1.2,0.9-1.8,0.5
			c-0.6-0.4-0.9-1.2-0.5-1.8c1.1-1.6,2.3-3.3,3.4-4.9C582.5,302.6,583.3,302.3,583.9,302.7z"/>
		<path class="st1" d="M595.8,330.8c-4,5-7.9,10.2-12.1,15c-0.8,0.9-2.3,0.8-3,0c-0.9-0.9-0.7-2.2,0-3c4.1-4.7,8.6-9.1,13-13.6
			C594.8,328,596.8,329.5,595.8,330.8z"/>
		<path class="st1" d="M572.9,334.2c0.6,0.4,0.9,1.2,0.5,1.8c-0.8,1.1-1.5,2.2-2.3,3.3c-0.2,0.3-0.5,0.5-0.9,0.6
			c-0.3,0.1-0.7,0-1-0.2c-0.3-0.2-0.6-0.5-0.6-0.9c-0.1-0.3,0-0.7,0.2-1c0.8-1.1,1.5-2.2,2.3-3.2c0.2-0.3,0.5-0.5,0.8-0.6
			C572.2,334,572.6,334.1,572.9,334.2z"/>
		<path class="st1" d="M571.9,370c0.1,0,0.2,0.1,0.3,0.1c0.2,0.1,0.4,0.3,0.5,0.5c0,0.1,0.1,0.2,0.1,0.3c0.1,0.2,0,0.4,0,0.7
			c-0.1,0.4-0.2,0.8-0.4,1.2c0,0.2-0.1,0.3-0.2,0.4c-0.1,0.1-0.2,0.3-0.4,0.3c-0.2,0.1-0.3,0.1-0.5,0.1c-0.2,0-0.3,0-0.5,0
			c-0.1,0-0.2-0.1-0.3-0.1c-0.2-0.1-0.4-0.3-0.5-0.5c0-0.1-0.1-0.2-0.1-0.3c-0.1-0.2,0-0.4,0-0.7c0.1-0.4,0.2-0.8,0.3-1.2
			c0-0.2,0.1-0.3,0.2-0.4c0.1-0.1,0.2-0.3,0.4-0.3c0.2-0.1,0.3-0.1,0.5-0.1C571.6,369.9,571.8,369.9,571.9,370z"/>
		<path class="st1" d="M614.7,317.9c0.4,0.3,0.6,1,0.3,1.4c-1.3,2-2.6,3.9-4,5.9c-0.5,0.7-1.4,1-2.2,0.4c-0.3-0.3-0.5-0.6-0.5-1
			c-0.1-0.5,0.1-0.8,0.4-1.2c1.5-1.8,3-3.7,4.6-5.4C613.6,317.5,614.3,317.6,614.7,317.9z"/>
		<path class="st1" d="M632.6,341.9c-0.9-0.6-1.4-2-0.7-2.9c1-1.4,2.2-2.6,3.2-4c1-1.3,2-2.6,3-3.9c2-2.6,3.9-5.4,5.9-8.1
			c0.9-1.3,3-0.1,2.1,1.3c-1.8,2.8-3.7,5.5-5.4,8.3c-0.9,1.4-1.8,2.8-2.6,4.2c-0.8,1.4-1.6,2.9-2.5,4.3
			C634.9,342.1,633.6,342.5,632.6,341.9z"/>
		<path class="st1" d="M638,354.4c-0.5-0.5-0.6-1.5,0-2c1.2-1,2.3-2,3.5-2.9c0.3-0.3,0.6-0.4,1-0.4c0.3,0,0.8,0.2,1,0.4
			c0.5,0.5,0.6,1.5,0,2c-1.2,1-2.3,2-3.5,2.9c-0.3,0.3-0.6,0.4-1,0.4C638.6,354.8,638.2,354.6,638,354.4z"/>
		<path class="st1" d="M613.7,372.9c-0.5-0.5-0.6-1.4,0-1.9c2.4-2.1,4.2-4.6,5.3-7.6c0.2-0.6,0.8-1,1.5-0.8c0.6,0.2,1,0.9,0.8,1.5
			c-1.1,3.4-3,6.5-5.7,8.9C615.1,373.4,614.2,373.4,613.7,372.9z"/>
		<path class="st1" d="M627.8,371.7c-0.5-1,1-1.8,1.5-0.8C629.8,371.9,628.3,372.7,627.8,371.7z"/>
		<path class="st1" d="M652.5,307.7c-0.7-0.7-0.6-1.8,0-2.5c3-3.2,6.1-6.4,9.1-9.6c0.6-0.6,1.6-0.5,2.1,0c0.6,0.6,0.5,1.5,0,2.1
			c-2.9,3.3-5.9,6.6-8.8,9.9C654.3,308.4,653.1,308.3,652.5,307.7z"/>
		<path class="st1" d="M676.5,294.1c-0.2,0-0.3-0.1-0.4-0.2c-0.1-0.1-0.2-0.2-0.3-0.4c0-0.1-0.1-0.2-0.1-0.3c0-0.2,0-0.4,0-0.6
			c0-0.1,0.1-0.2,0.1-0.3c0.1-0.2,0.3-0.3,0.5-0.4c0.3-0.1,0.5-0.3,0.8-0.4c0.1-0.1,0.3-0.1,0.5-0.1c0.2,0,0.3,0,0.5,0
			c0.2,0,0.3,0.1,0.4,0.2c0.1,0.1,0.2,0.2,0.3,0.4c0,0.1,0.1,0.2,0.1,0.3c0,0.2,0,0.4,0,0.6c0,0.1-0.1,0.2-0.1,0.3
			c-0.1,0.2-0.3,0.3-0.5,0.4c-0.3,0.1-0.5,0.3-0.8,0.4c-0.1,0.1-0.3,0.1-0.5,0.1C676.8,294.1,676.6,294.1,676.5,294.1z"/>
	</g>
</g>
<g id="usaha" transform="translate(-1088 -3625)">
	<ellipse id="Ellipse_600" class="st4" cx="1408.8" cy="4071.8" rx="307" ry="8.1"/>
	<g id="Group_1463" transform="translate(1105 3625)">
		<g id="Group_974" transform="translate(117.83 23.597)">
			<path id="Path_626" class="st5" d="M363.7,26v347.7c0,11.1-6.4,21.2-16.4,26H51.2c-1.2-0.6-2.3-1.2-3.4-1.9
				c-0.5-0.3-1-0.7-1.5-1.1c-7.2-5.4-11.5-13.9-11.5-23V26C34.8,11.7,46,0,59.9,0h278.7C352.5,0,363.7,11.7,363.7,26z"/>
			<linearGradient id="Path_626-2_1_" gradientUnits="userSpaceOnUse" x1="13.7649" y1="218.8536" x2="342.7073" y2="218.8536">
				<stop  offset="0" style="stop-color:#FF9520"/>
				<stop  offset="0.3366" style="stop-color:#FF9821"/>
				<stop  offset="0.5734" style="stop-color:#FFA126"/>
				<stop  offset="0.7796" style="stop-color:#FFB12D"/>
				<stop  offset="0.9673" style="stop-color:#FFC637"/>
				<stop  offset="1" style="stop-color:#FFCB39"/>
			</linearGradient>
			<path id="Path_626-2" class="st6" d="M342.7,45v347.7c0,11.1-6.4,21.2-16.4,26H30.2c-1.2-0.6-2.3-1.2-3.4-1.9
				c-0.5-0.3-1-0.7-1.5-1.1c-7.2-5.4-11.5-13.9-11.5-23V45c0-14.4,11.2-26,25.1-26h278.7C331.5,19,342.7,30.7,342.7,45z"/>
		</g>
		<path id="Path_627" class="st3" d="M435.4,84.2v323.6c-0.1,7.3-6.1,13.1-13.4,13H169.8c-7.3,0.1-13.3-5.7-13.4-13V84.2
			c0-12.9,10.8-23.4,24.2-23.4h230.6C424.6,60.7,435.4,71.2,435.4,84.2z"/>
		<linearGradient id="Path_628_1_" gradientUnits="userSpaceOnUse" x1="104.6065" y1="113.3734" x2="487.0864" y2="113.3734">
			<stop  offset="0" style="stop-color:#FF9520"/>
			<stop  offset="0.3366" style="stop-color:#FF9821"/>
			<stop  offset="0.5734" style="stop-color:#FFA126"/>
			<stop  offset="0.7796" style="stop-color:#FFB12D"/>
			<stop  offset="0.9673" style="stop-color:#FFC637"/>
			<stop  offset="1" style="stop-color:#FFCB39"/>
		</linearGradient>
		<path id="Path_628" class="st7" d="M487.1,170.4H104.6l35.5-100.6c2.9-8.1,10.1-13.5,18.2-13.5h275.1c8.1,0,15.3,5.4,18.2,13.5
			L487.1,170.4z"/>
		<g id="Group_978" transform="translate(132.522 160.833)">
			<linearGradient id="Path_630_1_" gradientUnits="userSpaceOnUse" x1="13.7652" y1="24.3804" x2="56.2603" y2="24.3804">
				<stop  offset="0" style="stop-color:#FF9520"/>
				<stop  offset="0.3366" style="stop-color:#FF9821"/>
				<stop  offset="0.5734" style="stop-color:#FFA126"/>
				<stop  offset="0.7796" style="stop-color:#FFB12D"/>
				<stop  offset="0.9673" style="stop-color:#FFC637"/>
				<stop  offset="1" style="stop-color:#FFCB39"/>
			</linearGradient>
			<path id="Path_630" class="st8" d="M56.3,0v27.9c-0.1,11.6-9.6,21-21.2,20.9c0,0,0,0,0,0c-11.6,0.1-21.2-9.3-21.2-20.9
				c0,0,0,0,0,0V0H56.3z"/>
		</g>
		<g id="Group_980" transform="translate(218.118 160.833)">
			<linearGradient id="Path_632_1_" gradientUnits="userSpaceOnUse" x1="13.7652" y1="24.3804" x2="56.2603" y2="24.3804">
				<stop  offset="0" style="stop-color:#FF9520"/>
				<stop  offset="0.3366" style="stop-color:#FF9821"/>
				<stop  offset="0.5734" style="stop-color:#FFA126"/>
				<stop  offset="0.7796" style="stop-color:#FFB12D"/>
				<stop  offset="0.9673" style="stop-color:#FFC637"/>
				<stop  offset="1" style="stop-color:#FFCB39"/>
			</linearGradient>
			<path id="Path_632" class="st9" d="M56.3,0v27.9c-0.1,11.6-9.6,21-21.2,20.9c0,0,0,0,0,0c-11.6,0.1-21.2-9.3-21.2-20.9
				c0,0,0,0,0,0V0H56.3z"/>
		</g>
		<g id="Group_981" transform="translate(303.714 160.833)">
			<linearGradient id="Path_635_1_" gradientUnits="userSpaceOnUse" x1="13.7654" y1="24.3715" x2="56.2832" y2="24.3715">
				<stop  offset="0" style="stop-color:#FF9520"/>
				<stop  offset="0.3366" style="stop-color:#FF9821"/>
				<stop  offset="0.5734" style="stop-color:#FFA126"/>
				<stop  offset="0.7796" style="stop-color:#FFB12D"/>
				<stop  offset="0.9673" style="stop-color:#FFC637"/>
				<stop  offset="1" style="stop-color:#FFCB39"/>
			</linearGradient>
			<path id="Path_635" class="st10" d="M56.3,0v27.9c-0.1,11.6-9.6,21-21.3,20.9c-11.6,0.1-21.1-9.3-21.2-20.9V0H56.3z"/>
		</g>
		<g id="Group_983" transform="translate(389.333 160.833)">
			<linearGradient id="Path_637_1_" gradientUnits="userSpaceOnUse" x1="13.7652" y1="24.3804" x2="56.2603" y2="24.3804">
				<stop  offset="0" style="stop-color:#FF9520"/>
				<stop  offset="0.3366" style="stop-color:#FF9821"/>
				<stop  offset="0.5734" style="stop-color:#FFA126"/>
				<stop  offset="0.7796" style="stop-color:#FFB12D"/>
				<stop  offset="0.9673" style="stop-color:#FFC637"/>
				<stop  offset="1" style="stop-color:#FFCB39"/>
			</linearGradient>
			<path id="Path_637" class="st11" d="M56.3,0v27.9c-0.1,11.6-9.6,21-21.2,20.9c0,0,0,0,0,0c-11.6,0.1-21.2-9.3-21.2-20.9
				c0,0,0,0,0,0V0H56.3z"/>
		</g>
		<g>
			<path class="st5" d="M103.5,188.7C103.5,188.7,103.5,188.7,103.5,188.7c0.1,11.6,9.6,21,21.2,20.9c0,0,0,0,0,0
				c11.6,0.1,21.2-9.3,21.2-20.9v-27.9h-42.5V188.7z"/>
			<path class="st5" d="M189.1,188.7C189.1,188.7,189.1,188.7,189.1,188.7c0.1,11.6,9.6,21,21.2,20.9c0,0,0,0,0,0
				c11.6,0.1,21.1-9.3,21.2-20.9v-27.9h-42.5V188.7z"/>
			<path class="st5" d="M274.7,188.7C274.7,188.7,274.7,188.7,274.7,188.7c0.1,11.6,9.6,21,21.2,20.9c0,0,0,0,0,0
				c11.6,0.1,21.2-9.3,21.2-20.9v-27.9h-42.5V188.7z"/>
			<polygon class="st5" points="279.1,56.4 274.7,160.8 317.2,160.8 312.8,56.4 			"/>
			<path class="st5" d="M360.3,188.7C360.3,188.7,360.3,188.7,360.3,188.7c0.1,11.6,9.6,21,21.2,20.9c0,0,0,0,0,0
				c11.6,0.1,21.2-9.3,21.2-20.9v-27.9h-42.5V188.7z"/>
			<path class="st5" d="M445.9,160.8v27.9c0,0,0,0,0,0c0.1,11.6,9.6,21,21.2,20.9c0,0,0,0,0,0c11.6,0.1,21.2-9.3,21.2-20.9v-27.9
				H445.9z"/>
			<polygon class="st5" points="387.3,56.4 349.2,56.4 360.3,160.8 402.8,160.8 			"/>
			<path class="st5" d="M452,65.2c-2.1-5.4-7.3-8.9-13-8.9h-15.2l22.1,104.5h42.5L452,65.2z"/>
			<polygon class="st5" points="189.1,160.8 231.6,160.8 242.6,56.4 204.6,56.4 			"/>
			<path class="st5" d="M139.8,65.2l-36.3,95.6H146l22.1-104.5l-15.2,0C147.1,56.3,141.9,59.9,139.8,65.2z"/>
		</g>
		<g id="Group_988" transform="translate(0 216.263)">
			<path id="Rectangle_560" class="st12" d="M25.8,0h246.8c1.1,0,2,0.9,2,2v66c0,1.1-0.9,2-2,2H25.8c-1.1,0-2-0.9-2-2V2
				C23.8,0.9,24.7,0,25.8,0z"/>
			<path id="Rectangle_560-2" class="st5" d="M15.8,7h246.8c1.1,0,2,0.9,2,2v66c0,1.1-0.9,2-2,2H15.8c-1.1,0-2-0.9-2-2V9
				C13.8,7.9,14.7,7,15.8,7z"/>
			<g id="Group_987" transform="translate(27.743 19.381)">
				<ellipse id="Ellipse_171" class="st3" cx="36.8" cy="22.6" rx="23" ry="22.6"/>
				<g id="Group_986" transform="translate(61.097 4.2)">
					<path id="Rectangle_561" class="st3" d="M14.4,0H109c0.4,0,0.7,0.3,0.7,0.7v0v12.9c0,0.4-0.3,0.7-0.7,0.7c0,0,0,0,0,0H14.4
						c-0.4,0-0.7-0.3-0.7-0.7c0,0,0,0,0,0V0.7C13.8,0.3,14.1,0,14.4,0L14.4,0z"/>
					<path id="Rectangle_562" class="st3" d="M14.4,22.6h132.9c0.4,0,0.7,0.3,0.7,0.7v0v12.9c0,0.4-0.3,0.7-0.7,0.7c0,0,0,0,0,0
						H14.4c-0.4,0-0.7-0.3-0.7-0.7c0,0,0,0,0,0V23.3C13.8,22.9,14.1,22.6,14.4,22.6C14.4,22.6,14.4,22.6,14.4,22.6z"/>
				</g>
			</g>
		</g>
		<g id="Group_991" transform="translate(385.372 283.755)">
			<path id="Rectangle_563" class="st12" d="M24.8,0h181c1.1,0,2,0.9,2,2v47.7c0,1.1-0.9,2-2,2h-181c-1.1,0-2-0.9-2-2V2
				C22.8,0.9,23.7,0,24.8,0z"/>
			<path id="Rectangle_563-2" class="st5" d="M15.8,6h181c1.1,0,2,0.9,2,2v47.7c0,1.1-0.9,2-2,2h-181c-1.1,0-2-0.9-2-2V8
				C13.8,6.9,14.7,6,15.8,6z"/>
			<g id="Group_990" transform="translate(20.464 15.132)">
				<ellipse id="Ellipse_172" class="st3" cx="30.7" cy="16.7" rx="17" ry="16.7"/>
				<g id="Group_989" transform="translate(45.066 3.097)">
					<path id="Rectangle_564" class="st3" d="M14.4,0h69.4c0.4,0,0.7,0.3,0.7,0.7c0,0,0,0,0,0v9.2c0,0.4-0.3,0.7-0.7,0.7
						c0,0,0,0,0,0H14.4c-0.4,0-0.7-0.3-0.7-0.7V0.7C13.8,0.3,14.1,0,14.4,0z"/>
					<path id="Rectangle_565" class="st3" d="M14.4,16.7h97.7c0.4,0,0.7,0.3,0.7,0.7v9.2c0,0.4-0.3,0.7-0.7,0.7l0,0H14.4
						c-0.4,0-0.7-0.3-0.7-0.7v-9.2C13.8,17,14.1,16.7,14.4,16.7z"/>
				</g>
			</g>
		</g>
		<linearGradient id="Rectangle_566_1_" gradientUnits="userSpaceOnUse" x1="181.8584" y1="378.8704" x2="244.0291" y2="378.8704">
			<stop  offset="0" style="stop-color:#FF9520"/>
			<stop  offset="0.3366" style="stop-color:#FF9821"/>
			<stop  offset="0.5734" style="stop-color:#FFA126"/>
			<stop  offset="0.7796" style="stop-color:#FFB12D"/>
			<stop  offset="0.9673" style="stop-color:#FFC637"/>
			<stop  offset="1" style="stop-color:#FFCB39"/>
		</linearGradient>
		<path id="Rectangle_566" class="st13" d="M193.5,348.3h39c6.4-0.1,11.6,5.1,11.6,11.4V398c-0.1,6.4-5.3,11.5-11.6,11.4h-39
			c-6.4,0.1-11.6-5.1-11.6-11.4c0,0,0,0,0,0v-38.3C181.9,353.4,187.1,348.2,193.5,348.3z"/>
		<linearGradient id="Rectangle_567_1_" gradientUnits="userSpaceOnUse" x1="263.2214" y1="378.8704" x2="325.3921" y2="378.8704">
			<stop  offset="0" style="stop-color:#FF9520"/>
			<stop  offset="0.3366" style="stop-color:#FF9821"/>
			<stop  offset="0.5734" style="stop-color:#FFA126"/>
			<stop  offset="0.7796" style="stop-color:#FFB12D"/>
			<stop  offset="0.9673" style="stop-color:#FFC637"/>
			<stop  offset="1" style="stop-color:#FFCB39"/>
		</linearGradient>
		<path id="Rectangle_567" class="st14" d="M274.8,348.3h39c6.4-0.1,11.6,5.1,11.6,11.4V398c-0.1,6.4-5.3,11.5-11.6,11.4h-39
			c-6.4,0.1-11.6-5.1-11.6-11.4v-38.3C263.3,353.4,268.5,348.2,274.8,348.3z"/>
		<linearGradient id="Rectangle_568_1_" gradientUnits="userSpaceOnUse" x1="347.8765" y1="378.8704" x2="410.0483" y2="378.8704">
			<stop  offset="0" style="stop-color:#FF9520"/>
			<stop  offset="0.3366" style="stop-color:#FF9821"/>
			<stop  offset="0.5734" style="stop-color:#FFA126"/>
			<stop  offset="0.7796" style="stop-color:#FFB12D"/>
			<stop  offset="0.9673" style="stop-color:#FFC637"/>
			<stop  offset="1" style="stop-color:#FFCB39"/>
		</linearGradient>
		<path id="Rectangle_568" class="st15" d="M359.5,348.3h39c6.4-0.1,11.6,5.1,11.6,11.4V398c-0.1,6.4-5.3,11.5-11.6,11.4h-39
			c-6.4,0.1-11.6-5.1-11.6-11.4v-38.3C347.9,353.4,353.1,348.2,359.5,348.3z"/>
		<g id="Group_1445" transform="translate(246.811 0)">
			
				<linearGradient id="Ellipse_149_1_" gradientUnits="userSpaceOnUse" x1="-451.1501" y1="610.1682" x2="-451.1501" y2="609.1682" gradientTransform="matrix(85.16 0 0 -85.16 38476.293 51961.9219)">
				<stop  offset="0" style="stop-color:#FFA333"/>
				<stop  offset="1" style="stop-color:#FF8E55"/>
			</linearGradient>
			<circle id="Ellipse_149" class="st16" cx="56.3" cy="42.6" r="42.6"/>
			<path id="Rectangle_445" class="st3" d="M39.7,39.9h33.2c1.5,0,2.6,1.2,2.6,2.6c0,0,0,0,0,0l0,0c0,1.5-1.2,2.6-2.6,2.6l0,0H39.7
				c-1.5,0-2.6-1.2-2.6-2.6l0,0l0,0C37.1,41.1,38.3,39.9,39.7,39.9C39.7,39.9,39.7,39.9,39.7,39.9z"/>
			<path id="Rectangle_446" class="st3" d="M53.7,59.2V26c0-1.5,1.2-2.6,2.6-2.6c0,0,0,0,0,0l0,0c1.5,0,2.6,1.2,2.6,2.6l0,0v33.2
				c0,1.5-1.2,2.6-2.6,2.6l0,0l0,0C54.9,61.8,53.7,60.6,53.7,59.2C53.7,59.2,53.7,59.2,53.7,59.2z"/>
		</g>
		
			<linearGradient id="Path_2330_1_" gradientUnits="userSpaceOnUse" x1="-191.7435" y1="605.4729" x2="-190.6535" y2="605.4729" gradientTransform="matrix(11.1511 0 0 -25.8831 2311.717 16099.6621)">
			<stop  offset="0" style="stop-color:#FFE8E0"/>
			<stop  offset="1" style="stop-color:#FFB5AA"/>
		</linearGradient>
		<path id="Path_2330" class="st17" d="M205.9,420c-1.9,2.6-0.3,4.8-0.7,14.2c-0.1,2.5-0.3,4.5-0.5,5.9l10.7,1.1
			c0.1-5.3,0.4-25.9,0.4-25.9l0,0C215.7,415.3,208.7,416.3,205.9,420z"/>
		
			<linearGradient id="Path_2331_1_" gradientUnits="userSpaceOnUse" x1="-201.4859" y1="598.1589" x2="-201.4859" y2="597.1589" gradientTransform="matrix(38.8669 0 0 -11.2708 8055.1016 7172.2827)">
			<stop  offset="0" style="stop-color:#002A5E"/>
			<stop  offset="1" style="stop-color:#2541A3"/>
		</linearGradient>
		<path id="Path_2331" class="st18" d="M206.9,441.9h36.1c0.2,0,0.5-0.2,0.5-0.4c0-0.2-0.1-0.4-0.3-0.4l-29.7-10.2
			c-0.5-0.2-1-0.2-1.5-0.1l-6.6,0.9c-0.4,0.1-0.7,0.4-0.7,0.8l0.3,7.7C205,441.1,205.8,441.9,206.9,441.9z"/>
		
			<linearGradient id="Path_2332_1_" gradientUnits="userSpaceOnUse" x1="-171.299" y1="603.8268" x2="-170.87" y2="603.8268" gradientTransform="matrix(27.093 0 0 -20.3307 5513.1909 12661.5654)">
			<stop  offset="0" style="stop-color:#FFE8E0"/>
			<stop  offset="1" style="stop-color:#FFB5AA"/>
		</linearGradient>
		<path id="Path_2332" class="st19" d="M119.6,375.2c-3.3,0.2-4.1,2.7-12,8.3c-2.1,1.5-3.9,2.6-5.1,3.3l5.7,8.8l21.4-15.7l0,0
			C129.4,379.7,124.3,375,119.6,375.2z"/>
		
			<linearGradient id="Path_2333_1_" gradientUnits="userSpaceOnUse" x1="-198.0717" y1="607.5832" x2="-198.0717" y2="606.5832" gradientTransform="matrix(23.5486 0 0 -35.3195 4778.0005 21840.3398)">
			<stop  offset="0" style="stop-color:#002A5E"/>
			<stop  offset="1" style="stop-color:#2541A3"/>
		</linearGradient>
		<path id="Path_2333" class="st20" d="M102.4,388.6l22.3,27.3c0.2,0.2,0.5,0.2,0.7,0.1c0.1-0.1,0.2-0.3,0.2-0.5l-10-28.9
			c-0.2-0.5-0.4-0.9-0.8-1.2l-4.9-4.4c-0.3-0.3-0.8-0.3-1.1,0l-6.1,5C101.8,386.7,101.7,387.8,102.4,388.6z"/>
		
			<linearGradient id="Path_2334_1_" gradientUnits="userSpaceOnUse" x1="-204.9471" y1="611.071" x2="-204.9471" y2="610.149" gradientTransform="matrix(114.1233 0 0 -175.2781 23561.7344 107363.1797)">
			<stop  offset="0" style="stop-color:#002A5E"/>
			<stop  offset="1" style="stop-color:#2541A3"/>
		</linearGradient>
		<path id="Path_2334" class="st21" d="M183.2,258c-5,3.9-9,8.9-11.8,14.6c-0.8,1.6-2.8,5.6-6.5,23.8c-1.6,7.7-1.9,10.3-2.5,13.1
			c-5.5,23.6-10.3,30.5-26.4,47c-4.2,5.8-12.5,11.6-20.4,20.2c3.3,8.2,6.5,16.3,9.8,24.5c6.4-1.1,15.5-5,24.9-12.9
			c8.4-7,13.5-12.2,20.1-23.3c10.5-16.4,17.8-34.7,21.4-53.9c1.2-6.6,1.9-12.1,2.3-15.8c1.5,5.5,2.6,11.1,3.5,16.8
			c2,12.6,1.8,20.7,2.3,35.2c0.3,10.3,0.4,4.8,1.8,31.3c0.6,12,1.3,27.4,2,45.4l24.4,0.2c0.4-5.6,0.9-13.1,1.3-21.8
			c0.1-4,0.7-21.3-0.3-45.4c-0.9-22-1.5-35.5-4.3-52.9c-3-18.8-7.7-37.2-14.1-55.1C205.6,249,193.7,249.8,183.2,258z"/>
		
			<linearGradient id="Path_2335_1_" gradientUnits="userSpaceOnUse" x1="-203.5097" y1="608.822" x2="-204.3217" y2="610.033" gradientTransform="matrix(73.2549 0 0 -81.0759 15132.9561 49656.3945)">
			<stop  offset="0" style="stop-color:#969FE7"/>
			<stop  offset="0.544" style="stop-color:#7782DF"/>
			<stop  offset="1" style="stop-color:#626FDB"/>
		</linearGradient>
		<path id="Path_2335" class="st22" d="M225.3,264.3c-6.5,11.2-26.6,3.7-40.3,6.9c-3.2,0.7-8.1,3.2-16.2,3.8
			c-5,0.4-8.9-7.3-11.1-15.1c-4-14.6-0.3-28,2.9-35.9c0.9-2.3,2-4.5,3.3-6.7c0-0.1,0.1-0.2,0.1-0.2s0.1-0.2,0.1-0.2
			c2.7-4.3,8.8-13.8,20.9-19.3c0.1,0,0.2-0.1,0.3-0.1c3.5-1.5,7.2-2.6,10.9-3.2c9.6-1.6,18.8,4,21.9,13.2l6.4,19.2
			c0,0.1,0.1,0.3,0.1,0.5c0.4,1.9,2,5.5,3.1,10.2c0,0,0,0,0,0c0.7,2.6,1.1,5.3,1.2,8C229.6,252.5,227.8,259.9,225.3,264.3z"/>
		
			<linearGradient id="Path_2336_1_" gradientUnits="userSpaceOnUse" x1="-195.4399" y1="601.806" x2="-195.7829" y2="602.817" gradientTransform="matrix(18.6531 0 0 -17.3217 3852.5984 10626.0654)">
			<stop  offset="0" style="stop-color:#FFE8E0"/>
			<stop  offset="1" style="stop-color:#FFB5AA"/>
		</linearGradient>
		<path id="Path_2336" class="st23" d="M209,182.9c1.2,1.1-2.8,5-1.5,9.7c0.7,2.6,2.6,3.5,2,4.6c-0.7,1.3-4.5,1.4-7.2,1.1
			c-3.6-0.5-6.6-3.3-6.7-4.1c-0.4-3.5-5.3-11.5-4.7-12.2C192.9,180.1,208.1,182.1,209,182.9z"/>
		
			<linearGradient id="Ellipse_618_1_" gradientUnits="userSpaceOnUse" x1="-195.612" y1="604.0392" x2="-196.451" y2="604.5202" gradientTransform="matrix(19.268 0 0 -21.806 3982.6946 13357.2822)">
			<stop  offset="0" style="stop-color:#FFE8E0"/>
			<stop  offset="1" style="stop-color:#FFB5AA"/>
		</linearGradient>
		<ellipse id="Ellipse_618" class="st24" cx="203.3" cy="178.9" rx="9.6" ry="10.9"/>
		
			<linearGradient id="Path_2337_1_" gradientUnits="userSpaceOnUse" x1="-200.2036" y1="606.4854" x2="-199.2036" y2="606.4854" gradientTransform="matrix(29.0142 0 0 -31.1088 5991.3511 19044.8223)">
			<stop  offset="0" style="stop-color:#432929"/>
			<stop  offset="1" style="stop-color:#966565"/>
		</linearGradient>
		<path id="Path_2337" class="st25" d="M206.3,174.9c1.7-0.7,4.6-1.9,5.2-4.2c0.7-2.6-1.7-5.9-4.2-7.4c-5-2.9-12.2,0.9-15.9,3.9
			c-7.1,5.9-11.5,17.7-6.9,22.9c3.5,4,12.6,4.3,14.8,0.5c1.3-2.4-4.8-6-3.5-10.2c0.5-1.2,1.3-2.3,2.4-3
			C200.7,175.4,202.6,176.5,206.3,174.9z"/>
		
			<linearGradient id="Path_2339_1_" gradientUnits="userSpaceOnUse" x1="-203.6883" y1="608.5837" x2="-204.4593" y2="609.3447" gradientTransform="matrix(74.8333 0 0 -62.6104 15494.7666 38362.0469)">
			<stop  offset="0" style="stop-color:#969FE7"/>
			<stop  offset="1" style="stop-color:#626FDB"/>
		</linearGradient>
		<path id="Path_2339" class="st26" d="M265.6,262.6c-8.8,1-18.4,0.8-27.2-1.9c-13.6-4.1-23.9-12.4-31.5-21.2
			c-1.7-1.9-3.2-3.9-4.6-5.8c0-0.1-0.1-0.1-0.2-0.2c-0.1-0.1-0.1-0.2-0.1-0.2c-2.4-3.8-9.7-11.5-11.2-22.3c-0.8-5.7,5.4-8.8,5.4-8.8
			c3.5-2.1,9.3-2.4,11.7,0.1c9.6,10.2,11.3,24,29,35.1c10.2,6.4,20.8,8.4,23.9,9.5c0.8,0.3,1.7,0.6,2.5,0.8c0,2.9,0.3,5.7,0.8,8.5
			C264.5,258.4,264.9,260.5,265.6,262.6z"/>
		
			<linearGradient id="Path_2340_1_" gradientUnits="userSpaceOnUse" x1="-201.0207" y1="601.4666" x2="-200.0207" y2="601.4666" gradientTransform="matrix(32.8298 0 0 -15.5481 6862.9683 9606.8193)">
			<stop  offset="0" style="stop-color:#FFE8E0"/>
			<stop  offset="1" style="stop-color:#FFB5AA"/>
		</linearGradient>
		<path id="Path_2340" class="st27" d="M274,261.6c-2.6,0.6-5.4,1-8.2,1.3c-0.6-2.2-1.1-4.4-1.5-6.6c-0.5-3-0.8-5.9-0.8-8.9
			c3.1,1,6.3,1.8,9.5,2.3c12.1,2,20.6,0.3,22.8,1.4C298.8,252.7,288.5,258.5,274,261.6z"/>
		<g id="Group_1461" transform="translate(271.161 107.225)">
			
				<linearGradient id="Path_2322_1_" gradientUnits="userSpaceOnUse" x1="-468.2652" y1="499.3933" x2="-467.1352" y2="498.6473" gradientTransform="matrix(19.2192 0 0 -29.594 9117.0615 15081.4863)">
				<stop  offset="0" style="stop-color:#FFE8E0"/>
				<stop  offset="1" style="stop-color:#FFB5AA"/>
			</linearGradient>
			<path id="Path_2322" class="st28" d="M121.9,299.1c0.2,0.7-2.2,29.4-2.2,29.4l15,0.2l4.2-28L121.9,299.1z"/>
			
				<linearGradient id="Path_2323_1_" gradientUnits="userSpaceOnUse" x1="-467.645" y1="499.5076" x2="-467.645" y2="498.5076" gradientTransform="matrix(19.219 0 0 -29.595 9165.3604 15078.8008)">
				<stop  offset="0" style="stop-color:#FFE8E0"/>
				<stop  offset="1" style="stop-color:#FFB5AA"/>
			</linearGradient>
			<path id="Path_2323" class="st29" d="M185.1,295.9c-0.2,0.7,2.2,29.4,2.2,29.4l-15,0.2l-4.2-28L185.1,295.9z"/>
			
				<linearGradient id="Path_2324_1_" gradientUnits="userSpaceOnUse" x1="-473.7112" y1="490.7184" x2="-473.7112" y2="489.7184" gradientTransform="matrix(47.0811 0 0 -11.0901 22496.1133 5760.0703)">
				<stop  offset="0" style="stop-color:#002A5E"/>
				<stop  offset="1" style="stop-color:#2541A3"/>
			</linearGradient>
			<path id="Path_2324" class="st30" d="M174.3,318.7c4.5-1.4,10.7-0.5,16.7,0.4c8.5,1.2,16.9,3.5,24.8,6.8c2,0.9,0.9,2.3-1.9,2.6
				c-5.5,0.5-11,0.7-16.5,0.6c-8.5-0.1-16.9-1-25.3-2.7c-1.1-0.2-1.9-0.7-2.1-1.2C169,322.4,170.4,319.9,174.3,318.7z"/>
			
				<linearGradient id="Path_2325_1_" gradientUnits="userSpaceOnUse" x1="-474.1261" y1="504.3726" x2="-474.1261" y2="503.0155" gradientTransform="matrix(52.2629 0 0 -190.7 24916.6133 96227.6797)">
				<stop  offset="0" style="stop-color:#002A5E"/>
				<stop  offset="1" style="stop-color:#2541A3"/>
			</linearGradient>
			<path id="Path_2325" class="st31" d="M112.9,142.9c-0.5,56-1.1,112-1.6,168l27.2,2.8c8.4-63.6,16.7-127.1,25.1-190.7L112.9,142.9
				z"/>
			
				<linearGradient id="Path_2326_1_" gradientUnits="userSpaceOnUse" x1="-474.0435" y1="503.9459" x2="-474.0435" y2="502.9159" gradientTransform="matrix(51.1418 0 0 -182.301 24417.9785 91992.5156)">
				<stop  offset="0" style="stop-color:#002A5E"/>
				<stop  offset="1" style="stop-color:#2541A3"/>
			</linearGradient>
			<path id="Path_2326" class="st32" d="M149.7,136.9c-1.5,21.7-0.7,41.1,1.9,64.7c5,47,15.4,99.9,17.1,108.1l31.5-1.7
				c-6.5-60.2-13-120.4-19.5-180.6l-30.4,2.8C150.1,131.7,149.9,134,149.7,136.9z"/>
			
				<linearGradient id="Path_2327_1_" gradientUnits="userSpaceOnUse" x1="-473.6853" y1="492.2448" x2="-473.6853" y2="491.2448" gradientTransform="matrix(46.7917 0 0 -12.441 22280.5371 6445.2588)">
				<stop  offset="0" style="stop-color:#002A5E"/>
				<stop  offset="1" style="stop-color:#2541A3"/>
			</linearGradient>
			<path id="Path_2327" class="st33" d="M134.5,321.7c-4.6-1.1-10.7,0.1-16.6,1.3c-8.4,1.7-16.6,4.4-24.3,8.1c-2,1-0.8,2.4,2,2.5
				c5.5,0.2,11,0.1,16.5-0.3c8.5-0.6,16.8-1.9,25-4c1.1-0.3,1.9-0.8,2-1.3C140,325.1,138.4,322.7,134.5,321.7z"/>
			
				<linearGradient id="Path_2328_1_" gradientUnits="userSpaceOnUse" x1="-470.6458" y1="494.206" x2="-469.6458" y2="494.206" gradientTransform="matrix(25.4207 0 0 -15.4821 11970.8955 7799.0625)">
				<stop  offset="0" style="stop-color:#FFE8E0"/>
				<stop  offset="1" style="stop-color:#FFB5AA"/>
			</linearGradient>
			<path id="Path_2328" class="st34" d="M32.2,155.2c-3.2,0.2-6.5,0.3-9.7,0.2c-6.9-0.2-15.5-1.7-15.7-3.9
				c-0.2-2.4,8.3-5.1,19.1-11.5C27.1,145.4,29.2,150.6,32.2,155.2z"/>
			
				<linearGradient id="Path_2329_1_" gradientUnits="userSpaceOnUse" x1="-477.2094" y1="502.5964" x2="-476.2754" y2="503.1334" gradientTransform="matrix(180.8706 0 0 -119.8547 86356.5391 60379.1836)">
				<stop  offset="0" style="stop-color:#79C2F0"/>
				<stop  offset="0.178" style="stop-color:#6EB0ED"/>
				<stop  offset="0.439" style="stop-color:#629DEA"/>
				<stop  offset="0.708" style="stop-color:#5B92E8"/>
				<stop  offset="1" style="stop-color:#598FE8"/>
			</linearGradient>
			<path id="Path_2329" class="st35" d="M206.5,121.4c0,0.1,0,0.2,0,0.2c-0.1,1.6-0.2,3.1-0.4,4.7c0,0.1,0,0.1,0,0.2
				c-0.3,2.8-0.9,5.5-1.6,8.2c0,0.1,0,0.2-0.1,0.2c-0.2,0.8-0.5,1.6-0.7,2.3c0,0,0,0.1,0,0.1c-1.9,5.5-4.9,10.2-9.6,12.9
				c-2.6,1.5-5.5,2.2-8.4,2c-2.6-0.2-5.1-0.8-7.5-1.7c-10.1-3.4-22-10.6-39.3-6.1c-6.2,1.6-16.6,5.7-25.7,0.7
				c-2.6-1.4-4.8-3.3-6.5-5.8c-8.1-12.3,4.5-32,1.6-33.8c-2.1-1.2-8.7,8.6-16.6,16.4c-12.5,12.3-23,21.2-42.7,28.6
				c-4.5,1.7-11.2,4.4-16.7,4.8c-3-4.7-5.1-9.9-6.4-15.3c1.3-0.8,2.6-1.6,3.9-2.4c4.4-2.9,7.9-5.3,10.9-7.5
				c10.1-7.5,18.4-12.1,27.8-23.9C77.4,94.8,80.7,90,88.5,76.2c4.5-8,14-18.1,22.7-24.8c16.4-12.6,47.1-25.6,72.7-5.9
				c0.6,0.4,1.1,0.9,1.6,1.3c0.1,0,0.1,0.1,0.2,0.1c4.4,3.7,8.1,8.1,11,13.1c2.4,4.2,4.3,8.7,5.6,13.3c0,0,0,0,0,0.1
				c2.9,10.1,3.5,20.2,4,28.1C206.8,108.1,206.8,114.8,206.5,121.4z"/>
			
				<linearGradient id="Path_2338_1_" gradientUnits="userSpaceOnUse" x1="-472.7682" y1="502.3588" x2="-472.7682" y2="503.3588" gradientTransform="matrix(38.4224 0 0 -110.0768 18352.3691 55453.3086)">
				<stop  offset="0" style="stop-color:#79C2F0"/>
				<stop  offset="0.713" style="stop-color:#598FE8"/>
			</linearGradient>
			<path id="Path_2338" class="st36" d="M206.5,121.4c0,0.1,0,0.2,0,0.2c-0.1,1.6-0.2,3.1-0.4,4.7c0,0.1,0,0.1,0,0.2
				c-0.3,2.8-0.9,5.5-1.6,8.2c0,0.1,0,0.2-0.1,0.3c-0.2,0.8-0.5,1.6-0.7,2.3c0,0,0,0.1,0,0.1c-2,6.2-4.7,12.3-7.9,18l-17.5-7.2
				c1.4-16.1-1.9-32.2-5.9-52.2c-3.2-16.1-6.7-26.6-1.4-38.8c1.4-3.2,5-11.4,10.4-11.8c0,0,0,0,0,0c1.3,0,2.6,0.4,3.5,1.2
				c0.2,0.1,0.4,0.3,0.5,0.4c0.1,0,0.1,0.1,0.2,0.1c4.4,3.7,8.1,8.1,11,13.1c2.2,4.3,4.1,8.7,5.6,13.3c0,0,0,0,0,0.1
				c2.9,10.1,3.5,20.2,4,28.1C206.8,108.1,206.8,114.8,206.5,121.4z"/>
			
				<linearGradient id="Path_2341_1_" gradientUnits="userSpaceOnUse" x1="-470.7564" y1="499.7204" x2="-470.7564" y2="500.7204" gradientTransform="matrix(27.595 0 0 -38.4475 13172.4717 19399.5117)">
				<stop  offset="0" style="stop-color:#FFE8E0"/>
				<stop  offset="1" style="stop-color:#FFB5AA"/>
			</linearGradient>
			<path id="Path_2341" class="st37" d="M195.8,155.3c-2,3.7-4.1,6.9-5.9,9.5c-1.9,2.8-3.5,4.9-4.6,6.3
				c-4.9,6.4-14.1,16.8-16.6,15.3c-2.2-1.3,4-10.9,7.5-25c0.2-0.7,0.3-1.4,0.5-2c0.7-2.9,1.2-5.9,1.5-8.9c0.1-0.8,0.2-1.6,0.2-2.4
				L195.8,155.3z"/>
			<g id="Group_1325" transform="translate(128.636 3.175)">
				
					<linearGradient id="Path_2342_1_" gradientUnits="userSpaceOnUse" x1="-595.918" y1="492.7706" x2="-595.113" y2="493.3086" gradientTransform="matrix(17.6663 0 0 -19.444 10539.5117 9615.9424)">
					<stop  offset="0" style="stop-color:#FFE8E0"/>
					<stop  offset="1" style="stop-color:#FFB5AA"/>
				</linearGradient>
				<path id="Path_2342" class="st38" d="M15.1,19.3c-1.5,1.1,2.4,5.1,0.4,10.4c-1.1,2.9-3.4,4.6-2.9,5.9c0.6,1.6,9.5,3.6,12.2,2
					c2.5-1.4,3.9-2.4,4.3-4.4c0.7-4,1.5-11.5,0.8-12.3C28.1,18.4,16.3,18.4,15.1,19.3z"/>
				
					<linearGradient id="Ellipse_619_1_" gradientUnits="userSpaceOnUse" x1="-671.1559" y1="533.8989" x2="-671.9949" y2="534.3799" gradientTransform="matrix(21.3661 -5.9178 -6.6969 -24.179 16138.8232 8385.8506)">
					<stop  offset="0" style="stop-color:#FFE8E0"/>
					<stop  offset="1" style="stop-color:#FFB5AA"/>
				</linearGradient>
				<path id="Ellipse_619" class="st39" d="M17.5,2.9c5.9-1.6,12.2,2.5,14,9.1c1.8,6.7-1.4,13.4-7.3,15c-5.9,1.6-12.2-2.5-14-9.1
					S11.6,4.5,17.5,2.9z"/>
			</g>
			
				<linearGradient id="Path_2343_1_" gradientUnits="userSpaceOnUse" x1="-471.6017" y1="498.5763" x2="-470.6017" y2="497.5763" gradientTransform="matrix(29.0906 0 0 -25.0607 13854.5693 12493.999)">
				<stop  offset="0" style="stop-color:#432929"/>
				<stop  offset="1" style="stop-color:#966565"/>
			</linearGradient>
			<path id="Path_2343" class="st40" d="M158.7,24.9c1.2,0.2,2.9-3.2,3.8-5.4c0.9-2.4,2.2-6.3,0.8-9.7c-0.5-1.1-1.6-3.1-13.5-7.1
				c-11.4-3.9-13.2-3-14-2.2c-1.2,1.2-1,3.2-0.8,5.7c0.2,1.9,0.9,9.2,6.9,12.1c3,1.5,7.2,2.3,8.5,0.7c0.7-0.8,0.2-1.7,1.1-2.7
				c1-1.1,3.1-1.6,4.2-0.8c0.9,0.6,0.5,1.7,1.1,4.6C157.3,22.5,157.7,24.8,158.7,24.9z"/>
		</g>
	</g>
</g>
</svg>
